G04 #@! TF.GenerationSoftware,KiCad,Pcbnew,(5.1.5)-3*
G04 #@! TF.CreationDate,2022-12-24T19:01:33+01:00*
G04 #@! TF.ProjectId,SNES controller protoboard,534e4553-2063-46f6-9e74-726f6c6c6572,rev?*
G04 #@! TF.SameCoordinates,Original*
G04 #@! TF.FileFunction,Legend,Bot*
G04 #@! TF.FilePolarity,Positive*
%FSLAX46Y46*%
G04 Gerber Fmt 4.6, Leading zero omitted, Abs format (unit mm)*
G04 Created by KiCad (PCBNEW (5.1.5)-3) date 2022-12-24 19:01:33*
%MOMM*%
%LPD*%
G04 APERTURE LIST*
%ADD10C,0.100000*%
%ADD11C,0.150000*%
%ADD12C,0.120000*%
%ADD13C,1.902000*%
G04 APERTURE END LIST*
D10*
X1778000Y-46990000D02*
X1778000Y-48387000D01*
X10414000Y-48387000D02*
X1778000Y-48387000D01*
X10414000Y-48387000D02*
X10414000Y-46990000D01*
X1778000Y-46990000D02*
X10414000Y-46990000D01*
D11*
X9791238Y-47313904D02*
X9791238Y-47885333D01*
X9829333Y-47999619D01*
X9905523Y-48075809D01*
X10019809Y-48113904D01*
X10096000Y-48113904D01*
X9029333Y-48113904D02*
X9410285Y-48113904D01*
X9410285Y-47313904D01*
X8305523Y-48037714D02*
X8343619Y-48075809D01*
X8457904Y-48113904D01*
X8534095Y-48113904D01*
X8648380Y-48075809D01*
X8724571Y-47999619D01*
X8762666Y-47923428D01*
X8800761Y-47771047D01*
X8800761Y-47656761D01*
X8762666Y-47504380D01*
X8724571Y-47428190D01*
X8648380Y-47352000D01*
X8534095Y-47313904D01*
X8457904Y-47313904D01*
X8343619Y-47352000D01*
X8305523Y-47390095D01*
X7734095Y-47313904D02*
X7734095Y-47885333D01*
X7772190Y-47999619D01*
X7848380Y-48075809D01*
X7962666Y-48113904D01*
X8038857Y-48113904D01*
X6972190Y-48113904D02*
X7353142Y-48113904D01*
X7353142Y-47313904D01*
X6248380Y-48037714D02*
X6286476Y-48075809D01*
X6400761Y-48113904D01*
X6476952Y-48113904D01*
X6591238Y-48075809D01*
X6667428Y-47999619D01*
X6705523Y-47923428D01*
X6743619Y-47771047D01*
X6743619Y-47656761D01*
X6705523Y-47504380D01*
X6667428Y-47428190D01*
X6591238Y-47352000D01*
X6476952Y-47313904D01*
X6400761Y-47313904D01*
X6286476Y-47352000D01*
X6248380Y-47390095D01*
X5676952Y-47313904D02*
X5676952Y-47885333D01*
X5715047Y-47999619D01*
X5791238Y-48075809D01*
X5905523Y-48113904D01*
X5981714Y-48113904D01*
X4915047Y-48113904D02*
X5296000Y-48113904D01*
X5296000Y-47313904D01*
X4191238Y-48037714D02*
X4229333Y-48075809D01*
X4343619Y-48113904D01*
X4419809Y-48113904D01*
X4534095Y-48075809D01*
X4610285Y-47999619D01*
X4648380Y-47923428D01*
X4686476Y-47771047D01*
X4686476Y-47656761D01*
X4648380Y-47504380D01*
X4610285Y-47428190D01*
X4534095Y-47352000D01*
X4419809Y-47313904D01*
X4343619Y-47313904D01*
X4229333Y-47352000D01*
X4191238Y-47390095D01*
X3619809Y-47313904D02*
X3619809Y-47885333D01*
X3657904Y-47999619D01*
X3734095Y-48075809D01*
X3848380Y-48113904D01*
X3924571Y-48113904D01*
X2857904Y-48113904D02*
X3238857Y-48113904D01*
X3238857Y-47313904D01*
X2134095Y-48037714D02*
X2172190Y-48075809D01*
X2286476Y-48113904D01*
X2362666Y-48113904D01*
X2476952Y-48075809D01*
X2553142Y-47999619D01*
X2591238Y-47923428D01*
X2629333Y-47771047D01*
X2629333Y-47656761D01*
X2591238Y-47504380D01*
X2553142Y-47428190D01*
X2476952Y-47352000D01*
X2362666Y-47313904D01*
X2286476Y-47313904D01*
X2172190Y-47352000D01*
X2134095Y-47390095D01*
D10*
X123690157Y-2482857D02*
X123575871Y-2520952D01*
X123537776Y-2559047D01*
X123499680Y-2635238D01*
X123499680Y-2749523D01*
X123537776Y-2825714D01*
X123575871Y-2863809D01*
X123652061Y-2901904D01*
X123956823Y-2901904D01*
X123956823Y-2101904D01*
X123690157Y-2101904D01*
X123613966Y-2140000D01*
X123575871Y-2178095D01*
X123537776Y-2254285D01*
X123537776Y-2330476D01*
X123575871Y-2406666D01*
X123613966Y-2444761D01*
X123690157Y-2482857D01*
X123956823Y-2482857D01*
X123918728Y-10102857D02*
X123652061Y-10102857D01*
X123537776Y-10521904D02*
X123918728Y-10521904D01*
X123918728Y-9721904D01*
X123537776Y-9721904D01*
X124255276Y-133333D02*
X123874323Y-133333D01*
X124331466Y-361904D02*
X124064800Y438095D01*
X123798133Y-361904D01*
X123633014Y-12642857D02*
X123899680Y-12642857D01*
X123899680Y-13061904D02*
X123899680Y-12261904D01*
X123518728Y-12261904D01*
X123633014Y-22421904D02*
X123633014Y-22993333D01*
X123671109Y-23107619D01*
X123747300Y-23183809D01*
X123861585Y-23221904D01*
X123937776Y-23221904D01*
X123747300Y-20681904D02*
X123747300Y-19881904D01*
X124293371Y-46043809D02*
X124179085Y-46081904D01*
X123988609Y-46081904D01*
X123912419Y-46043809D01*
X123874323Y-46005714D01*
X123836228Y-45929523D01*
X123836228Y-45853333D01*
X123874323Y-45777142D01*
X123912419Y-45739047D01*
X123988609Y-45700952D01*
X124140990Y-45662857D01*
X124217180Y-45624761D01*
X124255276Y-45586666D01*
X124293371Y-45510476D01*
X124293371Y-45434285D01*
X124255276Y-45358095D01*
X124217180Y-45320000D01*
X124140990Y-45281904D01*
X123950514Y-45281904D01*
X123836228Y-45320000D01*
X123499680Y-5365714D02*
X123537776Y-5403809D01*
X123652061Y-5441904D01*
X123728252Y-5441904D01*
X123842538Y-5403809D01*
X123918728Y-5327619D01*
X123956823Y-5251428D01*
X123994919Y-5099047D01*
X123994919Y-4984761D01*
X123956823Y-4832380D01*
X123918728Y-4756190D01*
X123842538Y-4680000D01*
X123728252Y-4641904D01*
X123652061Y-4641904D01*
X123537776Y-4680000D01*
X123499680Y-4718095D01*
X123442538Y-41078095D02*
X123518728Y-41040000D01*
X123594919Y-40963809D01*
X123709204Y-40849523D01*
X123785395Y-40811428D01*
X123861585Y-40811428D01*
X123823490Y-41001904D02*
X123899680Y-40963809D01*
X123975871Y-40887619D01*
X124013966Y-40735238D01*
X124013966Y-40468571D01*
X123975871Y-40316190D01*
X123899680Y-40240000D01*
X123823490Y-40201904D01*
X123671109Y-40201904D01*
X123594919Y-40240000D01*
X123518728Y-40316190D01*
X123480633Y-40468571D01*
X123480633Y-40735238D01*
X123518728Y-40887619D01*
X123594919Y-40963809D01*
X123671109Y-41001904D01*
X123823490Y-41001904D01*
X123956823Y-38461904D02*
X123956823Y-37661904D01*
X123652061Y-37661904D01*
X123575871Y-37700000D01*
X123537776Y-37738095D01*
X123499680Y-37814285D01*
X123499680Y-37928571D01*
X123537776Y-38004761D01*
X123575871Y-38042857D01*
X123652061Y-38080952D01*
X123956823Y-38080952D01*
X123956823Y-25761904D02*
X123956823Y-24961904D01*
X123499680Y-25761904D02*
X123842538Y-25304761D01*
X123499680Y-24961904D02*
X123956823Y-25419047D01*
X123499680Y-43541904D02*
X123766347Y-43160952D01*
X123956823Y-43541904D02*
X123956823Y-42741904D01*
X123652061Y-42741904D01*
X123575871Y-42780000D01*
X123537776Y-42818095D01*
X123499680Y-42894285D01*
X123499680Y-43008571D01*
X123537776Y-43084761D01*
X123575871Y-43122857D01*
X123652061Y-43160952D01*
X123956823Y-43160952D01*
X123975871Y-33381904D02*
X123975871Y-32581904D01*
X123518728Y-33381904D01*
X123518728Y-32581904D01*
X123956823Y-7981904D02*
X123956823Y-7181904D01*
X123766347Y-7181904D01*
X123652061Y-7220000D01*
X123575871Y-7296190D01*
X123537776Y-7372380D01*
X123499680Y-7524761D01*
X123499680Y-7639047D01*
X123537776Y-7791428D01*
X123575871Y-7867619D01*
X123652061Y-7943809D01*
X123766347Y-7981904D01*
X123956823Y-7981904D01*
X124013966Y-30841904D02*
X124013966Y-30041904D01*
X123747300Y-30613333D01*
X123480633Y-30041904D01*
X123480633Y-30841904D01*
X123537776Y-14840000D02*
X123613966Y-14801904D01*
X123728252Y-14801904D01*
X123842538Y-14840000D01*
X123918728Y-14916190D01*
X123956823Y-14992380D01*
X123994919Y-15144761D01*
X123994919Y-15259047D01*
X123956823Y-15411428D01*
X123918728Y-15487619D01*
X123842538Y-15563809D01*
X123728252Y-15601904D01*
X123652061Y-15601904D01*
X123537776Y-15563809D01*
X123499680Y-15525714D01*
X123499680Y-15259047D01*
X123652061Y-15259047D01*
X123823490Y-35121904D02*
X123671109Y-35121904D01*
X123594919Y-35160000D01*
X123518728Y-35236190D01*
X123480633Y-35388571D01*
X123480633Y-35655238D01*
X123518728Y-35807619D01*
X123594919Y-35883809D01*
X123671109Y-35921904D01*
X123823490Y-35921904D01*
X123899680Y-35883809D01*
X123975871Y-35807619D01*
X124013966Y-35655238D01*
X124013966Y-35388571D01*
X123975871Y-35236190D01*
X123899680Y-35160000D01*
X123823490Y-35121904D01*
X123499680Y-28301904D02*
X123880633Y-28301904D01*
X123880633Y-27501904D01*
X123975871Y-18141904D02*
X123975871Y-17341904D01*
X123975871Y-17722857D02*
X123518728Y-17722857D01*
X123518728Y-18141904D02*
X123518728Y-17341904D01*
X38252380Y-48094904D02*
X38709523Y-48094904D01*
X38480952Y-48094904D02*
X38480952Y-47294904D01*
X38557142Y-47409190D01*
X38633333Y-47485380D01*
X38709523Y-47523476D01*
X37566666Y-47294904D02*
X37719047Y-47294904D01*
X37795238Y-47333000D01*
X37833333Y-47371095D01*
X37909523Y-47485380D01*
X37947619Y-47637761D01*
X37947619Y-47942523D01*
X37909523Y-48018714D01*
X37871428Y-48056809D01*
X37795238Y-48094904D01*
X37642857Y-48094904D01*
X37566666Y-48056809D01*
X37528571Y-48018714D01*
X37490476Y-47942523D01*
X37490476Y-47752047D01*
X37528571Y-47675857D01*
X37566666Y-47637761D01*
X37642857Y-47599666D01*
X37795238Y-47599666D01*
X37871428Y-47637761D01*
X37909523Y-47675857D01*
X37947619Y-47752047D01*
X76847619Y-47294904D02*
X76352380Y-47294904D01*
X76619047Y-47599666D01*
X76504761Y-47599666D01*
X76428571Y-47637761D01*
X76390476Y-47675857D01*
X76352380Y-47752047D01*
X76352380Y-47942523D01*
X76390476Y-48018714D01*
X76428571Y-48056809D01*
X76504761Y-48094904D01*
X76733333Y-48094904D01*
X76809523Y-48056809D01*
X76847619Y-48018714D01*
X75590476Y-48094904D02*
X76047619Y-48094904D01*
X75819047Y-48094904D02*
X75819047Y-47294904D01*
X75895238Y-47409190D01*
X75971428Y-47485380D01*
X76047619Y-47523476D01*
X66649523Y-47371095D02*
X66611428Y-47333000D01*
X66535238Y-47294904D01*
X66344761Y-47294904D01*
X66268571Y-47333000D01*
X66230476Y-47371095D01*
X66192380Y-47447285D01*
X66192380Y-47523476D01*
X66230476Y-47637761D01*
X66687619Y-48094904D01*
X66192380Y-48094904D01*
X65925714Y-47294904D02*
X65392380Y-47294904D01*
X65735238Y-48094904D01*
X12547619Y-47294904D02*
X12700000Y-47294904D01*
X12776190Y-47333000D01*
X12814285Y-47371095D01*
X12890476Y-47485380D01*
X12928571Y-47637761D01*
X12928571Y-47942523D01*
X12890476Y-48018714D01*
X12852380Y-48056809D01*
X12776190Y-48094904D01*
X12623809Y-48094904D01*
X12547619Y-48056809D01*
X12509523Y-48018714D01*
X12471428Y-47942523D01*
X12471428Y-47752047D01*
X12509523Y-47675857D01*
X12547619Y-47637761D01*
X12623809Y-47599666D01*
X12776190Y-47599666D01*
X12852380Y-47637761D01*
X12890476Y-47675857D01*
X12928571Y-47752047D01*
X43332380Y-48094904D02*
X43789523Y-48094904D01*
X43560952Y-48094904D02*
X43560952Y-47294904D01*
X43637142Y-47409190D01*
X43713333Y-47485380D01*
X43789523Y-47523476D01*
X42875238Y-47637761D02*
X42951428Y-47599666D01*
X42989523Y-47561571D01*
X43027619Y-47485380D01*
X43027619Y-47447285D01*
X42989523Y-47371095D01*
X42951428Y-47333000D01*
X42875238Y-47294904D01*
X42722857Y-47294904D01*
X42646666Y-47333000D01*
X42608571Y-47371095D01*
X42570476Y-47447285D01*
X42570476Y-47485380D01*
X42608571Y-47561571D01*
X42646666Y-47599666D01*
X42722857Y-47637761D01*
X42875238Y-47637761D01*
X42951428Y-47675857D01*
X42989523Y-47713952D01*
X43027619Y-47790142D01*
X43027619Y-47942523D01*
X42989523Y-48018714D01*
X42951428Y-48056809D01*
X42875238Y-48094904D01*
X42722857Y-48094904D01*
X42646666Y-48056809D01*
X42608571Y-48018714D01*
X42570476Y-47942523D01*
X42570476Y-47790142D01*
X42608571Y-47713952D01*
X42646666Y-47675857D01*
X42722857Y-47637761D01*
X45872380Y-48094904D02*
X46329523Y-48094904D01*
X46100952Y-48094904D02*
X46100952Y-47294904D01*
X46177142Y-47409190D01*
X46253333Y-47485380D01*
X46329523Y-47523476D01*
X45491428Y-48094904D02*
X45339047Y-48094904D01*
X45262857Y-48056809D01*
X45224761Y-48018714D01*
X45148571Y-47904428D01*
X45110476Y-47752047D01*
X45110476Y-47447285D01*
X45148571Y-47371095D01*
X45186666Y-47333000D01*
X45262857Y-47294904D01*
X45415238Y-47294904D01*
X45491428Y-47333000D01*
X45529523Y-47371095D01*
X45567619Y-47447285D01*
X45567619Y-47637761D01*
X45529523Y-47713952D01*
X45491428Y-47752047D01*
X45415238Y-47790142D01*
X45262857Y-47790142D01*
X45186666Y-47752047D01*
X45148571Y-47713952D01*
X45110476Y-47637761D01*
X92087619Y-47294904D02*
X91592380Y-47294904D01*
X91859047Y-47599666D01*
X91744761Y-47599666D01*
X91668571Y-47637761D01*
X91630476Y-47675857D01*
X91592380Y-47752047D01*
X91592380Y-47942523D01*
X91630476Y-48018714D01*
X91668571Y-48056809D01*
X91744761Y-48094904D01*
X91973333Y-48094904D01*
X92049523Y-48056809D01*
X92087619Y-48018714D01*
X91325714Y-47294904D02*
X90792380Y-47294904D01*
X91135238Y-48094904D01*
X117068571Y-47561571D02*
X117068571Y-48094904D01*
X117259047Y-47256809D02*
X117449523Y-47828238D01*
X116954285Y-47828238D01*
X116725714Y-47294904D02*
X116192380Y-47294904D01*
X116535238Y-48094904D01*
X23012380Y-48094904D02*
X23469523Y-48094904D01*
X23240952Y-48094904D02*
X23240952Y-47294904D01*
X23317142Y-47409190D01*
X23393333Y-47485380D01*
X23469523Y-47523476D01*
X22517142Y-47294904D02*
X22440952Y-47294904D01*
X22364761Y-47333000D01*
X22326666Y-47371095D01*
X22288571Y-47447285D01*
X22250476Y-47599666D01*
X22250476Y-47790142D01*
X22288571Y-47942523D01*
X22326666Y-48018714D01*
X22364761Y-48056809D01*
X22440952Y-48094904D01*
X22517142Y-48094904D01*
X22593333Y-48056809D01*
X22631428Y-48018714D01*
X22669523Y-47942523D01*
X22707619Y-47790142D01*
X22707619Y-47599666D01*
X22669523Y-47447285D01*
X22631428Y-47371095D01*
X22593333Y-47333000D01*
X22517142Y-47294904D01*
X94627619Y-47294904D02*
X94132380Y-47294904D01*
X94399047Y-47599666D01*
X94284761Y-47599666D01*
X94208571Y-47637761D01*
X94170476Y-47675857D01*
X94132380Y-47752047D01*
X94132380Y-47942523D01*
X94170476Y-48018714D01*
X94208571Y-48056809D01*
X94284761Y-48094904D01*
X94513333Y-48094904D01*
X94589523Y-48056809D01*
X94627619Y-48018714D01*
X93675238Y-47637761D02*
X93751428Y-47599666D01*
X93789523Y-47561571D01*
X93827619Y-47485380D01*
X93827619Y-47447285D01*
X93789523Y-47371095D01*
X93751428Y-47333000D01*
X93675238Y-47294904D01*
X93522857Y-47294904D01*
X93446666Y-47333000D01*
X93408571Y-47371095D01*
X93370476Y-47447285D01*
X93370476Y-47485380D01*
X93408571Y-47561571D01*
X93446666Y-47599666D01*
X93522857Y-47637761D01*
X93675238Y-47637761D01*
X93751428Y-47675857D01*
X93789523Y-47713952D01*
X93827619Y-47790142D01*
X93827619Y-47942523D01*
X93789523Y-48018714D01*
X93751428Y-48056809D01*
X93675238Y-48094904D01*
X93522857Y-48094904D01*
X93446666Y-48056809D01*
X93408571Y-48018714D01*
X93370476Y-47942523D01*
X93370476Y-47790142D01*
X93408571Y-47713952D01*
X93446666Y-47675857D01*
X93522857Y-47637761D01*
X104368571Y-47561571D02*
X104368571Y-48094904D01*
X104559047Y-47256809D02*
X104749523Y-47828238D01*
X104254285Y-47828238D01*
X103987619Y-47371095D02*
X103949523Y-47333000D01*
X103873333Y-47294904D01*
X103682857Y-47294904D01*
X103606666Y-47333000D01*
X103568571Y-47371095D01*
X103530476Y-47447285D01*
X103530476Y-47523476D01*
X103568571Y-47637761D01*
X104025714Y-48094904D01*
X103530476Y-48094904D01*
X25552380Y-48094904D02*
X26009523Y-48094904D01*
X25780952Y-48094904D02*
X25780952Y-47294904D01*
X25857142Y-47409190D01*
X25933333Y-47485380D01*
X26009523Y-47523476D01*
X24790476Y-48094904D02*
X25247619Y-48094904D01*
X25019047Y-48094904D02*
X25019047Y-47294904D01*
X25095238Y-47409190D01*
X25171428Y-47485380D01*
X25247619Y-47523476D01*
X28092380Y-48094904D02*
X28549523Y-48094904D01*
X28320952Y-48094904D02*
X28320952Y-47294904D01*
X28397142Y-47409190D01*
X28473333Y-47485380D01*
X28549523Y-47523476D01*
X27787619Y-47371095D02*
X27749523Y-47333000D01*
X27673333Y-47294904D01*
X27482857Y-47294904D01*
X27406666Y-47333000D01*
X27368571Y-47371095D01*
X27330476Y-47447285D01*
X27330476Y-47523476D01*
X27368571Y-47637761D01*
X27825714Y-48094904D01*
X27330476Y-48094904D01*
X71729523Y-47371095D02*
X71691428Y-47333000D01*
X71615238Y-47294904D01*
X71424761Y-47294904D01*
X71348571Y-47333000D01*
X71310476Y-47371095D01*
X71272380Y-47447285D01*
X71272380Y-47523476D01*
X71310476Y-47637761D01*
X71767619Y-48094904D01*
X71272380Y-48094904D01*
X70891428Y-48094904D02*
X70739047Y-48094904D01*
X70662857Y-48056809D01*
X70624761Y-48018714D01*
X70548571Y-47904428D01*
X70510476Y-47752047D01*
X70510476Y-47447285D01*
X70548571Y-47371095D01*
X70586666Y-47333000D01*
X70662857Y-47294904D01*
X70815238Y-47294904D01*
X70891428Y-47333000D01*
X70929523Y-47371095D01*
X70967619Y-47447285D01*
X70967619Y-47637761D01*
X70929523Y-47713952D01*
X70891428Y-47752047D01*
X70815238Y-47790142D01*
X70662857Y-47790142D01*
X70586666Y-47752047D01*
X70548571Y-47713952D01*
X70510476Y-47637761D01*
X101828571Y-47561571D02*
X101828571Y-48094904D01*
X102019047Y-47256809D02*
X102209523Y-47828238D01*
X101714285Y-47828238D01*
X100990476Y-48094904D02*
X101447619Y-48094904D01*
X101219047Y-48094904D02*
X101219047Y-47294904D01*
X101295238Y-47409190D01*
X101371428Y-47485380D01*
X101447619Y-47523476D01*
X99288571Y-47561571D02*
X99288571Y-48094904D01*
X99479047Y-47256809D02*
X99669523Y-47828238D01*
X99174285Y-47828238D01*
X98717142Y-47294904D02*
X98640952Y-47294904D01*
X98564761Y-47333000D01*
X98526666Y-47371095D01*
X98488571Y-47447285D01*
X98450476Y-47599666D01*
X98450476Y-47790142D01*
X98488571Y-47942523D01*
X98526666Y-48018714D01*
X98564761Y-48056809D01*
X98640952Y-48094904D01*
X98717142Y-48094904D01*
X98793333Y-48056809D01*
X98831428Y-48018714D01*
X98869523Y-47942523D01*
X98907619Y-47790142D01*
X98907619Y-47599666D01*
X98869523Y-47447285D01*
X98831428Y-47371095D01*
X98793333Y-47333000D01*
X98717142Y-47294904D01*
X33172380Y-48094904D02*
X33629523Y-48094904D01*
X33400952Y-48094904D02*
X33400952Y-47294904D01*
X33477142Y-47409190D01*
X33553333Y-47485380D01*
X33629523Y-47523476D01*
X32486666Y-47561571D02*
X32486666Y-48094904D01*
X32677142Y-47256809D02*
X32867619Y-47828238D01*
X32372380Y-47828238D01*
X81927619Y-47294904D02*
X81432380Y-47294904D01*
X81699047Y-47599666D01*
X81584761Y-47599666D01*
X81508571Y-47637761D01*
X81470476Y-47675857D01*
X81432380Y-47752047D01*
X81432380Y-47942523D01*
X81470476Y-48018714D01*
X81508571Y-48056809D01*
X81584761Y-48094904D01*
X81813333Y-48094904D01*
X81889523Y-48056809D01*
X81927619Y-48018714D01*
X81165714Y-47294904D02*
X80670476Y-47294904D01*
X80937142Y-47599666D01*
X80822857Y-47599666D01*
X80746666Y-47637761D01*
X80708571Y-47675857D01*
X80670476Y-47752047D01*
X80670476Y-47942523D01*
X80708571Y-48018714D01*
X80746666Y-48056809D01*
X80822857Y-48094904D01*
X81051428Y-48094904D01*
X81127619Y-48056809D01*
X81165714Y-48018714D01*
X56489523Y-47371095D02*
X56451428Y-47333000D01*
X56375238Y-47294904D01*
X56184761Y-47294904D01*
X56108571Y-47333000D01*
X56070476Y-47371095D01*
X56032380Y-47447285D01*
X56032380Y-47523476D01*
X56070476Y-47637761D01*
X56527619Y-48094904D01*
X56032380Y-48094904D01*
X55765714Y-47294904D02*
X55270476Y-47294904D01*
X55537142Y-47599666D01*
X55422857Y-47599666D01*
X55346666Y-47637761D01*
X55308571Y-47675857D01*
X55270476Y-47752047D01*
X55270476Y-47942523D01*
X55308571Y-48018714D01*
X55346666Y-48056809D01*
X55422857Y-48094904D01*
X55651428Y-48094904D01*
X55727619Y-48056809D01*
X55765714Y-48018714D01*
X122148571Y-47942571D02*
X122148571Y-48475904D01*
X122339047Y-47637809D02*
X122529523Y-48209238D01*
X122034285Y-48209238D01*
X121691428Y-48475904D02*
X121539047Y-48475904D01*
X121462857Y-48437809D01*
X121424761Y-48399714D01*
X121348571Y-48285428D01*
X121310476Y-48133047D01*
X121310476Y-47828285D01*
X121348571Y-47752095D01*
X121386666Y-47714000D01*
X121462857Y-47675904D01*
X121615238Y-47675904D01*
X121691428Y-47714000D01*
X121729523Y-47752095D01*
X121767619Y-47828285D01*
X121767619Y-48018761D01*
X121729523Y-48094952D01*
X121691428Y-48133047D01*
X121615238Y-48171142D01*
X121462857Y-48171142D01*
X121386666Y-48133047D01*
X121348571Y-48094952D01*
X121310476Y-48018761D01*
X-228571Y-48475904D02*
X228571Y-48475904D01*
X0Y-48475904D02*
X0Y-47675904D01*
X76190Y-47790190D01*
X152380Y-47866380D01*
X228571Y-47904476D01*
X17856190Y-47637761D02*
X17932380Y-47599666D01*
X17970476Y-47561571D01*
X18008571Y-47485380D01*
X18008571Y-47447285D01*
X17970476Y-47371095D01*
X17932380Y-47333000D01*
X17856190Y-47294904D01*
X17703809Y-47294904D01*
X17627619Y-47333000D01*
X17589523Y-47371095D01*
X17551428Y-47447285D01*
X17551428Y-47485380D01*
X17589523Y-47561571D01*
X17627619Y-47599666D01*
X17703809Y-47637761D01*
X17856190Y-47637761D01*
X17932380Y-47675857D01*
X17970476Y-47713952D01*
X18008571Y-47790142D01*
X18008571Y-47942523D01*
X17970476Y-48018714D01*
X17932380Y-48056809D01*
X17856190Y-48094904D01*
X17703809Y-48094904D01*
X17627619Y-48056809D01*
X17589523Y-48018714D01*
X17551428Y-47942523D01*
X17551428Y-47790142D01*
X17589523Y-47713952D01*
X17627619Y-47675857D01*
X17703809Y-47637761D01*
X35712380Y-48094904D02*
X36169523Y-48094904D01*
X35940952Y-48094904D02*
X35940952Y-47294904D01*
X36017142Y-47409190D01*
X36093333Y-47485380D01*
X36169523Y-47523476D01*
X34988571Y-47294904D02*
X35369523Y-47294904D01*
X35407619Y-47675857D01*
X35369523Y-47637761D01*
X35293333Y-47599666D01*
X35102857Y-47599666D01*
X35026666Y-47637761D01*
X34988571Y-47675857D01*
X34950476Y-47752047D01*
X34950476Y-47942523D01*
X34988571Y-48018714D01*
X35026666Y-48056809D01*
X35102857Y-48094904D01*
X35293333Y-48094904D01*
X35369523Y-48056809D01*
X35407619Y-48018714D01*
X109448571Y-47561571D02*
X109448571Y-48094904D01*
X109639047Y-47256809D02*
X109829523Y-47828238D01*
X109334285Y-47828238D01*
X108686666Y-47561571D02*
X108686666Y-48094904D01*
X108877142Y-47256809D02*
X109067619Y-47828238D01*
X108572380Y-47828238D01*
X69189523Y-47371095D02*
X69151428Y-47333000D01*
X69075238Y-47294904D01*
X68884761Y-47294904D01*
X68808571Y-47333000D01*
X68770476Y-47371095D01*
X68732380Y-47447285D01*
X68732380Y-47523476D01*
X68770476Y-47637761D01*
X69227619Y-48094904D01*
X68732380Y-48094904D01*
X68275238Y-47637761D02*
X68351428Y-47599666D01*
X68389523Y-47561571D01*
X68427619Y-47485380D01*
X68427619Y-47447285D01*
X68389523Y-47371095D01*
X68351428Y-47333000D01*
X68275238Y-47294904D01*
X68122857Y-47294904D01*
X68046666Y-47333000D01*
X68008571Y-47371095D01*
X67970476Y-47447285D01*
X67970476Y-47485380D01*
X68008571Y-47561571D01*
X68046666Y-47599666D01*
X68122857Y-47637761D01*
X68275238Y-47637761D01*
X68351428Y-47675857D01*
X68389523Y-47713952D01*
X68427619Y-47790142D01*
X68427619Y-47942523D01*
X68389523Y-48018714D01*
X68351428Y-48056809D01*
X68275238Y-48094904D01*
X68122857Y-48094904D01*
X68046666Y-48056809D01*
X68008571Y-48018714D01*
X67970476Y-47942523D01*
X67970476Y-47790142D01*
X68008571Y-47713952D01*
X68046666Y-47675857D01*
X68122857Y-47637761D01*
X61569523Y-47371095D02*
X61531428Y-47333000D01*
X61455238Y-47294904D01*
X61264761Y-47294904D01*
X61188571Y-47333000D01*
X61150476Y-47371095D01*
X61112380Y-47447285D01*
X61112380Y-47523476D01*
X61150476Y-47637761D01*
X61607619Y-48094904D01*
X61112380Y-48094904D01*
X60388571Y-47294904D02*
X60769523Y-47294904D01*
X60807619Y-47675857D01*
X60769523Y-47637761D01*
X60693333Y-47599666D01*
X60502857Y-47599666D01*
X60426666Y-47637761D01*
X60388571Y-47675857D01*
X60350476Y-47752047D01*
X60350476Y-47942523D01*
X60388571Y-48018714D01*
X60426666Y-48056809D01*
X60502857Y-48094904D01*
X60693333Y-48094904D01*
X60769523Y-48056809D01*
X60807619Y-48018714D01*
X74307619Y-47294904D02*
X73812380Y-47294904D01*
X74079047Y-47599666D01*
X73964761Y-47599666D01*
X73888571Y-47637761D01*
X73850476Y-47675857D01*
X73812380Y-47752047D01*
X73812380Y-47942523D01*
X73850476Y-48018714D01*
X73888571Y-48056809D01*
X73964761Y-48094904D01*
X74193333Y-48094904D01*
X74269523Y-48056809D01*
X74307619Y-48018714D01*
X73317142Y-47294904D02*
X73240952Y-47294904D01*
X73164761Y-47333000D01*
X73126666Y-47371095D01*
X73088571Y-47447285D01*
X73050476Y-47599666D01*
X73050476Y-47790142D01*
X73088571Y-47942523D01*
X73126666Y-48018714D01*
X73164761Y-48056809D01*
X73240952Y-48094904D01*
X73317142Y-48094904D01*
X73393333Y-48056809D01*
X73431428Y-48018714D01*
X73469523Y-47942523D01*
X73507619Y-47790142D01*
X73507619Y-47599666D01*
X73469523Y-47447285D01*
X73431428Y-47371095D01*
X73393333Y-47333000D01*
X73317142Y-47294904D01*
X30632380Y-48094904D02*
X31089523Y-48094904D01*
X30860952Y-48094904D02*
X30860952Y-47294904D01*
X30937142Y-47409190D01*
X31013333Y-47485380D01*
X31089523Y-47523476D01*
X30365714Y-47294904D02*
X29870476Y-47294904D01*
X30137142Y-47599666D01*
X30022857Y-47599666D01*
X29946666Y-47637761D01*
X29908571Y-47675857D01*
X29870476Y-47752047D01*
X29870476Y-47942523D01*
X29908571Y-48018714D01*
X29946666Y-48056809D01*
X30022857Y-48094904D01*
X30251428Y-48094904D01*
X30327619Y-48056809D01*
X30365714Y-48018714D01*
X119608571Y-47561571D02*
X119608571Y-48094904D01*
X119799047Y-47256809D02*
X119989523Y-47828238D01*
X119494285Y-47828238D01*
X119075238Y-47637761D02*
X119151428Y-47599666D01*
X119189523Y-47561571D01*
X119227619Y-47485380D01*
X119227619Y-47447285D01*
X119189523Y-47371095D01*
X119151428Y-47333000D01*
X119075238Y-47294904D01*
X118922857Y-47294904D01*
X118846666Y-47333000D01*
X118808571Y-47371095D01*
X118770476Y-47447285D01*
X118770476Y-47485380D01*
X118808571Y-47561571D01*
X118846666Y-47599666D01*
X118922857Y-47637761D01*
X119075238Y-47637761D01*
X119151428Y-47675857D01*
X119189523Y-47713952D01*
X119227619Y-47790142D01*
X119227619Y-47942523D01*
X119189523Y-48018714D01*
X119151428Y-48056809D01*
X119075238Y-48094904D01*
X118922857Y-48094904D01*
X118846666Y-48056809D01*
X118808571Y-48018714D01*
X118770476Y-47942523D01*
X118770476Y-47790142D01*
X118808571Y-47713952D01*
X118846666Y-47675857D01*
X118922857Y-47637761D01*
X15506666Y-47294904D02*
X14973333Y-47294904D01*
X15316190Y-48094904D01*
X111988571Y-47561571D02*
X111988571Y-48094904D01*
X112179047Y-47256809D02*
X112369523Y-47828238D01*
X111874285Y-47828238D01*
X111188571Y-47294904D02*
X111569523Y-47294904D01*
X111607619Y-47675857D01*
X111569523Y-47637761D01*
X111493333Y-47599666D01*
X111302857Y-47599666D01*
X111226666Y-47637761D01*
X111188571Y-47675857D01*
X111150476Y-47752047D01*
X111150476Y-47942523D01*
X111188571Y-48018714D01*
X111226666Y-48056809D01*
X111302857Y-48094904D01*
X111493333Y-48094904D01*
X111569523Y-48056809D01*
X111607619Y-48018714D01*
X20472380Y-48094904D02*
X20320000Y-48094904D01*
X20243809Y-48056809D01*
X20205714Y-48018714D01*
X20129523Y-47904428D01*
X20091428Y-47752047D01*
X20091428Y-47447285D01*
X20129523Y-47371095D01*
X20167619Y-47333000D01*
X20243809Y-47294904D01*
X20396190Y-47294904D01*
X20472380Y-47333000D01*
X20510476Y-47371095D01*
X20548571Y-47447285D01*
X20548571Y-47637761D01*
X20510476Y-47713952D01*
X20472380Y-47752047D01*
X20396190Y-47790142D01*
X20243809Y-47790142D01*
X20167619Y-47752047D01*
X20129523Y-47713952D01*
X20091428Y-47637761D01*
X40792380Y-48094904D02*
X41249523Y-48094904D01*
X41020952Y-48094904D02*
X41020952Y-47294904D01*
X41097142Y-47409190D01*
X41173333Y-47485380D01*
X41249523Y-47523476D01*
X40525714Y-47294904D02*
X39992380Y-47294904D01*
X40335238Y-48094904D01*
X48869523Y-47371095D02*
X48831428Y-47333000D01*
X48755238Y-47294904D01*
X48564761Y-47294904D01*
X48488571Y-47333000D01*
X48450476Y-47371095D01*
X48412380Y-47447285D01*
X48412380Y-47523476D01*
X48450476Y-47637761D01*
X48907619Y-48094904D01*
X48412380Y-48094904D01*
X47917142Y-47294904D02*
X47840952Y-47294904D01*
X47764761Y-47333000D01*
X47726666Y-47371095D01*
X47688571Y-47447285D01*
X47650476Y-47599666D01*
X47650476Y-47790142D01*
X47688571Y-47942523D01*
X47726666Y-48018714D01*
X47764761Y-48056809D01*
X47840952Y-48094904D01*
X47917142Y-48094904D01*
X47993333Y-48056809D01*
X48031428Y-48018714D01*
X48069523Y-47942523D01*
X48107619Y-47790142D01*
X48107619Y-47599666D01*
X48069523Y-47447285D01*
X48031428Y-47371095D01*
X47993333Y-47333000D01*
X47917142Y-47294904D01*
X89547619Y-47294904D02*
X89052380Y-47294904D01*
X89319047Y-47599666D01*
X89204761Y-47599666D01*
X89128571Y-47637761D01*
X89090476Y-47675857D01*
X89052380Y-47752047D01*
X89052380Y-47942523D01*
X89090476Y-48018714D01*
X89128571Y-48056809D01*
X89204761Y-48094904D01*
X89433333Y-48094904D01*
X89509523Y-48056809D01*
X89547619Y-48018714D01*
X88366666Y-47294904D02*
X88519047Y-47294904D01*
X88595238Y-47333000D01*
X88633333Y-47371095D01*
X88709523Y-47485380D01*
X88747619Y-47637761D01*
X88747619Y-47942523D01*
X88709523Y-48018714D01*
X88671428Y-48056809D01*
X88595238Y-48094904D01*
X88442857Y-48094904D01*
X88366666Y-48056809D01*
X88328571Y-48018714D01*
X88290476Y-47942523D01*
X88290476Y-47752047D01*
X88328571Y-47675857D01*
X88366666Y-47637761D01*
X88442857Y-47599666D01*
X88595238Y-47599666D01*
X88671428Y-47637761D01*
X88709523Y-47675857D01*
X88747619Y-47752047D01*
X51409523Y-47371095D02*
X51371428Y-47333000D01*
X51295238Y-47294904D01*
X51104761Y-47294904D01*
X51028571Y-47333000D01*
X50990476Y-47371095D01*
X50952380Y-47447285D01*
X50952380Y-47523476D01*
X50990476Y-47637761D01*
X51447619Y-48094904D01*
X50952380Y-48094904D01*
X50190476Y-48094904D02*
X50647619Y-48094904D01*
X50419047Y-48094904D02*
X50419047Y-47294904D01*
X50495238Y-47409190D01*
X50571428Y-47485380D01*
X50647619Y-47523476D01*
X53949523Y-47371095D02*
X53911428Y-47333000D01*
X53835238Y-47294904D01*
X53644761Y-47294904D01*
X53568571Y-47333000D01*
X53530476Y-47371095D01*
X53492380Y-47447285D01*
X53492380Y-47523476D01*
X53530476Y-47637761D01*
X53987619Y-48094904D01*
X53492380Y-48094904D01*
X53187619Y-47371095D02*
X53149523Y-47333000D01*
X53073333Y-47294904D01*
X52882857Y-47294904D01*
X52806666Y-47333000D01*
X52768571Y-47371095D01*
X52730476Y-47447285D01*
X52730476Y-47523476D01*
X52768571Y-47637761D01*
X53225714Y-48094904D01*
X52730476Y-48094904D01*
X59029523Y-47371095D02*
X58991428Y-47333000D01*
X58915238Y-47294904D01*
X58724761Y-47294904D01*
X58648571Y-47333000D01*
X58610476Y-47371095D01*
X58572380Y-47447285D01*
X58572380Y-47523476D01*
X58610476Y-47637761D01*
X59067619Y-48094904D01*
X58572380Y-48094904D01*
X57886666Y-47561571D02*
X57886666Y-48094904D01*
X58077142Y-47256809D02*
X58267619Y-47828238D01*
X57772380Y-47828238D01*
X64109523Y-47371095D02*
X64071428Y-47333000D01*
X63995238Y-47294904D01*
X63804761Y-47294904D01*
X63728571Y-47333000D01*
X63690476Y-47371095D01*
X63652380Y-47447285D01*
X63652380Y-47523476D01*
X63690476Y-47637761D01*
X64147619Y-48094904D01*
X63652380Y-48094904D01*
X62966666Y-47294904D02*
X63119047Y-47294904D01*
X63195238Y-47333000D01*
X63233333Y-47371095D01*
X63309523Y-47485380D01*
X63347619Y-47637761D01*
X63347619Y-47942523D01*
X63309523Y-48018714D01*
X63271428Y-48056809D01*
X63195238Y-48094904D01*
X63042857Y-48094904D01*
X62966666Y-48056809D01*
X62928571Y-48018714D01*
X62890476Y-47942523D01*
X62890476Y-47752047D01*
X62928571Y-47675857D01*
X62966666Y-47637761D01*
X63042857Y-47599666D01*
X63195238Y-47599666D01*
X63271428Y-47637761D01*
X63309523Y-47675857D01*
X63347619Y-47752047D01*
X79387619Y-47294904D02*
X78892380Y-47294904D01*
X79159047Y-47599666D01*
X79044761Y-47599666D01*
X78968571Y-47637761D01*
X78930476Y-47675857D01*
X78892380Y-47752047D01*
X78892380Y-47942523D01*
X78930476Y-48018714D01*
X78968571Y-48056809D01*
X79044761Y-48094904D01*
X79273333Y-48094904D01*
X79349523Y-48056809D01*
X79387619Y-48018714D01*
X78587619Y-47371095D02*
X78549523Y-47333000D01*
X78473333Y-47294904D01*
X78282857Y-47294904D01*
X78206666Y-47333000D01*
X78168571Y-47371095D01*
X78130476Y-47447285D01*
X78130476Y-47523476D01*
X78168571Y-47637761D01*
X78625714Y-48094904D01*
X78130476Y-48094904D01*
X106908571Y-47561571D02*
X106908571Y-48094904D01*
X107099047Y-47256809D02*
X107289523Y-47828238D01*
X106794285Y-47828238D01*
X106565714Y-47294904D02*
X106070476Y-47294904D01*
X106337142Y-47599666D01*
X106222857Y-47599666D01*
X106146666Y-47637761D01*
X106108571Y-47675857D01*
X106070476Y-47752047D01*
X106070476Y-47942523D01*
X106108571Y-48018714D01*
X106146666Y-48056809D01*
X106222857Y-48094904D01*
X106451428Y-48094904D01*
X106527619Y-48056809D01*
X106565714Y-48018714D01*
X114528571Y-47561571D02*
X114528571Y-48094904D01*
X114719047Y-47256809D02*
X114909523Y-47828238D01*
X114414285Y-47828238D01*
X113766666Y-47294904D02*
X113919047Y-47294904D01*
X113995238Y-47333000D01*
X114033333Y-47371095D01*
X114109523Y-47485380D01*
X114147619Y-47637761D01*
X114147619Y-47942523D01*
X114109523Y-48018714D01*
X114071428Y-48056809D01*
X113995238Y-48094904D01*
X113842857Y-48094904D01*
X113766666Y-48056809D01*
X113728571Y-48018714D01*
X113690476Y-47942523D01*
X113690476Y-47752047D01*
X113728571Y-47675857D01*
X113766666Y-47637761D01*
X113842857Y-47599666D01*
X113995238Y-47599666D01*
X114071428Y-47637761D01*
X114109523Y-47675857D01*
X114147619Y-47752047D01*
X84467619Y-47294904D02*
X83972380Y-47294904D01*
X84239047Y-47599666D01*
X84124761Y-47599666D01*
X84048571Y-47637761D01*
X84010476Y-47675857D01*
X83972380Y-47752047D01*
X83972380Y-47942523D01*
X84010476Y-48018714D01*
X84048571Y-48056809D01*
X84124761Y-48094904D01*
X84353333Y-48094904D01*
X84429523Y-48056809D01*
X84467619Y-48018714D01*
X83286666Y-47561571D02*
X83286666Y-48094904D01*
X83477142Y-47256809D02*
X83667619Y-47828238D01*
X83172380Y-47828238D01*
X87007619Y-47294904D02*
X86512380Y-47294904D01*
X86779047Y-47599666D01*
X86664761Y-47599666D01*
X86588571Y-47637761D01*
X86550476Y-47675857D01*
X86512380Y-47752047D01*
X86512380Y-47942523D01*
X86550476Y-48018714D01*
X86588571Y-48056809D01*
X86664761Y-48094904D01*
X86893333Y-48094904D01*
X86969523Y-48056809D01*
X87007619Y-48018714D01*
X85788571Y-47294904D02*
X86169523Y-47294904D01*
X86207619Y-47675857D01*
X86169523Y-47637761D01*
X86093333Y-47599666D01*
X85902857Y-47599666D01*
X85826666Y-47637761D01*
X85788571Y-47675857D01*
X85750476Y-47752047D01*
X85750476Y-47942523D01*
X85788571Y-48018714D01*
X85826666Y-48056809D01*
X85902857Y-48094904D01*
X86093333Y-48094904D01*
X86169523Y-48056809D01*
X86207619Y-48018714D01*
X97167619Y-47294904D02*
X96672380Y-47294904D01*
X96939047Y-47599666D01*
X96824761Y-47599666D01*
X96748571Y-47637761D01*
X96710476Y-47675857D01*
X96672380Y-47752047D01*
X96672380Y-47942523D01*
X96710476Y-48018714D01*
X96748571Y-48056809D01*
X96824761Y-48094904D01*
X97053333Y-48094904D01*
X97129523Y-48056809D01*
X97167619Y-48018714D01*
X96291428Y-48094904D02*
X96139047Y-48094904D01*
X96062857Y-48056809D01*
X96024761Y-48018714D01*
X95948571Y-47904428D01*
X95910476Y-47752047D01*
X95910476Y-47447285D01*
X95948571Y-47371095D01*
X95986666Y-47333000D01*
X96062857Y-47294904D01*
X96215238Y-47294904D01*
X96291428Y-47333000D01*
X96329523Y-47371095D01*
X96367619Y-47447285D01*
X96367619Y-47637761D01*
X96329523Y-47713952D01*
X96291428Y-47752047D01*
X96215238Y-47790142D01*
X96062857Y-47790142D01*
X95986666Y-47752047D01*
X95948571Y-47713952D01*
X95910476Y-47637761D01*
X-2228819Y-28301904D02*
X-1847866Y-28301904D01*
X-1847866Y-27501904D01*
X-1771676Y-7981904D02*
X-1771676Y-7181904D01*
X-1962152Y-7181904D01*
X-2076438Y-7220000D01*
X-2152628Y-7296190D01*
X-2190723Y-7372380D01*
X-2228819Y-7524761D01*
X-2228819Y-7639047D01*
X-2190723Y-7791428D01*
X-2152628Y-7867619D01*
X-2076438Y-7943809D01*
X-1962152Y-7981904D01*
X-1771676Y-7981904D01*
X-1771676Y-38461904D02*
X-1771676Y-37661904D01*
X-2076438Y-37661904D01*
X-2152628Y-37700000D01*
X-2190723Y-37738095D01*
X-2228819Y-37814285D01*
X-2228819Y-37928571D01*
X-2190723Y-38004761D01*
X-2152628Y-38042857D01*
X-2076438Y-38080952D01*
X-1771676Y-38080952D01*
X-1905009Y-35121904D02*
X-2057390Y-35121904D01*
X-2133580Y-35160000D01*
X-2209771Y-35236190D01*
X-2247866Y-35388571D01*
X-2247866Y-35655238D01*
X-2209771Y-35807619D01*
X-2133580Y-35883809D01*
X-2057390Y-35921904D01*
X-1905009Y-35921904D01*
X-1828819Y-35883809D01*
X-1752628Y-35807619D01*
X-1714533Y-35655238D01*
X-1714533Y-35388571D01*
X-1752628Y-35236190D01*
X-1828819Y-35160000D01*
X-1905009Y-35121904D01*
X-1752628Y-33381904D02*
X-1752628Y-32581904D01*
X-2209771Y-33381904D01*
X-2209771Y-32581904D01*
X-2190723Y-14840000D02*
X-2114533Y-14801904D01*
X-2000247Y-14801904D01*
X-1885961Y-14840000D01*
X-1809771Y-14916190D01*
X-1771676Y-14992380D01*
X-1733580Y-15144761D01*
X-1733580Y-15259047D01*
X-1771676Y-15411428D01*
X-1809771Y-15487619D01*
X-1885961Y-15563809D01*
X-2000247Y-15601904D01*
X-2076438Y-15601904D01*
X-2190723Y-15563809D01*
X-2228819Y-15525714D01*
X-2228819Y-15259047D01*
X-2076438Y-15259047D01*
X-2228819Y-5365714D02*
X-2190723Y-5403809D01*
X-2076438Y-5441904D01*
X-2000247Y-5441904D01*
X-1885961Y-5403809D01*
X-1809771Y-5327619D01*
X-1771676Y-5251428D01*
X-1733580Y-5099047D01*
X-1733580Y-4984761D01*
X-1771676Y-4832380D01*
X-1809771Y-4756190D01*
X-1885961Y-4680000D01*
X-2000247Y-4641904D01*
X-2076438Y-4641904D01*
X-2190723Y-4680000D01*
X-2228819Y-4718095D01*
X-1981199Y-20681904D02*
X-1981199Y-19881904D01*
X-2006628Y-46043809D02*
X-2120914Y-46081904D01*
X-2311390Y-46081904D01*
X-2387580Y-46043809D01*
X-2425676Y-46005714D01*
X-2463771Y-45929523D01*
X-2463771Y-45853333D01*
X-2425676Y-45777142D01*
X-2387580Y-45739047D01*
X-2311390Y-45700952D01*
X-2159009Y-45662857D01*
X-2082819Y-45624761D01*
X-2044723Y-45586666D01*
X-2006628Y-45510476D01*
X-2006628Y-45434285D01*
X-2044723Y-45358095D01*
X-2082819Y-45320000D01*
X-2159009Y-45281904D01*
X-2349485Y-45281904D01*
X-2463771Y-45320000D01*
X-2228819Y-43541904D02*
X-1962152Y-43160952D01*
X-1771676Y-43541904D02*
X-1771676Y-42741904D01*
X-2076438Y-42741904D01*
X-2152628Y-42780000D01*
X-2190723Y-42818095D01*
X-2228819Y-42894285D01*
X-2228819Y-43008571D01*
X-2190723Y-43084761D01*
X-2152628Y-43122857D01*
X-2076438Y-43160952D01*
X-1771676Y-43160952D01*
X-2095485Y-22421904D02*
X-2095485Y-22993333D01*
X-2057390Y-23107619D01*
X-1981200Y-23183809D01*
X-1866914Y-23221904D01*
X-1790723Y-23221904D01*
X-1752628Y-18141904D02*
X-1752628Y-17341904D01*
X-1752628Y-17722857D02*
X-2209771Y-17722857D01*
X-2209771Y-18141904D02*
X-2209771Y-17341904D01*
X-2285961Y-41078095D02*
X-2209771Y-41040000D01*
X-2133580Y-40963809D01*
X-2019295Y-40849523D01*
X-1943104Y-40811428D01*
X-1866914Y-40811428D01*
X-1905009Y-41001904D02*
X-1828819Y-40963809D01*
X-1752628Y-40887619D01*
X-1714533Y-40735238D01*
X-1714533Y-40468571D01*
X-1752628Y-40316190D01*
X-1828819Y-40240000D01*
X-1905009Y-40201904D01*
X-2057390Y-40201904D01*
X-2133580Y-40240000D01*
X-2209771Y-40316190D01*
X-2247866Y-40468571D01*
X-2247866Y-40735238D01*
X-2209771Y-40887619D01*
X-2133580Y-40963809D01*
X-2057390Y-41001904D01*
X-1905009Y-41001904D01*
X-1714533Y-30841904D02*
X-1714533Y-30041904D01*
X-1981200Y-30613333D01*
X-2247866Y-30041904D01*
X-2247866Y-30841904D01*
X-1771676Y-25761904D02*
X-1771676Y-24961904D01*
X-2228819Y-25761904D02*
X-1885961Y-25304761D01*
X-2228819Y-24961904D02*
X-1771676Y-25419047D01*
X-1809771Y-10102857D02*
X-2076438Y-10102857D01*
X-2190723Y-10521904D02*
X-1809771Y-10521904D01*
X-1809771Y-9721904D01*
X-2190723Y-9721904D01*
X-2038342Y-2482857D02*
X-2152628Y-2520952D01*
X-2190723Y-2559047D01*
X-2228819Y-2635238D01*
X-2228819Y-2749523D01*
X-2190723Y-2825714D01*
X-2152628Y-2863809D01*
X-2076438Y-2901904D01*
X-1771676Y-2901904D01*
X-1771676Y-2101904D01*
X-2038342Y-2101904D01*
X-2114533Y-2140000D01*
X-2152628Y-2178095D01*
X-2190723Y-2254285D01*
X-2190723Y-2330476D01*
X-2152628Y-2406666D01*
X-2114533Y-2444761D01*
X-2038342Y-2482857D01*
X-1771676Y-2482857D01*
X-2044723Y-133333D02*
X-2425676Y-133333D01*
X-1968533Y-361904D02*
X-2235200Y438095D01*
X-2501866Y-361904D01*
X-2095485Y-12642857D02*
X-1828819Y-12642857D01*
X-1828819Y-13061904D02*
X-1828819Y-12261904D01*
X-2209771Y-12261904D01*
X122148571Y2457428D02*
X122148571Y1924095D01*
X122339047Y2762190D02*
X122529523Y2190761D01*
X122034285Y2190761D01*
X121691428Y1924095D02*
X121539047Y1924095D01*
X121462857Y1962190D01*
X121424761Y2000285D01*
X121348571Y2114571D01*
X121310476Y2266952D01*
X121310476Y2571714D01*
X121348571Y2647904D01*
X121386666Y2686000D01*
X121462857Y2724095D01*
X121615238Y2724095D01*
X121691428Y2686000D01*
X121729523Y2647904D01*
X121767619Y2571714D01*
X121767619Y2381238D01*
X121729523Y2305047D01*
X121691428Y2266952D01*
X121615238Y2228857D01*
X121462857Y2228857D01*
X121386666Y2266952D01*
X121348571Y2305047D01*
X121310476Y2381238D01*
X119608571Y2012928D02*
X119608571Y1479595D01*
X119799047Y2317690D02*
X119989523Y1746261D01*
X119494285Y1746261D01*
X119075238Y1936738D02*
X119151428Y1974833D01*
X119189523Y2012928D01*
X119227619Y2089119D01*
X119227619Y2127214D01*
X119189523Y2203404D01*
X119151428Y2241500D01*
X119075238Y2279595D01*
X118922857Y2279595D01*
X118846666Y2241500D01*
X118808571Y2203404D01*
X118770476Y2127214D01*
X118770476Y2089119D01*
X118808571Y2012928D01*
X118846666Y1974833D01*
X118922857Y1936738D01*
X119075238Y1936738D01*
X119151428Y1898642D01*
X119189523Y1860547D01*
X119227619Y1784357D01*
X119227619Y1631976D01*
X119189523Y1555785D01*
X119151428Y1517690D01*
X119075238Y1479595D01*
X118922857Y1479595D01*
X118846666Y1517690D01*
X118808571Y1555785D01*
X118770476Y1631976D01*
X118770476Y1784357D01*
X118808571Y1860547D01*
X118846666Y1898642D01*
X118922857Y1936738D01*
X117068571Y2012928D02*
X117068571Y1479595D01*
X117259047Y2317690D02*
X117449523Y1746261D01*
X116954285Y1746261D01*
X116725714Y2279595D02*
X116192380Y2279595D01*
X116535238Y1479595D01*
X114528571Y2012928D02*
X114528571Y1479595D01*
X114719047Y2317690D02*
X114909523Y1746261D01*
X114414285Y1746261D01*
X113766666Y2279595D02*
X113919047Y2279595D01*
X113995238Y2241500D01*
X114033333Y2203404D01*
X114109523Y2089119D01*
X114147619Y1936738D01*
X114147619Y1631976D01*
X114109523Y1555785D01*
X114071428Y1517690D01*
X113995238Y1479595D01*
X113842857Y1479595D01*
X113766666Y1517690D01*
X113728571Y1555785D01*
X113690476Y1631976D01*
X113690476Y1822452D01*
X113728571Y1898642D01*
X113766666Y1936738D01*
X113842857Y1974833D01*
X113995238Y1974833D01*
X114071428Y1936738D01*
X114109523Y1898642D01*
X114147619Y1822452D01*
X111988571Y2012928D02*
X111988571Y1479595D01*
X112179047Y2317690D02*
X112369523Y1746261D01*
X111874285Y1746261D01*
X111188571Y2279595D02*
X111569523Y2279595D01*
X111607619Y1898642D01*
X111569523Y1936738D01*
X111493333Y1974833D01*
X111302857Y1974833D01*
X111226666Y1936738D01*
X111188571Y1898642D01*
X111150476Y1822452D01*
X111150476Y1631976D01*
X111188571Y1555785D01*
X111226666Y1517690D01*
X111302857Y1479595D01*
X111493333Y1479595D01*
X111569523Y1517690D01*
X111607619Y1555785D01*
X109448571Y2012928D02*
X109448571Y1479595D01*
X109639047Y2317690D02*
X109829523Y1746261D01*
X109334285Y1746261D01*
X108686666Y2012928D02*
X108686666Y1479595D01*
X108877142Y2317690D02*
X109067619Y1746261D01*
X108572380Y1746261D01*
X106908571Y2012928D02*
X106908571Y1479595D01*
X107099047Y2317690D02*
X107289523Y1746261D01*
X106794285Y1746261D01*
X106565714Y2279595D02*
X106070476Y2279595D01*
X106337142Y1974833D01*
X106222857Y1974833D01*
X106146666Y1936738D01*
X106108571Y1898642D01*
X106070476Y1822452D01*
X106070476Y1631976D01*
X106108571Y1555785D01*
X106146666Y1517690D01*
X106222857Y1479595D01*
X106451428Y1479595D01*
X106527619Y1517690D01*
X106565714Y1555785D01*
X104368571Y2012928D02*
X104368571Y1479595D01*
X104559047Y2317690D02*
X104749523Y1746261D01*
X104254285Y1746261D01*
X103987619Y2203404D02*
X103949523Y2241500D01*
X103873333Y2279595D01*
X103682857Y2279595D01*
X103606666Y2241500D01*
X103568571Y2203404D01*
X103530476Y2127214D01*
X103530476Y2051023D01*
X103568571Y1936738D01*
X104025714Y1479595D01*
X103530476Y1479595D01*
X101828571Y2012928D02*
X101828571Y1479595D01*
X102019047Y2317690D02*
X102209523Y1746261D01*
X101714285Y1746261D01*
X100990476Y1479595D02*
X101447619Y1479595D01*
X101219047Y1479595D02*
X101219047Y2279595D01*
X101295238Y2165309D01*
X101371428Y2089119D01*
X101447619Y2051023D01*
X99288571Y2012928D02*
X99288571Y1479595D01*
X99479047Y2317690D02*
X99669523Y1746261D01*
X99174285Y1746261D01*
X98717142Y2279595D02*
X98640952Y2279595D01*
X98564761Y2241500D01*
X98526666Y2203404D01*
X98488571Y2127214D01*
X98450476Y1974833D01*
X98450476Y1784357D01*
X98488571Y1631976D01*
X98526666Y1555785D01*
X98564761Y1517690D01*
X98640952Y1479595D01*
X98717142Y1479595D01*
X98793333Y1517690D01*
X98831428Y1555785D01*
X98869523Y1631976D01*
X98907619Y1784357D01*
X98907619Y1974833D01*
X98869523Y2127214D01*
X98831428Y2203404D01*
X98793333Y2241500D01*
X98717142Y2279595D01*
X97167619Y2279595D02*
X96672380Y2279595D01*
X96939047Y1974833D01*
X96824761Y1974833D01*
X96748571Y1936738D01*
X96710476Y1898642D01*
X96672380Y1822452D01*
X96672380Y1631976D01*
X96710476Y1555785D01*
X96748571Y1517690D01*
X96824761Y1479595D01*
X97053333Y1479595D01*
X97129523Y1517690D01*
X97167619Y1555785D01*
X96291428Y1479595D02*
X96139047Y1479595D01*
X96062857Y1517690D01*
X96024761Y1555785D01*
X95948571Y1670071D01*
X95910476Y1822452D01*
X95910476Y2127214D01*
X95948571Y2203404D01*
X95986666Y2241500D01*
X96062857Y2279595D01*
X96215238Y2279595D01*
X96291428Y2241500D01*
X96329523Y2203404D01*
X96367619Y2127214D01*
X96367619Y1936738D01*
X96329523Y1860547D01*
X96291428Y1822452D01*
X96215238Y1784357D01*
X96062857Y1784357D01*
X95986666Y1822452D01*
X95948571Y1860547D01*
X95910476Y1936738D01*
X94627619Y2279595D02*
X94132380Y2279595D01*
X94399047Y1974833D01*
X94284761Y1974833D01*
X94208571Y1936738D01*
X94170476Y1898642D01*
X94132380Y1822452D01*
X94132380Y1631976D01*
X94170476Y1555785D01*
X94208571Y1517690D01*
X94284761Y1479595D01*
X94513333Y1479595D01*
X94589523Y1517690D01*
X94627619Y1555785D01*
X93675238Y1936738D02*
X93751428Y1974833D01*
X93789523Y2012928D01*
X93827619Y2089119D01*
X93827619Y2127214D01*
X93789523Y2203404D01*
X93751428Y2241500D01*
X93675238Y2279595D01*
X93522857Y2279595D01*
X93446666Y2241500D01*
X93408571Y2203404D01*
X93370476Y2127214D01*
X93370476Y2089119D01*
X93408571Y2012928D01*
X93446666Y1974833D01*
X93522857Y1936738D01*
X93675238Y1936738D01*
X93751428Y1898642D01*
X93789523Y1860547D01*
X93827619Y1784357D01*
X93827619Y1631976D01*
X93789523Y1555785D01*
X93751428Y1517690D01*
X93675238Y1479595D01*
X93522857Y1479595D01*
X93446666Y1517690D01*
X93408571Y1555785D01*
X93370476Y1631976D01*
X93370476Y1784357D01*
X93408571Y1860547D01*
X93446666Y1898642D01*
X93522857Y1936738D01*
X92087619Y2279595D02*
X91592380Y2279595D01*
X91859047Y1974833D01*
X91744761Y1974833D01*
X91668571Y1936738D01*
X91630476Y1898642D01*
X91592380Y1822452D01*
X91592380Y1631976D01*
X91630476Y1555785D01*
X91668571Y1517690D01*
X91744761Y1479595D01*
X91973333Y1479595D01*
X92049523Y1517690D01*
X92087619Y1555785D01*
X91325714Y2279595D02*
X90792380Y2279595D01*
X91135238Y1479595D01*
X89547619Y2279595D02*
X89052380Y2279595D01*
X89319047Y1974833D01*
X89204761Y1974833D01*
X89128571Y1936738D01*
X89090476Y1898642D01*
X89052380Y1822452D01*
X89052380Y1631976D01*
X89090476Y1555785D01*
X89128571Y1517690D01*
X89204761Y1479595D01*
X89433333Y1479595D01*
X89509523Y1517690D01*
X89547619Y1555785D01*
X88366666Y2279595D02*
X88519047Y2279595D01*
X88595238Y2241500D01*
X88633333Y2203404D01*
X88709523Y2089119D01*
X88747619Y1936738D01*
X88747619Y1631976D01*
X88709523Y1555785D01*
X88671428Y1517690D01*
X88595238Y1479595D01*
X88442857Y1479595D01*
X88366666Y1517690D01*
X88328571Y1555785D01*
X88290476Y1631976D01*
X88290476Y1822452D01*
X88328571Y1898642D01*
X88366666Y1936738D01*
X88442857Y1974833D01*
X88595238Y1974833D01*
X88671428Y1936738D01*
X88709523Y1898642D01*
X88747619Y1822452D01*
X87007619Y2279595D02*
X86512380Y2279595D01*
X86779047Y1974833D01*
X86664761Y1974833D01*
X86588571Y1936738D01*
X86550476Y1898642D01*
X86512380Y1822452D01*
X86512380Y1631976D01*
X86550476Y1555785D01*
X86588571Y1517690D01*
X86664761Y1479595D01*
X86893333Y1479595D01*
X86969523Y1517690D01*
X87007619Y1555785D01*
X85788571Y2279595D02*
X86169523Y2279595D01*
X86207619Y1898642D01*
X86169523Y1936738D01*
X86093333Y1974833D01*
X85902857Y1974833D01*
X85826666Y1936738D01*
X85788571Y1898642D01*
X85750476Y1822452D01*
X85750476Y1631976D01*
X85788571Y1555785D01*
X85826666Y1517690D01*
X85902857Y1479595D01*
X86093333Y1479595D01*
X86169523Y1517690D01*
X86207619Y1555785D01*
X84467619Y2279595D02*
X83972380Y2279595D01*
X84239047Y1974833D01*
X84124761Y1974833D01*
X84048571Y1936738D01*
X84010476Y1898642D01*
X83972380Y1822452D01*
X83972380Y1631976D01*
X84010476Y1555785D01*
X84048571Y1517690D01*
X84124761Y1479595D01*
X84353333Y1479595D01*
X84429523Y1517690D01*
X84467619Y1555785D01*
X83286666Y2012928D02*
X83286666Y1479595D01*
X83477142Y2317690D02*
X83667619Y1746261D01*
X83172380Y1746261D01*
X81927619Y2279595D02*
X81432380Y2279595D01*
X81699047Y1974833D01*
X81584761Y1974833D01*
X81508571Y1936738D01*
X81470476Y1898642D01*
X81432380Y1822452D01*
X81432380Y1631976D01*
X81470476Y1555785D01*
X81508571Y1517690D01*
X81584761Y1479595D01*
X81813333Y1479595D01*
X81889523Y1517690D01*
X81927619Y1555785D01*
X81165714Y2279595D02*
X80670476Y2279595D01*
X80937142Y1974833D01*
X80822857Y1974833D01*
X80746666Y1936738D01*
X80708571Y1898642D01*
X80670476Y1822452D01*
X80670476Y1631976D01*
X80708571Y1555785D01*
X80746666Y1517690D01*
X80822857Y1479595D01*
X81051428Y1479595D01*
X81127619Y1517690D01*
X81165714Y1555785D01*
X79387619Y2279595D02*
X78892380Y2279595D01*
X79159047Y1974833D01*
X79044761Y1974833D01*
X78968571Y1936738D01*
X78930476Y1898642D01*
X78892380Y1822452D01*
X78892380Y1631976D01*
X78930476Y1555785D01*
X78968571Y1517690D01*
X79044761Y1479595D01*
X79273333Y1479595D01*
X79349523Y1517690D01*
X79387619Y1555785D01*
X78587619Y2203404D02*
X78549523Y2241500D01*
X78473333Y2279595D01*
X78282857Y2279595D01*
X78206666Y2241500D01*
X78168571Y2203404D01*
X78130476Y2127214D01*
X78130476Y2051023D01*
X78168571Y1936738D01*
X78625714Y1479595D01*
X78130476Y1479595D01*
X76847619Y2279595D02*
X76352380Y2279595D01*
X76619047Y1974833D01*
X76504761Y1974833D01*
X76428571Y1936738D01*
X76390476Y1898642D01*
X76352380Y1822452D01*
X76352380Y1631976D01*
X76390476Y1555785D01*
X76428571Y1517690D01*
X76504761Y1479595D01*
X76733333Y1479595D01*
X76809523Y1517690D01*
X76847619Y1555785D01*
X75590476Y1479595D02*
X76047619Y1479595D01*
X75819047Y1479595D02*
X75819047Y2279595D01*
X75895238Y2165309D01*
X75971428Y2089119D01*
X76047619Y2051023D01*
X74307619Y2279595D02*
X73812380Y2279595D01*
X74079047Y1974833D01*
X73964761Y1974833D01*
X73888571Y1936738D01*
X73850476Y1898642D01*
X73812380Y1822452D01*
X73812380Y1631976D01*
X73850476Y1555785D01*
X73888571Y1517690D01*
X73964761Y1479595D01*
X74193333Y1479595D01*
X74269523Y1517690D01*
X74307619Y1555785D01*
X73317142Y2279595D02*
X73240952Y2279595D01*
X73164761Y2241500D01*
X73126666Y2203404D01*
X73088571Y2127214D01*
X73050476Y1974833D01*
X73050476Y1784357D01*
X73088571Y1631976D01*
X73126666Y1555785D01*
X73164761Y1517690D01*
X73240952Y1479595D01*
X73317142Y1479595D01*
X73393333Y1517690D01*
X73431428Y1555785D01*
X73469523Y1631976D01*
X73507619Y1784357D01*
X73507619Y1974833D01*
X73469523Y2127214D01*
X73431428Y2203404D01*
X73393333Y2241500D01*
X73317142Y2279595D01*
X71729523Y2203404D02*
X71691428Y2241500D01*
X71615238Y2279595D01*
X71424761Y2279595D01*
X71348571Y2241500D01*
X71310476Y2203404D01*
X71272380Y2127214D01*
X71272380Y2051023D01*
X71310476Y1936738D01*
X71767619Y1479595D01*
X71272380Y1479595D01*
X70891428Y1479595D02*
X70739047Y1479595D01*
X70662857Y1517690D01*
X70624761Y1555785D01*
X70548571Y1670071D01*
X70510476Y1822452D01*
X70510476Y2127214D01*
X70548571Y2203404D01*
X70586666Y2241500D01*
X70662857Y2279595D01*
X70815238Y2279595D01*
X70891428Y2241500D01*
X70929523Y2203404D01*
X70967619Y2127214D01*
X70967619Y1936738D01*
X70929523Y1860547D01*
X70891428Y1822452D01*
X70815238Y1784357D01*
X70662857Y1784357D01*
X70586666Y1822452D01*
X70548571Y1860547D01*
X70510476Y1936738D01*
X69189523Y2203404D02*
X69151428Y2241500D01*
X69075238Y2279595D01*
X68884761Y2279595D01*
X68808571Y2241500D01*
X68770476Y2203404D01*
X68732380Y2127214D01*
X68732380Y2051023D01*
X68770476Y1936738D01*
X69227619Y1479595D01*
X68732380Y1479595D01*
X68275238Y1936738D02*
X68351428Y1974833D01*
X68389523Y2012928D01*
X68427619Y2089119D01*
X68427619Y2127214D01*
X68389523Y2203404D01*
X68351428Y2241500D01*
X68275238Y2279595D01*
X68122857Y2279595D01*
X68046666Y2241500D01*
X68008571Y2203404D01*
X67970476Y2127214D01*
X67970476Y2089119D01*
X68008571Y2012928D01*
X68046666Y1974833D01*
X68122857Y1936738D01*
X68275238Y1936738D01*
X68351428Y1898642D01*
X68389523Y1860547D01*
X68427619Y1784357D01*
X68427619Y1631976D01*
X68389523Y1555785D01*
X68351428Y1517690D01*
X68275238Y1479595D01*
X68122857Y1479595D01*
X68046666Y1517690D01*
X68008571Y1555785D01*
X67970476Y1631976D01*
X67970476Y1784357D01*
X68008571Y1860547D01*
X68046666Y1898642D01*
X68122857Y1936738D01*
X66649523Y2203404D02*
X66611428Y2241500D01*
X66535238Y2279595D01*
X66344761Y2279595D01*
X66268571Y2241500D01*
X66230476Y2203404D01*
X66192380Y2127214D01*
X66192380Y2051023D01*
X66230476Y1936738D01*
X66687619Y1479595D01*
X66192380Y1479595D01*
X65925714Y2279595D02*
X65392380Y2279595D01*
X65735238Y1479595D01*
X64109523Y2203404D02*
X64071428Y2241500D01*
X63995238Y2279595D01*
X63804761Y2279595D01*
X63728571Y2241500D01*
X63690476Y2203404D01*
X63652380Y2127214D01*
X63652380Y2051023D01*
X63690476Y1936738D01*
X64147619Y1479595D01*
X63652380Y1479595D01*
X62966666Y2279595D02*
X63119047Y2279595D01*
X63195238Y2241500D01*
X63233333Y2203404D01*
X63309523Y2089119D01*
X63347619Y1936738D01*
X63347619Y1631976D01*
X63309523Y1555785D01*
X63271428Y1517690D01*
X63195238Y1479595D01*
X63042857Y1479595D01*
X62966666Y1517690D01*
X62928571Y1555785D01*
X62890476Y1631976D01*
X62890476Y1822452D01*
X62928571Y1898642D01*
X62966666Y1936738D01*
X63042857Y1974833D01*
X63195238Y1974833D01*
X63271428Y1936738D01*
X63309523Y1898642D01*
X63347619Y1822452D01*
X61569523Y2203404D02*
X61531428Y2241500D01*
X61455238Y2279595D01*
X61264761Y2279595D01*
X61188571Y2241500D01*
X61150476Y2203404D01*
X61112380Y2127214D01*
X61112380Y2051023D01*
X61150476Y1936738D01*
X61607619Y1479595D01*
X61112380Y1479595D01*
X60388571Y2279595D02*
X60769523Y2279595D01*
X60807619Y1898642D01*
X60769523Y1936738D01*
X60693333Y1974833D01*
X60502857Y1974833D01*
X60426666Y1936738D01*
X60388571Y1898642D01*
X60350476Y1822452D01*
X60350476Y1631976D01*
X60388571Y1555785D01*
X60426666Y1517690D01*
X60502857Y1479595D01*
X60693333Y1479595D01*
X60769523Y1517690D01*
X60807619Y1555785D01*
X59029523Y2203404D02*
X58991428Y2241500D01*
X58915238Y2279595D01*
X58724761Y2279595D01*
X58648571Y2241500D01*
X58610476Y2203404D01*
X58572380Y2127214D01*
X58572380Y2051023D01*
X58610476Y1936738D01*
X59067619Y1479595D01*
X58572380Y1479595D01*
X57886666Y2012928D02*
X57886666Y1479595D01*
X58077142Y2317690D02*
X58267619Y1746261D01*
X57772380Y1746261D01*
X56489523Y2203404D02*
X56451428Y2241500D01*
X56375238Y2279595D01*
X56184761Y2279595D01*
X56108571Y2241500D01*
X56070476Y2203404D01*
X56032380Y2127214D01*
X56032380Y2051023D01*
X56070476Y1936738D01*
X56527619Y1479595D01*
X56032380Y1479595D01*
X55765714Y2279595D02*
X55270476Y2279595D01*
X55537142Y1974833D01*
X55422857Y1974833D01*
X55346666Y1936738D01*
X55308571Y1898642D01*
X55270476Y1822452D01*
X55270476Y1631976D01*
X55308571Y1555785D01*
X55346666Y1517690D01*
X55422857Y1479595D01*
X55651428Y1479595D01*
X55727619Y1517690D01*
X55765714Y1555785D01*
X53949523Y2203404D02*
X53911428Y2241500D01*
X53835238Y2279595D01*
X53644761Y2279595D01*
X53568571Y2241500D01*
X53530476Y2203404D01*
X53492380Y2127214D01*
X53492380Y2051023D01*
X53530476Y1936738D01*
X53987619Y1479595D01*
X53492380Y1479595D01*
X53187619Y2203404D02*
X53149523Y2241500D01*
X53073333Y2279595D01*
X52882857Y2279595D01*
X52806666Y2241500D01*
X52768571Y2203404D01*
X52730476Y2127214D01*
X52730476Y2051023D01*
X52768571Y1936738D01*
X53225714Y1479595D01*
X52730476Y1479595D01*
X51409523Y2203404D02*
X51371428Y2241500D01*
X51295238Y2279595D01*
X51104761Y2279595D01*
X51028571Y2241500D01*
X50990476Y2203404D01*
X50952380Y2127214D01*
X50952380Y2051023D01*
X50990476Y1936738D01*
X51447619Y1479595D01*
X50952380Y1479595D01*
X50190476Y1479595D02*
X50647619Y1479595D01*
X50419047Y1479595D02*
X50419047Y2279595D01*
X50495238Y2165309D01*
X50571428Y2089119D01*
X50647619Y2051023D01*
X48869523Y2203404D02*
X48831428Y2241500D01*
X48755238Y2279595D01*
X48564761Y2279595D01*
X48488571Y2241500D01*
X48450476Y2203404D01*
X48412380Y2127214D01*
X48412380Y2051023D01*
X48450476Y1936738D01*
X48907619Y1479595D01*
X48412380Y1479595D01*
X47917142Y2279595D02*
X47840952Y2279595D01*
X47764761Y2241500D01*
X47726666Y2203404D01*
X47688571Y2127214D01*
X47650476Y1974833D01*
X47650476Y1784357D01*
X47688571Y1631976D01*
X47726666Y1555785D01*
X47764761Y1517690D01*
X47840952Y1479595D01*
X47917142Y1479595D01*
X47993333Y1517690D01*
X48031428Y1555785D01*
X48069523Y1631976D01*
X48107619Y1784357D01*
X48107619Y1974833D01*
X48069523Y2127214D01*
X48031428Y2203404D01*
X47993333Y2241500D01*
X47917142Y2279595D01*
X45872380Y1479595D02*
X46329523Y1479595D01*
X46100952Y1479595D02*
X46100952Y2279595D01*
X46177142Y2165309D01*
X46253333Y2089119D01*
X46329523Y2051023D01*
X45491428Y1479595D02*
X45339047Y1479595D01*
X45262857Y1517690D01*
X45224761Y1555785D01*
X45148571Y1670071D01*
X45110476Y1822452D01*
X45110476Y2127214D01*
X45148571Y2203404D01*
X45186666Y2241500D01*
X45262857Y2279595D01*
X45415238Y2279595D01*
X45491428Y2241500D01*
X45529523Y2203404D01*
X45567619Y2127214D01*
X45567619Y1936738D01*
X45529523Y1860547D01*
X45491428Y1822452D01*
X45415238Y1784357D01*
X45262857Y1784357D01*
X45186666Y1822452D01*
X45148571Y1860547D01*
X45110476Y1936738D01*
X43332380Y1479595D02*
X43789523Y1479595D01*
X43560952Y1479595D02*
X43560952Y2279595D01*
X43637142Y2165309D01*
X43713333Y2089119D01*
X43789523Y2051023D01*
X42875238Y1936738D02*
X42951428Y1974833D01*
X42989523Y2012928D01*
X43027619Y2089119D01*
X43027619Y2127214D01*
X42989523Y2203404D01*
X42951428Y2241500D01*
X42875238Y2279595D01*
X42722857Y2279595D01*
X42646666Y2241500D01*
X42608571Y2203404D01*
X42570476Y2127214D01*
X42570476Y2089119D01*
X42608571Y2012928D01*
X42646666Y1974833D01*
X42722857Y1936738D01*
X42875238Y1936738D01*
X42951428Y1898642D01*
X42989523Y1860547D01*
X43027619Y1784357D01*
X43027619Y1631976D01*
X42989523Y1555785D01*
X42951428Y1517690D01*
X42875238Y1479595D01*
X42722857Y1479595D01*
X42646666Y1517690D01*
X42608571Y1555785D01*
X42570476Y1631976D01*
X42570476Y1784357D01*
X42608571Y1860547D01*
X42646666Y1898642D01*
X42722857Y1936738D01*
X40792380Y1479595D02*
X41249523Y1479595D01*
X41020952Y1479595D02*
X41020952Y2279595D01*
X41097142Y2165309D01*
X41173333Y2089119D01*
X41249523Y2051023D01*
X40525714Y2279595D02*
X39992380Y2279595D01*
X40335238Y1479595D01*
X38252380Y1479595D02*
X38709523Y1479595D01*
X38480952Y1479595D02*
X38480952Y2279595D01*
X38557142Y2165309D01*
X38633333Y2089119D01*
X38709523Y2051023D01*
X37566666Y2279595D02*
X37719047Y2279595D01*
X37795238Y2241500D01*
X37833333Y2203404D01*
X37909523Y2089119D01*
X37947619Y1936738D01*
X37947619Y1631976D01*
X37909523Y1555785D01*
X37871428Y1517690D01*
X37795238Y1479595D01*
X37642857Y1479595D01*
X37566666Y1517690D01*
X37528571Y1555785D01*
X37490476Y1631976D01*
X37490476Y1822452D01*
X37528571Y1898642D01*
X37566666Y1936738D01*
X37642857Y1974833D01*
X37795238Y1974833D01*
X37871428Y1936738D01*
X37909523Y1898642D01*
X37947619Y1822452D01*
X35712380Y1479595D02*
X36169523Y1479595D01*
X35940952Y1479595D02*
X35940952Y2279595D01*
X36017142Y2165309D01*
X36093333Y2089119D01*
X36169523Y2051023D01*
X34988571Y2279595D02*
X35369523Y2279595D01*
X35407619Y1898642D01*
X35369523Y1936738D01*
X35293333Y1974833D01*
X35102857Y1974833D01*
X35026666Y1936738D01*
X34988571Y1898642D01*
X34950476Y1822452D01*
X34950476Y1631976D01*
X34988571Y1555785D01*
X35026666Y1517690D01*
X35102857Y1479595D01*
X35293333Y1479595D01*
X35369523Y1517690D01*
X35407619Y1555785D01*
X33172380Y1479595D02*
X33629523Y1479595D01*
X33400952Y1479595D02*
X33400952Y2279595D01*
X33477142Y2165309D01*
X33553333Y2089119D01*
X33629523Y2051023D01*
X32486666Y2012928D02*
X32486666Y1479595D01*
X32677142Y2317690D02*
X32867619Y1746261D01*
X32372380Y1746261D01*
X30632380Y1479595D02*
X31089523Y1479595D01*
X30860952Y1479595D02*
X30860952Y2279595D01*
X30937142Y2165309D01*
X31013333Y2089119D01*
X31089523Y2051023D01*
X30365714Y2279595D02*
X29870476Y2279595D01*
X30137142Y1974833D01*
X30022857Y1974833D01*
X29946666Y1936738D01*
X29908571Y1898642D01*
X29870476Y1822452D01*
X29870476Y1631976D01*
X29908571Y1555785D01*
X29946666Y1517690D01*
X30022857Y1479595D01*
X30251428Y1479595D01*
X30327619Y1517690D01*
X30365714Y1555785D01*
X28092380Y1479595D02*
X28549523Y1479595D01*
X28320952Y1479595D02*
X28320952Y2279595D01*
X28397142Y2165309D01*
X28473333Y2089119D01*
X28549523Y2051023D01*
X27787619Y2203404D02*
X27749523Y2241500D01*
X27673333Y2279595D01*
X27482857Y2279595D01*
X27406666Y2241500D01*
X27368571Y2203404D01*
X27330476Y2127214D01*
X27330476Y2051023D01*
X27368571Y1936738D01*
X27825714Y1479595D01*
X27330476Y1479595D01*
X25552380Y1479595D02*
X26009523Y1479595D01*
X25780952Y1479595D02*
X25780952Y2279595D01*
X25857142Y2165309D01*
X25933333Y2089119D01*
X26009523Y2051023D01*
X24790476Y1479595D02*
X25247619Y1479595D01*
X25019047Y1479595D02*
X25019047Y2279595D01*
X25095238Y2165309D01*
X25171428Y2089119D01*
X25247619Y2051023D01*
X23012380Y1479595D02*
X23469523Y1479595D01*
X23240952Y1479595D02*
X23240952Y2279595D01*
X23317142Y2165309D01*
X23393333Y2089119D01*
X23469523Y2051023D01*
X22517142Y2279595D02*
X22440952Y2279595D01*
X22364761Y2241500D01*
X22326666Y2203404D01*
X22288571Y2127214D01*
X22250476Y1974833D01*
X22250476Y1784357D01*
X22288571Y1631976D01*
X22326666Y1555785D01*
X22364761Y1517690D01*
X22440952Y1479595D01*
X22517142Y1479595D01*
X22593333Y1517690D01*
X22631428Y1555785D01*
X22669523Y1631976D01*
X22707619Y1784357D01*
X22707619Y1974833D01*
X22669523Y2127214D01*
X22631428Y2203404D01*
X22593333Y2241500D01*
X22517142Y2279595D01*
X20472380Y1479595D02*
X20320000Y1479595D01*
X20243809Y1517690D01*
X20205714Y1555785D01*
X20129523Y1670071D01*
X20091428Y1822452D01*
X20091428Y2127214D01*
X20129523Y2203404D01*
X20167619Y2241500D01*
X20243809Y2279595D01*
X20396190Y2279595D01*
X20472380Y2241500D01*
X20510476Y2203404D01*
X20548571Y2127214D01*
X20548571Y1936738D01*
X20510476Y1860547D01*
X20472380Y1822452D01*
X20396190Y1784357D01*
X20243809Y1784357D01*
X20167619Y1822452D01*
X20129523Y1860547D01*
X20091428Y1936738D01*
X17856190Y1936738D02*
X17932380Y1974833D01*
X17970476Y2012928D01*
X18008571Y2089119D01*
X18008571Y2127214D01*
X17970476Y2203404D01*
X17932380Y2241500D01*
X17856190Y2279595D01*
X17703809Y2279595D01*
X17627619Y2241500D01*
X17589523Y2203404D01*
X17551428Y2127214D01*
X17551428Y2089119D01*
X17589523Y2012928D01*
X17627619Y1974833D01*
X17703809Y1936738D01*
X17856190Y1936738D01*
X17932380Y1898642D01*
X17970476Y1860547D01*
X18008571Y1784357D01*
X18008571Y1631976D01*
X17970476Y1555785D01*
X17932380Y1517690D01*
X17856190Y1479595D01*
X17703809Y1479595D01*
X17627619Y1517690D01*
X17589523Y1555785D01*
X17551428Y1631976D01*
X17551428Y1784357D01*
X17589523Y1860547D01*
X17627619Y1898642D01*
X17703809Y1936738D01*
X15506666Y2279595D02*
X14973333Y2279595D01*
X15316190Y1479595D01*
X12547619Y2279595D02*
X12700000Y2279595D01*
X12776190Y2241500D01*
X12814285Y2203404D01*
X12890476Y2089119D01*
X12928571Y1936738D01*
X12928571Y1631976D01*
X12890476Y1555785D01*
X12852380Y1517690D01*
X12776190Y1479595D01*
X12623809Y1479595D01*
X12547619Y1517690D01*
X12509523Y1555785D01*
X12471428Y1631976D01*
X12471428Y1822452D01*
X12509523Y1898642D01*
X12547619Y1936738D01*
X12623809Y1974833D01*
X12776190Y1974833D01*
X12852380Y1936738D01*
X12890476Y1898642D01*
X12928571Y1822452D01*
X9969523Y2279595D02*
X10350476Y2279595D01*
X10388571Y1898642D01*
X10350476Y1936738D01*
X10274285Y1974833D01*
X10083809Y1974833D01*
X10007619Y1936738D01*
X9969523Y1898642D01*
X9931428Y1822452D01*
X9931428Y1631976D01*
X9969523Y1555785D01*
X10007619Y1517690D01*
X10083809Y1479595D01*
X10274285Y1479595D01*
X10350476Y1517690D01*
X10388571Y1555785D01*
X7467619Y2012928D02*
X7467619Y1479595D01*
X7658095Y2317690D02*
X7848571Y1746261D01*
X7353333Y1746261D01*
X5346666Y2279595D02*
X4851428Y2279595D01*
X5118095Y1974833D01*
X5003809Y1974833D01*
X4927619Y1936738D01*
X4889523Y1898642D01*
X4851428Y1822452D01*
X4851428Y1631976D01*
X4889523Y1555785D01*
X4927619Y1517690D01*
X5003809Y1479595D01*
X5232380Y1479595D01*
X5308571Y1517690D01*
X5346666Y1555785D01*
X2768571Y2203404D02*
X2730476Y2241500D01*
X2654285Y2279595D01*
X2463809Y2279595D01*
X2387619Y2241500D01*
X2349523Y2203404D01*
X2311428Y2127214D01*
X2311428Y2051023D01*
X2349523Y1936738D01*
X2806666Y1479595D01*
X2311428Y1479595D01*
X-228571Y1924095D02*
X228571Y1924095D01*
X0Y1924095D02*
X0Y2724095D01*
X76190Y2609809D01*
X152380Y2533619D01*
X228571Y2495523D01*
D12*
X67319000Y-41994000D02*
X54619000Y-41994000D01*
X69989000Y-8754000D02*
X69989000Y-41994000D01*
X51949000Y-8754000D02*
X69989000Y-8754000D01*
X54619000Y-11424000D02*
X51949000Y-11424000D01*
X54619000Y-41994000D02*
X54619000Y-11424000D01*
X67319000Y-11424000D02*
X69989000Y-11424000D01*
X67319000Y-41994000D02*
X67319000Y-11424000D01*
X67319000Y-41994000D02*
X69989000Y-41994000D01*
X51949000Y-41994000D02*
X51949000Y-8754000D01*
X54619000Y-41994000D02*
X51949000Y-41994000D01*
%LPC*%
D13*
X10160000Y-25400000D03*
X10160000Y-22860000D03*
X45720000Y-27940000D03*
X93980000Y-30480000D03*
X93980000Y-10160000D03*
X111760000Y-20320000D03*
X76200000Y-20320000D03*
X60960000Y-27940000D03*
X43180000Y-27940000D03*
X20320000Y-27940000D03*
X20320000Y-12700000D03*
X20320000Y-30480000D03*
X22860000Y-30480000D03*
X20320000Y-33020000D03*
X22860000Y-33020000D03*
X116840000Y-45720000D03*
X114300000Y-45720000D03*
X111760000Y-45720000D03*
X109220000Y-45720000D03*
X106680000Y-45720000D03*
X104140000Y-45720000D03*
X101600000Y-45720000D03*
X99060000Y-45720000D03*
X96520000Y-45720000D03*
X93980000Y-45720000D03*
X91440000Y-45720000D03*
X88900000Y-45720000D03*
X86360000Y-45720000D03*
X83820000Y-45720000D03*
X81280000Y-45720000D03*
X78740000Y-45720000D03*
X76200000Y-45720000D03*
X73660000Y-45720000D03*
X71120000Y-45720000D03*
X68580000Y-45720000D03*
X66040000Y-45720000D03*
X63500000Y-45720000D03*
X60960000Y-45720000D03*
X58420000Y-45720000D03*
X55880000Y-45720000D03*
X53340000Y-45720000D03*
X50800000Y-45720000D03*
X48260000Y-45720000D03*
X45720000Y-45720000D03*
X43180000Y-45720000D03*
X40640000Y-45720000D03*
X38100000Y-45720000D03*
X35560000Y-45720000D03*
X33020000Y-45720000D03*
X30480000Y-45720000D03*
X27940000Y-45720000D03*
X25400000Y-45720000D03*
X22860000Y-45720000D03*
X20320000Y-45720000D03*
X17780000Y-45720000D03*
X15240000Y-45720000D03*
X12700000Y-45720000D03*
X10160000Y-45720000D03*
X7620000Y-45720000D03*
X5080000Y-45720000D03*
X119380000Y-43180000D03*
X116840000Y-43180000D03*
X114300000Y-43180000D03*
X111760000Y-43180000D03*
X109220000Y-43180000D03*
X106680000Y-43180000D03*
X104140000Y-43180000D03*
X101600000Y-43180000D03*
X99060000Y-43180000D03*
X96520000Y-43180000D03*
X93980000Y-43180000D03*
X91440000Y-43180000D03*
X88900000Y-43180000D03*
X86360000Y-43180000D03*
X83820000Y-43180000D03*
X81280000Y-43180000D03*
X78740000Y-43180000D03*
X76200000Y-43180000D03*
X73660000Y-43180000D03*
X71120000Y-43180000D03*
X68580000Y-43180000D03*
X66040000Y-43180000D03*
X63500000Y-43180000D03*
X60960000Y-43180000D03*
X58420000Y-43180000D03*
X55880000Y-43180000D03*
X53340000Y-43180000D03*
X50800000Y-43180000D03*
X48260000Y-43180000D03*
X45720000Y-43180000D03*
X43180000Y-43180000D03*
X40640000Y-43180000D03*
X38100000Y-43180000D03*
X35560000Y-43180000D03*
X33020000Y-43180000D03*
X30480000Y-43180000D03*
X27940000Y-43180000D03*
X25400000Y-43180000D03*
X22860000Y-43180000D03*
X20320000Y-43180000D03*
X17780000Y-43180000D03*
X15240000Y-43180000D03*
X12700000Y-43180000D03*
X10160000Y-43180000D03*
X7620000Y-43180000D03*
X5080000Y-43180000D03*
X2540000Y-43180000D03*
X121920000Y-40640000D03*
X119380000Y-40640000D03*
X116840000Y-40640000D03*
X114300000Y-40640000D03*
X111760000Y-40640000D03*
X109220000Y-40640000D03*
X106680000Y-40640000D03*
X104140000Y-40640000D03*
X101600000Y-40640000D03*
X99060000Y-40640000D03*
X96520000Y-40640000D03*
X93980000Y-40640000D03*
X91440000Y-40640000D03*
X88900000Y-40640000D03*
X86360000Y-40640000D03*
X83820000Y-40640000D03*
X81280000Y-40640000D03*
X78740000Y-40640000D03*
X76200000Y-40640000D03*
X73660000Y-40640000D03*
X71120000Y-40640000D03*
X68580000Y-40640000D03*
X66040000Y-40640000D03*
X63500000Y-40640000D03*
X60960000Y-40640000D03*
X58420000Y-40640000D03*
X55880000Y-40640000D03*
X53340000Y-40640000D03*
X50800000Y-40640000D03*
X48260000Y-40640000D03*
X45720000Y-40640000D03*
X43180000Y-40640000D03*
X40640000Y-40640000D03*
X38100000Y-40640000D03*
X35560000Y-40640000D03*
X33020000Y-40640000D03*
X30480000Y-40640000D03*
X27940000Y-40640000D03*
X25400000Y-40640000D03*
X22860000Y-40640000D03*
X20320000Y-40640000D03*
X17780000Y-40640000D03*
X15240000Y-40640000D03*
X12700000Y-40640000D03*
X10160000Y-40640000D03*
X7620000Y-40640000D03*
X5080000Y-40640000D03*
X2540000Y-40640000D03*
X0Y-40640000D03*
X121920000Y-38100000D03*
X119380000Y-38100000D03*
X116840000Y-38100000D03*
X114300000Y-38100000D03*
X111760000Y-38100000D03*
X109220000Y-38100000D03*
X106680000Y-38100000D03*
X104140000Y-38100000D03*
X101600000Y-38100000D03*
X99060000Y-38100000D03*
X96520000Y-38100000D03*
X93980000Y-38100000D03*
X91440000Y-38100000D03*
X88900000Y-38100000D03*
X86360000Y-38100000D03*
X83820000Y-38100000D03*
X81280000Y-38100000D03*
X78740000Y-38100000D03*
X76200000Y-38100000D03*
X73660000Y-38100000D03*
X71120000Y-38100000D03*
X68580000Y-38100000D03*
X66040000Y-38100000D03*
X63500000Y-38100000D03*
X60960000Y-38100000D03*
X58420000Y-38100000D03*
X55880000Y-38100000D03*
X53340000Y-38100000D03*
X50800000Y-38100000D03*
X48260000Y-38100000D03*
X45720000Y-38100000D03*
X43180000Y-38100000D03*
X40640000Y-38100000D03*
X38100000Y-38100000D03*
X35560000Y-38100000D03*
X33020000Y-38100000D03*
X30480000Y-38100000D03*
X27940000Y-38100000D03*
X25400000Y-38100000D03*
X22860000Y-38100000D03*
X20320000Y-38100000D03*
X17780000Y-38100000D03*
X15240000Y-38100000D03*
X12700000Y-38100000D03*
X10160000Y-38100000D03*
X7620000Y-38100000D03*
X5080000Y-38100000D03*
X2540000Y-38100000D03*
X0Y-38100000D03*
X121920000Y-35560000D03*
X119380000Y-35560000D03*
X116840000Y-35560000D03*
X114300000Y-35560000D03*
X111760000Y-35560000D03*
X109220000Y-35560000D03*
X106680000Y-35560000D03*
X104140000Y-35560000D03*
X101600000Y-35560000D03*
X99060000Y-35560000D03*
X96520000Y-35560000D03*
X93980000Y-35560000D03*
X91440000Y-35560000D03*
X88900000Y-35560000D03*
X86360000Y-35560000D03*
X83820000Y-35560000D03*
X81280000Y-35560000D03*
X78740000Y-35560000D03*
X76200000Y-35560000D03*
X73660000Y-35560000D03*
X71120000Y-35560000D03*
X68580000Y-35560000D03*
X66040000Y-35560000D03*
X63500000Y-35560000D03*
X60960000Y-35560000D03*
X58420000Y-35560000D03*
X55880000Y-35560000D03*
X53340000Y-35560000D03*
X50800000Y-35560000D03*
X48260000Y-35560000D03*
X45720000Y-35560000D03*
X43180000Y-35560000D03*
X40640000Y-35560000D03*
X38100000Y-35560000D03*
X35560000Y-35560000D03*
X33020000Y-35560000D03*
X30480000Y-35560000D03*
X27940000Y-35560000D03*
X25400000Y-35560000D03*
X22860000Y-35560000D03*
X20320000Y-35560000D03*
X17780000Y-35560000D03*
X15240000Y-35560000D03*
X12700000Y-35560000D03*
X10160000Y-35560000D03*
X7620000Y-35560000D03*
X5080000Y-35560000D03*
X2540000Y-35560000D03*
X0Y-35560000D03*
X121920000Y-33020000D03*
X119380000Y-33020000D03*
X116840000Y-33020000D03*
X114300000Y-33020000D03*
X111760000Y-33020000D03*
X109220000Y-33020000D03*
X106680000Y-33020000D03*
X104140000Y-33020000D03*
X101600000Y-33020000D03*
X99060000Y-33020000D03*
X96520000Y-33020000D03*
X93980000Y-33020000D03*
X91440000Y-33020000D03*
X88900000Y-33020000D03*
X86360000Y-33020000D03*
X83820000Y-33020000D03*
X81280000Y-33020000D03*
X78740000Y-33020000D03*
X76200000Y-33020000D03*
X73660000Y-33020000D03*
X71120000Y-33020000D03*
X68580000Y-33020000D03*
X66040000Y-33020000D03*
X63500000Y-33020000D03*
X60960000Y-33020000D03*
X58420000Y-33020000D03*
X55880000Y-33020000D03*
X53340000Y-33020000D03*
X50800000Y-33020000D03*
X48260000Y-33020000D03*
X45720000Y-33020000D03*
X43180000Y-33020000D03*
X40640000Y-33020000D03*
X38100000Y-33020000D03*
X35560000Y-33020000D03*
X33020000Y-33020000D03*
X30480000Y-33020000D03*
X27940000Y-33020000D03*
X25400000Y-33020000D03*
X17780000Y-33020000D03*
X15240000Y-33020000D03*
X12700000Y-33020000D03*
X10160000Y-33020000D03*
X7620000Y-33020000D03*
X5080000Y-33020000D03*
X2540000Y-33020000D03*
X0Y-33020000D03*
X121920000Y-30480000D03*
X119380000Y-30480000D03*
X116840000Y-30480000D03*
X114300000Y-30480000D03*
X111760000Y-30480000D03*
X109220000Y-30480000D03*
X106680000Y-30480000D03*
X104140000Y-30480000D03*
X101600000Y-30480000D03*
X99060000Y-30480000D03*
X96520000Y-30480000D03*
X91440000Y-30480000D03*
X88900000Y-30480000D03*
X86360000Y-30480000D03*
X83820000Y-30480000D03*
X81280000Y-30480000D03*
X78740000Y-30480000D03*
X76200000Y-30480000D03*
X73660000Y-30480000D03*
X71120000Y-30480000D03*
X68580000Y-30480000D03*
X66040000Y-30480000D03*
X63500000Y-30480000D03*
X60960000Y-30480000D03*
X58420000Y-30480000D03*
X55880000Y-30480000D03*
X53340000Y-30480000D03*
X50800000Y-30480000D03*
X48260000Y-30480000D03*
X45720000Y-30480000D03*
X43180000Y-30480000D03*
X40640000Y-30480000D03*
X38100000Y-30480000D03*
X35560000Y-30480000D03*
X33020000Y-30480000D03*
X30480000Y-30480000D03*
X27940000Y-30480000D03*
X25400000Y-30480000D03*
X17780000Y-30480000D03*
X15240000Y-30480000D03*
X12700000Y-30480000D03*
X10160000Y-30480000D03*
X7620000Y-30480000D03*
X5080000Y-30480000D03*
X2540000Y-30480000D03*
X0Y-30480000D03*
X121920000Y-27940000D03*
X119380000Y-27940000D03*
X116840000Y-27940000D03*
X114300000Y-27940000D03*
X111760000Y-27940000D03*
X109220000Y-27940000D03*
X106680000Y-27940000D03*
X104140000Y-27940000D03*
X101600000Y-27940000D03*
X99060000Y-27940000D03*
X96520000Y-27940000D03*
X93980000Y-27940000D03*
X91440000Y-27940000D03*
X88900000Y-27940000D03*
X86360000Y-27940000D03*
X83820000Y-27940000D03*
X81280000Y-27940000D03*
X78740000Y-27940000D03*
X76200000Y-27940000D03*
X73660000Y-27940000D03*
X71120000Y-27940000D03*
X68580000Y-27940000D03*
X66040000Y-27940000D03*
X63500000Y-27940000D03*
X58420000Y-27940000D03*
X55880000Y-27940000D03*
X53340000Y-27940000D03*
X50800000Y-27940000D03*
X48260000Y-27940000D03*
X40640000Y-27940000D03*
X38100000Y-27940000D03*
X35560000Y-27940000D03*
X33020000Y-27940000D03*
X30480000Y-27940000D03*
X27940000Y-27940000D03*
X25400000Y-27940000D03*
X22860000Y-27940000D03*
X17780000Y-27940000D03*
X15240000Y-27940000D03*
X12700000Y-27940000D03*
X10160000Y-27940000D03*
X7620000Y-27940000D03*
X5080000Y-27940000D03*
X2540000Y-27940000D03*
X0Y-27940000D03*
X121920000Y-25400000D03*
X119380000Y-25400000D03*
X116840000Y-25400000D03*
X114300000Y-25400000D03*
X111760000Y-25400000D03*
X109220000Y-25400000D03*
X106680000Y-25400000D03*
X104140000Y-25400000D03*
X101600000Y-25400000D03*
X99060000Y-25400000D03*
X96520000Y-25400000D03*
X93980000Y-25400000D03*
X91440000Y-25400000D03*
X88900000Y-25400000D03*
X86360000Y-25400000D03*
X83820000Y-25400000D03*
X81280000Y-25400000D03*
X78740000Y-25400000D03*
X76200000Y-25400000D03*
X73660000Y-25400000D03*
X71120000Y-25400000D03*
X68580000Y-25400000D03*
X66040000Y-25400000D03*
X63500000Y-25400000D03*
X60960000Y-25400000D03*
X58420000Y-25400000D03*
X55880000Y-25400000D03*
X53340000Y-25400000D03*
X50800000Y-25400000D03*
X48260000Y-25400000D03*
X45720000Y-25400000D03*
X43180000Y-25400000D03*
X40640000Y-25400000D03*
X38100000Y-25400000D03*
X35560000Y-25400000D03*
X33020000Y-25400000D03*
X30480000Y-25400000D03*
X27940000Y-25400000D03*
X25400000Y-25400000D03*
X22860000Y-25400000D03*
X20320000Y-25400000D03*
X17780000Y-25400000D03*
X15240000Y-25400000D03*
X12700000Y-25400000D03*
X7620000Y-25400000D03*
X5080000Y-25400000D03*
X2540000Y-25400000D03*
X0Y-25400000D03*
X121920000Y-22860000D03*
X119380000Y-22860000D03*
X116840000Y-22860000D03*
X114300000Y-22860000D03*
X111760000Y-22860000D03*
X109220000Y-22860000D03*
X106680000Y-22860000D03*
X104140000Y-22860000D03*
X101600000Y-22860000D03*
X99060000Y-22860000D03*
X96520000Y-22860000D03*
X93980000Y-22860000D03*
X91440000Y-22860000D03*
X88900000Y-22860000D03*
X86360000Y-22860000D03*
X83820000Y-22860000D03*
X81280000Y-22860000D03*
X78740000Y-22860000D03*
X76200000Y-22860000D03*
X73660000Y-22860000D03*
X71120000Y-22860000D03*
X68580000Y-22860000D03*
X66040000Y-22860000D03*
X63500000Y-22860000D03*
X60960000Y-22860000D03*
X58420000Y-22860000D03*
X55880000Y-22860000D03*
X53340000Y-22860000D03*
X50800000Y-22860000D03*
X48260000Y-22860000D03*
X45720000Y-22860000D03*
X43180000Y-22860000D03*
X40640000Y-22860000D03*
X38100000Y-22860000D03*
X35560000Y-22860000D03*
X33020000Y-22860000D03*
X30480000Y-22860000D03*
X27940000Y-22860000D03*
X25400000Y-22860000D03*
X22860000Y-22860000D03*
X20320000Y-22860000D03*
X17780000Y-22860000D03*
X15240000Y-22860000D03*
X12700000Y-22860000D03*
X7620000Y-22860000D03*
X5080000Y-22860000D03*
X2540000Y-22860000D03*
X0Y-22860000D03*
X121920000Y-20320000D03*
X119380000Y-20320000D03*
X116840000Y-20320000D03*
X114300000Y-20320000D03*
X109220000Y-20320000D03*
X106680000Y-20320000D03*
X104140000Y-20320000D03*
X101600000Y-20320000D03*
X99060000Y-20320000D03*
X96520000Y-20320000D03*
X93980000Y-20320000D03*
X91440000Y-20320000D03*
X88900000Y-20320000D03*
X86360000Y-20320000D03*
X83820000Y-20320000D03*
X81280000Y-20320000D03*
X78740000Y-20320000D03*
X73660000Y-20320000D03*
X71120000Y-20320000D03*
X68580000Y-20320000D03*
X66040000Y-20320000D03*
X63500000Y-20320000D03*
X60960000Y-20320000D03*
X58420000Y-20320000D03*
X55880000Y-20320000D03*
X53340000Y-20320000D03*
X50800000Y-20320000D03*
X48260000Y-20320000D03*
X45720000Y-20320000D03*
X43180000Y-20320000D03*
X40640000Y-20320000D03*
X38100000Y-20320000D03*
X35560000Y-20320000D03*
X33020000Y-20320000D03*
X30480000Y-20320000D03*
X27940000Y-20320000D03*
X25400000Y-20320000D03*
X22860000Y-20320000D03*
X20320000Y-20320000D03*
X17780000Y-20320000D03*
X15240000Y-20320000D03*
X12700000Y-20320000D03*
X10160000Y-20320000D03*
X7620000Y-20320000D03*
X5080000Y-20320000D03*
X2540000Y-20320000D03*
X0Y-20320000D03*
X121920000Y-17780000D03*
X119380000Y-17780000D03*
X116840000Y-17780000D03*
X114300000Y-17780000D03*
X111760000Y-17780000D03*
X109220000Y-17780000D03*
X106680000Y-17780000D03*
X104140000Y-17780000D03*
X101600000Y-17780000D03*
X99060000Y-17780000D03*
X96520000Y-17780000D03*
X93980000Y-17780000D03*
X91440000Y-17780000D03*
X88900000Y-17780000D03*
X86360000Y-17780000D03*
X83820000Y-17780000D03*
X81280000Y-17780000D03*
X78740000Y-17780000D03*
X76200000Y-17780000D03*
X73660000Y-17780000D03*
X71120000Y-17780000D03*
X68580000Y-17780000D03*
X66040000Y-17780000D03*
X63500000Y-17780000D03*
X60960000Y-17780000D03*
X58420000Y-17780000D03*
X55880000Y-17780000D03*
X53340000Y-17780000D03*
X50800000Y-17780000D03*
X48260000Y-17780000D03*
X45720000Y-17780000D03*
X43180000Y-17780000D03*
X40640000Y-17780000D03*
X38100000Y-17780000D03*
X35560000Y-17780000D03*
X33020000Y-17780000D03*
X30480000Y-17780000D03*
X27940000Y-17780000D03*
X25400000Y-17780000D03*
X22860000Y-17780000D03*
X20320000Y-17780000D03*
X17780000Y-17780000D03*
X15240000Y-17780000D03*
X12700000Y-17780000D03*
X10160000Y-17780000D03*
X7620000Y-17780000D03*
X5080000Y-17780000D03*
X2540000Y-17780000D03*
X0Y-17780000D03*
X121920000Y-15240000D03*
X119380000Y-15240000D03*
X116840000Y-15240000D03*
X114300000Y-15240000D03*
X111760000Y-15240000D03*
X109220000Y-15240000D03*
X106680000Y-15240000D03*
X104140000Y-15240000D03*
X101600000Y-15240000D03*
X99060000Y-15240000D03*
X96520000Y-15240000D03*
X93980000Y-15240000D03*
X91440000Y-15240000D03*
X88900000Y-15240000D03*
X86360000Y-15240000D03*
X83820000Y-15240000D03*
X81280000Y-15240000D03*
X78740000Y-15240000D03*
X76200000Y-15240000D03*
X73660000Y-15240000D03*
X71120000Y-15240000D03*
X68580000Y-15240000D03*
X66040000Y-15240000D03*
X63500000Y-15240000D03*
X60960000Y-15240000D03*
X58420000Y-15240000D03*
X55880000Y-15240000D03*
X53340000Y-15240000D03*
X50800000Y-15240000D03*
X48260000Y-15240000D03*
X45720000Y-15240000D03*
X43180000Y-15240000D03*
X40640000Y-15240000D03*
X38100000Y-15240000D03*
X35560000Y-15240000D03*
X33020000Y-15240000D03*
X30480000Y-15240000D03*
X27940000Y-15240000D03*
X25400000Y-15240000D03*
X22860000Y-15240000D03*
X20320000Y-15240000D03*
X17780000Y-15240000D03*
X15240000Y-15240000D03*
X12700000Y-15240000D03*
X10160000Y-15240000D03*
X7620000Y-15240000D03*
X5080000Y-15240000D03*
X2540000Y-15240000D03*
X0Y-15240000D03*
X121920000Y-12700000D03*
X119380000Y-12700000D03*
X116840000Y-12700000D03*
X114300000Y-12700000D03*
X111760000Y-12700000D03*
X109220000Y-12700000D03*
X106680000Y-12700000D03*
X104140000Y-12700000D03*
X101600000Y-12700000D03*
X99060000Y-12700000D03*
X96520000Y-12700000D03*
X93980000Y-12700000D03*
X91440000Y-12700000D03*
X88900000Y-12700000D03*
X86360000Y-12700000D03*
X83820000Y-12700000D03*
X81280000Y-12700000D03*
X78740000Y-12700000D03*
X76200000Y-12700000D03*
X73660000Y-12700000D03*
X71120000Y-12700000D03*
X68580000Y-12700000D03*
X66040000Y-12700000D03*
X63500000Y-12700000D03*
X60960000Y-12700000D03*
X58420000Y-12700000D03*
X55880000Y-12700000D03*
X53340000Y-12700000D03*
X50800000Y-12700000D03*
X48260000Y-12700000D03*
X45720000Y-12700000D03*
X43180000Y-12700000D03*
X40640000Y-12700000D03*
X38100000Y-12700000D03*
X35560000Y-12700000D03*
X33020000Y-12700000D03*
X30480000Y-12700000D03*
X27940000Y-12700000D03*
X25400000Y-12700000D03*
X22860000Y-12700000D03*
X17780000Y-12700000D03*
X15240000Y-12700000D03*
X12700000Y-12700000D03*
X10160000Y-12700000D03*
X7620000Y-12700000D03*
X5080000Y-12700000D03*
X2540000Y-12700000D03*
X0Y-12700000D03*
X121920000Y-10160000D03*
X119380000Y-10160000D03*
X116840000Y-10160000D03*
X114300000Y-10160000D03*
X111760000Y-10160000D03*
X109220000Y-10160000D03*
X106680000Y-10160000D03*
X104140000Y-10160000D03*
X101600000Y-10160000D03*
X99060000Y-10160000D03*
X96520000Y-10160000D03*
X91440000Y-10160000D03*
X88900000Y-10160000D03*
X86360000Y-10160000D03*
X83820000Y-10160000D03*
X81280000Y-10160000D03*
X78740000Y-10160000D03*
X76200000Y-10160000D03*
X73660000Y-10160000D03*
X71120000Y-10160000D03*
X68580000Y-10160000D03*
X66040000Y-10160000D03*
X63500000Y-10160000D03*
X60960000Y-10160000D03*
X58420000Y-10160000D03*
X55880000Y-10160000D03*
X53340000Y-10160000D03*
X50800000Y-10160000D03*
X48260000Y-10160000D03*
X45720000Y-10160000D03*
X43180000Y-10160000D03*
X40640000Y-10160000D03*
X38100000Y-10160000D03*
X35560000Y-10160000D03*
X33020000Y-10160000D03*
X30480000Y-10160000D03*
X27940000Y-10160000D03*
X25400000Y-10160000D03*
X22860000Y-10160000D03*
X20320000Y-10160000D03*
X17780000Y-10160000D03*
X15240000Y-10160000D03*
X12700000Y-10160000D03*
X10160000Y-10160000D03*
X7620000Y-10160000D03*
X5080000Y-10160000D03*
X2540000Y-10160000D03*
X0Y-10160000D03*
X121920000Y-7620000D03*
X119380000Y-7620000D03*
X116840000Y-7620000D03*
X114300000Y-7620000D03*
X111760000Y-7620000D03*
X109220000Y-7620000D03*
X106680000Y-7620000D03*
X104140000Y-7620000D03*
X101600000Y-7620000D03*
X99060000Y-7620000D03*
X96520000Y-7620000D03*
X93980000Y-7620000D03*
X91440000Y-7620000D03*
X88900000Y-7620000D03*
X86360000Y-7620000D03*
X83820000Y-7620000D03*
X81280000Y-7620000D03*
X78740000Y-7620000D03*
X76200000Y-7620000D03*
X73660000Y-7620000D03*
X71120000Y-7620000D03*
X68580000Y-7620000D03*
X66040000Y-7620000D03*
X63500000Y-7620000D03*
X60960000Y-7620000D03*
X58420000Y-7620000D03*
X55880000Y-7620000D03*
X53340000Y-7620000D03*
X50800000Y-7620000D03*
X48260000Y-7620000D03*
X45720000Y-7620000D03*
X43180000Y-7620000D03*
X40640000Y-7620000D03*
X38100000Y-7620000D03*
X35560000Y-7620000D03*
X33020000Y-7620000D03*
X30480000Y-7620000D03*
X27940000Y-7620000D03*
X25400000Y-7620000D03*
X22860000Y-7620000D03*
X20320000Y-7620000D03*
X17780000Y-7620000D03*
X15240000Y-7620000D03*
X12700000Y-7620000D03*
X10160000Y-7620000D03*
X7620000Y-7620000D03*
X5080000Y-7620000D03*
X2540000Y-7620000D03*
X0Y-7620000D03*
X121920000Y-5080000D03*
X119380000Y-5080000D03*
X116840000Y-5080000D03*
X114300000Y-5080000D03*
X111760000Y-5080000D03*
X109220000Y-5080000D03*
X106680000Y-5080000D03*
X104140000Y-5080000D03*
X101600000Y-5080000D03*
X99060000Y-5080000D03*
X96520000Y-5080000D03*
X93980000Y-5080000D03*
X91440000Y-5080000D03*
X88900000Y-5080000D03*
X86360000Y-5080000D03*
X83820000Y-5080000D03*
X81280000Y-5080000D03*
X78740000Y-5080000D03*
X76200000Y-5080000D03*
X73660000Y-5080000D03*
X71120000Y-5080000D03*
X68580000Y-5080000D03*
X66040000Y-5080000D03*
X63500000Y-5080000D03*
X60960000Y-5080000D03*
X58420000Y-5080000D03*
X55880000Y-5080000D03*
X53340000Y-5080000D03*
X50800000Y-5080000D03*
X48260000Y-5080000D03*
X45720000Y-5080000D03*
X43180000Y-5080000D03*
X40640000Y-5080000D03*
X38100000Y-5080000D03*
X35560000Y-5080000D03*
X33020000Y-5080000D03*
X30480000Y-5080000D03*
X27940000Y-5080000D03*
X25400000Y-5080000D03*
X22860000Y-5080000D03*
X20320000Y-5080000D03*
X17780000Y-5080000D03*
X15240000Y-5080000D03*
X12700000Y-5080000D03*
X10160000Y-5080000D03*
X7620000Y-5080000D03*
X5080000Y-5080000D03*
X2540000Y-5080000D03*
X0Y-5080000D03*
X119380000Y-2540000D03*
X116840000Y-2540000D03*
X114300000Y-2540000D03*
X111760000Y-2540000D03*
X109220000Y-2540000D03*
X106680000Y-2540000D03*
X104140000Y-2540000D03*
X101600000Y-2540000D03*
X99060000Y-2540000D03*
X96520000Y-2540000D03*
X93980000Y-2540000D03*
X91440000Y-2540000D03*
X88900000Y-2540000D03*
X86360000Y-2540000D03*
X83820000Y-2540000D03*
X81280000Y-2540000D03*
X78740000Y-2540000D03*
X76200000Y-2540000D03*
X73660000Y-2540000D03*
X71120000Y-2540000D03*
X68580000Y-2540000D03*
X66040000Y-2540000D03*
X63500000Y-2540000D03*
X60960000Y-2540000D03*
X58420000Y-2540000D03*
X55880000Y-2540000D03*
X53340000Y-2540000D03*
X50800000Y-2540000D03*
X48260000Y-2540000D03*
X45720000Y-2540000D03*
X43180000Y-2540000D03*
X40640000Y-2540000D03*
X38100000Y-2540000D03*
X35560000Y-2540000D03*
X33020000Y-2540000D03*
X30480000Y-2540000D03*
X27940000Y-2540000D03*
X25400000Y-2540000D03*
X22860000Y-2540000D03*
X20320000Y-2540000D03*
X17780000Y-2540000D03*
X15240000Y-2540000D03*
X12700000Y-2540000D03*
X10160000Y-2540000D03*
X7620000Y-2540000D03*
X5080000Y-2540000D03*
X2540000Y-2540000D03*
X116840000Y0D03*
X114300000Y0D03*
X111760000Y0D03*
X109220000Y0D03*
X106680000Y0D03*
X104140000Y0D03*
X101600000Y0D03*
X99060000Y0D03*
X96520000Y0D03*
X93980000Y0D03*
X91440000Y0D03*
X88900000Y0D03*
X86360000Y0D03*
X83820000Y0D03*
X81280000Y0D03*
X78740000Y0D03*
X76200000Y0D03*
X73660000Y0D03*
X71120000Y0D03*
X68580000Y0D03*
X66040000Y0D03*
X63500000Y0D03*
X60960000Y0D03*
X58420000Y0D03*
X55880000Y0D03*
X53340000Y0D03*
X50800000Y0D03*
X48260000Y0D03*
X45720000Y0D03*
X43180000Y0D03*
X40640000Y0D03*
X38100000Y0D03*
X35560000Y0D03*
X33020000Y0D03*
X30480000Y0D03*
X27940000Y0D03*
X25400000Y0D03*
X22860000Y0D03*
X20320000Y0D03*
X17780000Y0D03*
X15240000Y0D03*
X12700000Y0D03*
X10160000Y0D03*
X7620000Y0D03*
X5080000Y0D03*
M02*
