M48
; DRILL file {KiCad (5.1.5)-3} date 12/24/22 19:01:29
; FORMAT={-:-/ absolute / metric / decimal}
; #@! TF.CreationDate,2022-12-24T19:01:29+01:00
; #@! TF.GenerationSoftware,Kicad,Pcbnew,(5.1.5)-3
; #@! TF.FileFunction,Plated,1,2,PTH
FMAT,2
METRIC
T1C1.000
%
G90
G05
T1
X73.66Y-45.72
X30.48Y-35.56
X40.64Y-33.02
X58.42Y-5.08
X88.9Y-22.86
X116.84Y-12.7
X38.1Y-43.18
X76.2Y-38.1
X76.2Y-33.02
X0.0Y-5.08
X48.26Y-22.86
X12.7Y-15.24
X55.88Y-43.18
X109.22Y-38.1
X50.8Y-5.08
X45.72Y-15.24
X38.1Y-10.16
X76.2Y-43.18
X78.74Y-38.1
X2.54Y-7.62
X63.5Y-15.24
X25.4Y-10.16
X10.16Y0.0
X71.12Y-40.64
X83.82Y-38.1
X81.28Y-27.94
X111.76Y-5.08
X40.64Y-15.24
X27.94Y-10.16
X12.7Y-17.78
X78.74Y-40.64
X81.28Y-38.1
X27.94Y-25.4
X27.94Y-30.48
X101.6Y-5.08
X73.66Y-15.24
X68.58Y-10.16
X30.48Y-17.78
X99.06Y-40.64
X109.22Y-43.18
X50.8Y-25.4
X17.78Y-30.48
X12.7Y-7.62
X48.26Y-15.24
X78.74Y-10.16
X17.78Y0.0
X86.36Y-17.78
X10.16Y-45.72
X78.74Y-25.4
X33.02Y-30.48
X116.84Y-7.62
X30.48Y-2.54
X71.12Y-20.32
X101.6Y-10.16
X73.66Y0.0
X22.86Y-40.64
X53.34Y-17.78
X10.16Y-25.4
X60.96Y-25.4
X45.72Y-30.48
X86.36Y-7.62
X5.08Y-2.54
X2.54Y-22.86
X96.52Y-10.16
X25.4Y0.0
X50.8Y-40.64
X78.74Y-17.78
X99.06Y-25.4
X10.16Y-33.02
X45.72Y-7.62
X10.16Y-2.54
X93.98Y-20.32
X116.84Y-10.16
X78.74Y0.0
X60.96Y-40.64
X7.62Y-38.1
X10.16Y-20.32
X22.86Y-30.48
X66.04Y-27.94
X40.64Y-45.72
X91.44Y-30.48
X93.98Y-7.62
X53.34Y-2.54
X99.06Y-20.32
X86.36Y-12.7
X114.3Y0.0
X104.14Y-35.56
X55.88Y-20.32
X35.56Y-43.18
X71.12Y-27.94
X22.86Y-45.72
X68.58Y-30.48
X38.1Y-7.62
X68.58Y-2.54
X15.24Y-22.86
X71.12Y-12.7
X22.86Y0.0
X27.94Y-38.1
X20.32Y-20.32
X5.08Y-43.18
X38.1Y-35.56
X121.92Y-25.4
X38.1Y-45.72
X27.94Y-33.02
X91.44Y-2.54
X60.96Y-22.86
X38.1Y-12.7
X96.52Y-35.56
X25.4Y-20.32
X10.16Y-43.18
X63.5Y-35.56
X55.88Y-33.02
X38.1Y-27.94
X15.24Y-33.02
X119.38Y-2.54
X53.34Y-22.86
X53.34Y-12.7
X109.22Y-35.56
X91.44Y-17.78
X71.12Y-45.72
X2.54Y-35.56
X73.66Y-33.02
X40.64Y-27.94
X60.96Y-5.08
X106.68Y-22.86
X96.52Y-12.7
X93.98Y-45.72
X71.12Y-35.56
X33.02Y-33.02
X27.94Y-5.08
X5.08Y-25.4
X121.92Y-12.7
X81.28Y-45.72
X45.72Y-35.56
X48.26Y-33.02
X71.12Y-5.08
X121.92Y-22.86
X119.38Y-12.7
X73.66Y-43.18
X88.9Y-38.1
X88.9Y-33.02
X68.58Y-5.08
X63.5Y-22.86
X22.86Y-15.24
X48.26Y-43.18
X101.6Y-38.1
X30.48Y-5.08
X53.34Y-15.24
X0.0Y-10.16
X55.88Y-38.1
X86.36Y-27.94
X88.9Y-5.08
X106.68Y-15.24
X43.18Y-10.16
X109.22Y-40.64
X86.36Y-38.1
X17.78Y-25.4
X83.82Y-27.94
X30.48Y-7.62
X60.96Y-15.24
X30.48Y-10.16
X12.7Y0.0
X2.54Y-17.78
X81.28Y-40.64
X7.62Y-45.72
X93.98Y-38.1
X22.86Y-25.4
X38.1Y-30.48
X10.16Y-7.62
X76.2Y-15.24
X86.36Y-10.16
X81.28Y-17.78
X106.68Y-43.18
X88.9Y-25.4
X40.64Y-30.48
X20.32Y-7.62
X101.6Y-15.24
X83.82Y-10.16
X38.1Y0.0
X38.1Y-17.78
X114.3Y-43.18
X83.82Y-25.4
X114.3Y-27.94
X104.14Y-7.62
X35.56Y-2.54
X81.28Y-20.32
X99.06Y-10.16
X106.68Y0.0
X25.4Y-40.64
X83.82Y-17.78
X45.72Y-25.4
X58.42Y-30.48
X81.28Y-7.62
X40.64Y-2.54
X22.86Y-22.86
X106.68Y-10.16
X53.34Y0.0
X45.72Y-40.64
X93.98Y-17.78
X104.14Y-25.4
X101.6Y-30.48
X15.24Y-7.62
X20.32Y-2.54
X116.84Y-20.32
X5.08Y-12.7
X71.12Y0.0
X30.48Y-40.64
X35.56Y-38.1
X15.24Y-20.32
X104.14Y-45.72
X116.84Y-25.4
X48.26Y-45.72
X2.54Y-33.02
X119.38Y-7.62
X76.2Y-2.54
X106.68Y-20.32
X12.7Y-12.7
X91.44Y0.0
X2.54Y-38.1
X35.56Y-17.78
X119.38Y-40.64
X58.42Y-35.56
X78.74Y-27.94
X27.94Y-45.72
X83.82Y-30.48
X88.9Y-7.62
X71.12Y-2.54
X25.4Y-22.86
X68.58Y-12.7
X86.36Y0.0
X38.1Y-38.1
X48.26Y-20.32
X15.24Y-43.18
X20.32Y-35.56
X7.62Y-27.94
X45.72Y-45.72
X63.5Y-30.48
X93.98Y-2.54
X68.58Y-22.86
X43.18Y-12.7
X33.02Y-38.1
X38.1Y-20.32
X2.54Y-43.18
X33.02Y-35.56
X58.42Y-33.02
X53.34Y-27.94
X50.8Y-30.48
X114.3Y-2.54
X0.0Y-25.4
X73.66Y-12.7
X114.3Y-35.56
X88.9Y-17.78
X66.04Y-45.72
X5.08Y-35.56
X106.68Y-33.02
X101.6Y-25.4
X45.72Y-5.08
X83.82Y-22.86
X104.14Y-12.7
X99.06Y-45.72
X17.78Y-35.56
X43.18Y-33.02
X78.74Y-5.08
X114.3Y-22.86
X111.76Y-12.7
X101.6Y-45.72
X50.8Y-35.56
X60.96Y-33.02
X40.64Y-5.08
X104.14Y-22.86
X2.54Y-15.24
X40.64Y-43.18
X91.44Y-38.1
X91.44Y-33.02
X48.26Y-5.08
X33.02Y-15.24
X50.8Y-43.18
X5.08Y-40.64
X33.02Y-5.08
X55.88Y-15.24
X12.7Y-10.16
X58.42Y-38.1
X101.6Y-27.94
X91.44Y-5.08
X116.84Y-15.24
X22.86Y-10.16
X96.52Y-40.64
X106.68Y-38.1
X30.48Y-25.4
X88.9Y-27.94
X17.78Y-7.62
X66.04Y-15.24
X45.72Y-10.16
X5.08Y-17.78
X106.68Y-40.64
X86.36Y-43.18
X17.78Y-40.64
X7.62Y-25.4
X104.14Y-27.94
X104.14Y-5.08
X50.8Y-15.24
X55.88Y-10.16
X45.72Y-17.78
X93.98Y-10.16
X93.98Y-43.18
X33.02Y-25.4
X109.22Y-27.94
X25.4Y-7.62
X30.48Y-15.24
X0.0Y-12.7
X43.18Y0.0
X40.64Y-17.78
X76.2Y-20.32
X83.82Y-43.18
X48.26Y-25.4
X116.84Y-27.94
X63.5Y-7.62
X38.1Y-2.54
X73.66Y-20.32
X114.3Y-10.16
X99.06Y0.0
X27.94Y-40.64
X58.42Y-17.78
X53.34Y-25.4
X114.3Y-30.48
X91.44Y-7.62
X15.24Y-2.54
X88.9Y-20.32
X111.76Y-10.16
X27.94Y0.0
X55.88Y-40.64
X101.6Y-17.78
X106.68Y-25.4
X104.14Y-30.48
X78.74Y-7.62
X22.86Y-2.54
X121.92Y-20.32
X66.04Y-12.7
X76.2Y0.0
X58.42Y-40.64
X48.26Y-38.1
X27.94Y-20.32
X106.68Y-45.72
X119.38Y-25.4
X53.34Y-45.72
X17.78Y-33.02
X96.52Y-7.62
X55.88Y-2.54
X109.22Y-20.32
X30.48Y-12.7
X48.26Y0.0
X111.76Y-35.56
X99.06Y-17.78
X121.92Y-40.64
X48.26Y-35.56
X25.4Y-27.94
X30.48Y-45.72
X96.52Y-30.48
X121.92Y-7.62
X73.66Y-2.54
X27.94Y-22.86
X91.44Y-10.16
X40.64Y0.0
X88.9Y-35.56
X58.42Y-20.32
X20.32Y-43.18
X83.82Y-35.56
X2.54Y-27.94
X43.18Y-45.72
X78.74Y-30.48
X96.52Y-2.54
X78.74Y-22.86
X58.42Y-12.7
X17.78Y-38.1
X53.34Y-20.32
X7.62Y-43.18
X81.28Y-35.56
X78.74Y-33.02
X73.66Y-27.94
X12.7Y-33.02
X116.84Y-2.54
X55.88Y-22.86
X25.4Y-12.7
X15.24Y-38.1
X96.52Y-17.78
X63.5Y-45.72
X78.74Y-35.56
X101.6Y-33.02
X15.24Y-27.94
X63.5Y-5.08
X99.06Y-22.86
X20.32Y-15.24
X86.36Y-45.72
X22.86Y-35.56
X99.06Y-33.02
X81.28Y-5.08
X71.12Y-22.86
X106.68Y-12.7
X116.84Y-33.02
X20.32Y-5.08
X109.22Y-22.86
X5.08Y-15.24
X43.18Y-43.18
X10.16Y-40.64
X111.76Y-33.02
X83.82Y-5.08
X35.56Y-15.24
X63.5Y-43.18
X12.7Y-40.64
X43.18Y-5.08
X71.12Y-15.24
X20.32Y-10.16
X0.0Y-40.64
X91.44Y-27.94
X93.98Y-5.08
X88.9Y-15.24
X33.02Y-10.16
X15.24Y-17.78
X68.58Y-40.64
X116.84Y-38.1
X20.32Y-25.4
X5.08Y-30.48
X96.52Y-5.08
X99.06Y-15.24
X88.9Y-10.16
X7.62Y-17.78
X104.14Y-40.64
X88.9Y-43.18
X63.5Y-38.1
X43.18Y-25.4
X121.92Y-27.94
X116.84Y-5.08
X93.98Y-15.24
X58.42Y-10.16
X5.08Y0.0
X33.02Y-17.78
X96.52Y-43.18
X35.56Y-25.4
X15.24Y-30.48
X27.94Y-7.62
X58.42Y-15.24
X2.54Y-12.7
X60.96Y0.0
X71.12Y-17.78
X10.16Y-22.86
X91.44Y-43.18
X86.36Y-25.4
X119.38Y-27.94
X60.96Y-7.62
X43.18Y-2.54
X66.04Y-20.32
X7.62Y-12.7
X58.42Y0.0
X35.56Y-40.64
X55.88Y-17.78
X68.58Y-25.4
X119.38Y-30.48
X106.68Y-7.62
X27.94Y-2.54
X101.6Y-20.32
X45.72Y-12.7
X68.58Y0.0
X63.5Y-40.64
X104.14Y-17.78
X12.7Y-27.94
X86.36Y-30.48
X50.8Y-7.62
X25.4Y-2.54
X12.7Y-22.86
X33.02Y-12.7
X30.48Y0.0
X66.04Y-40.64
X10.16Y-38.1
X33.02Y-20.32
X109.22Y-45.72
X55.88Y-27.94
X55.88Y-45.72
X109.22Y-30.48
X109.22Y-7.62
X58.42Y-2.54
X0.0Y-22.86
X40.64Y-12.7
X96.52Y0.0
X121.92Y-35.56
X2.54Y-20.32
X12.7Y-43.18
X73.66Y-35.56
X17.78Y-27.94
X33.02Y-45.72
X111.76Y-30.48
X101.6Y-7.62
X78.74Y-2.54
X33.02Y-22.86
X17.78Y-12.7
X45.72Y0.0
X99.06Y-35.56
X114.3Y-17.78
X25.4Y-43.18
X35.56Y-35.56
X93.98Y-33.02
X5.08Y-27.94
X50.8Y-45.72
X81.28Y-30.48
X99.06Y-2.54
X96.52Y-22.86
X60.96Y-12.7
X116.84Y-35.56
X35.56Y-20.32
X27.94Y-43.18
X121.92Y-33.02
X45.72Y-33.02
X58.42Y-27.94
X121.92Y-30.48
X12.7Y-5.08
X76.2Y-22.86
X0.0Y-15.24
X25.4Y-38.1
X40.64Y-20.32
X76.2Y-45.72
X7.62Y-35.56
X119.38Y-33.02
X109.22Y-25.4
X55.88Y-5.08
X66.04Y-22.86
X27.94Y-15.24
X83.82Y-45.72
X55.88Y-35.56
X81.28Y-33.02
X76.2Y-5.08
X81.28Y-22.86
X109.22Y-12.7
X78.74Y-43.18
X66.04Y-33.02
X2.54Y-5.08
X30.48Y-22.86
X17.78Y-15.24
X58.42Y-43.18
X7.62Y-40.64
X104.14Y-33.02
X73.66Y-5.08
X38.1Y-15.24
X53.34Y-43.18
X121.92Y-38.1
X66.04Y-5.08
X86.36Y-15.24
X2.54Y-10.16
X86.36Y-40.64
X15.24Y-40.64
X93.98Y-27.94
X0.0Y-7.62
X68.58Y-15.24
X17.78Y-10.16
X17.78Y-17.78
X93.98Y-40.64
X60.96Y-38.1
X25.4Y-25.4
X7.62Y-30.48
X114.3Y-5.08
X83.82Y-15.24
X48.26Y-10.16
X20.32Y0.0
X10.16Y-17.78
X101.6Y-40.64
X5.08Y-45.72
X73.66Y-38.1
X71.12Y-25.4
X48.26Y-30.48
X119.38Y-5.08
X119.38Y-15.24
X63.5Y-10.16
X60.96Y-17.78
X101.6Y-43.18
X38.1Y-25.4
X30.48Y-30.48
X40.64Y-7.62
X81.28Y-15.24
X10.16Y-12.7
X104.14Y0.0
X43.18Y-17.78
X60.96Y-27.94
X111.76Y-43.18
X58.42Y-25.4
X0.0Y-30.48
X71.12Y-7.62
X33.02Y-2.54
X83.82Y-20.32
X60.96Y-10.16
X83.82Y0.0
X40.64Y-40.64
X66.04Y-17.78
X111.76Y-20.32
X73.66Y-25.4
X66.04Y-30.48
X114.3Y-7.62
X2.54Y-2.54
X104.14Y-20.32
X121.92Y-10.16
X55.88Y0.0
X48.26Y-40.64
X22.86Y-38.1
X5.08Y-20.32
X27.94Y-27.94
X73.66Y-30.48
X53.34Y-7.62
X45.72Y-2.54
X17.78Y-22.86
X76.2Y-12.7
X33.02Y0.0
X45.72Y-38.1
X116.84Y-17.78
X22.86Y-33.02
X0.0Y-27.94
X12.7Y-45.72
X106.68Y-30.48
X73.66Y-7.62
X60.96Y-2.54
X114.3Y-20.32
X81.28Y-12.7
X66.04Y0.0
X40.64Y-38.1
X109.22Y-17.78
X30.48Y-43.18
X68.58Y-35.56
X50.8Y-27.94
X35.56Y-45.72
X0.0Y-33.02
X33.02Y-7.62
X81.28Y-2.54
X40.64Y-22.86
X35.56Y-12.7
X101.6Y-35.56
X7.62Y-20.32
X17.78Y-43.18
X25.4Y-35.56
X109.22Y-33.02
X22.86Y-27.94
X5.08Y-33.02
X104.14Y-2.54
X38.1Y-22.86
X50.8Y-12.7
X0.0Y-38.1
X121.92Y-17.78
X15.24Y-35.56
X63.5Y-33.02
X76.2Y-27.94
X35.56Y-5.08
X101.6Y-22.86
X88.9Y-12.7
X12.7Y-38.1
X106.68Y-17.78
X78.74Y-45.72
X10.16Y-35.56
X53.34Y-33.02
X5.08Y-5.08
X2.54Y-25.4
X114.3Y-12.7
X96.52Y-45.72
X86.36Y-35.56
X83.82Y-33.02
X7.62Y-5.08
X73.66Y-22.86
X25.4Y-15.24
X81.28Y-43.18
X119.38Y-38.1
X68.58Y-33.02
X53.34Y-5.08
X35.56Y-22.86
X10.16Y-15.24
X45.72Y-43.18
X2.54Y-40.64
X101.6Y-2.54
X43.18Y-15.24
X5.08Y-10.16
X60.96Y-43.18
X104.14Y-38.1
X22.86Y-5.08
X96.52Y-15.24
X10.16Y-10.16
X20.32Y-30.48
X76.2Y-40.64
X66.04Y-38.1
X96.52Y-27.94
X106.68Y-5.08
X78.74Y-15.24
X35.56Y-10.16
X22.86Y-17.78
X91.44Y-40.64
X68.58Y-38.1
X12.7Y-25.4
X25.4Y-30.48
X7.62Y-7.62
X111.76Y-15.24
X50.8Y-10.16
X25.4Y-17.78
X88.9Y-40.64
X99.06Y-43.18
X111.76Y-38.1
X76.2Y-25.4
X106.68Y-27.94
X121.92Y-5.08
X121.92Y-15.24
X73.66Y-10.16
X7.62Y0.0
X63.5Y-17.78
X20.32Y-27.94
X104.14Y-43.18
X55.88Y-25.4
X43.18Y-30.48
X35.56Y-7.62
X78.74Y-20.32
X119.38Y-10.16
X63.5Y0.0
X48.26Y-17.78
X45.72Y-27.94
X81.28Y-25.4
X12.7Y-30.48
X55.88Y-7.62
X7.62Y-2.54
X63.5Y-20.32
X66.04Y-10.16
X81.28Y0.0
X53.34Y-40.64
X73.66Y-17.78
X20.32Y-12.7
X91.44Y-25.4
X71.12Y-30.48
X22.86Y-7.62
X12.7Y-2.54
X7.62Y-22.86
X104.14Y-10.16
X93.98Y0.0
X33.02Y-40.64
X43.18Y-38.1
X30.48Y-20.32
X20.32Y-33.02
X111.76Y-25.4
X76.2Y-30.48
X66.04Y-7.62
X48.26Y-2.54
X20.32Y-22.86
X22.86Y-12.7
X35.56Y0.0
X53.34Y-38.1
X119.38Y-17.78
X116.84Y-45.72
X10.16Y-27.94
X17.78Y-45.72
X53.34Y-30.48
X99.06Y-7.62
X63.5Y-2.54
X119.38Y-20.32
X15.24Y-12.7
X101.6Y0.0
X30.48Y-38.1
X111.76Y-17.78
X22.86Y-43.18
X66.04Y-35.56
X68.58Y-27.94
X20.32Y-45.72
X7.62Y-33.02
X76.2Y-7.62
X86.36Y-2.54
X45.72Y-22.86
X63.5Y-12.7
X91.44Y-35.56
X50.8Y-20.32
X33.02Y-43.18
X27.94Y-35.56
X38.1Y-33.02
X30.48Y-27.94
X116.84Y-30.48
X109.22Y-2.54
X93.98Y-22.86
X78.74Y-12.7
X20.32Y-38.1
X43.18Y-20.32
X60.96Y-45.72
X43.18Y-35.56
X86.36Y-33.02
X63.5Y-27.94
X38.1Y-5.08
X119.38Y-22.86
X91.44Y-12.7
X12.7Y-20.32
X68.58Y-45.72
X12.7Y-35.56
X114.3Y-33.02
X10.16Y-5.08
X58.42Y-22.86
X99.06Y-12.7
X58.42Y-45.72
X60.96Y-35.56
X35.56Y-33.02
X15.24Y-5.08
X86.36Y-22.86
X7.62Y-15.24
X66.04Y-43.18
X20.32Y-40.64
X71.12Y-33.02
X83.82Y-2.54
X43.18Y-22.86
X15.24Y-15.24
X71.12Y-43.18
X96.52Y-38.1
X106.68Y-2.54
X0.0Y-17.78
X7.62Y-10.16
X68.58Y-43.18
X99.06Y-38.1
X86.36Y-5.08
X109.22Y-15.24
X15.24Y-10.16
X73.66Y-40.64
X114.3Y-38.1
X99.06Y-27.94
X109.22Y-5.08
X104.14Y-15.24
X40.64Y-10.16
X20.32Y-17.78
X111.76Y-40.64
X71.12Y-38.1
X15.24Y-25.4
X10.16Y-30.48
X99.06Y-5.08
X91.44Y-15.24
X53.34Y-10.16
X27.94Y-17.78
X83.82Y-40.64
X119.38Y-43.18
X63.5Y-25.4
X2.54Y-30.48
X5.08Y-7.62
X114.3Y-15.24
X76.2Y-10.16
X15.24Y0.0
X68.58Y-17.78
X43.18Y-27.94
X116.84Y-43.18
X40.64Y-25.4
X111.76Y-27.94
X48.26Y-7.62
X86.36Y-20.32
X81.28Y-10.16
X109.22Y0.0
X50.8Y-17.78
X93.98Y-30.48
X66.04Y-25.4
X35.56Y-30.48
X58.42Y-7.62
X116.84Y0.0
X68.58Y-20.32
X71.12Y-10.16
X43.18Y-40.64
X76.2Y-17.78
X96.52Y-25.4
X99.06Y-30.48
X83.82Y-7.62
X17.78Y-2.54
X91.44Y-20.32
X109.22Y-10.16
X50.8Y0.0
X38.1Y-40.64
X119.38Y-35.56
X60.96Y-20.32
X114.3Y-45.72
X114.3Y-25.4
X88.9Y-30.48
X68.58Y-7.62
X50.8Y-2.54
X96.52Y-20.32
X55.88Y-12.7
X88.9Y0.0
X93.98Y-35.56
X45.72Y-20.32
X111.76Y-45.72
X35.56Y-27.94
X15.24Y-45.72
X55.88Y-30.48
X111.76Y-7.62
X66.04Y-2.54
X5.08Y-22.86
X27.94Y-12.7
X111.76Y0.0
X5.08Y-38.1
X22.86Y-20.32
X114.3Y-40.64
X76.2Y-35.56
X48.26Y-27.94
X25.4Y-45.72
X25.4Y-33.02
X43.18Y-7.62
X88.9Y-2.54
X50.8Y-22.86
X83.82Y-12.7
X50.8Y-38.1
X17.78Y-20.32
X116.84Y-40.64
X40.64Y-35.56
X96.52Y-33.02
X33.02Y-27.94
X60.96Y-30.48
X111.76Y-2.54
X111.76Y-22.86
X48.26Y-12.7
X106.68Y-35.56
X0.0Y-20.32
X91.44Y-45.72
X0.0Y-35.56
X50.8Y-33.02
X93.98Y-25.4
X17.78Y-5.08
X91.44Y-22.86
X93.98Y-12.7
X88.9Y-45.72
X53.34Y-35.56
X30.48Y-33.02
X25.4Y-5.08
X116.84Y-22.86
X101.6Y-12.7
T0
M30
