G04 #@! TF.GenerationSoftware,KiCad,Pcbnew,(5.1.5)-3*
G04 #@! TF.CreationDate,2022-12-18T19:23:00+01:00*
G04 #@! TF.ProjectId,SNES controller protoboard,534e4553-2063-46f6-9e74-726f6c6c6572,rev?*
G04 #@! TF.SameCoordinates,Original*
G04 #@! TF.FileFunction,Copper,L2,Bot*
G04 #@! TF.FilePolarity,Positive*
%FSLAX46Y46*%
G04 Gerber Fmt 4.6, Leading zero omitted, Abs format (unit mm)*
G04 Created by KiCad (PCBNEW (5.1.5)-3) date 2022-12-18 19:23:00*
%MOMM*%
%LPD*%
G04 APERTURE LIST*
%ADD10C,1.800000*%
G04 APERTURE END LIST*
D10*
X45720000Y-27940000D03*
X93980000Y-30480000D03*
X93980000Y-10160000D03*
X111760000Y-20320000D03*
X76200000Y-20320000D03*
X60960000Y-27940000D03*
X43180000Y-27940000D03*
X20320000Y-27940000D03*
X20320000Y-12700000D03*
X20320000Y-30480000D03*
X22860000Y-30480000D03*
X20320000Y-33020000D03*
X22860000Y-33020000D03*
X116840000Y-45720000D03*
X114300000Y-45720000D03*
X111760000Y-45720000D03*
X109220000Y-45720000D03*
X106680000Y-45720000D03*
X104140000Y-45720000D03*
X101600000Y-45720000D03*
X99060000Y-45720000D03*
X96520000Y-45720000D03*
X93980000Y-45720000D03*
X91440000Y-45720000D03*
X88900000Y-45720000D03*
X86360000Y-45720000D03*
X83820000Y-45720000D03*
X81280000Y-45720000D03*
X78740000Y-45720000D03*
X76200000Y-45720000D03*
X73660000Y-45720000D03*
X71120000Y-45720000D03*
X68580000Y-45720000D03*
X66040000Y-45720000D03*
X63500000Y-45720000D03*
X60960000Y-45720000D03*
X58420000Y-45720000D03*
X55880000Y-45720000D03*
X53340000Y-45720000D03*
X50800000Y-45720000D03*
X48260000Y-45720000D03*
X45720000Y-45720000D03*
X43180000Y-45720000D03*
X40640000Y-45720000D03*
X38100000Y-45720000D03*
X35560000Y-45720000D03*
X33020000Y-45720000D03*
X30480000Y-45720000D03*
X27940000Y-45720000D03*
X25400000Y-45720000D03*
X22860000Y-45720000D03*
X20320000Y-45720000D03*
X17780000Y-45720000D03*
X15240000Y-45720000D03*
X12700000Y-45720000D03*
X10160000Y-45720000D03*
X7620000Y-45720000D03*
X5080000Y-45720000D03*
X119380000Y-43180000D03*
X116840000Y-43180000D03*
X114300000Y-43180000D03*
X111760000Y-43180000D03*
X109220000Y-43180000D03*
X106680000Y-43180000D03*
X104140000Y-43180000D03*
X101600000Y-43180000D03*
X99060000Y-43180000D03*
X96520000Y-43180000D03*
X93980000Y-43180000D03*
X91440000Y-43180000D03*
X88900000Y-43180000D03*
X86360000Y-43180000D03*
X83820000Y-43180000D03*
X81280000Y-43180000D03*
X78740000Y-43180000D03*
X76200000Y-43180000D03*
X73660000Y-43180000D03*
X71120000Y-43180000D03*
X68580000Y-43180000D03*
X66040000Y-43180000D03*
X63500000Y-43180000D03*
X60960000Y-43180000D03*
X58420000Y-43180000D03*
X55880000Y-43180000D03*
X53340000Y-43180000D03*
X50800000Y-43180000D03*
X48260000Y-43180000D03*
X45720000Y-43180000D03*
X43180000Y-43180000D03*
X40640000Y-43180000D03*
X38100000Y-43180000D03*
X35560000Y-43180000D03*
X33020000Y-43180000D03*
X30480000Y-43180000D03*
X27940000Y-43180000D03*
X25400000Y-43180000D03*
X22860000Y-43180000D03*
X20320000Y-43180000D03*
X17780000Y-43180000D03*
X15240000Y-43180000D03*
X12700000Y-43180000D03*
X10160000Y-43180000D03*
X7620000Y-43180000D03*
X5080000Y-43180000D03*
X2540000Y-43180000D03*
X121920000Y-40640000D03*
X119380000Y-40640000D03*
X116840000Y-40640000D03*
X114300000Y-40640000D03*
X111760000Y-40640000D03*
X109220000Y-40640000D03*
X106680000Y-40640000D03*
X104140000Y-40640000D03*
X101600000Y-40640000D03*
X99060000Y-40640000D03*
X96520000Y-40640000D03*
X93980000Y-40640000D03*
X91440000Y-40640000D03*
X88900000Y-40640000D03*
X86360000Y-40640000D03*
X83820000Y-40640000D03*
X81280000Y-40640000D03*
X78740000Y-40640000D03*
X76200000Y-40640000D03*
X73660000Y-40640000D03*
X71120000Y-40640000D03*
X68580000Y-40640000D03*
X66040000Y-40640000D03*
X63500000Y-40640000D03*
X60960000Y-40640000D03*
X58420000Y-40640000D03*
X55880000Y-40640000D03*
X53340000Y-40640000D03*
X50800000Y-40640000D03*
X48260000Y-40640000D03*
X45720000Y-40640000D03*
X43180000Y-40640000D03*
X40640000Y-40640000D03*
X38100000Y-40640000D03*
X35560000Y-40640000D03*
X33020000Y-40640000D03*
X30480000Y-40640000D03*
X27940000Y-40640000D03*
X25400000Y-40640000D03*
X22860000Y-40640000D03*
X20320000Y-40640000D03*
X17780000Y-40640000D03*
X15240000Y-40640000D03*
X12700000Y-40640000D03*
X10160000Y-40640000D03*
X7620000Y-40640000D03*
X5080000Y-40640000D03*
X2540000Y-40640000D03*
X0Y-40640000D03*
X121920000Y-38100000D03*
X119380000Y-38100000D03*
X116840000Y-38100000D03*
X114300000Y-38100000D03*
X111760000Y-38100000D03*
X109220000Y-38100000D03*
X106680000Y-38100000D03*
X104140000Y-38100000D03*
X101600000Y-38100000D03*
X99060000Y-38100000D03*
X96520000Y-38100000D03*
X93980000Y-38100000D03*
X91440000Y-38100000D03*
X88900000Y-38100000D03*
X86360000Y-38100000D03*
X83820000Y-38100000D03*
X81280000Y-38100000D03*
X78740000Y-38100000D03*
X76200000Y-38100000D03*
X73660000Y-38100000D03*
X71120000Y-38100000D03*
X68580000Y-38100000D03*
X66040000Y-38100000D03*
X63500000Y-38100000D03*
X60960000Y-38100000D03*
X58420000Y-38100000D03*
X55880000Y-38100000D03*
X53340000Y-38100000D03*
X50800000Y-38100000D03*
X48260000Y-38100000D03*
X45720000Y-38100000D03*
X43180000Y-38100000D03*
X40640000Y-38100000D03*
X38100000Y-38100000D03*
X35560000Y-38100000D03*
X33020000Y-38100000D03*
X30480000Y-38100000D03*
X27940000Y-38100000D03*
X25400000Y-38100000D03*
X22860000Y-38100000D03*
X20320000Y-38100000D03*
X17780000Y-38100000D03*
X15240000Y-38100000D03*
X12700000Y-38100000D03*
X10160000Y-38100000D03*
X7620000Y-38100000D03*
X5080000Y-38100000D03*
X2540000Y-38100000D03*
X0Y-38100000D03*
X121920000Y-35560000D03*
X119380000Y-35560000D03*
X116840000Y-35560000D03*
X114300000Y-35560000D03*
X111760000Y-35560000D03*
X109220000Y-35560000D03*
X106680000Y-35560000D03*
X104140000Y-35560000D03*
X101600000Y-35560000D03*
X99060000Y-35560000D03*
X96520000Y-35560000D03*
X93980000Y-35560000D03*
X91440000Y-35560000D03*
X88900000Y-35560000D03*
X86360000Y-35560000D03*
X83820000Y-35560000D03*
X81280000Y-35560000D03*
X78740000Y-35560000D03*
X76200000Y-35560000D03*
X73660000Y-35560000D03*
X71120000Y-35560000D03*
X68580000Y-35560000D03*
X66040000Y-35560000D03*
X63500000Y-35560000D03*
X60960000Y-35560000D03*
X58420000Y-35560000D03*
X55880000Y-35560000D03*
X53340000Y-35560000D03*
X50800000Y-35560000D03*
X48260000Y-35560000D03*
X45720000Y-35560000D03*
X43180000Y-35560000D03*
X40640000Y-35560000D03*
X38100000Y-35560000D03*
X35560000Y-35560000D03*
X33020000Y-35560000D03*
X30480000Y-35560000D03*
X27940000Y-35560000D03*
X25400000Y-35560000D03*
X22860000Y-35560000D03*
X20320000Y-35560000D03*
X17780000Y-35560000D03*
X15240000Y-35560000D03*
X12700000Y-35560000D03*
X10160000Y-35560000D03*
X7620000Y-35560000D03*
X5080000Y-35560000D03*
X2540000Y-35560000D03*
X0Y-35560000D03*
X121920000Y-33020000D03*
X119380000Y-33020000D03*
X116840000Y-33020000D03*
X114300000Y-33020000D03*
X111760000Y-33020000D03*
X109220000Y-33020000D03*
X106680000Y-33020000D03*
X104140000Y-33020000D03*
X101600000Y-33020000D03*
X99060000Y-33020000D03*
X96520000Y-33020000D03*
X93980000Y-33020000D03*
X91440000Y-33020000D03*
X88900000Y-33020000D03*
X86360000Y-33020000D03*
X83820000Y-33020000D03*
X81280000Y-33020000D03*
X78740000Y-33020000D03*
X76200000Y-33020000D03*
X73660000Y-33020000D03*
X71120000Y-33020000D03*
X68580000Y-33020000D03*
X66040000Y-33020000D03*
X63500000Y-33020000D03*
X60960000Y-33020000D03*
X58420000Y-33020000D03*
X55880000Y-33020000D03*
X53340000Y-33020000D03*
X50800000Y-33020000D03*
X48260000Y-33020000D03*
X45720000Y-33020000D03*
X43180000Y-33020000D03*
X40640000Y-33020000D03*
X38100000Y-33020000D03*
X35560000Y-33020000D03*
X33020000Y-33020000D03*
X30480000Y-33020000D03*
X27940000Y-33020000D03*
X25400000Y-33020000D03*
X17780000Y-33020000D03*
X15240000Y-33020000D03*
X12700000Y-33020000D03*
X10160000Y-33020000D03*
X7620000Y-33020000D03*
X5080000Y-33020000D03*
X2540000Y-33020000D03*
X0Y-33020000D03*
X121920000Y-30480000D03*
X119380000Y-30480000D03*
X116840000Y-30480000D03*
X114300000Y-30480000D03*
X111760000Y-30480000D03*
X109220000Y-30480000D03*
X106680000Y-30480000D03*
X104140000Y-30480000D03*
X101600000Y-30480000D03*
X99060000Y-30480000D03*
X96520000Y-30480000D03*
X91440000Y-30480000D03*
X88900000Y-30480000D03*
X86360000Y-30480000D03*
X83820000Y-30480000D03*
X81280000Y-30480000D03*
X78740000Y-30480000D03*
X76200000Y-30480000D03*
X73660000Y-30480000D03*
X71120000Y-30480000D03*
X68580000Y-30480000D03*
X66040000Y-30480000D03*
X63500000Y-30480000D03*
X60960000Y-30480000D03*
X58420000Y-30480000D03*
X55880000Y-30480000D03*
X53340000Y-30480000D03*
X50800000Y-30480000D03*
X48260000Y-30480000D03*
X45720000Y-30480000D03*
X43180000Y-30480000D03*
X40640000Y-30480000D03*
X38100000Y-30480000D03*
X35560000Y-30480000D03*
X33020000Y-30480000D03*
X30480000Y-30480000D03*
X27940000Y-30480000D03*
X25400000Y-30480000D03*
X17780000Y-30480000D03*
X15240000Y-30480000D03*
X12700000Y-30480000D03*
X10160000Y-30480000D03*
X7620000Y-30480000D03*
X5080000Y-30480000D03*
X2540000Y-30480000D03*
X0Y-30480000D03*
X121920000Y-27940000D03*
X119380000Y-27940000D03*
X116840000Y-27940000D03*
X114300000Y-27940000D03*
X111760000Y-27940000D03*
X109220000Y-27940000D03*
X106680000Y-27940000D03*
X104140000Y-27940000D03*
X101600000Y-27940000D03*
X99060000Y-27940000D03*
X96520000Y-27940000D03*
X93980000Y-27940000D03*
X91440000Y-27940000D03*
X88900000Y-27940000D03*
X86360000Y-27940000D03*
X83820000Y-27940000D03*
X81280000Y-27940000D03*
X78740000Y-27940000D03*
X76200000Y-27940000D03*
X73660000Y-27940000D03*
X71120000Y-27940000D03*
X68580000Y-27940000D03*
X66040000Y-27940000D03*
X63500000Y-27940000D03*
X58420000Y-27940000D03*
X55880000Y-27940000D03*
X53340000Y-27940000D03*
X50800000Y-27940000D03*
X48260000Y-27940000D03*
X40640000Y-27940000D03*
X38100000Y-27940000D03*
X35560000Y-27940000D03*
X33020000Y-27940000D03*
X30480000Y-27940000D03*
X27940000Y-27940000D03*
X25400000Y-27940000D03*
X22860000Y-27940000D03*
X17780000Y-27940000D03*
X15240000Y-27940000D03*
X12700000Y-27940000D03*
X10160000Y-27940000D03*
X7620000Y-27940000D03*
X5080000Y-27940000D03*
X2540000Y-27940000D03*
X0Y-27940000D03*
X121920000Y-25400000D03*
X119380000Y-25400000D03*
X116840000Y-25400000D03*
X114300000Y-25400000D03*
X111760000Y-25400000D03*
X109220000Y-25400000D03*
X106680000Y-25400000D03*
X104140000Y-25400000D03*
X101600000Y-25400000D03*
X99060000Y-25400000D03*
X96520000Y-25400000D03*
X93980000Y-25400000D03*
X91440000Y-25400000D03*
X88900000Y-25400000D03*
X86360000Y-25400000D03*
X83820000Y-25400000D03*
X81280000Y-25400000D03*
X78740000Y-25400000D03*
X76200000Y-25400000D03*
X73660000Y-25400000D03*
X71120000Y-25400000D03*
X68580000Y-25400000D03*
X66040000Y-25400000D03*
X63500000Y-25400000D03*
X60960000Y-25400000D03*
X58420000Y-25400000D03*
X55880000Y-25400000D03*
X53340000Y-25400000D03*
X50800000Y-25400000D03*
X48260000Y-25400000D03*
X45720000Y-25400000D03*
X43180000Y-25400000D03*
X40640000Y-25400000D03*
X38100000Y-25400000D03*
X35560000Y-25400000D03*
X33020000Y-25400000D03*
X30480000Y-25400000D03*
X27940000Y-25400000D03*
X25400000Y-25400000D03*
X22860000Y-25400000D03*
X20320000Y-25400000D03*
X17780000Y-25400000D03*
X15240000Y-25400000D03*
X12700000Y-25400000D03*
X10160000Y-25400000D03*
X7620000Y-25400000D03*
X5080000Y-25400000D03*
X2540000Y-25400000D03*
X0Y-25400000D03*
X121920000Y-22860000D03*
X119380000Y-22860000D03*
X116840000Y-22860000D03*
X114300000Y-22860000D03*
X111760000Y-22860000D03*
X109220000Y-22860000D03*
X106680000Y-22860000D03*
X104140000Y-22860000D03*
X101600000Y-22860000D03*
X99060000Y-22860000D03*
X96520000Y-22860000D03*
X93980000Y-22860000D03*
X91440000Y-22860000D03*
X88900000Y-22860000D03*
X86360000Y-22860000D03*
X83820000Y-22860000D03*
X81280000Y-22860000D03*
X78740000Y-22860000D03*
X76200000Y-22860000D03*
X73660000Y-22860000D03*
X71120000Y-22860000D03*
X68580000Y-22860000D03*
X66040000Y-22860000D03*
X63500000Y-22860000D03*
X60960000Y-22860000D03*
X58420000Y-22860000D03*
X55880000Y-22860000D03*
X53340000Y-22860000D03*
X50800000Y-22860000D03*
X48260000Y-22860000D03*
X45720000Y-22860000D03*
X43180000Y-22860000D03*
X40640000Y-22860000D03*
X38100000Y-22860000D03*
X35560000Y-22860000D03*
X33020000Y-22860000D03*
X30480000Y-22860000D03*
X27940000Y-22860000D03*
X25400000Y-22860000D03*
X22860000Y-22860000D03*
X20320000Y-22860000D03*
X17780000Y-22860000D03*
X15240000Y-22860000D03*
X12700000Y-22860000D03*
X10160000Y-22860000D03*
X7620000Y-22860000D03*
X5080000Y-22860000D03*
X2540000Y-22860000D03*
X0Y-22860000D03*
X121920000Y-20320000D03*
X119380000Y-20320000D03*
X116840000Y-20320000D03*
X114300000Y-20320000D03*
X109220000Y-20320000D03*
X106680000Y-20320000D03*
X104140000Y-20320000D03*
X101600000Y-20320000D03*
X99060000Y-20320000D03*
X96520000Y-20320000D03*
X93980000Y-20320000D03*
X91440000Y-20320000D03*
X88900000Y-20320000D03*
X86360000Y-20320000D03*
X83820000Y-20320000D03*
X81280000Y-20320000D03*
X78740000Y-20320000D03*
X73660000Y-20320000D03*
X71120000Y-20320000D03*
X68580000Y-20320000D03*
X66040000Y-20320000D03*
X63500000Y-20320000D03*
X60960000Y-20320000D03*
X58420000Y-20320000D03*
X55880000Y-20320000D03*
X53340000Y-20320000D03*
X50800000Y-20320000D03*
X48260000Y-20320000D03*
X45720000Y-20320000D03*
X43180000Y-20320000D03*
X40640000Y-20320000D03*
X38100000Y-20320000D03*
X35560000Y-20320000D03*
X33020000Y-20320000D03*
X30480000Y-20320000D03*
X27940000Y-20320000D03*
X25400000Y-20320000D03*
X22860000Y-20320000D03*
X20320000Y-20320000D03*
X17780000Y-20320000D03*
X15240000Y-20320000D03*
X12700000Y-20320000D03*
X10160000Y-20320000D03*
X7620000Y-20320000D03*
X5080000Y-20320000D03*
X2540000Y-20320000D03*
X0Y-20320000D03*
X121920000Y-17780000D03*
X119380000Y-17780000D03*
X116840000Y-17780000D03*
X114300000Y-17780000D03*
X111760000Y-17780000D03*
X109220000Y-17780000D03*
X106680000Y-17780000D03*
X104140000Y-17780000D03*
X101600000Y-17780000D03*
X99060000Y-17780000D03*
X96520000Y-17780000D03*
X93980000Y-17780000D03*
X91440000Y-17780000D03*
X88900000Y-17780000D03*
X86360000Y-17780000D03*
X83820000Y-17780000D03*
X81280000Y-17780000D03*
X78740000Y-17780000D03*
X76200000Y-17780000D03*
X73660000Y-17780000D03*
X71120000Y-17780000D03*
X68580000Y-17780000D03*
X66040000Y-17780000D03*
X63500000Y-17780000D03*
X60960000Y-17780000D03*
X58420000Y-17780000D03*
X55880000Y-17780000D03*
X53340000Y-17780000D03*
X50800000Y-17780000D03*
X48260000Y-17780000D03*
X45720000Y-17780000D03*
X43180000Y-17780000D03*
X40640000Y-17780000D03*
X38100000Y-17780000D03*
X35560000Y-17780000D03*
X33020000Y-17780000D03*
X30480000Y-17780000D03*
X27940000Y-17780000D03*
X25400000Y-17780000D03*
X22860000Y-17780000D03*
X20320000Y-17780000D03*
X17780000Y-17780000D03*
X15240000Y-17780000D03*
X12700000Y-17780000D03*
X10160000Y-17780000D03*
X7620000Y-17780000D03*
X5080000Y-17780000D03*
X2540000Y-17780000D03*
X0Y-17780000D03*
X121920000Y-15240000D03*
X119380000Y-15240000D03*
X116840000Y-15240000D03*
X114300000Y-15240000D03*
X111760000Y-15240000D03*
X109220000Y-15240000D03*
X106680000Y-15240000D03*
X104140000Y-15240000D03*
X101600000Y-15240000D03*
X99060000Y-15240000D03*
X96520000Y-15240000D03*
X93980000Y-15240000D03*
X91440000Y-15240000D03*
X88900000Y-15240000D03*
X86360000Y-15240000D03*
X83820000Y-15240000D03*
X81280000Y-15240000D03*
X78740000Y-15240000D03*
X76200000Y-15240000D03*
X73660000Y-15240000D03*
X71120000Y-15240000D03*
X68580000Y-15240000D03*
X66040000Y-15240000D03*
X63500000Y-15240000D03*
X60960000Y-15240000D03*
X58420000Y-15240000D03*
X55880000Y-15240000D03*
X53340000Y-15240000D03*
X50800000Y-15240000D03*
X48260000Y-15240000D03*
X45720000Y-15240000D03*
X43180000Y-15240000D03*
X40640000Y-15240000D03*
X38100000Y-15240000D03*
X35560000Y-15240000D03*
X33020000Y-15240000D03*
X30480000Y-15240000D03*
X27940000Y-15240000D03*
X25400000Y-15240000D03*
X22860000Y-15240000D03*
X20320000Y-15240000D03*
X17780000Y-15240000D03*
X15240000Y-15240000D03*
X12700000Y-15240000D03*
X10160000Y-15240000D03*
X7620000Y-15240000D03*
X5080000Y-15240000D03*
X2540000Y-15240000D03*
X0Y-15240000D03*
X121920000Y-12700000D03*
X119380000Y-12700000D03*
X116840000Y-12700000D03*
X114300000Y-12700000D03*
X111760000Y-12700000D03*
X109220000Y-12700000D03*
X106680000Y-12700000D03*
X104140000Y-12700000D03*
X101600000Y-12700000D03*
X99060000Y-12700000D03*
X96520000Y-12700000D03*
X93980000Y-12700000D03*
X91440000Y-12700000D03*
X88900000Y-12700000D03*
X86360000Y-12700000D03*
X83820000Y-12700000D03*
X81280000Y-12700000D03*
X78740000Y-12700000D03*
X76200000Y-12700000D03*
X73660000Y-12700000D03*
X71120000Y-12700000D03*
X68580000Y-12700000D03*
X66040000Y-12700000D03*
X63500000Y-12700000D03*
X60960000Y-12700000D03*
X58420000Y-12700000D03*
X55880000Y-12700000D03*
X53340000Y-12700000D03*
X50800000Y-12700000D03*
X48260000Y-12700000D03*
X45720000Y-12700000D03*
X43180000Y-12700000D03*
X40640000Y-12700000D03*
X38100000Y-12700000D03*
X35560000Y-12700000D03*
X33020000Y-12700000D03*
X30480000Y-12700000D03*
X27940000Y-12700000D03*
X25400000Y-12700000D03*
X22860000Y-12700000D03*
X17780000Y-12700000D03*
X15240000Y-12700000D03*
X12700000Y-12700000D03*
X10160000Y-12700000D03*
X7620000Y-12700000D03*
X5080000Y-12700000D03*
X2540000Y-12700000D03*
X0Y-12700000D03*
X121920000Y-10160000D03*
X119380000Y-10160000D03*
X116840000Y-10160000D03*
X114300000Y-10160000D03*
X111760000Y-10160000D03*
X109220000Y-10160000D03*
X106680000Y-10160000D03*
X104140000Y-10160000D03*
X101600000Y-10160000D03*
X99060000Y-10160000D03*
X96520000Y-10160000D03*
X91440000Y-10160000D03*
X88900000Y-10160000D03*
X86360000Y-10160000D03*
X83820000Y-10160000D03*
X81280000Y-10160000D03*
X78740000Y-10160000D03*
X76200000Y-10160000D03*
X73660000Y-10160000D03*
X71120000Y-10160000D03*
X68580000Y-10160000D03*
X66040000Y-10160000D03*
X63500000Y-10160000D03*
X60960000Y-10160000D03*
X58420000Y-10160000D03*
X55880000Y-10160000D03*
X53340000Y-10160000D03*
X50800000Y-10160000D03*
X48260000Y-10160000D03*
X45720000Y-10160000D03*
X43180000Y-10160000D03*
X40640000Y-10160000D03*
X38100000Y-10160000D03*
X35560000Y-10160000D03*
X33020000Y-10160000D03*
X30480000Y-10160000D03*
X27940000Y-10160000D03*
X25400000Y-10160000D03*
X22860000Y-10160000D03*
X20320000Y-10160000D03*
X17780000Y-10160000D03*
X15240000Y-10160000D03*
X12700000Y-10160000D03*
X10160000Y-10160000D03*
X7620000Y-10160000D03*
X5080000Y-10160000D03*
X2540000Y-10160000D03*
X0Y-10160000D03*
X121920000Y-7620000D03*
X119380000Y-7620000D03*
X116840000Y-7620000D03*
X114300000Y-7620000D03*
X111760000Y-7620000D03*
X109220000Y-7620000D03*
X106680000Y-7620000D03*
X104140000Y-7620000D03*
X101600000Y-7620000D03*
X99060000Y-7620000D03*
X96520000Y-7620000D03*
X93980000Y-7620000D03*
X91440000Y-7620000D03*
X88900000Y-7620000D03*
X86360000Y-7620000D03*
X83820000Y-7620000D03*
X81280000Y-7620000D03*
X78740000Y-7620000D03*
X76200000Y-7620000D03*
X73660000Y-7620000D03*
X71120000Y-7620000D03*
X68580000Y-7620000D03*
X66040000Y-7620000D03*
X63500000Y-7620000D03*
X60960000Y-7620000D03*
X58420000Y-7620000D03*
X55880000Y-7620000D03*
X53340000Y-7620000D03*
X50800000Y-7620000D03*
X48260000Y-7620000D03*
X45720000Y-7620000D03*
X43180000Y-7620000D03*
X40640000Y-7620000D03*
X38100000Y-7620000D03*
X35560000Y-7620000D03*
X33020000Y-7620000D03*
X30480000Y-7620000D03*
X27940000Y-7620000D03*
X25400000Y-7620000D03*
X22860000Y-7620000D03*
X20320000Y-7620000D03*
X17780000Y-7620000D03*
X15240000Y-7620000D03*
X12700000Y-7620000D03*
X10160000Y-7620000D03*
X7620000Y-7620000D03*
X5080000Y-7620000D03*
X2540000Y-7620000D03*
X0Y-7620000D03*
X121920000Y-5080000D03*
X119380000Y-5080000D03*
X116840000Y-5080000D03*
X114300000Y-5080000D03*
X111760000Y-5080000D03*
X109220000Y-5080000D03*
X106680000Y-5080000D03*
X104140000Y-5080000D03*
X101600000Y-5080000D03*
X99060000Y-5080000D03*
X96520000Y-5080000D03*
X93980000Y-5080000D03*
X91440000Y-5080000D03*
X88900000Y-5080000D03*
X86360000Y-5080000D03*
X83820000Y-5080000D03*
X81280000Y-5080000D03*
X78740000Y-5080000D03*
X76200000Y-5080000D03*
X73660000Y-5080000D03*
X71120000Y-5080000D03*
X68580000Y-5080000D03*
X66040000Y-5080000D03*
X63500000Y-5080000D03*
X60960000Y-5080000D03*
X58420000Y-5080000D03*
X55880000Y-5080000D03*
X53340000Y-5080000D03*
X50800000Y-5080000D03*
X48260000Y-5080000D03*
X45720000Y-5080000D03*
X43180000Y-5080000D03*
X40640000Y-5080000D03*
X38100000Y-5080000D03*
X35560000Y-5080000D03*
X33020000Y-5080000D03*
X30480000Y-5080000D03*
X27940000Y-5080000D03*
X25400000Y-5080000D03*
X22860000Y-5080000D03*
X20320000Y-5080000D03*
X17780000Y-5080000D03*
X15240000Y-5080000D03*
X12700000Y-5080000D03*
X10160000Y-5080000D03*
X7620000Y-5080000D03*
X5080000Y-5080000D03*
X2540000Y-5080000D03*
X0Y-5080000D03*
X119380000Y-2540000D03*
X116840000Y-2540000D03*
X114300000Y-2540000D03*
X111760000Y-2540000D03*
X109220000Y-2540000D03*
X106680000Y-2540000D03*
X104140000Y-2540000D03*
X101600000Y-2540000D03*
X99060000Y-2540000D03*
X96520000Y-2540000D03*
X93980000Y-2540000D03*
X91440000Y-2540000D03*
X88900000Y-2540000D03*
X86360000Y-2540000D03*
X83820000Y-2540000D03*
X81280000Y-2540000D03*
X78740000Y-2540000D03*
X76200000Y-2540000D03*
X73660000Y-2540000D03*
X71120000Y-2540000D03*
X68580000Y-2540000D03*
X66040000Y-2540000D03*
X63500000Y-2540000D03*
X60960000Y-2540000D03*
X58420000Y-2540000D03*
X55880000Y-2540000D03*
X53340000Y-2540000D03*
X50800000Y-2540000D03*
X48260000Y-2540000D03*
X45720000Y-2540000D03*
X43180000Y-2540000D03*
X40640000Y-2540000D03*
X38100000Y-2540000D03*
X35560000Y-2540000D03*
X33020000Y-2540000D03*
X30480000Y-2540000D03*
X27940000Y-2540000D03*
X25400000Y-2540000D03*
X22860000Y-2540000D03*
X20320000Y-2540000D03*
X17780000Y-2540000D03*
X15240000Y-2540000D03*
X12700000Y-2540000D03*
X10160000Y-2540000D03*
X7620000Y-2540000D03*
X5080000Y-2540000D03*
X2540000Y-2540000D03*
X116840000Y0D03*
X114300000Y0D03*
X111760000Y0D03*
X109220000Y0D03*
X106680000Y0D03*
X104140000Y0D03*
X101600000Y0D03*
X99060000Y0D03*
X96520000Y0D03*
X93980000Y0D03*
X91440000Y0D03*
X88900000Y0D03*
X86360000Y0D03*
X83820000Y0D03*
X81280000Y0D03*
X78740000Y0D03*
X76200000Y0D03*
X73660000Y0D03*
X71120000Y0D03*
X68580000Y0D03*
X66040000Y0D03*
X63500000Y0D03*
X60960000Y0D03*
X58420000Y0D03*
X55880000Y0D03*
X53340000Y0D03*
X50800000Y0D03*
X48260000Y0D03*
X45720000Y0D03*
X43180000Y0D03*
X40640000Y0D03*
X38100000Y0D03*
X35560000Y0D03*
X33020000Y0D03*
X30480000Y0D03*
X27940000Y0D03*
X25400000Y0D03*
X22860000Y0D03*
X20320000Y0D03*
X17780000Y0D03*
X15240000Y0D03*
X12700000Y0D03*
X10160000Y0D03*
X7620000Y0D03*
X5080000Y0D03*
M02*
