G04 #@! TF.GenerationSoftware,KiCad,Pcbnew,(5.1.5)-3*
G04 #@! TF.CreationDate,2022-12-18T19:23:00+01:00*
G04 #@! TF.ProjectId,SNES controller protoboard,534e4553-2063-46f6-9e74-726f6c6c6572,rev?*
G04 #@! TF.SameCoordinates,Original*
G04 #@! TF.FileFunction,Legend,Top*
G04 #@! TF.FilePolarity,Positive*
%FSLAX46Y46*%
G04 Gerber Fmt 4.6, Leading zero omitted, Abs format (unit mm)*
G04 Created by KiCad (PCBNEW (5.1.5)-3) date 2022-12-18 19:23:00*
%MOMM*%
%LPD*%
G04 APERTURE LIST*
%ADD10C,0.100000*%
%ADD11C,0.120000*%
%ADD12C,1.902000*%
G04 APERTURE END LIST*
D10*
G36*
X17018000Y-25908000D02*
G01*
X10922000Y-25908000D01*
X10922000Y-19812000D01*
X17018000Y-19812000D01*
X17018000Y-25908000D01*
G37*
X17018000Y-25908000D02*
X10922000Y-25908000D01*
X10922000Y-19812000D01*
X17018000Y-19812000D01*
X17018000Y-25908000D01*
D11*
X49314100Y-33578800D02*
X49771300Y-33578800D01*
X44208700Y-27432000D02*
X44665900Y-27432000D01*
X43992800Y-32156400D02*
X43992800Y-31394400D01*
X49987200Y-29616400D02*
X49987200Y-28854400D01*
X49326800Y-27432000D02*
X49784000Y-27432000D01*
X43992800Y-29616400D02*
X43992800Y-28854400D01*
X44196000Y-33578800D02*
X44653200Y-33578800D01*
X46774100Y-33578800D02*
X47231300Y-33578800D01*
X46786800Y-27432000D02*
X47244000Y-27432000D01*
X49987200Y-32156400D02*
X49987200Y-31394400D01*
D10*
X123804442Y-2482857D02*
X123918728Y-2520952D01*
X123956823Y-2559047D01*
X123994919Y-2635238D01*
X123994919Y-2749523D01*
X123956823Y-2825714D01*
X123918728Y-2863809D01*
X123842538Y-2901904D01*
X123537776Y-2901904D01*
X123537776Y-2101904D01*
X123804442Y-2101904D01*
X123880633Y-2140000D01*
X123918728Y-2178095D01*
X123956823Y-2254285D01*
X123956823Y-2330476D01*
X123918728Y-2406666D01*
X123880633Y-2444761D01*
X123804442Y-2482857D01*
X123537776Y-2482857D01*
X123575871Y-10102857D02*
X123842538Y-10102857D01*
X123956823Y-10521904D02*
X123575871Y-10521904D01*
X123575871Y-9721904D01*
X123956823Y-9721904D01*
X123874323Y-133333D02*
X124255276Y-133333D01*
X123798133Y-361904D02*
X124064800Y438095D01*
X124331466Y-361904D01*
X123861585Y-12642857D02*
X123594919Y-12642857D01*
X123594919Y-13061904D02*
X123594919Y-12261904D01*
X123975871Y-12261904D01*
X123861585Y-22421904D02*
X123861585Y-22993333D01*
X123823490Y-23107619D01*
X123747300Y-23183809D01*
X123633014Y-23221904D01*
X123556823Y-23221904D01*
X123747300Y-20681904D02*
X123747300Y-19881904D01*
X123836228Y-46043809D02*
X123950514Y-46081904D01*
X124140990Y-46081904D01*
X124217180Y-46043809D01*
X124255276Y-46005714D01*
X124293371Y-45929523D01*
X124293371Y-45853333D01*
X124255276Y-45777142D01*
X124217180Y-45739047D01*
X124140990Y-45700952D01*
X123988609Y-45662857D01*
X123912419Y-45624761D01*
X123874323Y-45586666D01*
X123836228Y-45510476D01*
X123836228Y-45434285D01*
X123874323Y-45358095D01*
X123912419Y-45320000D01*
X123988609Y-45281904D01*
X124179085Y-45281904D01*
X124293371Y-45320000D01*
X123994919Y-5365714D02*
X123956823Y-5403809D01*
X123842538Y-5441904D01*
X123766347Y-5441904D01*
X123652061Y-5403809D01*
X123575871Y-5327619D01*
X123537776Y-5251428D01*
X123499680Y-5099047D01*
X123499680Y-4984761D01*
X123537776Y-4832380D01*
X123575871Y-4756190D01*
X123652061Y-4680000D01*
X123766347Y-4641904D01*
X123842538Y-4641904D01*
X123956823Y-4680000D01*
X123994919Y-4718095D01*
X124052061Y-41078095D02*
X123975871Y-41040000D01*
X123899680Y-40963809D01*
X123785395Y-40849523D01*
X123709204Y-40811428D01*
X123633014Y-40811428D01*
X123671109Y-41001904D02*
X123594919Y-40963809D01*
X123518728Y-40887619D01*
X123480633Y-40735238D01*
X123480633Y-40468571D01*
X123518728Y-40316190D01*
X123594919Y-40240000D01*
X123671109Y-40201904D01*
X123823490Y-40201904D01*
X123899680Y-40240000D01*
X123975871Y-40316190D01*
X124013966Y-40468571D01*
X124013966Y-40735238D01*
X123975871Y-40887619D01*
X123899680Y-40963809D01*
X123823490Y-41001904D01*
X123671109Y-41001904D01*
X123537776Y-38461904D02*
X123537776Y-37661904D01*
X123842538Y-37661904D01*
X123918728Y-37700000D01*
X123956823Y-37738095D01*
X123994919Y-37814285D01*
X123994919Y-37928571D01*
X123956823Y-38004761D01*
X123918728Y-38042857D01*
X123842538Y-38080952D01*
X123537776Y-38080952D01*
X123537776Y-25761904D02*
X123537776Y-24961904D01*
X123994919Y-25761904D02*
X123652061Y-25304761D01*
X123994919Y-24961904D02*
X123537776Y-25419047D01*
X123994919Y-43541904D02*
X123728252Y-43160952D01*
X123537776Y-43541904D02*
X123537776Y-42741904D01*
X123842538Y-42741904D01*
X123918728Y-42780000D01*
X123956823Y-42818095D01*
X123994919Y-42894285D01*
X123994919Y-43008571D01*
X123956823Y-43084761D01*
X123918728Y-43122857D01*
X123842538Y-43160952D01*
X123537776Y-43160952D01*
X123518728Y-33381904D02*
X123518728Y-32581904D01*
X123975871Y-33381904D01*
X123975871Y-32581904D01*
X123537776Y-7981904D02*
X123537776Y-7181904D01*
X123728252Y-7181904D01*
X123842538Y-7220000D01*
X123918728Y-7296190D01*
X123956823Y-7372380D01*
X123994919Y-7524761D01*
X123994919Y-7639047D01*
X123956823Y-7791428D01*
X123918728Y-7867619D01*
X123842538Y-7943809D01*
X123728252Y-7981904D01*
X123537776Y-7981904D01*
X123480633Y-30841904D02*
X123480633Y-30041904D01*
X123747300Y-30613333D01*
X124013966Y-30041904D01*
X124013966Y-30841904D01*
X123956823Y-14840000D02*
X123880633Y-14801904D01*
X123766347Y-14801904D01*
X123652061Y-14840000D01*
X123575871Y-14916190D01*
X123537776Y-14992380D01*
X123499680Y-15144761D01*
X123499680Y-15259047D01*
X123537776Y-15411428D01*
X123575871Y-15487619D01*
X123652061Y-15563809D01*
X123766347Y-15601904D01*
X123842538Y-15601904D01*
X123956823Y-15563809D01*
X123994919Y-15525714D01*
X123994919Y-15259047D01*
X123842538Y-15259047D01*
X123671109Y-35121904D02*
X123823490Y-35121904D01*
X123899680Y-35160000D01*
X123975871Y-35236190D01*
X124013966Y-35388571D01*
X124013966Y-35655238D01*
X123975871Y-35807619D01*
X123899680Y-35883809D01*
X123823490Y-35921904D01*
X123671109Y-35921904D01*
X123594919Y-35883809D01*
X123518728Y-35807619D01*
X123480633Y-35655238D01*
X123480633Y-35388571D01*
X123518728Y-35236190D01*
X123594919Y-35160000D01*
X123671109Y-35121904D01*
X123994919Y-28301904D02*
X123613966Y-28301904D01*
X123613966Y-27501904D01*
X123518728Y-18141904D02*
X123518728Y-17341904D01*
X123518728Y-17722857D02*
X123975871Y-17722857D01*
X123975871Y-18141904D02*
X123975871Y-17341904D01*
X37947619Y-48094904D02*
X37490476Y-48094904D01*
X37719047Y-48094904D02*
X37719047Y-47294904D01*
X37642857Y-47409190D01*
X37566666Y-47485380D01*
X37490476Y-47523476D01*
X38633333Y-47294904D02*
X38480952Y-47294904D01*
X38404761Y-47333000D01*
X38366666Y-47371095D01*
X38290476Y-47485380D01*
X38252380Y-47637761D01*
X38252380Y-47942523D01*
X38290476Y-48018714D01*
X38328571Y-48056809D01*
X38404761Y-48094904D01*
X38557142Y-48094904D01*
X38633333Y-48056809D01*
X38671428Y-48018714D01*
X38709523Y-47942523D01*
X38709523Y-47752047D01*
X38671428Y-47675857D01*
X38633333Y-47637761D01*
X38557142Y-47599666D01*
X38404761Y-47599666D01*
X38328571Y-47637761D01*
X38290476Y-47675857D01*
X38252380Y-47752047D01*
X75552380Y-47294904D02*
X76047619Y-47294904D01*
X75780952Y-47599666D01*
X75895238Y-47599666D01*
X75971428Y-47637761D01*
X76009523Y-47675857D01*
X76047619Y-47752047D01*
X76047619Y-47942523D01*
X76009523Y-48018714D01*
X75971428Y-48056809D01*
X75895238Y-48094904D01*
X75666666Y-48094904D01*
X75590476Y-48056809D01*
X75552380Y-48018714D01*
X76809523Y-48094904D02*
X76352380Y-48094904D01*
X76580952Y-48094904D02*
X76580952Y-47294904D01*
X76504761Y-47409190D01*
X76428571Y-47485380D01*
X76352380Y-47523476D01*
X65430476Y-47371095D02*
X65468571Y-47333000D01*
X65544761Y-47294904D01*
X65735238Y-47294904D01*
X65811428Y-47333000D01*
X65849523Y-47371095D01*
X65887619Y-47447285D01*
X65887619Y-47523476D01*
X65849523Y-47637761D01*
X65392380Y-48094904D01*
X65887619Y-48094904D01*
X66154285Y-47294904D02*
X66687619Y-47294904D01*
X66344761Y-48094904D01*
X10350476Y-47294904D02*
X9969523Y-47294904D01*
X9931428Y-47675857D01*
X9969523Y-47637761D01*
X10045714Y-47599666D01*
X10236190Y-47599666D01*
X10312380Y-47637761D01*
X10350476Y-47675857D01*
X10388571Y-47752047D01*
X10388571Y-47942523D01*
X10350476Y-48018714D01*
X10312380Y-48056809D01*
X10236190Y-48094904D01*
X10045714Y-48094904D01*
X9969523Y-48056809D01*
X9931428Y-48018714D01*
X12852380Y-47294904D02*
X12700000Y-47294904D01*
X12623809Y-47333000D01*
X12585714Y-47371095D01*
X12509523Y-47485380D01*
X12471428Y-47637761D01*
X12471428Y-47942523D01*
X12509523Y-48018714D01*
X12547619Y-48056809D01*
X12623809Y-48094904D01*
X12776190Y-48094904D01*
X12852380Y-48056809D01*
X12890476Y-48018714D01*
X12928571Y-47942523D01*
X12928571Y-47752047D01*
X12890476Y-47675857D01*
X12852380Y-47637761D01*
X12776190Y-47599666D01*
X12623809Y-47599666D01*
X12547619Y-47637761D01*
X12509523Y-47675857D01*
X12471428Y-47752047D01*
X43027619Y-48094904D02*
X42570476Y-48094904D01*
X42799047Y-48094904D02*
X42799047Y-47294904D01*
X42722857Y-47409190D01*
X42646666Y-47485380D01*
X42570476Y-47523476D01*
X43484761Y-47637761D02*
X43408571Y-47599666D01*
X43370476Y-47561571D01*
X43332380Y-47485380D01*
X43332380Y-47447285D01*
X43370476Y-47371095D01*
X43408571Y-47333000D01*
X43484761Y-47294904D01*
X43637142Y-47294904D01*
X43713333Y-47333000D01*
X43751428Y-47371095D01*
X43789523Y-47447285D01*
X43789523Y-47485380D01*
X43751428Y-47561571D01*
X43713333Y-47599666D01*
X43637142Y-47637761D01*
X43484761Y-47637761D01*
X43408571Y-47675857D01*
X43370476Y-47713952D01*
X43332380Y-47790142D01*
X43332380Y-47942523D01*
X43370476Y-48018714D01*
X43408571Y-48056809D01*
X43484761Y-48094904D01*
X43637142Y-48094904D01*
X43713333Y-48056809D01*
X43751428Y-48018714D01*
X43789523Y-47942523D01*
X43789523Y-47790142D01*
X43751428Y-47713952D01*
X43713333Y-47675857D01*
X43637142Y-47637761D01*
X45567619Y-48094904D02*
X45110476Y-48094904D01*
X45339047Y-48094904D02*
X45339047Y-47294904D01*
X45262857Y-47409190D01*
X45186666Y-47485380D01*
X45110476Y-47523476D01*
X45948571Y-48094904D02*
X46100952Y-48094904D01*
X46177142Y-48056809D01*
X46215238Y-48018714D01*
X46291428Y-47904428D01*
X46329523Y-47752047D01*
X46329523Y-47447285D01*
X46291428Y-47371095D01*
X46253333Y-47333000D01*
X46177142Y-47294904D01*
X46024761Y-47294904D01*
X45948571Y-47333000D01*
X45910476Y-47371095D01*
X45872380Y-47447285D01*
X45872380Y-47637761D01*
X45910476Y-47713952D01*
X45948571Y-47752047D01*
X46024761Y-47790142D01*
X46177142Y-47790142D01*
X46253333Y-47752047D01*
X46291428Y-47713952D01*
X46329523Y-47637761D01*
X90792380Y-47294904D02*
X91287619Y-47294904D01*
X91020952Y-47599666D01*
X91135238Y-47599666D01*
X91211428Y-47637761D01*
X91249523Y-47675857D01*
X91287619Y-47752047D01*
X91287619Y-47942523D01*
X91249523Y-48018714D01*
X91211428Y-48056809D01*
X91135238Y-48094904D01*
X90906666Y-48094904D01*
X90830476Y-48056809D01*
X90792380Y-48018714D01*
X91554285Y-47294904D02*
X92087619Y-47294904D01*
X91744761Y-48094904D01*
X116611428Y-47561571D02*
X116611428Y-48094904D01*
X116420952Y-47256809D02*
X116230476Y-47828238D01*
X116725714Y-47828238D01*
X116954285Y-47294904D02*
X117487619Y-47294904D01*
X117144761Y-48094904D01*
X22707619Y-48094904D02*
X22250476Y-48094904D01*
X22479047Y-48094904D02*
X22479047Y-47294904D01*
X22402857Y-47409190D01*
X22326666Y-47485380D01*
X22250476Y-47523476D01*
X23202857Y-47294904D02*
X23279047Y-47294904D01*
X23355238Y-47333000D01*
X23393333Y-47371095D01*
X23431428Y-47447285D01*
X23469523Y-47599666D01*
X23469523Y-47790142D01*
X23431428Y-47942523D01*
X23393333Y-48018714D01*
X23355238Y-48056809D01*
X23279047Y-48094904D01*
X23202857Y-48094904D01*
X23126666Y-48056809D01*
X23088571Y-48018714D01*
X23050476Y-47942523D01*
X23012380Y-47790142D01*
X23012380Y-47599666D01*
X23050476Y-47447285D01*
X23088571Y-47371095D01*
X23126666Y-47333000D01*
X23202857Y-47294904D01*
X93332380Y-47294904D02*
X93827619Y-47294904D01*
X93560952Y-47599666D01*
X93675238Y-47599666D01*
X93751428Y-47637761D01*
X93789523Y-47675857D01*
X93827619Y-47752047D01*
X93827619Y-47942523D01*
X93789523Y-48018714D01*
X93751428Y-48056809D01*
X93675238Y-48094904D01*
X93446666Y-48094904D01*
X93370476Y-48056809D01*
X93332380Y-48018714D01*
X94284761Y-47637761D02*
X94208571Y-47599666D01*
X94170476Y-47561571D01*
X94132380Y-47485380D01*
X94132380Y-47447285D01*
X94170476Y-47371095D01*
X94208571Y-47333000D01*
X94284761Y-47294904D01*
X94437142Y-47294904D01*
X94513333Y-47333000D01*
X94551428Y-47371095D01*
X94589523Y-47447285D01*
X94589523Y-47485380D01*
X94551428Y-47561571D01*
X94513333Y-47599666D01*
X94437142Y-47637761D01*
X94284761Y-47637761D01*
X94208571Y-47675857D01*
X94170476Y-47713952D01*
X94132380Y-47790142D01*
X94132380Y-47942523D01*
X94170476Y-48018714D01*
X94208571Y-48056809D01*
X94284761Y-48094904D01*
X94437142Y-48094904D01*
X94513333Y-48056809D01*
X94551428Y-48018714D01*
X94589523Y-47942523D01*
X94589523Y-47790142D01*
X94551428Y-47713952D01*
X94513333Y-47675857D01*
X94437142Y-47637761D01*
X103911428Y-47561571D02*
X103911428Y-48094904D01*
X103720952Y-47256809D02*
X103530476Y-47828238D01*
X104025714Y-47828238D01*
X104292380Y-47371095D02*
X104330476Y-47333000D01*
X104406666Y-47294904D01*
X104597142Y-47294904D01*
X104673333Y-47333000D01*
X104711428Y-47371095D01*
X104749523Y-47447285D01*
X104749523Y-47523476D01*
X104711428Y-47637761D01*
X104254285Y-48094904D01*
X104749523Y-48094904D01*
X4813333Y-47294904D02*
X5308571Y-47294904D01*
X5041904Y-47599666D01*
X5156190Y-47599666D01*
X5232380Y-47637761D01*
X5270476Y-47675857D01*
X5308571Y-47752047D01*
X5308571Y-47942523D01*
X5270476Y-48018714D01*
X5232380Y-48056809D01*
X5156190Y-48094904D01*
X4927619Y-48094904D01*
X4851428Y-48056809D01*
X4813333Y-48018714D01*
X25247619Y-48094904D02*
X24790476Y-48094904D01*
X25019047Y-48094904D02*
X25019047Y-47294904D01*
X24942857Y-47409190D01*
X24866666Y-47485380D01*
X24790476Y-47523476D01*
X26009523Y-48094904D02*
X25552380Y-48094904D01*
X25780952Y-48094904D02*
X25780952Y-47294904D01*
X25704761Y-47409190D01*
X25628571Y-47485380D01*
X25552380Y-47523476D01*
X27787619Y-48094904D02*
X27330476Y-48094904D01*
X27559047Y-48094904D02*
X27559047Y-47294904D01*
X27482857Y-47409190D01*
X27406666Y-47485380D01*
X27330476Y-47523476D01*
X28092380Y-47371095D02*
X28130476Y-47333000D01*
X28206666Y-47294904D01*
X28397142Y-47294904D01*
X28473333Y-47333000D01*
X28511428Y-47371095D01*
X28549523Y-47447285D01*
X28549523Y-47523476D01*
X28511428Y-47637761D01*
X28054285Y-48094904D01*
X28549523Y-48094904D01*
X70510476Y-47371095D02*
X70548571Y-47333000D01*
X70624761Y-47294904D01*
X70815238Y-47294904D01*
X70891428Y-47333000D01*
X70929523Y-47371095D01*
X70967619Y-47447285D01*
X70967619Y-47523476D01*
X70929523Y-47637761D01*
X70472380Y-48094904D01*
X70967619Y-48094904D01*
X71348571Y-48094904D02*
X71500952Y-48094904D01*
X71577142Y-48056809D01*
X71615238Y-48018714D01*
X71691428Y-47904428D01*
X71729523Y-47752047D01*
X71729523Y-47447285D01*
X71691428Y-47371095D01*
X71653333Y-47333000D01*
X71577142Y-47294904D01*
X71424761Y-47294904D01*
X71348571Y-47333000D01*
X71310476Y-47371095D01*
X71272380Y-47447285D01*
X71272380Y-47637761D01*
X71310476Y-47713952D01*
X71348571Y-47752047D01*
X71424761Y-47790142D01*
X71577142Y-47790142D01*
X71653333Y-47752047D01*
X71691428Y-47713952D01*
X71729523Y-47637761D01*
X101371428Y-47561571D02*
X101371428Y-48094904D01*
X101180952Y-47256809D02*
X100990476Y-47828238D01*
X101485714Y-47828238D01*
X102209523Y-48094904D02*
X101752380Y-48094904D01*
X101980952Y-48094904D02*
X101980952Y-47294904D01*
X101904761Y-47409190D01*
X101828571Y-47485380D01*
X101752380Y-47523476D01*
X98831428Y-47561571D02*
X98831428Y-48094904D01*
X98640952Y-47256809D02*
X98450476Y-47828238D01*
X98945714Y-47828238D01*
X99402857Y-47294904D02*
X99479047Y-47294904D01*
X99555238Y-47333000D01*
X99593333Y-47371095D01*
X99631428Y-47447285D01*
X99669523Y-47599666D01*
X99669523Y-47790142D01*
X99631428Y-47942523D01*
X99593333Y-48018714D01*
X99555238Y-48056809D01*
X99479047Y-48094904D01*
X99402857Y-48094904D01*
X99326666Y-48056809D01*
X99288571Y-48018714D01*
X99250476Y-47942523D01*
X99212380Y-47790142D01*
X99212380Y-47599666D01*
X99250476Y-47447285D01*
X99288571Y-47371095D01*
X99326666Y-47333000D01*
X99402857Y-47294904D01*
X32867619Y-48094904D02*
X32410476Y-48094904D01*
X32639047Y-48094904D02*
X32639047Y-47294904D01*
X32562857Y-47409190D01*
X32486666Y-47485380D01*
X32410476Y-47523476D01*
X33553333Y-47561571D02*
X33553333Y-48094904D01*
X33362857Y-47256809D02*
X33172380Y-47828238D01*
X33667619Y-47828238D01*
X80632380Y-47294904D02*
X81127619Y-47294904D01*
X80860952Y-47599666D01*
X80975238Y-47599666D01*
X81051428Y-47637761D01*
X81089523Y-47675857D01*
X81127619Y-47752047D01*
X81127619Y-47942523D01*
X81089523Y-48018714D01*
X81051428Y-48056809D01*
X80975238Y-48094904D01*
X80746666Y-48094904D01*
X80670476Y-48056809D01*
X80632380Y-48018714D01*
X81394285Y-47294904D02*
X81889523Y-47294904D01*
X81622857Y-47599666D01*
X81737142Y-47599666D01*
X81813333Y-47637761D01*
X81851428Y-47675857D01*
X81889523Y-47752047D01*
X81889523Y-47942523D01*
X81851428Y-48018714D01*
X81813333Y-48056809D01*
X81737142Y-48094904D01*
X81508571Y-48094904D01*
X81432380Y-48056809D01*
X81394285Y-48018714D01*
X55270476Y-47371095D02*
X55308571Y-47333000D01*
X55384761Y-47294904D01*
X55575238Y-47294904D01*
X55651428Y-47333000D01*
X55689523Y-47371095D01*
X55727619Y-47447285D01*
X55727619Y-47523476D01*
X55689523Y-47637761D01*
X55232380Y-48094904D01*
X55727619Y-48094904D01*
X55994285Y-47294904D02*
X56489523Y-47294904D01*
X56222857Y-47599666D01*
X56337142Y-47599666D01*
X56413333Y-47637761D01*
X56451428Y-47675857D01*
X56489523Y-47752047D01*
X56489523Y-47942523D01*
X56451428Y-48018714D01*
X56413333Y-48056809D01*
X56337142Y-48094904D01*
X56108571Y-48094904D01*
X56032380Y-48056809D01*
X55994285Y-48018714D01*
X121691428Y-47942571D02*
X121691428Y-48475904D01*
X121500952Y-47637809D02*
X121310476Y-48209238D01*
X121805714Y-48209238D01*
X122148571Y-48475904D02*
X122300952Y-48475904D01*
X122377142Y-48437809D01*
X122415238Y-48399714D01*
X122491428Y-48285428D01*
X122529523Y-48133047D01*
X122529523Y-47828285D01*
X122491428Y-47752095D01*
X122453333Y-47714000D01*
X122377142Y-47675904D01*
X122224761Y-47675904D01*
X122148571Y-47714000D01*
X122110476Y-47752095D01*
X122072380Y-47828285D01*
X122072380Y-48018761D01*
X122110476Y-48094952D01*
X122148571Y-48133047D01*
X122224761Y-48171142D01*
X122377142Y-48171142D01*
X122453333Y-48133047D01*
X122491428Y-48094952D01*
X122529523Y-48018761D01*
X228571Y-48475904D02*
X-228571Y-48475904D01*
X0Y-48475904D02*
X0Y-47675904D01*
X-76190Y-47790190D01*
X-152380Y-47866380D01*
X-228571Y-47904476D01*
X17703809Y-47637761D02*
X17627619Y-47599666D01*
X17589523Y-47561571D01*
X17551428Y-47485380D01*
X17551428Y-47447285D01*
X17589523Y-47371095D01*
X17627619Y-47333000D01*
X17703809Y-47294904D01*
X17856190Y-47294904D01*
X17932380Y-47333000D01*
X17970476Y-47371095D01*
X18008571Y-47447285D01*
X18008571Y-47485380D01*
X17970476Y-47561571D01*
X17932380Y-47599666D01*
X17856190Y-47637761D01*
X17703809Y-47637761D01*
X17627619Y-47675857D01*
X17589523Y-47713952D01*
X17551428Y-47790142D01*
X17551428Y-47942523D01*
X17589523Y-48018714D01*
X17627619Y-48056809D01*
X17703809Y-48094904D01*
X17856190Y-48094904D01*
X17932380Y-48056809D01*
X17970476Y-48018714D01*
X18008571Y-47942523D01*
X18008571Y-47790142D01*
X17970476Y-47713952D01*
X17932380Y-47675857D01*
X17856190Y-47637761D01*
X35407619Y-48094904D02*
X34950476Y-48094904D01*
X35179047Y-48094904D02*
X35179047Y-47294904D01*
X35102857Y-47409190D01*
X35026666Y-47485380D01*
X34950476Y-47523476D01*
X36131428Y-47294904D02*
X35750476Y-47294904D01*
X35712380Y-47675857D01*
X35750476Y-47637761D01*
X35826666Y-47599666D01*
X36017142Y-47599666D01*
X36093333Y-47637761D01*
X36131428Y-47675857D01*
X36169523Y-47752047D01*
X36169523Y-47942523D01*
X36131428Y-48018714D01*
X36093333Y-48056809D01*
X36017142Y-48094904D01*
X35826666Y-48094904D01*
X35750476Y-48056809D01*
X35712380Y-48018714D01*
X108991428Y-47561571D02*
X108991428Y-48094904D01*
X108800952Y-47256809D02*
X108610476Y-47828238D01*
X109105714Y-47828238D01*
X109753333Y-47561571D02*
X109753333Y-48094904D01*
X109562857Y-47256809D02*
X109372380Y-47828238D01*
X109867619Y-47828238D01*
X67970476Y-47371095D02*
X68008571Y-47333000D01*
X68084761Y-47294904D01*
X68275238Y-47294904D01*
X68351428Y-47333000D01*
X68389523Y-47371095D01*
X68427619Y-47447285D01*
X68427619Y-47523476D01*
X68389523Y-47637761D01*
X67932380Y-48094904D01*
X68427619Y-48094904D01*
X68884761Y-47637761D02*
X68808571Y-47599666D01*
X68770476Y-47561571D01*
X68732380Y-47485380D01*
X68732380Y-47447285D01*
X68770476Y-47371095D01*
X68808571Y-47333000D01*
X68884761Y-47294904D01*
X69037142Y-47294904D01*
X69113333Y-47333000D01*
X69151428Y-47371095D01*
X69189523Y-47447285D01*
X69189523Y-47485380D01*
X69151428Y-47561571D01*
X69113333Y-47599666D01*
X69037142Y-47637761D01*
X68884761Y-47637761D01*
X68808571Y-47675857D01*
X68770476Y-47713952D01*
X68732380Y-47790142D01*
X68732380Y-47942523D01*
X68770476Y-48018714D01*
X68808571Y-48056809D01*
X68884761Y-48094904D01*
X69037142Y-48094904D01*
X69113333Y-48056809D01*
X69151428Y-48018714D01*
X69189523Y-47942523D01*
X69189523Y-47790142D01*
X69151428Y-47713952D01*
X69113333Y-47675857D01*
X69037142Y-47637761D01*
X60350476Y-47371095D02*
X60388571Y-47333000D01*
X60464761Y-47294904D01*
X60655238Y-47294904D01*
X60731428Y-47333000D01*
X60769523Y-47371095D01*
X60807619Y-47447285D01*
X60807619Y-47523476D01*
X60769523Y-47637761D01*
X60312380Y-48094904D01*
X60807619Y-48094904D01*
X61531428Y-47294904D02*
X61150476Y-47294904D01*
X61112380Y-47675857D01*
X61150476Y-47637761D01*
X61226666Y-47599666D01*
X61417142Y-47599666D01*
X61493333Y-47637761D01*
X61531428Y-47675857D01*
X61569523Y-47752047D01*
X61569523Y-47942523D01*
X61531428Y-48018714D01*
X61493333Y-48056809D01*
X61417142Y-48094904D01*
X61226666Y-48094904D01*
X61150476Y-48056809D01*
X61112380Y-48018714D01*
X7772380Y-47561571D02*
X7772380Y-48094904D01*
X7581904Y-47256809D02*
X7391428Y-47828238D01*
X7886666Y-47828238D01*
X73012380Y-47294904D02*
X73507619Y-47294904D01*
X73240952Y-47599666D01*
X73355238Y-47599666D01*
X73431428Y-47637761D01*
X73469523Y-47675857D01*
X73507619Y-47752047D01*
X73507619Y-47942523D01*
X73469523Y-48018714D01*
X73431428Y-48056809D01*
X73355238Y-48094904D01*
X73126666Y-48094904D01*
X73050476Y-48056809D01*
X73012380Y-48018714D01*
X74002857Y-47294904D02*
X74079047Y-47294904D01*
X74155238Y-47333000D01*
X74193333Y-47371095D01*
X74231428Y-47447285D01*
X74269523Y-47599666D01*
X74269523Y-47790142D01*
X74231428Y-47942523D01*
X74193333Y-48018714D01*
X74155238Y-48056809D01*
X74079047Y-48094904D01*
X74002857Y-48094904D01*
X73926666Y-48056809D01*
X73888571Y-48018714D01*
X73850476Y-47942523D01*
X73812380Y-47790142D01*
X73812380Y-47599666D01*
X73850476Y-47447285D01*
X73888571Y-47371095D01*
X73926666Y-47333000D01*
X74002857Y-47294904D01*
X2311428Y-47371095D02*
X2349523Y-47333000D01*
X2425714Y-47294904D01*
X2616190Y-47294904D01*
X2692380Y-47333000D01*
X2730476Y-47371095D01*
X2768571Y-47447285D01*
X2768571Y-47523476D01*
X2730476Y-47637761D01*
X2273333Y-48094904D01*
X2768571Y-48094904D01*
X30327619Y-48094904D02*
X29870476Y-48094904D01*
X30099047Y-48094904D02*
X30099047Y-47294904D01*
X30022857Y-47409190D01*
X29946666Y-47485380D01*
X29870476Y-47523476D01*
X30594285Y-47294904D02*
X31089523Y-47294904D01*
X30822857Y-47599666D01*
X30937142Y-47599666D01*
X31013333Y-47637761D01*
X31051428Y-47675857D01*
X31089523Y-47752047D01*
X31089523Y-47942523D01*
X31051428Y-48018714D01*
X31013333Y-48056809D01*
X30937142Y-48094904D01*
X30708571Y-48094904D01*
X30632380Y-48056809D01*
X30594285Y-48018714D01*
X119151428Y-47561571D02*
X119151428Y-48094904D01*
X118960952Y-47256809D02*
X118770476Y-47828238D01*
X119265714Y-47828238D01*
X119684761Y-47637761D02*
X119608571Y-47599666D01*
X119570476Y-47561571D01*
X119532380Y-47485380D01*
X119532380Y-47447285D01*
X119570476Y-47371095D01*
X119608571Y-47333000D01*
X119684761Y-47294904D01*
X119837142Y-47294904D01*
X119913333Y-47333000D01*
X119951428Y-47371095D01*
X119989523Y-47447285D01*
X119989523Y-47485380D01*
X119951428Y-47561571D01*
X119913333Y-47599666D01*
X119837142Y-47637761D01*
X119684761Y-47637761D01*
X119608571Y-47675857D01*
X119570476Y-47713952D01*
X119532380Y-47790142D01*
X119532380Y-47942523D01*
X119570476Y-48018714D01*
X119608571Y-48056809D01*
X119684761Y-48094904D01*
X119837142Y-48094904D01*
X119913333Y-48056809D01*
X119951428Y-48018714D01*
X119989523Y-47942523D01*
X119989523Y-47790142D01*
X119951428Y-47713952D01*
X119913333Y-47675857D01*
X119837142Y-47637761D01*
X14973333Y-47294904D02*
X15506666Y-47294904D01*
X15163809Y-48094904D01*
X111531428Y-47561571D02*
X111531428Y-48094904D01*
X111340952Y-47256809D02*
X111150476Y-47828238D01*
X111645714Y-47828238D01*
X112331428Y-47294904D02*
X111950476Y-47294904D01*
X111912380Y-47675857D01*
X111950476Y-47637761D01*
X112026666Y-47599666D01*
X112217142Y-47599666D01*
X112293333Y-47637761D01*
X112331428Y-47675857D01*
X112369523Y-47752047D01*
X112369523Y-47942523D01*
X112331428Y-48018714D01*
X112293333Y-48056809D01*
X112217142Y-48094904D01*
X112026666Y-48094904D01*
X111950476Y-48056809D01*
X111912380Y-48018714D01*
X20167619Y-48094904D02*
X20320000Y-48094904D01*
X20396190Y-48056809D01*
X20434285Y-48018714D01*
X20510476Y-47904428D01*
X20548571Y-47752047D01*
X20548571Y-47447285D01*
X20510476Y-47371095D01*
X20472380Y-47333000D01*
X20396190Y-47294904D01*
X20243809Y-47294904D01*
X20167619Y-47333000D01*
X20129523Y-47371095D01*
X20091428Y-47447285D01*
X20091428Y-47637761D01*
X20129523Y-47713952D01*
X20167619Y-47752047D01*
X20243809Y-47790142D01*
X20396190Y-47790142D01*
X20472380Y-47752047D01*
X20510476Y-47713952D01*
X20548571Y-47637761D01*
X40487619Y-48094904D02*
X40030476Y-48094904D01*
X40259047Y-48094904D02*
X40259047Y-47294904D01*
X40182857Y-47409190D01*
X40106666Y-47485380D01*
X40030476Y-47523476D01*
X40754285Y-47294904D02*
X41287619Y-47294904D01*
X40944761Y-48094904D01*
X47650476Y-47371095D02*
X47688571Y-47333000D01*
X47764761Y-47294904D01*
X47955238Y-47294904D01*
X48031428Y-47333000D01*
X48069523Y-47371095D01*
X48107619Y-47447285D01*
X48107619Y-47523476D01*
X48069523Y-47637761D01*
X47612380Y-48094904D01*
X48107619Y-48094904D01*
X48602857Y-47294904D02*
X48679047Y-47294904D01*
X48755238Y-47333000D01*
X48793333Y-47371095D01*
X48831428Y-47447285D01*
X48869523Y-47599666D01*
X48869523Y-47790142D01*
X48831428Y-47942523D01*
X48793333Y-48018714D01*
X48755238Y-48056809D01*
X48679047Y-48094904D01*
X48602857Y-48094904D01*
X48526666Y-48056809D01*
X48488571Y-48018714D01*
X48450476Y-47942523D01*
X48412380Y-47790142D01*
X48412380Y-47599666D01*
X48450476Y-47447285D01*
X48488571Y-47371095D01*
X48526666Y-47333000D01*
X48602857Y-47294904D01*
X88252380Y-47294904D02*
X88747619Y-47294904D01*
X88480952Y-47599666D01*
X88595238Y-47599666D01*
X88671428Y-47637761D01*
X88709523Y-47675857D01*
X88747619Y-47752047D01*
X88747619Y-47942523D01*
X88709523Y-48018714D01*
X88671428Y-48056809D01*
X88595238Y-48094904D01*
X88366666Y-48094904D01*
X88290476Y-48056809D01*
X88252380Y-48018714D01*
X89433333Y-47294904D02*
X89280952Y-47294904D01*
X89204761Y-47333000D01*
X89166666Y-47371095D01*
X89090476Y-47485380D01*
X89052380Y-47637761D01*
X89052380Y-47942523D01*
X89090476Y-48018714D01*
X89128571Y-48056809D01*
X89204761Y-48094904D01*
X89357142Y-48094904D01*
X89433333Y-48056809D01*
X89471428Y-48018714D01*
X89509523Y-47942523D01*
X89509523Y-47752047D01*
X89471428Y-47675857D01*
X89433333Y-47637761D01*
X89357142Y-47599666D01*
X89204761Y-47599666D01*
X89128571Y-47637761D01*
X89090476Y-47675857D01*
X89052380Y-47752047D01*
X50190476Y-47371095D02*
X50228571Y-47333000D01*
X50304761Y-47294904D01*
X50495238Y-47294904D01*
X50571428Y-47333000D01*
X50609523Y-47371095D01*
X50647619Y-47447285D01*
X50647619Y-47523476D01*
X50609523Y-47637761D01*
X50152380Y-48094904D01*
X50647619Y-48094904D01*
X51409523Y-48094904D02*
X50952380Y-48094904D01*
X51180952Y-48094904D02*
X51180952Y-47294904D01*
X51104761Y-47409190D01*
X51028571Y-47485380D01*
X50952380Y-47523476D01*
X52730476Y-47371095D02*
X52768571Y-47333000D01*
X52844761Y-47294904D01*
X53035238Y-47294904D01*
X53111428Y-47333000D01*
X53149523Y-47371095D01*
X53187619Y-47447285D01*
X53187619Y-47523476D01*
X53149523Y-47637761D01*
X52692380Y-48094904D01*
X53187619Y-48094904D01*
X53492380Y-47371095D02*
X53530476Y-47333000D01*
X53606666Y-47294904D01*
X53797142Y-47294904D01*
X53873333Y-47333000D01*
X53911428Y-47371095D01*
X53949523Y-47447285D01*
X53949523Y-47523476D01*
X53911428Y-47637761D01*
X53454285Y-48094904D01*
X53949523Y-48094904D01*
X57810476Y-47371095D02*
X57848571Y-47333000D01*
X57924761Y-47294904D01*
X58115238Y-47294904D01*
X58191428Y-47333000D01*
X58229523Y-47371095D01*
X58267619Y-47447285D01*
X58267619Y-47523476D01*
X58229523Y-47637761D01*
X57772380Y-48094904D01*
X58267619Y-48094904D01*
X58953333Y-47561571D02*
X58953333Y-48094904D01*
X58762857Y-47256809D02*
X58572380Y-47828238D01*
X59067619Y-47828238D01*
X62890476Y-47371095D02*
X62928571Y-47333000D01*
X63004761Y-47294904D01*
X63195238Y-47294904D01*
X63271428Y-47333000D01*
X63309523Y-47371095D01*
X63347619Y-47447285D01*
X63347619Y-47523476D01*
X63309523Y-47637761D01*
X62852380Y-48094904D01*
X63347619Y-48094904D01*
X64033333Y-47294904D02*
X63880952Y-47294904D01*
X63804761Y-47333000D01*
X63766666Y-47371095D01*
X63690476Y-47485380D01*
X63652380Y-47637761D01*
X63652380Y-47942523D01*
X63690476Y-48018714D01*
X63728571Y-48056809D01*
X63804761Y-48094904D01*
X63957142Y-48094904D01*
X64033333Y-48056809D01*
X64071428Y-48018714D01*
X64109523Y-47942523D01*
X64109523Y-47752047D01*
X64071428Y-47675857D01*
X64033333Y-47637761D01*
X63957142Y-47599666D01*
X63804761Y-47599666D01*
X63728571Y-47637761D01*
X63690476Y-47675857D01*
X63652380Y-47752047D01*
X78092380Y-47294904D02*
X78587619Y-47294904D01*
X78320952Y-47599666D01*
X78435238Y-47599666D01*
X78511428Y-47637761D01*
X78549523Y-47675857D01*
X78587619Y-47752047D01*
X78587619Y-47942523D01*
X78549523Y-48018714D01*
X78511428Y-48056809D01*
X78435238Y-48094904D01*
X78206666Y-48094904D01*
X78130476Y-48056809D01*
X78092380Y-48018714D01*
X78892380Y-47371095D02*
X78930476Y-47333000D01*
X79006666Y-47294904D01*
X79197142Y-47294904D01*
X79273333Y-47333000D01*
X79311428Y-47371095D01*
X79349523Y-47447285D01*
X79349523Y-47523476D01*
X79311428Y-47637761D01*
X78854285Y-48094904D01*
X79349523Y-48094904D01*
X106451428Y-47561571D02*
X106451428Y-48094904D01*
X106260952Y-47256809D02*
X106070476Y-47828238D01*
X106565714Y-47828238D01*
X106794285Y-47294904D02*
X107289523Y-47294904D01*
X107022857Y-47599666D01*
X107137142Y-47599666D01*
X107213333Y-47637761D01*
X107251428Y-47675857D01*
X107289523Y-47752047D01*
X107289523Y-47942523D01*
X107251428Y-48018714D01*
X107213333Y-48056809D01*
X107137142Y-48094904D01*
X106908571Y-48094904D01*
X106832380Y-48056809D01*
X106794285Y-48018714D01*
X114071428Y-47561571D02*
X114071428Y-48094904D01*
X113880952Y-47256809D02*
X113690476Y-47828238D01*
X114185714Y-47828238D01*
X114833333Y-47294904D02*
X114680952Y-47294904D01*
X114604761Y-47333000D01*
X114566666Y-47371095D01*
X114490476Y-47485380D01*
X114452380Y-47637761D01*
X114452380Y-47942523D01*
X114490476Y-48018714D01*
X114528571Y-48056809D01*
X114604761Y-48094904D01*
X114757142Y-48094904D01*
X114833333Y-48056809D01*
X114871428Y-48018714D01*
X114909523Y-47942523D01*
X114909523Y-47752047D01*
X114871428Y-47675857D01*
X114833333Y-47637761D01*
X114757142Y-47599666D01*
X114604761Y-47599666D01*
X114528571Y-47637761D01*
X114490476Y-47675857D01*
X114452380Y-47752047D01*
X83172380Y-47294904D02*
X83667619Y-47294904D01*
X83400952Y-47599666D01*
X83515238Y-47599666D01*
X83591428Y-47637761D01*
X83629523Y-47675857D01*
X83667619Y-47752047D01*
X83667619Y-47942523D01*
X83629523Y-48018714D01*
X83591428Y-48056809D01*
X83515238Y-48094904D01*
X83286666Y-48094904D01*
X83210476Y-48056809D01*
X83172380Y-48018714D01*
X84353333Y-47561571D02*
X84353333Y-48094904D01*
X84162857Y-47256809D02*
X83972380Y-47828238D01*
X84467619Y-47828238D01*
X85712380Y-47294904D02*
X86207619Y-47294904D01*
X85940952Y-47599666D01*
X86055238Y-47599666D01*
X86131428Y-47637761D01*
X86169523Y-47675857D01*
X86207619Y-47752047D01*
X86207619Y-47942523D01*
X86169523Y-48018714D01*
X86131428Y-48056809D01*
X86055238Y-48094904D01*
X85826666Y-48094904D01*
X85750476Y-48056809D01*
X85712380Y-48018714D01*
X86931428Y-47294904D02*
X86550476Y-47294904D01*
X86512380Y-47675857D01*
X86550476Y-47637761D01*
X86626666Y-47599666D01*
X86817142Y-47599666D01*
X86893333Y-47637761D01*
X86931428Y-47675857D01*
X86969523Y-47752047D01*
X86969523Y-47942523D01*
X86931428Y-48018714D01*
X86893333Y-48056809D01*
X86817142Y-48094904D01*
X86626666Y-48094904D01*
X86550476Y-48056809D01*
X86512380Y-48018714D01*
X95872380Y-47294904D02*
X96367619Y-47294904D01*
X96100952Y-47599666D01*
X96215238Y-47599666D01*
X96291428Y-47637761D01*
X96329523Y-47675857D01*
X96367619Y-47752047D01*
X96367619Y-47942523D01*
X96329523Y-48018714D01*
X96291428Y-48056809D01*
X96215238Y-48094904D01*
X95986666Y-48094904D01*
X95910476Y-48056809D01*
X95872380Y-48018714D01*
X96748571Y-48094904D02*
X96900952Y-48094904D01*
X96977142Y-48056809D01*
X97015238Y-48018714D01*
X97091428Y-47904428D01*
X97129523Y-47752047D01*
X97129523Y-47447285D01*
X97091428Y-47371095D01*
X97053333Y-47333000D01*
X96977142Y-47294904D01*
X96824761Y-47294904D01*
X96748571Y-47333000D01*
X96710476Y-47371095D01*
X96672380Y-47447285D01*
X96672380Y-47637761D01*
X96710476Y-47713952D01*
X96748571Y-47752047D01*
X96824761Y-47790142D01*
X96977142Y-47790142D01*
X97053333Y-47752047D01*
X97091428Y-47713952D01*
X97129523Y-47637761D01*
X-1733580Y-28301904D02*
X-2114533Y-28301904D01*
X-2114533Y-27501904D01*
X-2190723Y-7981904D02*
X-2190723Y-7181904D01*
X-2000247Y-7181904D01*
X-1885961Y-7220000D01*
X-1809771Y-7296190D01*
X-1771676Y-7372380D01*
X-1733580Y-7524761D01*
X-1733580Y-7639047D01*
X-1771676Y-7791428D01*
X-1809771Y-7867619D01*
X-1885961Y-7943809D01*
X-2000247Y-7981904D01*
X-2190723Y-7981904D01*
X-2190723Y-38461904D02*
X-2190723Y-37661904D01*
X-1885961Y-37661904D01*
X-1809771Y-37700000D01*
X-1771676Y-37738095D01*
X-1733580Y-37814285D01*
X-1733580Y-37928571D01*
X-1771676Y-38004761D01*
X-1809771Y-38042857D01*
X-1885961Y-38080952D01*
X-2190723Y-38080952D01*
X-2057390Y-35121904D02*
X-1905009Y-35121904D01*
X-1828819Y-35160000D01*
X-1752628Y-35236190D01*
X-1714533Y-35388571D01*
X-1714533Y-35655238D01*
X-1752628Y-35807619D01*
X-1828819Y-35883809D01*
X-1905009Y-35921904D01*
X-2057390Y-35921904D01*
X-2133580Y-35883809D01*
X-2209771Y-35807619D01*
X-2247866Y-35655238D01*
X-2247866Y-35388571D01*
X-2209771Y-35236190D01*
X-2133580Y-35160000D01*
X-2057390Y-35121904D01*
X-2209771Y-33381904D02*
X-2209771Y-32581904D01*
X-1752628Y-33381904D01*
X-1752628Y-32581904D01*
X-1771676Y-14840000D02*
X-1847866Y-14801904D01*
X-1962152Y-14801904D01*
X-2076438Y-14840000D01*
X-2152628Y-14916190D01*
X-2190723Y-14992380D01*
X-2228819Y-15144761D01*
X-2228819Y-15259047D01*
X-2190723Y-15411428D01*
X-2152628Y-15487619D01*
X-2076438Y-15563809D01*
X-1962152Y-15601904D01*
X-1885961Y-15601904D01*
X-1771676Y-15563809D01*
X-1733580Y-15525714D01*
X-1733580Y-15259047D01*
X-1885961Y-15259047D01*
X-1733580Y-5365714D02*
X-1771676Y-5403809D01*
X-1885961Y-5441904D01*
X-1962152Y-5441904D01*
X-2076438Y-5403809D01*
X-2152628Y-5327619D01*
X-2190723Y-5251428D01*
X-2228819Y-5099047D01*
X-2228819Y-4984761D01*
X-2190723Y-4832380D01*
X-2152628Y-4756190D01*
X-2076438Y-4680000D01*
X-1962152Y-4641904D01*
X-1885961Y-4641904D01*
X-1771676Y-4680000D01*
X-1733580Y-4718095D01*
X-1981199Y-20681904D02*
X-1981199Y-19881904D01*
X-2463771Y-46043809D02*
X-2349485Y-46081904D01*
X-2159009Y-46081904D01*
X-2082819Y-46043809D01*
X-2044723Y-46005714D01*
X-2006628Y-45929523D01*
X-2006628Y-45853333D01*
X-2044723Y-45777142D01*
X-2082819Y-45739047D01*
X-2159009Y-45700952D01*
X-2311390Y-45662857D01*
X-2387580Y-45624761D01*
X-2425676Y-45586666D01*
X-2463771Y-45510476D01*
X-2463771Y-45434285D01*
X-2425676Y-45358095D01*
X-2387580Y-45320000D01*
X-2311390Y-45281904D01*
X-2120914Y-45281904D01*
X-2006628Y-45320000D01*
X-1733580Y-43541904D02*
X-2000247Y-43160952D01*
X-2190723Y-43541904D02*
X-2190723Y-42741904D01*
X-1885961Y-42741904D01*
X-1809771Y-42780000D01*
X-1771676Y-42818095D01*
X-1733580Y-42894285D01*
X-1733580Y-43008571D01*
X-1771676Y-43084761D01*
X-1809771Y-43122857D01*
X-1885961Y-43160952D01*
X-2190723Y-43160952D01*
X-1866914Y-22421904D02*
X-1866914Y-22993333D01*
X-1905009Y-23107619D01*
X-1981200Y-23183809D01*
X-2095485Y-23221904D01*
X-2171676Y-23221904D01*
X-2209771Y-18141904D02*
X-2209771Y-17341904D01*
X-2209771Y-17722857D02*
X-1752628Y-17722857D01*
X-1752628Y-18141904D02*
X-1752628Y-17341904D01*
X-1676438Y-41078095D02*
X-1752628Y-41040000D01*
X-1828819Y-40963809D01*
X-1943104Y-40849523D01*
X-2019295Y-40811428D01*
X-2095485Y-40811428D01*
X-2057390Y-41001904D02*
X-2133580Y-40963809D01*
X-2209771Y-40887619D01*
X-2247866Y-40735238D01*
X-2247866Y-40468571D01*
X-2209771Y-40316190D01*
X-2133580Y-40240000D01*
X-2057390Y-40201904D01*
X-1905009Y-40201904D01*
X-1828819Y-40240000D01*
X-1752628Y-40316190D01*
X-1714533Y-40468571D01*
X-1714533Y-40735238D01*
X-1752628Y-40887619D01*
X-1828819Y-40963809D01*
X-1905009Y-41001904D01*
X-2057390Y-41001904D01*
X-2247866Y-30841904D02*
X-2247866Y-30041904D01*
X-1981200Y-30613333D01*
X-1714533Y-30041904D01*
X-1714533Y-30841904D01*
X-2190723Y-25761904D02*
X-2190723Y-24961904D01*
X-1733580Y-25761904D02*
X-2076438Y-25304761D01*
X-1733580Y-24961904D02*
X-2190723Y-25419047D01*
X-2152628Y-10102857D02*
X-1885961Y-10102857D01*
X-1771676Y-10521904D02*
X-2152628Y-10521904D01*
X-2152628Y-9721904D01*
X-1771676Y-9721904D01*
X-1924057Y-2482857D02*
X-1809771Y-2520952D01*
X-1771676Y-2559047D01*
X-1733580Y-2635238D01*
X-1733580Y-2749523D01*
X-1771676Y-2825714D01*
X-1809771Y-2863809D01*
X-1885961Y-2901904D01*
X-2190723Y-2901904D01*
X-2190723Y-2101904D01*
X-1924057Y-2101904D01*
X-1847866Y-2140000D01*
X-1809771Y-2178095D01*
X-1771676Y-2254285D01*
X-1771676Y-2330476D01*
X-1809771Y-2406666D01*
X-1847866Y-2444761D01*
X-1924057Y-2482857D01*
X-2190723Y-2482857D01*
X-2425676Y-133333D02*
X-2044723Y-133333D01*
X-2501866Y-361904D02*
X-2235200Y438095D01*
X-1968533Y-361904D01*
X-1866914Y-12642857D02*
X-2133580Y-12642857D01*
X-2133580Y-13061904D02*
X-2133580Y-12261904D01*
X-1752628Y-12261904D01*
X121691428Y2457428D02*
X121691428Y1924095D01*
X121500952Y2762190D02*
X121310476Y2190761D01*
X121805714Y2190761D01*
X122148571Y1924095D02*
X122300952Y1924095D01*
X122377142Y1962190D01*
X122415238Y2000285D01*
X122491428Y2114571D01*
X122529523Y2266952D01*
X122529523Y2571714D01*
X122491428Y2647904D01*
X122453333Y2686000D01*
X122377142Y2724095D01*
X122224761Y2724095D01*
X122148571Y2686000D01*
X122110476Y2647904D01*
X122072380Y2571714D01*
X122072380Y2381238D01*
X122110476Y2305047D01*
X122148571Y2266952D01*
X122224761Y2228857D01*
X122377142Y2228857D01*
X122453333Y2266952D01*
X122491428Y2305047D01*
X122529523Y2381238D01*
X119151428Y2139928D02*
X119151428Y1606595D01*
X118960952Y2444690D02*
X118770476Y1873261D01*
X119265714Y1873261D01*
X119684761Y2063738D02*
X119608571Y2101833D01*
X119570476Y2139928D01*
X119532380Y2216119D01*
X119532380Y2254214D01*
X119570476Y2330404D01*
X119608571Y2368500D01*
X119684761Y2406595D01*
X119837142Y2406595D01*
X119913333Y2368500D01*
X119951428Y2330404D01*
X119989523Y2254214D01*
X119989523Y2216119D01*
X119951428Y2139928D01*
X119913333Y2101833D01*
X119837142Y2063738D01*
X119684761Y2063738D01*
X119608571Y2025642D01*
X119570476Y1987547D01*
X119532380Y1911357D01*
X119532380Y1758976D01*
X119570476Y1682785D01*
X119608571Y1644690D01*
X119684761Y1606595D01*
X119837142Y1606595D01*
X119913333Y1644690D01*
X119951428Y1682785D01*
X119989523Y1758976D01*
X119989523Y1911357D01*
X119951428Y1987547D01*
X119913333Y2025642D01*
X119837142Y2063738D01*
X116611428Y2139928D02*
X116611428Y1606595D01*
X116420952Y2444690D02*
X116230476Y1873261D01*
X116725714Y1873261D01*
X116954285Y2406595D02*
X117487619Y2406595D01*
X117144761Y1606595D01*
X114071428Y2139928D02*
X114071428Y1606595D01*
X113880952Y2444690D02*
X113690476Y1873261D01*
X114185714Y1873261D01*
X114833333Y2406595D02*
X114680952Y2406595D01*
X114604761Y2368500D01*
X114566666Y2330404D01*
X114490476Y2216119D01*
X114452380Y2063738D01*
X114452380Y1758976D01*
X114490476Y1682785D01*
X114528571Y1644690D01*
X114604761Y1606595D01*
X114757142Y1606595D01*
X114833333Y1644690D01*
X114871428Y1682785D01*
X114909523Y1758976D01*
X114909523Y1949452D01*
X114871428Y2025642D01*
X114833333Y2063738D01*
X114757142Y2101833D01*
X114604761Y2101833D01*
X114528571Y2063738D01*
X114490476Y2025642D01*
X114452380Y1949452D01*
X111531428Y2139928D02*
X111531428Y1606595D01*
X111340952Y2444690D02*
X111150476Y1873261D01*
X111645714Y1873261D01*
X112331428Y2406595D02*
X111950476Y2406595D01*
X111912380Y2025642D01*
X111950476Y2063738D01*
X112026666Y2101833D01*
X112217142Y2101833D01*
X112293333Y2063738D01*
X112331428Y2025642D01*
X112369523Y1949452D01*
X112369523Y1758976D01*
X112331428Y1682785D01*
X112293333Y1644690D01*
X112217142Y1606595D01*
X112026666Y1606595D01*
X111950476Y1644690D01*
X111912380Y1682785D01*
X108991428Y2139928D02*
X108991428Y1606595D01*
X108800952Y2444690D02*
X108610476Y1873261D01*
X109105714Y1873261D01*
X109753333Y2139928D02*
X109753333Y1606595D01*
X109562857Y2444690D02*
X109372380Y1873261D01*
X109867619Y1873261D01*
X106451428Y2139928D02*
X106451428Y1606595D01*
X106260952Y2444690D02*
X106070476Y1873261D01*
X106565714Y1873261D01*
X106794285Y2406595D02*
X107289523Y2406595D01*
X107022857Y2101833D01*
X107137142Y2101833D01*
X107213333Y2063738D01*
X107251428Y2025642D01*
X107289523Y1949452D01*
X107289523Y1758976D01*
X107251428Y1682785D01*
X107213333Y1644690D01*
X107137142Y1606595D01*
X106908571Y1606595D01*
X106832380Y1644690D01*
X106794285Y1682785D01*
X103911428Y2139928D02*
X103911428Y1606595D01*
X103720952Y2444690D02*
X103530476Y1873261D01*
X104025714Y1873261D01*
X104292380Y2330404D02*
X104330476Y2368500D01*
X104406666Y2406595D01*
X104597142Y2406595D01*
X104673333Y2368500D01*
X104711428Y2330404D01*
X104749523Y2254214D01*
X104749523Y2178023D01*
X104711428Y2063738D01*
X104254285Y1606595D01*
X104749523Y1606595D01*
X101371428Y2139928D02*
X101371428Y1606595D01*
X101180952Y2444690D02*
X100990476Y1873261D01*
X101485714Y1873261D01*
X102209523Y1606595D02*
X101752380Y1606595D01*
X101980952Y1606595D02*
X101980952Y2406595D01*
X101904761Y2292309D01*
X101828571Y2216119D01*
X101752380Y2178023D01*
X98831428Y2139928D02*
X98831428Y1606595D01*
X98640952Y2444690D02*
X98450476Y1873261D01*
X98945714Y1873261D01*
X99402857Y2406595D02*
X99479047Y2406595D01*
X99555238Y2368500D01*
X99593333Y2330404D01*
X99631428Y2254214D01*
X99669523Y2101833D01*
X99669523Y1911357D01*
X99631428Y1758976D01*
X99593333Y1682785D01*
X99555238Y1644690D01*
X99479047Y1606595D01*
X99402857Y1606595D01*
X99326666Y1644690D01*
X99288571Y1682785D01*
X99250476Y1758976D01*
X99212380Y1911357D01*
X99212380Y2101833D01*
X99250476Y2254214D01*
X99288571Y2330404D01*
X99326666Y2368500D01*
X99402857Y2406595D01*
X95872380Y2406595D02*
X96367619Y2406595D01*
X96100952Y2101833D01*
X96215238Y2101833D01*
X96291428Y2063738D01*
X96329523Y2025642D01*
X96367619Y1949452D01*
X96367619Y1758976D01*
X96329523Y1682785D01*
X96291428Y1644690D01*
X96215238Y1606595D01*
X95986666Y1606595D01*
X95910476Y1644690D01*
X95872380Y1682785D01*
X96748571Y1606595D02*
X96900952Y1606595D01*
X96977142Y1644690D01*
X97015238Y1682785D01*
X97091428Y1797071D01*
X97129523Y1949452D01*
X97129523Y2254214D01*
X97091428Y2330404D01*
X97053333Y2368500D01*
X96977142Y2406595D01*
X96824761Y2406595D01*
X96748571Y2368500D01*
X96710476Y2330404D01*
X96672380Y2254214D01*
X96672380Y2063738D01*
X96710476Y1987547D01*
X96748571Y1949452D01*
X96824761Y1911357D01*
X96977142Y1911357D01*
X97053333Y1949452D01*
X97091428Y1987547D01*
X97129523Y2063738D01*
X93332380Y2406595D02*
X93827619Y2406595D01*
X93560952Y2101833D01*
X93675238Y2101833D01*
X93751428Y2063738D01*
X93789523Y2025642D01*
X93827619Y1949452D01*
X93827619Y1758976D01*
X93789523Y1682785D01*
X93751428Y1644690D01*
X93675238Y1606595D01*
X93446666Y1606595D01*
X93370476Y1644690D01*
X93332380Y1682785D01*
X94284761Y2063738D02*
X94208571Y2101833D01*
X94170476Y2139928D01*
X94132380Y2216119D01*
X94132380Y2254214D01*
X94170476Y2330404D01*
X94208571Y2368500D01*
X94284761Y2406595D01*
X94437142Y2406595D01*
X94513333Y2368500D01*
X94551428Y2330404D01*
X94589523Y2254214D01*
X94589523Y2216119D01*
X94551428Y2139928D01*
X94513333Y2101833D01*
X94437142Y2063738D01*
X94284761Y2063738D01*
X94208571Y2025642D01*
X94170476Y1987547D01*
X94132380Y1911357D01*
X94132380Y1758976D01*
X94170476Y1682785D01*
X94208571Y1644690D01*
X94284761Y1606595D01*
X94437142Y1606595D01*
X94513333Y1644690D01*
X94551428Y1682785D01*
X94589523Y1758976D01*
X94589523Y1911357D01*
X94551428Y1987547D01*
X94513333Y2025642D01*
X94437142Y2063738D01*
X90792380Y2406595D02*
X91287619Y2406595D01*
X91020952Y2101833D01*
X91135238Y2101833D01*
X91211428Y2063738D01*
X91249523Y2025642D01*
X91287619Y1949452D01*
X91287619Y1758976D01*
X91249523Y1682785D01*
X91211428Y1644690D01*
X91135238Y1606595D01*
X90906666Y1606595D01*
X90830476Y1644690D01*
X90792380Y1682785D01*
X91554285Y2406595D02*
X92087619Y2406595D01*
X91744761Y1606595D01*
X88252380Y2406595D02*
X88747619Y2406595D01*
X88480952Y2101833D01*
X88595238Y2101833D01*
X88671428Y2063738D01*
X88709523Y2025642D01*
X88747619Y1949452D01*
X88747619Y1758976D01*
X88709523Y1682785D01*
X88671428Y1644690D01*
X88595238Y1606595D01*
X88366666Y1606595D01*
X88290476Y1644690D01*
X88252380Y1682785D01*
X89433333Y2406595D02*
X89280952Y2406595D01*
X89204761Y2368500D01*
X89166666Y2330404D01*
X89090476Y2216119D01*
X89052380Y2063738D01*
X89052380Y1758976D01*
X89090476Y1682785D01*
X89128571Y1644690D01*
X89204761Y1606595D01*
X89357142Y1606595D01*
X89433333Y1644690D01*
X89471428Y1682785D01*
X89509523Y1758976D01*
X89509523Y1949452D01*
X89471428Y2025642D01*
X89433333Y2063738D01*
X89357142Y2101833D01*
X89204761Y2101833D01*
X89128571Y2063738D01*
X89090476Y2025642D01*
X89052380Y1949452D01*
X85712380Y2406595D02*
X86207619Y2406595D01*
X85940952Y2101833D01*
X86055238Y2101833D01*
X86131428Y2063738D01*
X86169523Y2025642D01*
X86207619Y1949452D01*
X86207619Y1758976D01*
X86169523Y1682785D01*
X86131428Y1644690D01*
X86055238Y1606595D01*
X85826666Y1606595D01*
X85750476Y1644690D01*
X85712380Y1682785D01*
X86931428Y2406595D02*
X86550476Y2406595D01*
X86512380Y2025642D01*
X86550476Y2063738D01*
X86626666Y2101833D01*
X86817142Y2101833D01*
X86893333Y2063738D01*
X86931428Y2025642D01*
X86969523Y1949452D01*
X86969523Y1758976D01*
X86931428Y1682785D01*
X86893333Y1644690D01*
X86817142Y1606595D01*
X86626666Y1606595D01*
X86550476Y1644690D01*
X86512380Y1682785D01*
X83172380Y2406595D02*
X83667619Y2406595D01*
X83400952Y2101833D01*
X83515238Y2101833D01*
X83591428Y2063738D01*
X83629523Y2025642D01*
X83667619Y1949452D01*
X83667619Y1758976D01*
X83629523Y1682785D01*
X83591428Y1644690D01*
X83515238Y1606595D01*
X83286666Y1606595D01*
X83210476Y1644690D01*
X83172380Y1682785D01*
X84353333Y2139928D02*
X84353333Y1606595D01*
X84162857Y2444690D02*
X83972380Y1873261D01*
X84467619Y1873261D01*
X80632380Y2406595D02*
X81127619Y2406595D01*
X80860952Y2101833D01*
X80975238Y2101833D01*
X81051428Y2063738D01*
X81089523Y2025642D01*
X81127619Y1949452D01*
X81127619Y1758976D01*
X81089523Y1682785D01*
X81051428Y1644690D01*
X80975238Y1606595D01*
X80746666Y1606595D01*
X80670476Y1644690D01*
X80632380Y1682785D01*
X81394285Y2406595D02*
X81889523Y2406595D01*
X81622857Y2101833D01*
X81737142Y2101833D01*
X81813333Y2063738D01*
X81851428Y2025642D01*
X81889523Y1949452D01*
X81889523Y1758976D01*
X81851428Y1682785D01*
X81813333Y1644690D01*
X81737142Y1606595D01*
X81508571Y1606595D01*
X81432380Y1644690D01*
X81394285Y1682785D01*
X78092380Y2406595D02*
X78587619Y2406595D01*
X78320952Y2101833D01*
X78435238Y2101833D01*
X78511428Y2063738D01*
X78549523Y2025642D01*
X78587619Y1949452D01*
X78587619Y1758976D01*
X78549523Y1682785D01*
X78511428Y1644690D01*
X78435238Y1606595D01*
X78206666Y1606595D01*
X78130476Y1644690D01*
X78092380Y1682785D01*
X78892380Y2330404D02*
X78930476Y2368500D01*
X79006666Y2406595D01*
X79197142Y2406595D01*
X79273333Y2368500D01*
X79311428Y2330404D01*
X79349523Y2254214D01*
X79349523Y2178023D01*
X79311428Y2063738D01*
X78854285Y1606595D01*
X79349523Y1606595D01*
X75552380Y2406595D02*
X76047619Y2406595D01*
X75780952Y2101833D01*
X75895238Y2101833D01*
X75971428Y2063738D01*
X76009523Y2025642D01*
X76047619Y1949452D01*
X76047619Y1758976D01*
X76009523Y1682785D01*
X75971428Y1644690D01*
X75895238Y1606595D01*
X75666666Y1606595D01*
X75590476Y1644690D01*
X75552380Y1682785D01*
X76809523Y1606595D02*
X76352380Y1606595D01*
X76580952Y1606595D02*
X76580952Y2406595D01*
X76504761Y2292309D01*
X76428571Y2216119D01*
X76352380Y2178023D01*
X73012380Y2406595D02*
X73507619Y2406595D01*
X73240952Y2101833D01*
X73355238Y2101833D01*
X73431428Y2063738D01*
X73469523Y2025642D01*
X73507619Y1949452D01*
X73507619Y1758976D01*
X73469523Y1682785D01*
X73431428Y1644690D01*
X73355238Y1606595D01*
X73126666Y1606595D01*
X73050476Y1644690D01*
X73012380Y1682785D01*
X74002857Y2406595D02*
X74079047Y2406595D01*
X74155238Y2368500D01*
X74193333Y2330404D01*
X74231428Y2254214D01*
X74269523Y2101833D01*
X74269523Y1911357D01*
X74231428Y1758976D01*
X74193333Y1682785D01*
X74155238Y1644690D01*
X74079047Y1606595D01*
X74002857Y1606595D01*
X73926666Y1644690D01*
X73888571Y1682785D01*
X73850476Y1758976D01*
X73812380Y1911357D01*
X73812380Y2101833D01*
X73850476Y2254214D01*
X73888571Y2330404D01*
X73926666Y2368500D01*
X74002857Y2406595D01*
X70510476Y2330404D02*
X70548571Y2368500D01*
X70624761Y2406595D01*
X70815238Y2406595D01*
X70891428Y2368500D01*
X70929523Y2330404D01*
X70967619Y2254214D01*
X70967619Y2178023D01*
X70929523Y2063738D01*
X70472380Y1606595D01*
X70967619Y1606595D01*
X71348571Y1606595D02*
X71500952Y1606595D01*
X71577142Y1644690D01*
X71615238Y1682785D01*
X71691428Y1797071D01*
X71729523Y1949452D01*
X71729523Y2254214D01*
X71691428Y2330404D01*
X71653333Y2368500D01*
X71577142Y2406595D01*
X71424761Y2406595D01*
X71348571Y2368500D01*
X71310476Y2330404D01*
X71272380Y2254214D01*
X71272380Y2063738D01*
X71310476Y1987547D01*
X71348571Y1949452D01*
X71424761Y1911357D01*
X71577142Y1911357D01*
X71653333Y1949452D01*
X71691428Y1987547D01*
X71729523Y2063738D01*
X67970476Y2330404D02*
X68008571Y2368500D01*
X68084761Y2406595D01*
X68275238Y2406595D01*
X68351428Y2368500D01*
X68389523Y2330404D01*
X68427619Y2254214D01*
X68427619Y2178023D01*
X68389523Y2063738D01*
X67932380Y1606595D01*
X68427619Y1606595D01*
X68884761Y2063738D02*
X68808571Y2101833D01*
X68770476Y2139928D01*
X68732380Y2216119D01*
X68732380Y2254214D01*
X68770476Y2330404D01*
X68808571Y2368500D01*
X68884761Y2406595D01*
X69037142Y2406595D01*
X69113333Y2368500D01*
X69151428Y2330404D01*
X69189523Y2254214D01*
X69189523Y2216119D01*
X69151428Y2139928D01*
X69113333Y2101833D01*
X69037142Y2063738D01*
X68884761Y2063738D01*
X68808571Y2025642D01*
X68770476Y1987547D01*
X68732380Y1911357D01*
X68732380Y1758976D01*
X68770476Y1682785D01*
X68808571Y1644690D01*
X68884761Y1606595D01*
X69037142Y1606595D01*
X69113333Y1644690D01*
X69151428Y1682785D01*
X69189523Y1758976D01*
X69189523Y1911357D01*
X69151428Y1987547D01*
X69113333Y2025642D01*
X69037142Y2063738D01*
X65430476Y2330404D02*
X65468571Y2368500D01*
X65544761Y2406595D01*
X65735238Y2406595D01*
X65811428Y2368500D01*
X65849523Y2330404D01*
X65887619Y2254214D01*
X65887619Y2178023D01*
X65849523Y2063738D01*
X65392380Y1606595D01*
X65887619Y1606595D01*
X66154285Y2406595D02*
X66687619Y2406595D01*
X66344761Y1606595D01*
X62890476Y2330404D02*
X62928571Y2368500D01*
X63004761Y2406595D01*
X63195238Y2406595D01*
X63271428Y2368500D01*
X63309523Y2330404D01*
X63347619Y2254214D01*
X63347619Y2178023D01*
X63309523Y2063738D01*
X62852380Y1606595D01*
X63347619Y1606595D01*
X64033333Y2406595D02*
X63880952Y2406595D01*
X63804761Y2368500D01*
X63766666Y2330404D01*
X63690476Y2216119D01*
X63652380Y2063738D01*
X63652380Y1758976D01*
X63690476Y1682785D01*
X63728571Y1644690D01*
X63804761Y1606595D01*
X63957142Y1606595D01*
X64033333Y1644690D01*
X64071428Y1682785D01*
X64109523Y1758976D01*
X64109523Y1949452D01*
X64071428Y2025642D01*
X64033333Y2063738D01*
X63957142Y2101833D01*
X63804761Y2101833D01*
X63728571Y2063738D01*
X63690476Y2025642D01*
X63652380Y1949452D01*
X60350476Y2330404D02*
X60388571Y2368500D01*
X60464761Y2406595D01*
X60655238Y2406595D01*
X60731428Y2368500D01*
X60769523Y2330404D01*
X60807619Y2254214D01*
X60807619Y2178023D01*
X60769523Y2063738D01*
X60312380Y1606595D01*
X60807619Y1606595D01*
X61531428Y2406595D02*
X61150476Y2406595D01*
X61112380Y2025642D01*
X61150476Y2063738D01*
X61226666Y2101833D01*
X61417142Y2101833D01*
X61493333Y2063738D01*
X61531428Y2025642D01*
X61569523Y1949452D01*
X61569523Y1758976D01*
X61531428Y1682785D01*
X61493333Y1644690D01*
X61417142Y1606595D01*
X61226666Y1606595D01*
X61150476Y1644690D01*
X61112380Y1682785D01*
X57810476Y2330404D02*
X57848571Y2368500D01*
X57924761Y2406595D01*
X58115238Y2406595D01*
X58191428Y2368500D01*
X58229523Y2330404D01*
X58267619Y2254214D01*
X58267619Y2178023D01*
X58229523Y2063738D01*
X57772380Y1606595D01*
X58267619Y1606595D01*
X58953333Y2139928D02*
X58953333Y1606595D01*
X58762857Y2444690D02*
X58572380Y1873261D01*
X59067619Y1873261D01*
X55270476Y2330404D02*
X55308571Y2368500D01*
X55384761Y2406595D01*
X55575238Y2406595D01*
X55651428Y2368500D01*
X55689523Y2330404D01*
X55727619Y2254214D01*
X55727619Y2178023D01*
X55689523Y2063738D01*
X55232380Y1606595D01*
X55727619Y1606595D01*
X55994285Y2406595D02*
X56489523Y2406595D01*
X56222857Y2101833D01*
X56337142Y2101833D01*
X56413333Y2063738D01*
X56451428Y2025642D01*
X56489523Y1949452D01*
X56489523Y1758976D01*
X56451428Y1682785D01*
X56413333Y1644690D01*
X56337142Y1606595D01*
X56108571Y1606595D01*
X56032380Y1644690D01*
X55994285Y1682785D01*
X52730476Y2330404D02*
X52768571Y2368500D01*
X52844761Y2406595D01*
X53035238Y2406595D01*
X53111428Y2368500D01*
X53149523Y2330404D01*
X53187619Y2254214D01*
X53187619Y2178023D01*
X53149523Y2063738D01*
X52692380Y1606595D01*
X53187619Y1606595D01*
X53492380Y2330404D02*
X53530476Y2368500D01*
X53606666Y2406595D01*
X53797142Y2406595D01*
X53873333Y2368500D01*
X53911428Y2330404D01*
X53949523Y2254214D01*
X53949523Y2178023D01*
X53911428Y2063738D01*
X53454285Y1606595D01*
X53949523Y1606595D01*
X50190476Y2330404D02*
X50228571Y2368500D01*
X50304761Y2406595D01*
X50495238Y2406595D01*
X50571428Y2368500D01*
X50609523Y2330404D01*
X50647619Y2254214D01*
X50647619Y2178023D01*
X50609523Y2063738D01*
X50152380Y1606595D01*
X50647619Y1606595D01*
X51409523Y1606595D02*
X50952380Y1606595D01*
X51180952Y1606595D02*
X51180952Y2406595D01*
X51104761Y2292309D01*
X51028571Y2216119D01*
X50952380Y2178023D01*
X47650476Y2330404D02*
X47688571Y2368500D01*
X47764761Y2406595D01*
X47955238Y2406595D01*
X48031428Y2368500D01*
X48069523Y2330404D01*
X48107619Y2254214D01*
X48107619Y2178023D01*
X48069523Y2063738D01*
X47612380Y1606595D01*
X48107619Y1606595D01*
X48602857Y2406595D02*
X48679047Y2406595D01*
X48755238Y2368500D01*
X48793333Y2330404D01*
X48831428Y2254214D01*
X48869523Y2101833D01*
X48869523Y1911357D01*
X48831428Y1758976D01*
X48793333Y1682785D01*
X48755238Y1644690D01*
X48679047Y1606595D01*
X48602857Y1606595D01*
X48526666Y1644690D01*
X48488571Y1682785D01*
X48450476Y1758976D01*
X48412380Y1911357D01*
X48412380Y2101833D01*
X48450476Y2254214D01*
X48488571Y2330404D01*
X48526666Y2368500D01*
X48602857Y2406595D01*
X45567619Y1606595D02*
X45110476Y1606595D01*
X45339047Y1606595D02*
X45339047Y2406595D01*
X45262857Y2292309D01*
X45186666Y2216119D01*
X45110476Y2178023D01*
X45948571Y1606595D02*
X46100952Y1606595D01*
X46177142Y1644690D01*
X46215238Y1682785D01*
X46291428Y1797071D01*
X46329523Y1949452D01*
X46329523Y2254214D01*
X46291428Y2330404D01*
X46253333Y2368500D01*
X46177142Y2406595D01*
X46024761Y2406595D01*
X45948571Y2368500D01*
X45910476Y2330404D01*
X45872380Y2254214D01*
X45872380Y2063738D01*
X45910476Y1987547D01*
X45948571Y1949452D01*
X46024761Y1911357D01*
X46177142Y1911357D01*
X46253333Y1949452D01*
X46291428Y1987547D01*
X46329523Y2063738D01*
X43027619Y1606595D02*
X42570476Y1606595D01*
X42799047Y1606595D02*
X42799047Y2406595D01*
X42722857Y2292309D01*
X42646666Y2216119D01*
X42570476Y2178023D01*
X43484761Y2063738D02*
X43408571Y2101833D01*
X43370476Y2139928D01*
X43332380Y2216119D01*
X43332380Y2254214D01*
X43370476Y2330404D01*
X43408571Y2368500D01*
X43484761Y2406595D01*
X43637142Y2406595D01*
X43713333Y2368500D01*
X43751428Y2330404D01*
X43789523Y2254214D01*
X43789523Y2216119D01*
X43751428Y2139928D01*
X43713333Y2101833D01*
X43637142Y2063738D01*
X43484761Y2063738D01*
X43408571Y2025642D01*
X43370476Y1987547D01*
X43332380Y1911357D01*
X43332380Y1758976D01*
X43370476Y1682785D01*
X43408571Y1644690D01*
X43484761Y1606595D01*
X43637142Y1606595D01*
X43713333Y1644690D01*
X43751428Y1682785D01*
X43789523Y1758976D01*
X43789523Y1911357D01*
X43751428Y1987547D01*
X43713333Y2025642D01*
X43637142Y2063738D01*
X40487619Y1606595D02*
X40030476Y1606595D01*
X40259047Y1606595D02*
X40259047Y2406595D01*
X40182857Y2292309D01*
X40106666Y2216119D01*
X40030476Y2178023D01*
X40754285Y2406595D02*
X41287619Y2406595D01*
X40944761Y1606595D01*
X37947619Y1606595D02*
X37490476Y1606595D01*
X37719047Y1606595D02*
X37719047Y2406595D01*
X37642857Y2292309D01*
X37566666Y2216119D01*
X37490476Y2178023D01*
X38633333Y2406595D02*
X38480952Y2406595D01*
X38404761Y2368500D01*
X38366666Y2330404D01*
X38290476Y2216119D01*
X38252380Y2063738D01*
X38252380Y1758976D01*
X38290476Y1682785D01*
X38328571Y1644690D01*
X38404761Y1606595D01*
X38557142Y1606595D01*
X38633333Y1644690D01*
X38671428Y1682785D01*
X38709523Y1758976D01*
X38709523Y1949452D01*
X38671428Y2025642D01*
X38633333Y2063738D01*
X38557142Y2101833D01*
X38404761Y2101833D01*
X38328571Y2063738D01*
X38290476Y2025642D01*
X38252380Y1949452D01*
X35407619Y1606595D02*
X34950476Y1606595D01*
X35179047Y1606595D02*
X35179047Y2406595D01*
X35102857Y2292309D01*
X35026666Y2216119D01*
X34950476Y2178023D01*
X36131428Y2406595D02*
X35750476Y2406595D01*
X35712380Y2025642D01*
X35750476Y2063738D01*
X35826666Y2101833D01*
X36017142Y2101833D01*
X36093333Y2063738D01*
X36131428Y2025642D01*
X36169523Y1949452D01*
X36169523Y1758976D01*
X36131428Y1682785D01*
X36093333Y1644690D01*
X36017142Y1606595D01*
X35826666Y1606595D01*
X35750476Y1644690D01*
X35712380Y1682785D01*
X32867619Y1606595D02*
X32410476Y1606595D01*
X32639047Y1606595D02*
X32639047Y2406595D01*
X32562857Y2292309D01*
X32486666Y2216119D01*
X32410476Y2178023D01*
X33553333Y2139928D02*
X33553333Y1606595D01*
X33362857Y2444690D02*
X33172380Y1873261D01*
X33667619Y1873261D01*
X30327619Y1606595D02*
X29870476Y1606595D01*
X30099047Y1606595D02*
X30099047Y2406595D01*
X30022857Y2292309D01*
X29946666Y2216119D01*
X29870476Y2178023D01*
X30594285Y2406595D02*
X31089523Y2406595D01*
X30822857Y2101833D01*
X30937142Y2101833D01*
X31013333Y2063738D01*
X31051428Y2025642D01*
X31089523Y1949452D01*
X31089523Y1758976D01*
X31051428Y1682785D01*
X31013333Y1644690D01*
X30937142Y1606595D01*
X30708571Y1606595D01*
X30632380Y1644690D01*
X30594285Y1682785D01*
X27787619Y1606595D02*
X27330476Y1606595D01*
X27559047Y1606595D02*
X27559047Y2406595D01*
X27482857Y2292309D01*
X27406666Y2216119D01*
X27330476Y2178023D01*
X28092380Y2330404D02*
X28130476Y2368500D01*
X28206666Y2406595D01*
X28397142Y2406595D01*
X28473333Y2368500D01*
X28511428Y2330404D01*
X28549523Y2254214D01*
X28549523Y2178023D01*
X28511428Y2063738D01*
X28054285Y1606595D01*
X28549523Y1606595D01*
X25247619Y1606595D02*
X24790476Y1606595D01*
X25019047Y1606595D02*
X25019047Y2406595D01*
X24942857Y2292309D01*
X24866666Y2216119D01*
X24790476Y2178023D01*
X26009523Y1606595D02*
X25552380Y1606595D01*
X25780952Y1606595D02*
X25780952Y2406595D01*
X25704761Y2292309D01*
X25628571Y2216119D01*
X25552380Y2178023D01*
X22707619Y1606595D02*
X22250476Y1606595D01*
X22479047Y1606595D02*
X22479047Y2406595D01*
X22402857Y2292309D01*
X22326666Y2216119D01*
X22250476Y2178023D01*
X23202857Y2406595D02*
X23279047Y2406595D01*
X23355238Y2368500D01*
X23393333Y2330404D01*
X23431428Y2254214D01*
X23469523Y2101833D01*
X23469523Y1911357D01*
X23431428Y1758976D01*
X23393333Y1682785D01*
X23355238Y1644690D01*
X23279047Y1606595D01*
X23202857Y1606595D01*
X23126666Y1644690D01*
X23088571Y1682785D01*
X23050476Y1758976D01*
X23012380Y1911357D01*
X23012380Y2101833D01*
X23050476Y2254214D01*
X23088571Y2330404D01*
X23126666Y2368500D01*
X23202857Y2406595D01*
X20167619Y1606595D02*
X20320000Y1606595D01*
X20396190Y1644690D01*
X20434285Y1682785D01*
X20510476Y1797071D01*
X20548571Y1949452D01*
X20548571Y2254214D01*
X20510476Y2330404D01*
X20472380Y2368500D01*
X20396190Y2406595D01*
X20243809Y2406595D01*
X20167619Y2368500D01*
X20129523Y2330404D01*
X20091428Y2254214D01*
X20091428Y2063738D01*
X20129523Y1987547D01*
X20167619Y1949452D01*
X20243809Y1911357D01*
X20396190Y1911357D01*
X20472380Y1949452D01*
X20510476Y1987547D01*
X20548571Y2063738D01*
X17703809Y2063738D02*
X17627619Y2101833D01*
X17589523Y2139928D01*
X17551428Y2216119D01*
X17551428Y2254214D01*
X17589523Y2330404D01*
X17627619Y2368500D01*
X17703809Y2406595D01*
X17856190Y2406595D01*
X17932380Y2368500D01*
X17970476Y2330404D01*
X18008571Y2254214D01*
X18008571Y2216119D01*
X17970476Y2139928D01*
X17932380Y2101833D01*
X17856190Y2063738D01*
X17703809Y2063738D01*
X17627619Y2025642D01*
X17589523Y1987547D01*
X17551428Y1911357D01*
X17551428Y1758976D01*
X17589523Y1682785D01*
X17627619Y1644690D01*
X17703809Y1606595D01*
X17856190Y1606595D01*
X17932380Y1644690D01*
X17970476Y1682785D01*
X18008571Y1758976D01*
X18008571Y1911357D01*
X17970476Y1987547D01*
X17932380Y2025642D01*
X17856190Y2063738D01*
X14973333Y2406595D02*
X15506666Y2406595D01*
X15163809Y1606595D01*
X12852380Y2406595D02*
X12700000Y2406595D01*
X12623809Y2368500D01*
X12585714Y2330404D01*
X12509523Y2216119D01*
X12471428Y2063738D01*
X12471428Y1758976D01*
X12509523Y1682785D01*
X12547619Y1644690D01*
X12623809Y1606595D01*
X12776190Y1606595D01*
X12852380Y1644690D01*
X12890476Y1682785D01*
X12928571Y1758976D01*
X12928571Y1949452D01*
X12890476Y2025642D01*
X12852380Y2063738D01*
X12776190Y2101833D01*
X12623809Y2101833D01*
X12547619Y2063738D01*
X12509523Y2025642D01*
X12471428Y1949452D01*
X10350476Y2406595D02*
X9969523Y2406595D01*
X9931428Y2025642D01*
X9969523Y2063738D01*
X10045714Y2101833D01*
X10236190Y2101833D01*
X10312380Y2063738D01*
X10350476Y2025642D01*
X10388571Y1949452D01*
X10388571Y1758976D01*
X10350476Y1682785D01*
X10312380Y1644690D01*
X10236190Y1606595D01*
X10045714Y1606595D01*
X9969523Y1644690D01*
X9931428Y1682785D01*
X7772380Y2139928D02*
X7772380Y1606595D01*
X7581904Y2444690D02*
X7391428Y1873261D01*
X7886666Y1873261D01*
X4813333Y2406595D02*
X5308571Y2406595D01*
X5041904Y2101833D01*
X5156190Y2101833D01*
X5232380Y2063738D01*
X5270476Y2025642D01*
X5308571Y1949452D01*
X5308571Y1758976D01*
X5270476Y1682785D01*
X5232380Y1644690D01*
X5156190Y1606595D01*
X4927619Y1606595D01*
X4851428Y1644690D01*
X4813333Y1682785D01*
X2311428Y2330404D02*
X2349523Y2368500D01*
X2425714Y2406595D01*
X2616190Y2406595D01*
X2692380Y2368500D01*
X2730476Y2330404D01*
X2768571Y2254214D01*
X2768571Y2178023D01*
X2730476Y2063738D01*
X2273333Y1606595D01*
X2768571Y1606595D01*
X228571Y1924095D02*
X-228571Y1924095D01*
X0Y1924095D02*
X0Y2724095D01*
X-76190Y2609809D01*
X-152380Y2533619D01*
X-228571Y2495523D01*
D11*
X98247200Y-34696400D02*
X98247200Y-33934400D01*
X97586800Y-29972000D02*
X98044000Y-29972000D01*
X92456000Y-36118800D02*
X92913200Y-36118800D01*
X97574100Y-36118800D02*
X98031300Y-36118800D01*
X95046800Y-29972000D02*
X95504000Y-29972000D01*
X92468700Y-29972000D02*
X92925900Y-29972000D01*
X92252800Y-34696400D02*
X92252800Y-33934400D01*
X92252800Y-32156400D02*
X92252800Y-31394400D01*
X95034100Y-36118800D02*
X95491300Y-36118800D01*
X98247200Y-32156400D02*
X98247200Y-31394400D01*
X98247200Y-14376400D02*
X98247200Y-13614400D01*
X97586800Y-9652000D02*
X98044000Y-9652000D01*
X92456000Y-15798800D02*
X92913200Y-15798800D01*
X97574100Y-15798800D02*
X98031300Y-15798800D01*
X95046800Y-9652000D02*
X95504000Y-9652000D01*
X92468700Y-9652000D02*
X92925900Y-9652000D01*
X92252800Y-14376400D02*
X92252800Y-13614400D01*
X92252800Y-11836400D02*
X92252800Y-11074400D01*
X95034100Y-15798800D02*
X95491300Y-15798800D01*
X98247200Y-11836400D02*
X98247200Y-11074400D01*
X116027200Y-24536400D02*
X116027200Y-23774400D01*
X115366800Y-19812000D02*
X115824000Y-19812000D01*
X110236000Y-25958800D02*
X110693200Y-25958800D01*
X115354100Y-25958800D02*
X115811300Y-25958800D01*
X112826800Y-19812000D02*
X113284000Y-19812000D01*
X110248700Y-19812000D02*
X110705900Y-19812000D01*
X110032800Y-24536400D02*
X110032800Y-23774400D01*
X110032800Y-21996400D02*
X110032800Y-21234400D01*
X112814100Y-25958800D02*
X113271300Y-25958800D01*
X116027200Y-21996400D02*
X116027200Y-21234400D01*
X80467200Y-24536400D02*
X80467200Y-23774400D01*
X79806800Y-19812000D02*
X80264000Y-19812000D01*
X74676000Y-25958800D02*
X75133200Y-25958800D01*
X79794100Y-25958800D02*
X80251300Y-25958800D01*
X77266800Y-19812000D02*
X77724000Y-19812000D01*
X74688700Y-19812000D02*
X75145900Y-19812000D01*
X74472800Y-24536400D02*
X74472800Y-23774400D01*
X74472800Y-21996400D02*
X74472800Y-21234400D01*
X77254100Y-25958800D02*
X77711300Y-25958800D01*
X80467200Y-21996400D02*
X80467200Y-21234400D01*
X65227200Y-32156400D02*
X65227200Y-31394400D01*
X64566800Y-27432000D02*
X65024000Y-27432000D01*
X59436000Y-33578800D02*
X59893200Y-33578800D01*
X64554100Y-33578800D02*
X65011300Y-33578800D01*
X62026800Y-27432000D02*
X62484000Y-27432000D01*
X59448700Y-27432000D02*
X59905900Y-27432000D01*
X59232800Y-32156400D02*
X59232800Y-31394400D01*
X59232800Y-29616400D02*
X59232800Y-28854400D01*
X62014100Y-33578800D02*
X62471300Y-33578800D01*
X65227200Y-29616400D02*
X65227200Y-28854400D01*
X24587200Y-32156400D02*
X24587200Y-31394400D01*
X23926800Y-27432000D02*
X24384000Y-27432000D01*
X18796000Y-33578800D02*
X19253200Y-33578800D01*
X23914100Y-33578800D02*
X24371300Y-33578800D01*
X21386800Y-27432000D02*
X21844000Y-27432000D01*
X18808700Y-27432000D02*
X19265900Y-27432000D01*
X18592800Y-32156400D02*
X18592800Y-31394400D01*
X18592800Y-29616400D02*
X18592800Y-28854400D01*
X21374100Y-33578800D02*
X21831300Y-33578800D01*
X24587200Y-29616400D02*
X24587200Y-28854400D01*
X24587200Y-16916400D02*
X24587200Y-16154400D01*
X23926800Y-12192000D02*
X24384000Y-12192000D01*
X18796000Y-18338800D02*
X19253200Y-18338800D01*
X23914100Y-18338800D02*
X24371300Y-18338800D01*
X21386800Y-12192000D02*
X21844000Y-12192000D01*
X18808700Y-12192000D02*
X19265900Y-12192000D01*
X18592800Y-16916400D02*
X18592800Y-16154400D01*
X18592800Y-14376400D02*
X18592800Y-13614400D01*
X21374100Y-18338800D02*
X21831300Y-18338800D01*
X24587200Y-14376400D02*
X24587200Y-13614400D01*
X31546800Y-19812000D02*
X32004000Y-19812000D01*
X29006800Y-19812000D02*
X29464000Y-19812000D01*
X26428700Y-19812000D02*
X26885900Y-19812000D01*
X31534100Y-25958800D02*
X31991300Y-25958800D01*
X28994100Y-25958800D02*
X29451300Y-25958800D01*
X32207200Y-24536400D02*
X32207200Y-23774400D01*
X26416000Y-25958800D02*
X26873200Y-25958800D01*
X32207200Y-21996400D02*
X32207200Y-21234400D01*
X26212800Y-24536400D02*
X26212800Y-23774400D01*
X26212800Y-21996400D02*
X26212800Y-21234400D01*
X16294100Y-25958800D02*
X16751300Y-25958800D01*
X13754100Y-25958800D02*
X14211300Y-25958800D01*
X11176000Y-25958800D02*
X11633200Y-25958800D01*
X10972800Y-24536400D02*
X10972800Y-23774400D01*
X10972800Y-21996400D02*
X10972800Y-21234400D01*
X16967200Y-24536400D02*
X16967200Y-23774400D01*
X16967200Y-21996400D02*
X16967200Y-21234400D01*
X16306800Y-19812000D02*
X16764000Y-19812000D01*
X13766800Y-19812000D02*
X14224000Y-19812000D01*
X11188700Y-19812000D02*
X11645900Y-19812000D01*
%LPC*%
D12*
X45720000Y-27940000D03*
X93980000Y-30480000D03*
X93980000Y-10160000D03*
X111760000Y-20320000D03*
X76200000Y-20320000D03*
X60960000Y-27940000D03*
X43180000Y-27940000D03*
X20320000Y-27940000D03*
X20320000Y-12700000D03*
X20320000Y-30480000D03*
X22860000Y-30480000D03*
X20320000Y-33020000D03*
X22860000Y-33020000D03*
X116840000Y-45720000D03*
X114300000Y-45720000D03*
X111760000Y-45720000D03*
X109220000Y-45720000D03*
X106680000Y-45720000D03*
X104140000Y-45720000D03*
X101600000Y-45720000D03*
X99060000Y-45720000D03*
X96520000Y-45720000D03*
X93980000Y-45720000D03*
X91440000Y-45720000D03*
X88900000Y-45720000D03*
X86360000Y-45720000D03*
X83820000Y-45720000D03*
X81280000Y-45720000D03*
X78740000Y-45720000D03*
X76200000Y-45720000D03*
X73660000Y-45720000D03*
X71120000Y-45720000D03*
X68580000Y-45720000D03*
X66040000Y-45720000D03*
X63500000Y-45720000D03*
X60960000Y-45720000D03*
X58420000Y-45720000D03*
X55880000Y-45720000D03*
X53340000Y-45720000D03*
X50800000Y-45720000D03*
X48260000Y-45720000D03*
X45720000Y-45720000D03*
X43180000Y-45720000D03*
X40640000Y-45720000D03*
X38100000Y-45720000D03*
X35560000Y-45720000D03*
X33020000Y-45720000D03*
X30480000Y-45720000D03*
X27940000Y-45720000D03*
X25400000Y-45720000D03*
X22860000Y-45720000D03*
X20320000Y-45720000D03*
X17780000Y-45720000D03*
X15240000Y-45720000D03*
X12700000Y-45720000D03*
X10160000Y-45720000D03*
X7620000Y-45720000D03*
X5080000Y-45720000D03*
X119380000Y-43180000D03*
X116840000Y-43180000D03*
X114300000Y-43180000D03*
X111760000Y-43180000D03*
X109220000Y-43180000D03*
X106680000Y-43180000D03*
X104140000Y-43180000D03*
X101600000Y-43180000D03*
X99060000Y-43180000D03*
X96520000Y-43180000D03*
X93980000Y-43180000D03*
X91440000Y-43180000D03*
X88900000Y-43180000D03*
X86360000Y-43180000D03*
X83820000Y-43180000D03*
X81280000Y-43180000D03*
X78740000Y-43180000D03*
X76200000Y-43180000D03*
X73660000Y-43180000D03*
X71120000Y-43180000D03*
X68580000Y-43180000D03*
X66040000Y-43180000D03*
X63500000Y-43180000D03*
X60960000Y-43180000D03*
X58420000Y-43180000D03*
X55880000Y-43180000D03*
X53340000Y-43180000D03*
X50800000Y-43180000D03*
X48260000Y-43180000D03*
X45720000Y-43180000D03*
X43180000Y-43180000D03*
X40640000Y-43180000D03*
X38100000Y-43180000D03*
X35560000Y-43180000D03*
X33020000Y-43180000D03*
X30480000Y-43180000D03*
X27940000Y-43180000D03*
X25400000Y-43180000D03*
X22860000Y-43180000D03*
X20320000Y-43180000D03*
X17780000Y-43180000D03*
X15240000Y-43180000D03*
X12700000Y-43180000D03*
X10160000Y-43180000D03*
X7620000Y-43180000D03*
X5080000Y-43180000D03*
X2540000Y-43180000D03*
X121920000Y-40640000D03*
X119380000Y-40640000D03*
X116840000Y-40640000D03*
X114300000Y-40640000D03*
X111760000Y-40640000D03*
X109220000Y-40640000D03*
X106680000Y-40640000D03*
X104140000Y-40640000D03*
X101600000Y-40640000D03*
X99060000Y-40640000D03*
X96520000Y-40640000D03*
X93980000Y-40640000D03*
X91440000Y-40640000D03*
X88900000Y-40640000D03*
X86360000Y-40640000D03*
X83820000Y-40640000D03*
X81280000Y-40640000D03*
X78740000Y-40640000D03*
X76200000Y-40640000D03*
X73660000Y-40640000D03*
X71120000Y-40640000D03*
X68580000Y-40640000D03*
X66040000Y-40640000D03*
X63500000Y-40640000D03*
X60960000Y-40640000D03*
X58420000Y-40640000D03*
X55880000Y-40640000D03*
X53340000Y-40640000D03*
X50800000Y-40640000D03*
X48260000Y-40640000D03*
X45720000Y-40640000D03*
X43180000Y-40640000D03*
X40640000Y-40640000D03*
X38100000Y-40640000D03*
X35560000Y-40640000D03*
X33020000Y-40640000D03*
X30480000Y-40640000D03*
X27940000Y-40640000D03*
X25400000Y-40640000D03*
X22860000Y-40640000D03*
X20320000Y-40640000D03*
X17780000Y-40640000D03*
X15240000Y-40640000D03*
X12700000Y-40640000D03*
X10160000Y-40640000D03*
X7620000Y-40640000D03*
X5080000Y-40640000D03*
X2540000Y-40640000D03*
X0Y-40640000D03*
X121920000Y-38100000D03*
X119380000Y-38100000D03*
X116840000Y-38100000D03*
X114300000Y-38100000D03*
X111760000Y-38100000D03*
X109220000Y-38100000D03*
X106680000Y-38100000D03*
X104140000Y-38100000D03*
X101600000Y-38100000D03*
X99060000Y-38100000D03*
X96520000Y-38100000D03*
X93980000Y-38100000D03*
X91440000Y-38100000D03*
X88900000Y-38100000D03*
X86360000Y-38100000D03*
X83820000Y-38100000D03*
X81280000Y-38100000D03*
X78740000Y-38100000D03*
X76200000Y-38100000D03*
X73660000Y-38100000D03*
X71120000Y-38100000D03*
X68580000Y-38100000D03*
X66040000Y-38100000D03*
X63500000Y-38100000D03*
X60960000Y-38100000D03*
X58420000Y-38100000D03*
X55880000Y-38100000D03*
X53340000Y-38100000D03*
X50800000Y-38100000D03*
X48260000Y-38100000D03*
X45720000Y-38100000D03*
X43180000Y-38100000D03*
X40640000Y-38100000D03*
X38100000Y-38100000D03*
X35560000Y-38100000D03*
X33020000Y-38100000D03*
X30480000Y-38100000D03*
X27940000Y-38100000D03*
X25400000Y-38100000D03*
X22860000Y-38100000D03*
X20320000Y-38100000D03*
X17780000Y-38100000D03*
X15240000Y-38100000D03*
X12700000Y-38100000D03*
X10160000Y-38100000D03*
X7620000Y-38100000D03*
X5080000Y-38100000D03*
X2540000Y-38100000D03*
X0Y-38100000D03*
X121920000Y-35560000D03*
X119380000Y-35560000D03*
X116840000Y-35560000D03*
X114300000Y-35560000D03*
X111760000Y-35560000D03*
X109220000Y-35560000D03*
X106680000Y-35560000D03*
X104140000Y-35560000D03*
X101600000Y-35560000D03*
X99060000Y-35560000D03*
X96520000Y-35560000D03*
X93980000Y-35560000D03*
X91440000Y-35560000D03*
X88900000Y-35560000D03*
X86360000Y-35560000D03*
X83820000Y-35560000D03*
X81280000Y-35560000D03*
X78740000Y-35560000D03*
X76200000Y-35560000D03*
X73660000Y-35560000D03*
X71120000Y-35560000D03*
X68580000Y-35560000D03*
X66040000Y-35560000D03*
X63500000Y-35560000D03*
X60960000Y-35560000D03*
X58420000Y-35560000D03*
X55880000Y-35560000D03*
X53340000Y-35560000D03*
X50800000Y-35560000D03*
X48260000Y-35560000D03*
X45720000Y-35560000D03*
X43180000Y-35560000D03*
X40640000Y-35560000D03*
X38100000Y-35560000D03*
X35560000Y-35560000D03*
X33020000Y-35560000D03*
X30480000Y-35560000D03*
X27940000Y-35560000D03*
X25400000Y-35560000D03*
X22860000Y-35560000D03*
X20320000Y-35560000D03*
X17780000Y-35560000D03*
X15240000Y-35560000D03*
X12700000Y-35560000D03*
X10160000Y-35560000D03*
X7620000Y-35560000D03*
X5080000Y-35560000D03*
X2540000Y-35560000D03*
X0Y-35560000D03*
X121920000Y-33020000D03*
X119380000Y-33020000D03*
X116840000Y-33020000D03*
X114300000Y-33020000D03*
X111760000Y-33020000D03*
X109220000Y-33020000D03*
X106680000Y-33020000D03*
X104140000Y-33020000D03*
X101600000Y-33020000D03*
X99060000Y-33020000D03*
X96520000Y-33020000D03*
X93980000Y-33020000D03*
X91440000Y-33020000D03*
X88900000Y-33020000D03*
X86360000Y-33020000D03*
X83820000Y-33020000D03*
X81280000Y-33020000D03*
X78740000Y-33020000D03*
X76200000Y-33020000D03*
X73660000Y-33020000D03*
X71120000Y-33020000D03*
X68580000Y-33020000D03*
X66040000Y-33020000D03*
X63500000Y-33020000D03*
X60960000Y-33020000D03*
X58420000Y-33020000D03*
X55880000Y-33020000D03*
X53340000Y-33020000D03*
X50800000Y-33020000D03*
X48260000Y-33020000D03*
X45720000Y-33020000D03*
X43180000Y-33020000D03*
X40640000Y-33020000D03*
X38100000Y-33020000D03*
X35560000Y-33020000D03*
X33020000Y-33020000D03*
X30480000Y-33020000D03*
X27940000Y-33020000D03*
X25400000Y-33020000D03*
X17780000Y-33020000D03*
X15240000Y-33020000D03*
X12700000Y-33020000D03*
X10160000Y-33020000D03*
X7620000Y-33020000D03*
X5080000Y-33020000D03*
X2540000Y-33020000D03*
X0Y-33020000D03*
X121920000Y-30480000D03*
X119380000Y-30480000D03*
X116840000Y-30480000D03*
X114300000Y-30480000D03*
X111760000Y-30480000D03*
X109220000Y-30480000D03*
X106680000Y-30480000D03*
X104140000Y-30480000D03*
X101600000Y-30480000D03*
X99060000Y-30480000D03*
X96520000Y-30480000D03*
X91440000Y-30480000D03*
X88900000Y-30480000D03*
X86360000Y-30480000D03*
X83820000Y-30480000D03*
X81280000Y-30480000D03*
X78740000Y-30480000D03*
X76200000Y-30480000D03*
X73660000Y-30480000D03*
X71120000Y-30480000D03*
X68580000Y-30480000D03*
X66040000Y-30480000D03*
X63500000Y-30480000D03*
X60960000Y-30480000D03*
X58420000Y-30480000D03*
X55880000Y-30480000D03*
X53340000Y-30480000D03*
X50800000Y-30480000D03*
X48260000Y-30480000D03*
X45720000Y-30480000D03*
X43180000Y-30480000D03*
X40640000Y-30480000D03*
X38100000Y-30480000D03*
X35560000Y-30480000D03*
X33020000Y-30480000D03*
X30480000Y-30480000D03*
X27940000Y-30480000D03*
X25400000Y-30480000D03*
X17780000Y-30480000D03*
X15240000Y-30480000D03*
X12700000Y-30480000D03*
X10160000Y-30480000D03*
X7620000Y-30480000D03*
X5080000Y-30480000D03*
X2540000Y-30480000D03*
X0Y-30480000D03*
X121920000Y-27940000D03*
X119380000Y-27940000D03*
X116840000Y-27940000D03*
X114300000Y-27940000D03*
X111760000Y-27940000D03*
X109220000Y-27940000D03*
X106680000Y-27940000D03*
X104140000Y-27940000D03*
X101600000Y-27940000D03*
X99060000Y-27940000D03*
X96520000Y-27940000D03*
X93980000Y-27940000D03*
X91440000Y-27940000D03*
X88900000Y-27940000D03*
X86360000Y-27940000D03*
X83820000Y-27940000D03*
X81280000Y-27940000D03*
X78740000Y-27940000D03*
X76200000Y-27940000D03*
X73660000Y-27940000D03*
X71120000Y-27940000D03*
X68580000Y-27940000D03*
X66040000Y-27940000D03*
X63500000Y-27940000D03*
X58420000Y-27940000D03*
X55880000Y-27940000D03*
X53340000Y-27940000D03*
X50800000Y-27940000D03*
X48260000Y-27940000D03*
X40640000Y-27940000D03*
X38100000Y-27940000D03*
X35560000Y-27940000D03*
X33020000Y-27940000D03*
X30480000Y-27940000D03*
X27940000Y-27940000D03*
X25400000Y-27940000D03*
X22860000Y-27940000D03*
X17780000Y-27940000D03*
X15240000Y-27940000D03*
X12700000Y-27940000D03*
X10160000Y-27940000D03*
X7620000Y-27940000D03*
X5080000Y-27940000D03*
X2540000Y-27940000D03*
X0Y-27940000D03*
X121920000Y-25400000D03*
X119380000Y-25400000D03*
X116840000Y-25400000D03*
X114300000Y-25400000D03*
X111760000Y-25400000D03*
X109220000Y-25400000D03*
X106680000Y-25400000D03*
X104140000Y-25400000D03*
X101600000Y-25400000D03*
X99060000Y-25400000D03*
X96520000Y-25400000D03*
X93980000Y-25400000D03*
X91440000Y-25400000D03*
X88900000Y-25400000D03*
X86360000Y-25400000D03*
X83820000Y-25400000D03*
X81280000Y-25400000D03*
X78740000Y-25400000D03*
X76200000Y-25400000D03*
X73660000Y-25400000D03*
X71120000Y-25400000D03*
X68580000Y-25400000D03*
X66040000Y-25400000D03*
X63500000Y-25400000D03*
X60960000Y-25400000D03*
X58420000Y-25400000D03*
X55880000Y-25400000D03*
X53340000Y-25400000D03*
X50800000Y-25400000D03*
X48260000Y-25400000D03*
X45720000Y-25400000D03*
X43180000Y-25400000D03*
X40640000Y-25400000D03*
X38100000Y-25400000D03*
X35560000Y-25400000D03*
X33020000Y-25400000D03*
X30480000Y-25400000D03*
X27940000Y-25400000D03*
X25400000Y-25400000D03*
X22860000Y-25400000D03*
X20320000Y-25400000D03*
X17780000Y-25400000D03*
X15240000Y-25400000D03*
X12700000Y-25400000D03*
X10160000Y-25400000D03*
X7620000Y-25400000D03*
X5080000Y-25400000D03*
X2540000Y-25400000D03*
X0Y-25400000D03*
X121920000Y-22860000D03*
X119380000Y-22860000D03*
X116840000Y-22860000D03*
X114300000Y-22860000D03*
X111760000Y-22860000D03*
X109220000Y-22860000D03*
X106680000Y-22860000D03*
X104140000Y-22860000D03*
X101600000Y-22860000D03*
X99060000Y-22860000D03*
X96520000Y-22860000D03*
X93980000Y-22860000D03*
X91440000Y-22860000D03*
X88900000Y-22860000D03*
X86360000Y-22860000D03*
X83820000Y-22860000D03*
X81280000Y-22860000D03*
X78740000Y-22860000D03*
X76200000Y-22860000D03*
X73660000Y-22860000D03*
X71120000Y-22860000D03*
X68580000Y-22860000D03*
X66040000Y-22860000D03*
X63500000Y-22860000D03*
X60960000Y-22860000D03*
X58420000Y-22860000D03*
X55880000Y-22860000D03*
X53340000Y-22860000D03*
X50800000Y-22860000D03*
X48260000Y-22860000D03*
X45720000Y-22860000D03*
X43180000Y-22860000D03*
X40640000Y-22860000D03*
X38100000Y-22860000D03*
X35560000Y-22860000D03*
X33020000Y-22860000D03*
X30480000Y-22860000D03*
X27940000Y-22860000D03*
X25400000Y-22860000D03*
X22860000Y-22860000D03*
X20320000Y-22860000D03*
X17780000Y-22860000D03*
X15240000Y-22860000D03*
X12700000Y-22860000D03*
X10160000Y-22860000D03*
X7620000Y-22860000D03*
X5080000Y-22860000D03*
X2540000Y-22860000D03*
X0Y-22860000D03*
X121920000Y-20320000D03*
X119380000Y-20320000D03*
X116840000Y-20320000D03*
X114300000Y-20320000D03*
X109220000Y-20320000D03*
X106680000Y-20320000D03*
X104140000Y-20320000D03*
X101600000Y-20320000D03*
X99060000Y-20320000D03*
X96520000Y-20320000D03*
X93980000Y-20320000D03*
X91440000Y-20320000D03*
X88900000Y-20320000D03*
X86360000Y-20320000D03*
X83820000Y-20320000D03*
X81280000Y-20320000D03*
X78740000Y-20320000D03*
X73660000Y-20320000D03*
X71120000Y-20320000D03*
X68580000Y-20320000D03*
X66040000Y-20320000D03*
X63500000Y-20320000D03*
X60960000Y-20320000D03*
X58420000Y-20320000D03*
X55880000Y-20320000D03*
X53340000Y-20320000D03*
X50800000Y-20320000D03*
X48260000Y-20320000D03*
X45720000Y-20320000D03*
X43180000Y-20320000D03*
X40640000Y-20320000D03*
X38100000Y-20320000D03*
X35560000Y-20320000D03*
X33020000Y-20320000D03*
X30480000Y-20320000D03*
X27940000Y-20320000D03*
X25400000Y-20320000D03*
X22860000Y-20320000D03*
X20320000Y-20320000D03*
X17780000Y-20320000D03*
X15240000Y-20320000D03*
X12700000Y-20320000D03*
X10160000Y-20320000D03*
X7620000Y-20320000D03*
X5080000Y-20320000D03*
X2540000Y-20320000D03*
X0Y-20320000D03*
X121920000Y-17780000D03*
X119380000Y-17780000D03*
X116840000Y-17780000D03*
X114300000Y-17780000D03*
X111760000Y-17780000D03*
X109220000Y-17780000D03*
X106680000Y-17780000D03*
X104140000Y-17780000D03*
X101600000Y-17780000D03*
X99060000Y-17780000D03*
X96520000Y-17780000D03*
X93980000Y-17780000D03*
X91440000Y-17780000D03*
X88900000Y-17780000D03*
X86360000Y-17780000D03*
X83820000Y-17780000D03*
X81280000Y-17780000D03*
X78740000Y-17780000D03*
X76200000Y-17780000D03*
X73660000Y-17780000D03*
X71120000Y-17780000D03*
X68580000Y-17780000D03*
X66040000Y-17780000D03*
X63500000Y-17780000D03*
X60960000Y-17780000D03*
X58420000Y-17780000D03*
X55880000Y-17780000D03*
X53340000Y-17780000D03*
X50800000Y-17780000D03*
X48260000Y-17780000D03*
X45720000Y-17780000D03*
X43180000Y-17780000D03*
X40640000Y-17780000D03*
X38100000Y-17780000D03*
X35560000Y-17780000D03*
X33020000Y-17780000D03*
X30480000Y-17780000D03*
X27940000Y-17780000D03*
X25400000Y-17780000D03*
X22860000Y-17780000D03*
X20320000Y-17780000D03*
X17780000Y-17780000D03*
X15240000Y-17780000D03*
X12700000Y-17780000D03*
X10160000Y-17780000D03*
X7620000Y-17780000D03*
X5080000Y-17780000D03*
X2540000Y-17780000D03*
X0Y-17780000D03*
X121920000Y-15240000D03*
X119380000Y-15240000D03*
X116840000Y-15240000D03*
X114300000Y-15240000D03*
X111760000Y-15240000D03*
X109220000Y-15240000D03*
X106680000Y-15240000D03*
X104140000Y-15240000D03*
X101600000Y-15240000D03*
X99060000Y-15240000D03*
X96520000Y-15240000D03*
X93980000Y-15240000D03*
X91440000Y-15240000D03*
X88900000Y-15240000D03*
X86360000Y-15240000D03*
X83820000Y-15240000D03*
X81280000Y-15240000D03*
X78740000Y-15240000D03*
X76200000Y-15240000D03*
X73660000Y-15240000D03*
X71120000Y-15240000D03*
X68580000Y-15240000D03*
X66040000Y-15240000D03*
X63500000Y-15240000D03*
X60960000Y-15240000D03*
X58420000Y-15240000D03*
X55880000Y-15240000D03*
X53340000Y-15240000D03*
X50800000Y-15240000D03*
X48260000Y-15240000D03*
X45720000Y-15240000D03*
X43180000Y-15240000D03*
X40640000Y-15240000D03*
X38100000Y-15240000D03*
X35560000Y-15240000D03*
X33020000Y-15240000D03*
X30480000Y-15240000D03*
X27940000Y-15240000D03*
X25400000Y-15240000D03*
X22860000Y-15240000D03*
X20320000Y-15240000D03*
X17780000Y-15240000D03*
X15240000Y-15240000D03*
X12700000Y-15240000D03*
X10160000Y-15240000D03*
X7620000Y-15240000D03*
X5080000Y-15240000D03*
X2540000Y-15240000D03*
X0Y-15240000D03*
X121920000Y-12700000D03*
X119380000Y-12700000D03*
X116840000Y-12700000D03*
X114300000Y-12700000D03*
X111760000Y-12700000D03*
X109220000Y-12700000D03*
X106680000Y-12700000D03*
X104140000Y-12700000D03*
X101600000Y-12700000D03*
X99060000Y-12700000D03*
X96520000Y-12700000D03*
X93980000Y-12700000D03*
X91440000Y-12700000D03*
X88900000Y-12700000D03*
X86360000Y-12700000D03*
X83820000Y-12700000D03*
X81280000Y-12700000D03*
X78740000Y-12700000D03*
X76200000Y-12700000D03*
X73660000Y-12700000D03*
X71120000Y-12700000D03*
X68580000Y-12700000D03*
X66040000Y-12700000D03*
X63500000Y-12700000D03*
X60960000Y-12700000D03*
X58420000Y-12700000D03*
X55880000Y-12700000D03*
X53340000Y-12700000D03*
X50800000Y-12700000D03*
X48260000Y-12700000D03*
X45720000Y-12700000D03*
X43180000Y-12700000D03*
X40640000Y-12700000D03*
X38100000Y-12700000D03*
X35560000Y-12700000D03*
X33020000Y-12700000D03*
X30480000Y-12700000D03*
X27940000Y-12700000D03*
X25400000Y-12700000D03*
X22860000Y-12700000D03*
X17780000Y-12700000D03*
X15240000Y-12700000D03*
X12700000Y-12700000D03*
X10160000Y-12700000D03*
X7620000Y-12700000D03*
X5080000Y-12700000D03*
X2540000Y-12700000D03*
X0Y-12700000D03*
X121920000Y-10160000D03*
X119380000Y-10160000D03*
X116840000Y-10160000D03*
X114300000Y-10160000D03*
X111760000Y-10160000D03*
X109220000Y-10160000D03*
X106680000Y-10160000D03*
X104140000Y-10160000D03*
X101600000Y-10160000D03*
X99060000Y-10160000D03*
X96520000Y-10160000D03*
X91440000Y-10160000D03*
X88900000Y-10160000D03*
X86360000Y-10160000D03*
X83820000Y-10160000D03*
X81280000Y-10160000D03*
X78740000Y-10160000D03*
X76200000Y-10160000D03*
X73660000Y-10160000D03*
X71120000Y-10160000D03*
X68580000Y-10160000D03*
X66040000Y-10160000D03*
X63500000Y-10160000D03*
X60960000Y-10160000D03*
X58420000Y-10160000D03*
X55880000Y-10160000D03*
X53340000Y-10160000D03*
X50800000Y-10160000D03*
X48260000Y-10160000D03*
X45720000Y-10160000D03*
X43180000Y-10160000D03*
X40640000Y-10160000D03*
X38100000Y-10160000D03*
X35560000Y-10160000D03*
X33020000Y-10160000D03*
X30480000Y-10160000D03*
X27940000Y-10160000D03*
X25400000Y-10160000D03*
X22860000Y-10160000D03*
X20320000Y-10160000D03*
X17780000Y-10160000D03*
X15240000Y-10160000D03*
X12700000Y-10160000D03*
X10160000Y-10160000D03*
X7620000Y-10160000D03*
X5080000Y-10160000D03*
X2540000Y-10160000D03*
X0Y-10160000D03*
X121920000Y-7620000D03*
X119380000Y-7620000D03*
X116840000Y-7620000D03*
X114300000Y-7620000D03*
X111760000Y-7620000D03*
X109220000Y-7620000D03*
X106680000Y-7620000D03*
X104140000Y-7620000D03*
X101600000Y-7620000D03*
X99060000Y-7620000D03*
X96520000Y-7620000D03*
X93980000Y-7620000D03*
X91440000Y-7620000D03*
X88900000Y-7620000D03*
X86360000Y-7620000D03*
X83820000Y-7620000D03*
X81280000Y-7620000D03*
X78740000Y-7620000D03*
X76200000Y-7620000D03*
X73660000Y-7620000D03*
X71120000Y-7620000D03*
X68580000Y-7620000D03*
X66040000Y-7620000D03*
X63500000Y-7620000D03*
X60960000Y-7620000D03*
X58420000Y-7620000D03*
X55880000Y-7620000D03*
X53340000Y-7620000D03*
X50800000Y-7620000D03*
X48260000Y-7620000D03*
X45720000Y-7620000D03*
X43180000Y-7620000D03*
X40640000Y-7620000D03*
X38100000Y-7620000D03*
X35560000Y-7620000D03*
X33020000Y-7620000D03*
X30480000Y-7620000D03*
X27940000Y-7620000D03*
X25400000Y-7620000D03*
X22860000Y-7620000D03*
X20320000Y-7620000D03*
X17780000Y-7620000D03*
X15240000Y-7620000D03*
X12700000Y-7620000D03*
X10160000Y-7620000D03*
X7620000Y-7620000D03*
X5080000Y-7620000D03*
X2540000Y-7620000D03*
X0Y-7620000D03*
X121920000Y-5080000D03*
X119380000Y-5080000D03*
X116840000Y-5080000D03*
X114300000Y-5080000D03*
X111760000Y-5080000D03*
X109220000Y-5080000D03*
X106680000Y-5080000D03*
X104140000Y-5080000D03*
X101600000Y-5080000D03*
X99060000Y-5080000D03*
X96520000Y-5080000D03*
X93980000Y-5080000D03*
X91440000Y-5080000D03*
X88900000Y-5080000D03*
X86360000Y-5080000D03*
X83820000Y-5080000D03*
X81280000Y-5080000D03*
X78740000Y-5080000D03*
X76200000Y-5080000D03*
X73660000Y-5080000D03*
X71120000Y-5080000D03*
X68580000Y-5080000D03*
X66040000Y-5080000D03*
X63500000Y-5080000D03*
X60960000Y-5080000D03*
X58420000Y-5080000D03*
X55880000Y-5080000D03*
X53340000Y-5080000D03*
X50800000Y-5080000D03*
X48260000Y-5080000D03*
X45720000Y-5080000D03*
X43180000Y-5080000D03*
X40640000Y-5080000D03*
X38100000Y-5080000D03*
X35560000Y-5080000D03*
X33020000Y-5080000D03*
X30480000Y-5080000D03*
X27940000Y-5080000D03*
X25400000Y-5080000D03*
X22860000Y-5080000D03*
X20320000Y-5080000D03*
X17780000Y-5080000D03*
X15240000Y-5080000D03*
X12700000Y-5080000D03*
X10160000Y-5080000D03*
X7620000Y-5080000D03*
X5080000Y-5080000D03*
X2540000Y-5080000D03*
X0Y-5080000D03*
X119380000Y-2540000D03*
X116840000Y-2540000D03*
X114300000Y-2540000D03*
X111760000Y-2540000D03*
X109220000Y-2540000D03*
X106680000Y-2540000D03*
X104140000Y-2540000D03*
X101600000Y-2540000D03*
X99060000Y-2540000D03*
X96520000Y-2540000D03*
X93980000Y-2540000D03*
X91440000Y-2540000D03*
X88900000Y-2540000D03*
X86360000Y-2540000D03*
X83820000Y-2540000D03*
X81280000Y-2540000D03*
X78740000Y-2540000D03*
X76200000Y-2540000D03*
X73660000Y-2540000D03*
X71120000Y-2540000D03*
X68580000Y-2540000D03*
X66040000Y-2540000D03*
X63500000Y-2540000D03*
X60960000Y-2540000D03*
X58420000Y-2540000D03*
X55880000Y-2540000D03*
X53340000Y-2540000D03*
X50800000Y-2540000D03*
X48260000Y-2540000D03*
X45720000Y-2540000D03*
X43180000Y-2540000D03*
X40640000Y-2540000D03*
X38100000Y-2540000D03*
X35560000Y-2540000D03*
X33020000Y-2540000D03*
X30480000Y-2540000D03*
X27940000Y-2540000D03*
X25400000Y-2540000D03*
X22860000Y-2540000D03*
X20320000Y-2540000D03*
X17780000Y-2540000D03*
X15240000Y-2540000D03*
X12700000Y-2540000D03*
X10160000Y-2540000D03*
X7620000Y-2540000D03*
X5080000Y-2540000D03*
X2540000Y-2540000D03*
X116840000Y0D03*
X114300000Y0D03*
X111760000Y0D03*
X109220000Y0D03*
X106680000Y0D03*
X104140000Y0D03*
X101600000Y0D03*
X99060000Y0D03*
X96520000Y0D03*
X93980000Y0D03*
X91440000Y0D03*
X88900000Y0D03*
X86360000Y0D03*
X83820000Y0D03*
X81280000Y0D03*
X78740000Y0D03*
X76200000Y0D03*
X73660000Y0D03*
X71120000Y0D03*
X68580000Y0D03*
X66040000Y0D03*
X63500000Y0D03*
X60960000Y0D03*
X58420000Y0D03*
X55880000Y0D03*
X53340000Y0D03*
X50800000Y0D03*
X48260000Y0D03*
X45720000Y0D03*
X43180000Y0D03*
X40640000Y0D03*
X38100000Y0D03*
X35560000Y0D03*
X33020000Y0D03*
X30480000Y0D03*
X27940000Y0D03*
X25400000Y0D03*
X22860000Y0D03*
X20320000Y0D03*
X17780000Y0D03*
X15240000Y0D03*
X12700000Y0D03*
X10160000Y0D03*
X7620000Y0D03*
X5080000Y0D03*
M02*
