M48
; DRILL file {KiCad (5.1.5)-3} date 07/19/22 17:14:01
; FORMAT={-:-/ absolute / metric / decimal}
; #@! TF.CreationDate,2022-07-19T17:14:01+02:00
; #@! TF.GenerationSoftware,Kicad,Pcbnew,(5.1.5)-3
; #@! TF.FileFunction,Plated,1,2,PTH
FMAT,2
METRIC
T1C0.450
T2C0.900
T3C1.000
T4C1.500
%
G90
G05
T2
X105.1Y-94.05
X107.1Y-94.05
X109.1Y-94.05
T3
X79.281Y-98.564
X79.281Y-101.314
X81.663Y-97.189
X81.663Y-99.939
X81.663Y-102.689
X84.044Y-98.564
X84.044Y-101.314
X115.956Y-98.564
X115.956Y-101.314
X118.337Y-97.189
X118.337Y-99.939
X118.337Y-102.689
X120.719Y-98.564
X120.719Y-101.314
T4
X103.0Y-94.05
X111.2Y-94.05
T1
G00X88.575Y-93.6
M15
G01X88.575Y-92.8
M16
G05
G00X94.325Y-92.8
M15
G01X94.325Y-93.6
M16
G05
T0
M30
