G04 #@! TF.GenerationSoftware,KiCad,Pcbnew,(5.1.5)-3*
G04 #@! TF.CreationDate,2022-07-19T17:14:03+02:00*
G04 #@! TF.ProjectId,Stacked desk light,53746163-6b65-4642-9064-65736b206c69,rev?*
G04 #@! TF.SameCoordinates,Original*
G04 #@! TF.FileFunction,Soldermask,Bot*
G04 #@! TF.FilePolarity,Negative*
%FSLAX46Y46*%
G04 Gerber Fmt 4.6, Leading zero omitted, Abs format (unit mm)*
G04 Created by KiCad (PCBNEW (5.1.5)-3) date 2022-07-19 17:14:03*
%MOMM*%
%LPD*%
G04 APERTURE LIST*
%ADD10C,0.100000*%
G04 APERTURE END LIST*
D10*
G36*
X118614563Y-101774638D02*
G01*
X118787634Y-101846326D01*
X118787635Y-101846327D01*
X118943395Y-101950402D01*
X119075858Y-102082865D01*
X119075859Y-102082867D01*
X119179934Y-102238626D01*
X119251622Y-102411697D01*
X119288168Y-102595425D01*
X119288168Y-102782759D01*
X119251622Y-102966487D01*
X119179934Y-103139558D01*
X119179933Y-103139559D01*
X119075858Y-103295319D01*
X118943395Y-103427782D01*
X118864986Y-103480173D01*
X118787634Y-103531858D01*
X118614563Y-103603546D01*
X118430835Y-103640092D01*
X118243501Y-103640092D01*
X118059773Y-103603546D01*
X117886702Y-103531858D01*
X117809350Y-103480173D01*
X117730941Y-103427782D01*
X117598478Y-103295319D01*
X117494403Y-103139559D01*
X117494402Y-103139558D01*
X117422714Y-102966487D01*
X117386168Y-102782759D01*
X117386168Y-102595425D01*
X117422714Y-102411697D01*
X117494402Y-102238626D01*
X117598477Y-102082867D01*
X117598478Y-102082865D01*
X117730941Y-101950402D01*
X117886701Y-101846327D01*
X117886702Y-101846326D01*
X118059773Y-101774638D01*
X118243501Y-101738092D01*
X118430835Y-101738092D01*
X118614563Y-101774638D01*
G37*
G36*
X81940199Y-101774638D02*
G01*
X82113270Y-101846326D01*
X82113271Y-101846327D01*
X82269031Y-101950402D01*
X82401494Y-102082865D01*
X82401495Y-102082867D01*
X82505570Y-102238626D01*
X82577258Y-102411697D01*
X82613804Y-102595425D01*
X82613804Y-102782759D01*
X82577258Y-102966487D01*
X82505570Y-103139558D01*
X82505569Y-103139559D01*
X82401494Y-103295319D01*
X82269031Y-103427782D01*
X82190622Y-103480173D01*
X82113270Y-103531858D01*
X81940199Y-103603546D01*
X81756471Y-103640092D01*
X81569137Y-103640092D01*
X81385409Y-103603546D01*
X81212338Y-103531858D01*
X81134986Y-103480173D01*
X81056577Y-103427782D01*
X80924114Y-103295319D01*
X80820039Y-103139559D01*
X80820038Y-103139558D01*
X80748350Y-102966487D01*
X80711804Y-102782759D01*
X80711804Y-102595425D01*
X80748350Y-102411697D01*
X80820038Y-102238626D01*
X80924113Y-102082867D01*
X80924114Y-102082865D01*
X81056577Y-101950402D01*
X81212337Y-101846327D01*
X81212338Y-101846326D01*
X81385409Y-101774638D01*
X81569137Y-101738092D01*
X81756471Y-101738092D01*
X81940199Y-101774638D01*
G37*
G36*
X84321769Y-100399638D02*
G01*
X84494840Y-100471326D01*
X84494841Y-100471327D01*
X84650601Y-100575402D01*
X84783064Y-100707865D01*
X84783065Y-100707867D01*
X84887140Y-100863626D01*
X84958828Y-101036697D01*
X84995374Y-101220425D01*
X84995374Y-101407759D01*
X84958828Y-101591487D01*
X84887140Y-101764558D01*
X84880404Y-101774639D01*
X84783064Y-101920319D01*
X84650601Y-102052782D01*
X84605578Y-102082865D01*
X84494840Y-102156858D01*
X84321769Y-102228546D01*
X84138041Y-102265092D01*
X83950707Y-102265092D01*
X83766979Y-102228546D01*
X83593908Y-102156858D01*
X83483170Y-102082865D01*
X83438147Y-102052782D01*
X83305684Y-101920319D01*
X83208344Y-101774639D01*
X83201608Y-101764558D01*
X83129920Y-101591487D01*
X83093374Y-101407759D01*
X83093374Y-101220425D01*
X83129920Y-101036697D01*
X83201608Y-100863626D01*
X83305683Y-100707867D01*
X83305684Y-100707865D01*
X83438147Y-100575402D01*
X83593907Y-100471327D01*
X83593908Y-100471326D01*
X83766979Y-100399638D01*
X83950707Y-100363092D01*
X84138041Y-100363092D01*
X84321769Y-100399638D01*
G37*
G36*
X79558629Y-100399638D02*
G01*
X79731700Y-100471326D01*
X79731701Y-100471327D01*
X79887461Y-100575402D01*
X80019924Y-100707865D01*
X80019925Y-100707867D01*
X80124000Y-100863626D01*
X80195688Y-101036697D01*
X80232234Y-101220425D01*
X80232234Y-101407759D01*
X80195688Y-101591487D01*
X80124000Y-101764558D01*
X80117264Y-101774639D01*
X80019924Y-101920319D01*
X79887461Y-102052782D01*
X79842438Y-102082865D01*
X79731700Y-102156858D01*
X79558629Y-102228546D01*
X79374901Y-102265092D01*
X79187567Y-102265092D01*
X79003839Y-102228546D01*
X78830768Y-102156858D01*
X78720030Y-102082865D01*
X78675007Y-102052782D01*
X78542544Y-101920319D01*
X78445204Y-101774639D01*
X78438468Y-101764558D01*
X78366780Y-101591487D01*
X78330234Y-101407759D01*
X78330234Y-101220425D01*
X78366780Y-101036697D01*
X78438468Y-100863626D01*
X78542543Y-100707867D01*
X78542544Y-100707865D01*
X78675007Y-100575402D01*
X78830767Y-100471327D01*
X78830768Y-100471326D01*
X79003839Y-100399638D01*
X79187567Y-100363092D01*
X79374901Y-100363092D01*
X79558629Y-100399638D01*
G37*
G36*
X120996133Y-100399638D02*
G01*
X121169204Y-100471326D01*
X121169205Y-100471327D01*
X121324965Y-100575402D01*
X121457428Y-100707865D01*
X121457429Y-100707867D01*
X121561504Y-100863626D01*
X121633192Y-101036697D01*
X121669738Y-101220425D01*
X121669738Y-101407759D01*
X121633192Y-101591487D01*
X121561504Y-101764558D01*
X121554768Y-101774639D01*
X121457428Y-101920319D01*
X121324965Y-102052782D01*
X121279942Y-102082865D01*
X121169204Y-102156858D01*
X120996133Y-102228546D01*
X120812405Y-102265092D01*
X120625071Y-102265092D01*
X120441343Y-102228546D01*
X120268272Y-102156858D01*
X120157534Y-102082865D01*
X120112511Y-102052782D01*
X119980048Y-101920319D01*
X119882708Y-101774639D01*
X119875972Y-101764558D01*
X119804284Y-101591487D01*
X119767738Y-101407759D01*
X119767738Y-101220425D01*
X119804284Y-101036697D01*
X119875972Y-100863626D01*
X119980047Y-100707867D01*
X119980048Y-100707865D01*
X120112511Y-100575402D01*
X120268271Y-100471327D01*
X120268272Y-100471326D01*
X120441343Y-100399638D01*
X120625071Y-100363092D01*
X120812405Y-100363092D01*
X120996133Y-100399638D01*
G37*
G36*
X116232993Y-100399638D02*
G01*
X116406064Y-100471326D01*
X116406065Y-100471327D01*
X116561825Y-100575402D01*
X116694288Y-100707865D01*
X116694289Y-100707867D01*
X116798364Y-100863626D01*
X116870052Y-101036697D01*
X116906598Y-101220425D01*
X116906598Y-101407759D01*
X116870052Y-101591487D01*
X116798364Y-101764558D01*
X116791628Y-101774639D01*
X116694288Y-101920319D01*
X116561825Y-102052782D01*
X116516802Y-102082865D01*
X116406064Y-102156858D01*
X116232993Y-102228546D01*
X116049265Y-102265092D01*
X115861931Y-102265092D01*
X115678203Y-102228546D01*
X115505132Y-102156858D01*
X115394394Y-102082865D01*
X115349371Y-102052782D01*
X115216908Y-101920319D01*
X115119568Y-101774639D01*
X115112832Y-101764558D01*
X115041144Y-101591487D01*
X115004598Y-101407759D01*
X115004598Y-101220425D01*
X115041144Y-101036697D01*
X115112832Y-100863626D01*
X115216907Y-100707867D01*
X115216908Y-100707865D01*
X115349371Y-100575402D01*
X115505131Y-100471327D01*
X115505132Y-100471326D01*
X115678203Y-100399638D01*
X115861931Y-100363092D01*
X116049265Y-100363092D01*
X116232993Y-100399638D01*
G37*
G36*
X118955623Y-98996620D02*
G01*
X119032980Y-99020087D01*
X119104285Y-99058200D01*
X119166776Y-99109484D01*
X119218060Y-99171975D01*
X119256173Y-99243280D01*
X119279640Y-99320637D01*
X119288168Y-99407232D01*
X119288168Y-100470952D01*
X119279640Y-100557547D01*
X119256173Y-100634904D01*
X119218060Y-100706209D01*
X119166776Y-100768700D01*
X119104285Y-100819984D01*
X119032980Y-100858097D01*
X118955623Y-100881564D01*
X118869028Y-100890092D01*
X117805308Y-100890092D01*
X117718713Y-100881564D01*
X117641356Y-100858097D01*
X117570051Y-100819984D01*
X117507560Y-100768700D01*
X117456276Y-100706209D01*
X117418163Y-100634904D01*
X117394696Y-100557547D01*
X117386168Y-100470952D01*
X117386168Y-99407232D01*
X117394696Y-99320637D01*
X117418163Y-99243280D01*
X117456276Y-99171975D01*
X117507560Y-99109484D01*
X117570051Y-99058200D01*
X117641356Y-99020087D01*
X117718713Y-98996620D01*
X117805308Y-98988092D01*
X118869028Y-98988092D01*
X118955623Y-98996620D01*
G37*
G36*
X82281259Y-98996620D02*
G01*
X82358616Y-99020087D01*
X82429921Y-99058200D01*
X82492412Y-99109484D01*
X82543696Y-99171975D01*
X82581809Y-99243280D01*
X82605276Y-99320637D01*
X82613804Y-99407232D01*
X82613804Y-100470952D01*
X82605276Y-100557547D01*
X82581809Y-100634904D01*
X82543696Y-100706209D01*
X82492412Y-100768700D01*
X82429921Y-100819984D01*
X82358616Y-100858097D01*
X82281259Y-100881564D01*
X82194664Y-100890092D01*
X81130944Y-100890092D01*
X81044349Y-100881564D01*
X80966992Y-100858097D01*
X80895687Y-100819984D01*
X80833196Y-100768700D01*
X80781912Y-100706209D01*
X80743799Y-100634904D01*
X80720332Y-100557547D01*
X80711804Y-100470952D01*
X80711804Y-99407232D01*
X80720332Y-99320637D01*
X80743799Y-99243280D01*
X80781912Y-99171975D01*
X80833196Y-99109484D01*
X80895687Y-99058200D01*
X80966992Y-99020087D01*
X81044349Y-98996620D01*
X81130944Y-98988092D01*
X82194664Y-98988092D01*
X82281259Y-98996620D01*
G37*
G36*
X84321769Y-97649638D02*
G01*
X84494840Y-97721326D01*
X84494841Y-97721327D01*
X84650601Y-97825402D01*
X84783064Y-97957865D01*
X84783065Y-97957867D01*
X84887140Y-98113626D01*
X84958828Y-98286697D01*
X84995374Y-98470425D01*
X84995374Y-98657759D01*
X84958828Y-98841487D01*
X84887140Y-99014558D01*
X84880639Y-99024287D01*
X84783064Y-99170319D01*
X84650601Y-99302782D01*
X84623879Y-99320637D01*
X84494840Y-99406858D01*
X84321769Y-99478546D01*
X84138041Y-99515092D01*
X83950707Y-99515092D01*
X83766979Y-99478546D01*
X83593908Y-99406858D01*
X83464869Y-99320637D01*
X83438147Y-99302782D01*
X83305684Y-99170319D01*
X83208109Y-99024287D01*
X83201608Y-99014558D01*
X83129920Y-98841487D01*
X83093374Y-98657759D01*
X83093374Y-98470425D01*
X83129920Y-98286697D01*
X83201608Y-98113626D01*
X83305683Y-97957867D01*
X83305684Y-97957865D01*
X83438147Y-97825402D01*
X83593907Y-97721327D01*
X83593908Y-97721326D01*
X83766979Y-97649638D01*
X83950707Y-97613092D01*
X84138041Y-97613092D01*
X84321769Y-97649638D01*
G37*
G36*
X120996133Y-97649638D02*
G01*
X121169204Y-97721326D01*
X121169205Y-97721327D01*
X121324965Y-97825402D01*
X121457428Y-97957865D01*
X121457429Y-97957867D01*
X121561504Y-98113626D01*
X121633192Y-98286697D01*
X121669738Y-98470425D01*
X121669738Y-98657759D01*
X121633192Y-98841487D01*
X121561504Y-99014558D01*
X121555003Y-99024287D01*
X121457428Y-99170319D01*
X121324965Y-99302782D01*
X121298243Y-99320637D01*
X121169204Y-99406858D01*
X120996133Y-99478546D01*
X120812405Y-99515092D01*
X120625071Y-99515092D01*
X120441343Y-99478546D01*
X120268272Y-99406858D01*
X120139233Y-99320637D01*
X120112511Y-99302782D01*
X119980048Y-99170319D01*
X119882473Y-99024287D01*
X119875972Y-99014558D01*
X119804284Y-98841487D01*
X119767738Y-98657759D01*
X119767738Y-98470425D01*
X119804284Y-98286697D01*
X119875972Y-98113626D01*
X119980047Y-97957867D01*
X119980048Y-97957865D01*
X120112511Y-97825402D01*
X120268271Y-97721327D01*
X120268272Y-97721326D01*
X120441343Y-97649638D01*
X120625071Y-97613092D01*
X120812405Y-97613092D01*
X120996133Y-97649638D01*
G37*
G36*
X79558629Y-97649638D02*
G01*
X79731700Y-97721326D01*
X79731701Y-97721327D01*
X79887461Y-97825402D01*
X80019924Y-97957865D01*
X80019925Y-97957867D01*
X80124000Y-98113626D01*
X80195688Y-98286697D01*
X80232234Y-98470425D01*
X80232234Y-98657759D01*
X80195688Y-98841487D01*
X80124000Y-99014558D01*
X80117499Y-99024287D01*
X80019924Y-99170319D01*
X79887461Y-99302782D01*
X79860739Y-99320637D01*
X79731700Y-99406858D01*
X79558629Y-99478546D01*
X79374901Y-99515092D01*
X79187567Y-99515092D01*
X79003839Y-99478546D01*
X78830768Y-99406858D01*
X78701729Y-99320637D01*
X78675007Y-99302782D01*
X78542544Y-99170319D01*
X78444969Y-99024287D01*
X78438468Y-99014558D01*
X78366780Y-98841487D01*
X78330234Y-98657759D01*
X78330234Y-98470425D01*
X78366780Y-98286697D01*
X78438468Y-98113626D01*
X78542543Y-97957867D01*
X78542544Y-97957865D01*
X78675007Y-97825402D01*
X78830767Y-97721327D01*
X78830768Y-97721326D01*
X79003839Y-97649638D01*
X79187567Y-97613092D01*
X79374901Y-97613092D01*
X79558629Y-97649638D01*
G37*
G36*
X116232993Y-97649638D02*
G01*
X116406064Y-97721326D01*
X116406065Y-97721327D01*
X116561825Y-97825402D01*
X116694288Y-97957865D01*
X116694289Y-97957867D01*
X116798364Y-98113626D01*
X116870052Y-98286697D01*
X116906598Y-98470425D01*
X116906598Y-98657759D01*
X116870052Y-98841487D01*
X116798364Y-99014558D01*
X116791863Y-99024287D01*
X116694288Y-99170319D01*
X116561825Y-99302782D01*
X116535103Y-99320637D01*
X116406064Y-99406858D01*
X116232993Y-99478546D01*
X116049265Y-99515092D01*
X115861931Y-99515092D01*
X115678203Y-99478546D01*
X115505132Y-99406858D01*
X115376093Y-99320637D01*
X115349371Y-99302782D01*
X115216908Y-99170319D01*
X115119333Y-99024287D01*
X115112832Y-99014558D01*
X115041144Y-98841487D01*
X115004598Y-98657759D01*
X115004598Y-98470425D01*
X115041144Y-98286697D01*
X115112832Y-98113626D01*
X115216907Y-97957867D01*
X115216908Y-97957865D01*
X115349371Y-97825402D01*
X115505131Y-97721327D01*
X115505132Y-97721326D01*
X115678203Y-97649638D01*
X115861931Y-97613092D01*
X116049265Y-97613092D01*
X116232993Y-97649638D01*
G37*
G36*
X81940199Y-96274638D02*
G01*
X82113270Y-96346326D01*
X82113271Y-96346327D01*
X82269031Y-96450402D01*
X82401494Y-96582865D01*
X82401495Y-96582867D01*
X82505570Y-96738626D01*
X82577258Y-96911697D01*
X82613804Y-97095425D01*
X82613804Y-97282759D01*
X82577258Y-97466487D01*
X82505570Y-97639558D01*
X82498834Y-97649639D01*
X82401494Y-97795319D01*
X82269031Y-97927782D01*
X82224008Y-97957865D01*
X82113270Y-98031858D01*
X81940199Y-98103546D01*
X81756471Y-98140092D01*
X81569137Y-98140092D01*
X81385409Y-98103546D01*
X81212338Y-98031858D01*
X81101600Y-97957865D01*
X81056577Y-97927782D01*
X80924114Y-97795319D01*
X80826774Y-97649639D01*
X80820038Y-97639558D01*
X80748350Y-97466487D01*
X80711804Y-97282759D01*
X80711804Y-97095425D01*
X80748350Y-96911697D01*
X80820038Y-96738626D01*
X80924113Y-96582867D01*
X80924114Y-96582865D01*
X81056577Y-96450402D01*
X81212337Y-96346327D01*
X81212338Y-96346326D01*
X81385409Y-96274638D01*
X81569137Y-96238092D01*
X81756471Y-96238092D01*
X81940199Y-96274638D01*
G37*
G36*
X118614563Y-96274638D02*
G01*
X118787634Y-96346326D01*
X118787635Y-96346327D01*
X118943395Y-96450402D01*
X119075858Y-96582865D01*
X119075859Y-96582867D01*
X119179934Y-96738626D01*
X119251622Y-96911697D01*
X119288168Y-97095425D01*
X119288168Y-97282759D01*
X119251622Y-97466487D01*
X119179934Y-97639558D01*
X119173198Y-97649639D01*
X119075858Y-97795319D01*
X118943395Y-97927782D01*
X118898372Y-97957865D01*
X118787634Y-98031858D01*
X118614563Y-98103546D01*
X118430835Y-98140092D01*
X118243501Y-98140092D01*
X118059773Y-98103546D01*
X117886702Y-98031858D01*
X117775964Y-97957865D01*
X117730941Y-97927782D01*
X117598478Y-97795319D01*
X117501138Y-97649639D01*
X117494402Y-97639558D01*
X117422714Y-97466487D01*
X117386168Y-97282759D01*
X117386168Y-97095425D01*
X117422714Y-96911697D01*
X117494402Y-96738626D01*
X117598477Y-96582867D01*
X117598478Y-96582865D01*
X117730941Y-96450402D01*
X117886701Y-96346327D01*
X117886702Y-96346326D01*
X118059773Y-96274638D01*
X118243501Y-96238092D01*
X118430835Y-96238092D01*
X118614563Y-96274638D01*
G37*
G36*
X103225635Y-92265654D02*
G01*
X103442600Y-92331470D01*
X103442602Y-92331471D01*
X103642555Y-92438347D01*
X103817818Y-92582182D01*
X103961653Y-92757445D01*
X104063762Y-92948479D01*
X104068530Y-92957400D01*
X104112647Y-93102835D01*
X104134986Y-93176475D01*
X104138908Y-93196196D01*
X104148284Y-93218835D01*
X104161897Y-93239210D01*
X104179223Y-93256538D01*
X104199597Y-93270153D01*
X104222236Y-93279531D01*
X104246269Y-93284313D01*
X104270773Y-93284314D01*
X104294806Y-93279534D01*
X104317445Y-93270158D01*
X104337820Y-93256545D01*
X104355148Y-93239219D01*
X104368765Y-93218841D01*
X104430772Y-93102835D01*
X104530868Y-92980867D01*
X104652836Y-92880771D01*
X104791988Y-92806392D01*
X104842319Y-92791125D01*
X104942978Y-92760590D01*
X105100000Y-92745125D01*
X105257023Y-92760590D01*
X105357682Y-92791125D01*
X105408013Y-92806392D01*
X105547165Y-92880771D01*
X105669133Y-92980867D01*
X105769229Y-93102835D01*
X105843608Y-93241987D01*
X105856447Y-93284313D01*
X105889410Y-93392977D01*
X105901000Y-93510655D01*
X105901000Y-94589345D01*
X105889410Y-94707023D01*
X105858875Y-94807682D01*
X105843608Y-94858013D01*
X105831235Y-94881161D01*
X105769229Y-94997165D01*
X105669133Y-95119133D01*
X105572798Y-95198192D01*
X105547164Y-95219229D01*
X105408012Y-95293608D01*
X105357681Y-95308875D01*
X105257022Y-95339410D01*
X105100000Y-95354875D01*
X104942977Y-95339410D01*
X104842318Y-95308875D01*
X104791987Y-95293608D01*
X104652835Y-95219229D01*
X104597916Y-95174158D01*
X104530867Y-95119133D01*
X104430771Y-94997164D01*
X104392537Y-94925633D01*
X104368765Y-94881160D01*
X104355151Y-94860786D01*
X104337824Y-94843459D01*
X104317450Y-94829845D01*
X104294811Y-94820468D01*
X104270777Y-94815688D01*
X104246273Y-94815688D01*
X104222240Y-94820469D01*
X104199601Y-94829846D01*
X104179227Y-94843460D01*
X104161900Y-94860787D01*
X104148286Y-94881161D01*
X104138909Y-94903800D01*
X104134988Y-94923517D01*
X104134346Y-94925633D01*
X104134346Y-94925635D01*
X104068530Y-95142599D01*
X104068529Y-95142602D01*
X103961653Y-95342555D01*
X103882652Y-95438817D01*
X103817818Y-95517818D01*
X103669204Y-95639781D01*
X103642553Y-95661653D01*
X103442601Y-95768529D01*
X103442599Y-95768530D01*
X103225634Y-95834346D01*
X103000000Y-95856569D01*
X102774365Y-95834346D01*
X102557400Y-95768530D01*
X102557398Y-95768529D01*
X102357445Y-95661653D01*
X102261183Y-95582652D01*
X102182182Y-95517818D01*
X102038348Y-95342554D01*
X102012186Y-95293608D01*
X101931471Y-95142601D01*
X101927996Y-95131145D01*
X101865654Y-94925634D01*
X101857561Y-94843460D01*
X101849000Y-94756544D01*
X101849000Y-93343455D01*
X101865654Y-93174366D01*
X101887353Y-93102835D01*
X101931470Y-92957400D01*
X102012186Y-92806392D01*
X102038348Y-92757446D01*
X102182183Y-92582182D01*
X102357446Y-92438347D01*
X102557399Y-92331471D01*
X102557401Y-92331470D01*
X102774366Y-92265654D01*
X103000000Y-92243431D01*
X103225635Y-92265654D01*
G37*
G36*
X111425635Y-92265654D02*
G01*
X111642600Y-92331470D01*
X111642602Y-92331471D01*
X111842555Y-92438347D01*
X112017818Y-92582182D01*
X112161653Y-92757445D01*
X112263762Y-92948479D01*
X112268530Y-92957400D01*
X112312647Y-93102835D01*
X112334346Y-93174366D01*
X112351000Y-93343455D01*
X112351000Y-94756545D01*
X112341006Y-94858011D01*
X112334346Y-94925635D01*
X112272005Y-95131146D01*
X112268529Y-95142602D01*
X112161653Y-95342555D01*
X112082652Y-95438817D01*
X112017818Y-95517818D01*
X111869204Y-95639781D01*
X111842553Y-95661653D01*
X111642601Y-95768529D01*
X111642599Y-95768530D01*
X111425634Y-95834346D01*
X111200000Y-95856569D01*
X110974365Y-95834346D01*
X110757400Y-95768530D01*
X110757398Y-95768529D01*
X110557445Y-95661653D01*
X110461183Y-95582652D01*
X110382182Y-95517818D01*
X110238348Y-95342554D01*
X110212186Y-95293608D01*
X110136238Y-95151520D01*
X110122625Y-95131146D01*
X110105298Y-95113819D01*
X110084923Y-95100205D01*
X110062285Y-95090827D01*
X110038251Y-95086047D01*
X110013747Y-95086047D01*
X109989714Y-95090827D01*
X109967075Y-95100205D01*
X109946701Y-95113818D01*
X109929374Y-95131145D01*
X109915760Y-95151520D01*
X109906382Y-95174158D01*
X109901602Y-95198192D01*
X109901000Y-95210444D01*
X109901000Y-95351000D01*
X108299000Y-95351000D01*
X108299000Y-92749000D01*
X109901000Y-92749000D01*
X109901000Y-92889555D01*
X109903402Y-92913941D01*
X109910515Y-92937390D01*
X109922066Y-92959001D01*
X109937611Y-92977943D01*
X109956553Y-92993488D01*
X109978164Y-93005039D01*
X110001613Y-93012152D01*
X110025999Y-93014554D01*
X110050385Y-93012152D01*
X110073834Y-93005039D01*
X110095445Y-92993488D01*
X110114387Y-92977943D01*
X110136238Y-92948479D01*
X110238348Y-92757446D01*
X110382183Y-92582182D01*
X110557446Y-92438347D01*
X110757399Y-92331471D01*
X110757401Y-92331470D01*
X110974366Y-92265654D01*
X111200000Y-92243431D01*
X111425635Y-92265654D01*
G37*
G36*
X107257023Y-92760590D02*
G01*
X107357682Y-92791125D01*
X107408013Y-92806392D01*
X107547165Y-92880771D01*
X107669133Y-92980867D01*
X107769229Y-93102835D01*
X107843608Y-93241987D01*
X107856447Y-93284313D01*
X107889410Y-93392977D01*
X107901000Y-93510655D01*
X107901000Y-94589345D01*
X107889410Y-94707023D01*
X107858875Y-94807682D01*
X107843608Y-94858013D01*
X107831235Y-94881161D01*
X107769229Y-94997165D01*
X107669133Y-95119133D01*
X107572798Y-95198192D01*
X107547164Y-95219229D01*
X107408012Y-95293608D01*
X107357681Y-95308875D01*
X107257022Y-95339410D01*
X107100000Y-95354875D01*
X106942977Y-95339410D01*
X106842318Y-95308875D01*
X106791987Y-95293608D01*
X106652835Y-95219229D01*
X106597916Y-95174158D01*
X106530867Y-95119133D01*
X106430771Y-94997164D01*
X106392537Y-94925633D01*
X106356392Y-94858012D01*
X106325613Y-94756545D01*
X106310590Y-94707022D01*
X106299000Y-94589344D01*
X106299001Y-93510655D01*
X106310591Y-93392977D01*
X106343554Y-93284313D01*
X106356393Y-93241987D01*
X106430772Y-93102835D01*
X106530868Y-92980867D01*
X106652836Y-92880771D01*
X106791988Y-92806392D01*
X106842319Y-92791125D01*
X106942978Y-92760590D01*
X107100000Y-92745125D01*
X107257023Y-92760590D01*
G37*
G36*
X88687916Y-92207334D02*
G01*
X88796492Y-92240271D01*
X88796495Y-92240272D01*
X88832601Y-92259571D01*
X88896557Y-92293756D01*
X88984264Y-92365736D01*
X89056244Y-92453443D01*
X89090429Y-92517399D01*
X89109728Y-92553505D01*
X89109728Y-92553506D01*
X89109729Y-92553508D01*
X89142666Y-92662084D01*
X89151000Y-92746702D01*
X89151000Y-93653298D01*
X89142666Y-93737916D01*
X89109729Y-93846491D01*
X89109728Y-93846495D01*
X89090429Y-93882601D01*
X89056244Y-93946557D01*
X88984264Y-94034264D01*
X88896556Y-94106244D01*
X88832600Y-94140429D01*
X88796494Y-94159728D01*
X88796491Y-94159729D01*
X88687915Y-94192666D01*
X88575000Y-94203787D01*
X88462084Y-94192666D01*
X88353508Y-94159729D01*
X88353505Y-94159728D01*
X88317399Y-94140429D01*
X88253443Y-94106244D01*
X88165736Y-94034264D01*
X88093756Y-93946556D01*
X88040273Y-93846495D01*
X88040272Y-93846494D01*
X88040271Y-93846491D01*
X88007334Y-93737915D01*
X87999000Y-93653297D01*
X87999000Y-92746702D01*
X88007335Y-92662084D01*
X88040272Y-92553508D01*
X88040273Y-92553506D01*
X88040273Y-92553505D01*
X88059572Y-92517399D01*
X88093757Y-92453443D01*
X88165737Y-92365736D01*
X88253444Y-92293756D01*
X88317400Y-92259571D01*
X88353506Y-92240272D01*
X88353509Y-92240271D01*
X88462085Y-92207334D01*
X88575000Y-92196213D01*
X88687916Y-92207334D01*
G37*
G36*
X94437915Y-92207334D02*
G01*
X94546491Y-92240271D01*
X94546494Y-92240272D01*
X94582600Y-92259571D01*
X94646556Y-92293756D01*
X94734264Y-92365736D01*
X94806244Y-92453443D01*
X94840429Y-92517399D01*
X94859728Y-92553505D01*
X94859728Y-92553506D01*
X94859729Y-92553508D01*
X94892666Y-92662084D01*
X94901000Y-92746702D01*
X94901000Y-93653298D01*
X94892666Y-93737916D01*
X94859729Y-93846491D01*
X94859728Y-93846495D01*
X94840429Y-93882601D01*
X94806244Y-93946557D01*
X94734264Y-94034264D01*
X94646557Y-94106244D01*
X94582601Y-94140429D01*
X94546495Y-94159728D01*
X94546492Y-94159729D01*
X94437916Y-94192666D01*
X94325000Y-94203787D01*
X94212085Y-94192666D01*
X94103509Y-94159729D01*
X94103506Y-94159728D01*
X94067400Y-94140429D01*
X94003444Y-94106244D01*
X93915737Y-94034264D01*
X93843757Y-93946557D01*
X93809572Y-93882601D01*
X93790273Y-93846495D01*
X93790272Y-93846491D01*
X93757335Y-93737916D01*
X93749000Y-93653298D01*
X93749000Y-92746703D01*
X93757334Y-92662085D01*
X93790271Y-92553509D01*
X93790272Y-92553506D01*
X93809571Y-92517400D01*
X93843756Y-92453444D01*
X93915736Y-92365736D01*
X94003443Y-92293756D01*
X94067399Y-92259571D01*
X94103505Y-92240272D01*
X94103508Y-92240271D01*
X94212084Y-92207334D01*
X94325000Y-92196213D01*
X94437915Y-92207334D01*
G37*
M02*
