G04 #@! TF.GenerationSoftware,KiCad,Pcbnew,(5.1.5)-3*
G04 #@! TF.CreationDate,2022-07-19T15:35:49+02:00*
G04 #@! TF.ProjectId,Wireless LEDs,57697265-6c65-4737-9320-4c4544732e6b,rev?*
G04 #@! TF.SameCoordinates,Original*
G04 #@! TF.FileFunction,Legend,Bot*
G04 #@! TF.FilePolarity,Positive*
%FSLAX46Y46*%
G04 Gerber Fmt 4.6, Leading zero omitted, Abs format (unit mm)*
G04 Created by KiCad (PCBNEW (5.1.5)-3) date 2022-07-19 15:35:49*
%MOMM*%
%LPD*%
G04 APERTURE LIST*
%ADD10C,0.150000*%
%ADD11C,0.300000*%
%ADD12C,0.010000*%
G04 APERTURE END LIST*
D10*
X28452380Y-63580952D02*
X29166666Y-63580952D01*
X29309523Y-63533333D01*
X29404761Y-63438095D01*
X29452380Y-63295238D01*
X29452380Y-63200000D01*
X29452380Y-64533333D02*
X29452380Y-64057142D01*
X28452380Y-64057142D01*
X29357142Y-65438095D02*
X29404761Y-65390476D01*
X29452380Y-65247619D01*
X29452380Y-65152380D01*
X29404761Y-65009523D01*
X29309523Y-64914285D01*
X29214285Y-64866666D01*
X29023809Y-64819047D01*
X28880952Y-64819047D01*
X28690476Y-64866666D01*
X28595238Y-64914285D01*
X28500000Y-65009523D01*
X28452380Y-65152380D01*
X28452380Y-65247619D01*
X28500000Y-65390476D01*
X28547619Y-65438095D01*
X28452380Y-66152380D02*
X29166666Y-66152380D01*
X29309523Y-66104761D01*
X29404761Y-66009523D01*
X29452380Y-65866666D01*
X29452380Y-65771428D01*
X29452380Y-67104761D02*
X29452380Y-66628571D01*
X28452380Y-66628571D01*
X29357142Y-68009523D02*
X29404761Y-67961904D01*
X29452380Y-67819047D01*
X29452380Y-67723809D01*
X29404761Y-67580952D01*
X29309523Y-67485714D01*
X29214285Y-67438095D01*
X29023809Y-67390476D01*
X28880952Y-67390476D01*
X28690476Y-67438095D01*
X28595238Y-67485714D01*
X28500000Y-67580952D01*
X28452380Y-67723809D01*
X28452380Y-67819047D01*
X28500000Y-67961904D01*
X28547619Y-68009523D01*
X28452380Y-68723809D02*
X29166666Y-68723809D01*
X29309523Y-68676190D01*
X29404761Y-68580952D01*
X29452380Y-68438095D01*
X29452380Y-68342857D01*
X29452380Y-69676190D02*
X29452380Y-69200000D01*
X28452380Y-69200000D01*
X29357142Y-70580952D02*
X29404761Y-70533333D01*
X29452380Y-70390476D01*
X29452380Y-70295238D01*
X29404761Y-70152380D01*
X29309523Y-70057142D01*
X29214285Y-70009523D01*
X29023809Y-69961904D01*
X28880952Y-69961904D01*
X28690476Y-70009523D01*
X28595238Y-70057142D01*
X28500000Y-70152380D01*
X28452380Y-70295238D01*
X28452380Y-70390476D01*
X28500000Y-70533333D01*
X28547619Y-70580952D01*
X28452380Y-71295238D02*
X29166666Y-71295238D01*
X29309523Y-71247619D01*
X29404761Y-71152380D01*
X29452380Y-71009523D01*
X29452380Y-70914285D01*
X29452380Y-72247619D02*
X29452380Y-71771428D01*
X28452380Y-71771428D01*
X29357142Y-73152380D02*
X29404761Y-73104761D01*
X29452380Y-72961904D01*
X29452380Y-72866666D01*
X29404761Y-72723809D01*
X29309523Y-72628571D01*
X29214285Y-72580952D01*
X29023809Y-72533333D01*
X28880952Y-72533333D01*
X28690476Y-72580952D01*
X28595238Y-72628571D01*
X28500000Y-72723809D01*
X28452380Y-72866666D01*
X28452380Y-72961904D01*
X28500000Y-73104761D01*
X28547619Y-73152380D01*
X43661904Y-73552380D02*
X43661904Y-72552380D01*
X43423809Y-72552380D01*
X43280952Y-72600000D01*
X43185714Y-72695238D01*
X43138095Y-72790476D01*
X43090476Y-72980952D01*
X43090476Y-73123809D01*
X43138095Y-73314285D01*
X43185714Y-73409523D01*
X43280952Y-73504761D01*
X43423809Y-73552380D01*
X43661904Y-73552380D01*
X45738095Y-72600000D02*
X45833333Y-72552380D01*
X45976190Y-72552380D01*
X46119047Y-72600000D01*
X46214285Y-72695238D01*
X46261904Y-72790476D01*
X46309523Y-72980952D01*
X46309523Y-73123809D01*
X46261904Y-73314285D01*
X46214285Y-73409523D01*
X46119047Y-73504761D01*
X45976190Y-73552380D01*
X45880952Y-73552380D01*
X45738095Y-73504761D01*
X45690476Y-73457142D01*
X45690476Y-73123809D01*
X45880952Y-73123809D01*
X41135714Y-73504761D02*
X40992857Y-73552380D01*
X40754761Y-73552380D01*
X40659523Y-73504761D01*
X40611904Y-73457142D01*
X40564285Y-73361904D01*
X40564285Y-73266666D01*
X40611904Y-73171428D01*
X40659523Y-73123809D01*
X40754761Y-73076190D01*
X40945238Y-73028571D01*
X41040476Y-72980952D01*
X41088095Y-72933333D01*
X41135714Y-72838095D01*
X41135714Y-72742857D01*
X41088095Y-72647619D01*
X41040476Y-72600000D01*
X40945238Y-72552380D01*
X40707142Y-72552380D01*
X40564285Y-72600000D01*
X45957142Y-79657142D02*
X46004761Y-79704761D01*
X46147619Y-79752380D01*
X46242857Y-79752380D01*
X46385714Y-79704761D01*
X46480952Y-79609523D01*
X46528571Y-79514285D01*
X46576190Y-79323809D01*
X46576190Y-79180952D01*
X46528571Y-78990476D01*
X46480952Y-78895238D01*
X46385714Y-78800000D01*
X46242857Y-78752380D01*
X46147619Y-78752380D01*
X46004761Y-78800000D01*
X45957142Y-78847619D01*
X45338095Y-78752380D02*
X45147619Y-78752380D01*
X45052380Y-78800000D01*
X44957142Y-78895238D01*
X44909523Y-79085714D01*
X44909523Y-79419047D01*
X44957142Y-79609523D01*
X45052380Y-79704761D01*
X45147619Y-79752380D01*
X45338095Y-79752380D01*
X45433333Y-79704761D01*
X45528571Y-79609523D01*
X45576190Y-79419047D01*
X45576190Y-79085714D01*
X45528571Y-78895238D01*
X45433333Y-78800000D01*
X45338095Y-78752380D01*
X44480952Y-79752380D02*
X44480952Y-78752380D01*
X43528571Y-79752380D02*
X44004761Y-79752380D01*
X44004761Y-78752380D01*
X39307142Y-79657142D02*
X39354761Y-79704761D01*
X39497619Y-79752380D01*
X39592857Y-79752380D01*
X39735714Y-79704761D01*
X39830952Y-79609523D01*
X39878571Y-79514285D01*
X39926190Y-79323809D01*
X39926190Y-79180952D01*
X39878571Y-78990476D01*
X39830952Y-78895238D01*
X39735714Y-78800000D01*
X39592857Y-78752380D01*
X39497619Y-78752380D01*
X39354761Y-78800000D01*
X39307142Y-78847619D01*
X38688095Y-78752380D02*
X38497619Y-78752380D01*
X38402380Y-78800000D01*
X38307142Y-78895238D01*
X38259523Y-79085714D01*
X38259523Y-79419047D01*
X38307142Y-79609523D01*
X38402380Y-79704761D01*
X38497619Y-79752380D01*
X38688095Y-79752380D01*
X38783333Y-79704761D01*
X38878571Y-79609523D01*
X38926190Y-79419047D01*
X38926190Y-79085714D01*
X38878571Y-78895238D01*
X38783333Y-78800000D01*
X38688095Y-78752380D01*
X37830952Y-79752380D02*
X37830952Y-78752380D01*
X36878571Y-79752380D02*
X37354761Y-79752380D01*
X37354761Y-78752380D01*
X34769047Y-19171428D02*
X35530952Y-19171428D01*
X35150000Y-19552380D02*
X35150000Y-18790476D01*
X47019047Y-19171428D02*
X47780952Y-19171428D01*
D11*
X29628571Y-25557142D02*
X28128571Y-25557142D01*
X28128571Y-26128571D01*
X28200000Y-26271428D01*
X28271428Y-26342857D01*
X28414285Y-26414285D01*
X28628571Y-26414285D01*
X28771428Y-26342857D01*
X28842857Y-26271428D01*
X28914285Y-26128571D01*
X28914285Y-25557142D01*
X29485714Y-27914285D02*
X29557142Y-27842857D01*
X29628571Y-27628571D01*
X29628571Y-27485714D01*
X29557142Y-27271428D01*
X29414285Y-27128571D01*
X29271428Y-27057142D01*
X28985714Y-26985714D01*
X28771428Y-26985714D01*
X28485714Y-27057142D01*
X28342857Y-27128571D01*
X28200000Y-27271428D01*
X28128571Y-27485714D01*
X28128571Y-27628571D01*
X28200000Y-27842857D01*
X28271428Y-27914285D01*
X28842857Y-29057142D02*
X28914285Y-29271428D01*
X28985714Y-29342857D01*
X29128571Y-29414285D01*
X29342857Y-29414285D01*
X29485714Y-29342857D01*
X29557142Y-29271428D01*
X29628571Y-29128571D01*
X29628571Y-28557142D01*
X28128571Y-28557142D01*
X28128571Y-29057142D01*
X28200000Y-29200000D01*
X28271428Y-29271428D01*
X28414285Y-29342857D01*
X28557142Y-29342857D01*
X28700000Y-29271428D01*
X28771428Y-29200000D01*
X28842857Y-29057142D01*
X28842857Y-28557142D01*
X29628571Y-31200000D02*
X28128571Y-31200000D01*
X28700000Y-31200000D02*
X28628571Y-31342857D01*
X28628571Y-31628571D01*
X28700000Y-31771428D01*
X28771428Y-31842857D01*
X28914285Y-31914285D01*
X29342857Y-31914285D01*
X29485714Y-31842857D01*
X29557142Y-31771428D01*
X29628571Y-31628571D01*
X29628571Y-31342857D01*
X29557142Y-31200000D01*
X28628571Y-32414285D02*
X29628571Y-32771428D01*
X28628571Y-33128571D02*
X29628571Y-32771428D01*
X29985714Y-32628571D01*
X30057142Y-32557142D01*
X30128571Y-32414285D01*
X29485714Y-35699999D02*
X29557142Y-35628571D01*
X29628571Y-35414285D01*
X29628571Y-35271428D01*
X29557142Y-35057142D01*
X29414285Y-34914285D01*
X29271428Y-34842857D01*
X28985714Y-34771428D01*
X28771428Y-34771428D01*
X28485714Y-34842857D01*
X28342857Y-34914285D01*
X28200000Y-35057142D01*
X28128571Y-35271428D01*
X28128571Y-35414285D01*
X28200000Y-35628571D01*
X28271428Y-35699999D01*
X29628571Y-36342857D02*
X28128571Y-36342857D01*
X29200000Y-36842857D01*
X28128571Y-37342857D01*
X29628571Y-37342857D01*
X28628571Y-39057142D02*
X29628571Y-39414285D01*
X28628571Y-39771428D01*
X29628571Y-40985714D02*
X28842857Y-40985714D01*
X28700000Y-40914285D01*
X28628571Y-40771428D01*
X28628571Y-40485714D01*
X28700000Y-40342857D01*
X29557142Y-40985714D02*
X29628571Y-40842857D01*
X29628571Y-40485714D01*
X29557142Y-40342857D01*
X29414285Y-40271428D01*
X29271428Y-40271428D01*
X29128571Y-40342857D01*
X29057142Y-40485714D01*
X29057142Y-40842857D01*
X28985714Y-40985714D01*
X28628571Y-41700000D02*
X29628571Y-41700000D01*
X28771428Y-41700000D02*
X28700000Y-41771428D01*
X28628571Y-41914285D01*
X28628571Y-42128571D01*
X28700000Y-42271428D01*
X28842857Y-42342857D01*
X29628571Y-42342857D01*
X29628571Y-45057142D02*
X28914285Y-44557142D01*
X29628571Y-44200000D02*
X28128571Y-44200000D01*
X28128571Y-44771428D01*
X28200000Y-44914285D01*
X28271428Y-44985714D01*
X28414285Y-45057142D01*
X28628571Y-45057142D01*
X28771428Y-44985714D01*
X28842857Y-44914285D01*
X28914285Y-44771428D01*
X28914285Y-44200000D01*
X29628571Y-45700000D02*
X28628571Y-45700000D01*
X28128571Y-45700000D02*
X28200000Y-45628571D01*
X28271428Y-45700000D01*
X28200000Y-45771428D01*
X28128571Y-45700000D01*
X28271428Y-45700000D01*
X29557142Y-46985714D02*
X29628571Y-46842857D01*
X29628571Y-46557142D01*
X29557142Y-46414285D01*
X29414285Y-46342857D01*
X28842857Y-46342857D01*
X28700000Y-46414285D01*
X28628571Y-46557142D01*
X28628571Y-46842857D01*
X28700000Y-46985714D01*
X28842857Y-47057142D01*
X28985714Y-47057142D01*
X29128571Y-46342857D01*
X28628571Y-47485714D02*
X28628571Y-48057142D01*
X28128571Y-47700000D02*
X29414285Y-47700000D01*
X29557142Y-47771428D01*
X29628571Y-47914285D01*
X29628571Y-48057142D01*
D12*
G36*
X51891568Y-30086887D02*
G01*
X51913428Y-30291016D01*
X51956855Y-30453950D01*
X52025402Y-30582050D01*
X52122623Y-30681673D01*
X52252070Y-30759178D01*
X52272337Y-30768350D01*
X52343704Y-30796105D01*
X52414108Y-30813365D01*
X52498659Y-30822253D01*
X52612468Y-30824894D01*
X52672973Y-30824648D01*
X52793088Y-30820895D01*
X52901733Y-30812643D01*
X52984018Y-30801269D01*
X53016103Y-30792934D01*
X53151453Y-30720931D01*
X53255675Y-30619349D01*
X53330991Y-30484167D01*
X53379623Y-30311368D01*
X53403792Y-30096930D01*
X53404098Y-30091092D01*
X53417613Y-29826276D01*
X51877482Y-29826276D01*
X51891568Y-30086887D01*
G37*
X51891568Y-30086887D02*
X51913428Y-30291016D01*
X51956855Y-30453950D01*
X52025402Y-30582050D01*
X52122623Y-30681673D01*
X52252070Y-30759178D01*
X52272337Y-30768350D01*
X52343704Y-30796105D01*
X52414108Y-30813365D01*
X52498659Y-30822253D01*
X52612468Y-30824894D01*
X52672973Y-30824648D01*
X52793088Y-30820895D01*
X52901733Y-30812643D01*
X52984018Y-30801269D01*
X53016103Y-30792934D01*
X53151453Y-30720931D01*
X53255675Y-30619349D01*
X53330991Y-30484167D01*
X53379623Y-30311368D01*
X53403792Y-30096930D01*
X53404098Y-30091092D01*
X53417613Y-29826276D01*
X51877482Y-29826276D01*
X51891568Y-30086887D01*
G36*
X47727728Y-28211762D02*
G01*
X47950200Y-28219108D01*
X48172673Y-28226454D01*
X48172673Y-27588839D01*
X49876176Y-27588839D01*
X49876176Y-27054905D01*
X48172673Y-27054905D01*
X48172673Y-26444694D01*
X47714356Y-26444694D01*
X47727728Y-28211762D01*
G37*
X47727728Y-28211762D02*
X47950200Y-28219108D01*
X48172673Y-28226454D01*
X48172673Y-27588839D01*
X49876176Y-27588839D01*
X49876176Y-27054905D01*
X48172673Y-27054905D01*
X48172673Y-26444694D01*
X47714356Y-26444694D01*
X47727728Y-28211762D01*
G36*
X48475966Y-28967068D02*
G01*
X48689428Y-28969401D01*
X48858040Y-28971875D01*
X48987801Y-28974937D01*
X49084711Y-28979030D01*
X49154769Y-28984603D01*
X49203975Y-28992099D01*
X49238329Y-29001966D01*
X49263830Y-29014649D01*
X49281652Y-29026946D01*
X49388976Y-29134434D01*
X49450729Y-29258954D01*
X49465342Y-29394062D01*
X49431247Y-29533313D01*
X49413824Y-29570141D01*
X49383125Y-29625884D01*
X49351765Y-29670503D01*
X49313990Y-29705234D01*
X49264047Y-29731315D01*
X49196184Y-29749982D01*
X49104646Y-29762474D01*
X48983680Y-29770025D01*
X48827534Y-29773875D01*
X48630453Y-29775260D01*
X48459105Y-29775425D01*
X47740440Y-29775425D01*
X47740440Y-30312072D01*
X48522272Y-30304359D01*
X48743041Y-30302043D01*
X48919160Y-30299630D01*
X49056831Y-30296669D01*
X49162254Y-30292709D01*
X49241629Y-30287299D01*
X49301157Y-30279988D01*
X49347038Y-30270324D01*
X49385472Y-30257857D01*
X49422661Y-30242135D01*
X49431231Y-30238223D01*
X49593267Y-30136949D01*
X49731175Y-29996768D01*
X49835448Y-29827475D01*
X49840453Y-29816549D01*
X49875243Y-29730744D01*
X49897364Y-29649552D01*
X49910113Y-29555445D01*
X49916786Y-29430895D01*
X49917516Y-29406757D01*
X49918118Y-29284792D01*
X49913758Y-29169855D01*
X49905302Y-29079402D01*
X49899739Y-29048521D01*
X49850677Y-28915698D01*
X49771592Y-28778273D01*
X49675542Y-28656406D01*
X49601731Y-28588479D01*
X49541934Y-28545586D01*
X49482985Y-28511039D01*
X49418683Y-28483945D01*
X49342829Y-28463412D01*
X49249227Y-28448547D01*
X49131675Y-28438460D01*
X48983976Y-28432257D01*
X48799931Y-28429046D01*
X48573341Y-28427935D01*
X48485876Y-28427878D01*
X47740440Y-28427878D01*
X47740440Y-28959611D01*
X48475966Y-28967068D01*
G37*
X48475966Y-28967068D02*
X48689428Y-28969401D01*
X48858040Y-28971875D01*
X48987801Y-28974937D01*
X49084711Y-28979030D01*
X49154769Y-28984603D01*
X49203975Y-28992099D01*
X49238329Y-29001966D01*
X49263830Y-29014649D01*
X49281652Y-29026946D01*
X49388976Y-29134434D01*
X49450729Y-29258954D01*
X49465342Y-29394062D01*
X49431247Y-29533313D01*
X49413824Y-29570141D01*
X49383125Y-29625884D01*
X49351765Y-29670503D01*
X49313990Y-29705234D01*
X49264047Y-29731315D01*
X49196184Y-29749982D01*
X49104646Y-29762474D01*
X48983680Y-29770025D01*
X48827534Y-29773875D01*
X48630453Y-29775260D01*
X48459105Y-29775425D01*
X47740440Y-29775425D01*
X47740440Y-30312072D01*
X48522272Y-30304359D01*
X48743041Y-30302043D01*
X48919160Y-30299630D01*
X49056831Y-30296669D01*
X49162254Y-30292709D01*
X49241629Y-30287299D01*
X49301157Y-30279988D01*
X49347038Y-30270324D01*
X49385472Y-30257857D01*
X49422661Y-30242135D01*
X49431231Y-30238223D01*
X49593267Y-30136949D01*
X49731175Y-29996768D01*
X49835448Y-29827475D01*
X49840453Y-29816549D01*
X49875243Y-29730744D01*
X49897364Y-29649552D01*
X49910113Y-29555445D01*
X49916786Y-29430895D01*
X49917516Y-29406757D01*
X49918118Y-29284792D01*
X49913758Y-29169855D01*
X49905302Y-29079402D01*
X49899739Y-29048521D01*
X49850677Y-28915698D01*
X49771592Y-28778273D01*
X49675542Y-28656406D01*
X49601731Y-28588479D01*
X49541934Y-28545586D01*
X49482985Y-28511039D01*
X49418683Y-28483945D01*
X49342829Y-28463412D01*
X49249227Y-28448547D01*
X49131675Y-28438460D01*
X48983976Y-28432257D01*
X48799931Y-28429046D01*
X48573341Y-28427935D01*
X48485876Y-28427878D01*
X47740440Y-28427878D01*
X47740440Y-28959611D01*
X48475966Y-28967068D01*
G36*
X48340947Y-32358353D02*
G01*
X48350413Y-32443858D01*
X48371353Y-32517752D01*
X48407562Y-32599582D01*
X48409408Y-32603349D01*
X48517085Y-32767169D01*
X48660216Y-32896990D01*
X48833694Y-32989480D01*
X49032411Y-33041312D01*
X49091481Y-33048052D01*
X49265966Y-33062680D01*
X49265966Y-31808153D01*
X49335886Y-31844675D01*
X49454663Y-31933135D01*
X49537532Y-32049738D01*
X49581923Y-32184227D01*
X49585265Y-32326345D01*
X49544989Y-32465838D01*
X49507904Y-32531080D01*
X49447371Y-32620280D01*
X49513495Y-32786942D01*
X49550345Y-32869334D01*
X49584923Y-32928910D01*
X49610097Y-32953505D01*
X49611223Y-32953603D01*
X49652075Y-32932452D01*
X49707020Y-32875769D01*
X49767829Y-32793713D01*
X49826271Y-32696442D01*
X49838433Y-32673144D01*
X49866761Y-32603219D01*
X49896012Y-32508958D01*
X49922310Y-32406303D01*
X49941782Y-32311194D01*
X49950553Y-32239573D01*
X49949475Y-32216266D01*
X49943411Y-32185706D01*
X49931169Y-32123586D01*
X49925054Y-32092488D01*
X49863009Y-31902040D01*
X49756237Y-31735640D01*
X49670020Y-31646547D01*
X49509424Y-31534121D01*
X49332258Y-31465709D01*
X49146737Y-31441174D01*
X48961079Y-31460381D01*
X48945717Y-31465814D01*
X48945717Y-31834885D01*
X48950830Y-31858891D01*
X48955206Y-31925237D01*
X48958528Y-32025413D01*
X48960478Y-32150909D01*
X48960861Y-32241691D01*
X48959969Y-32400800D01*
X48956969Y-32515040D01*
X48951375Y-32590372D01*
X48942703Y-32632751D01*
X48930466Y-32648135D01*
X48927710Y-32648498D01*
X48885773Y-32629128D01*
X48829684Y-32580061D01*
X48772019Y-32514860D01*
X48725352Y-32447092D01*
X48708166Y-32411658D01*
X48682391Y-32279497D01*
X48696299Y-32142264D01*
X48745708Y-32014759D01*
X48826438Y-31911783D01*
X48856152Y-31887877D01*
X48909284Y-31852767D01*
X48943195Y-31835312D01*
X48945717Y-31834885D01*
X48945717Y-31465814D01*
X48783500Y-31523195D01*
X48622217Y-31629480D01*
X48583695Y-31664479D01*
X48465247Y-31798388D01*
X48389181Y-31935112D01*
X48349276Y-32089337D01*
X48339157Y-32241691D01*
X48340947Y-32358353D01*
G37*
X48340947Y-32358353D02*
X48350413Y-32443858D01*
X48371353Y-32517752D01*
X48407562Y-32599582D01*
X48409408Y-32603349D01*
X48517085Y-32767169D01*
X48660216Y-32896990D01*
X48833694Y-32989480D01*
X49032411Y-33041312D01*
X49091481Y-33048052D01*
X49265966Y-33062680D01*
X49265966Y-31808153D01*
X49335886Y-31844675D01*
X49454663Y-31933135D01*
X49537532Y-32049738D01*
X49581923Y-32184227D01*
X49585265Y-32326345D01*
X49544989Y-32465838D01*
X49507904Y-32531080D01*
X49447371Y-32620280D01*
X49513495Y-32786942D01*
X49550345Y-32869334D01*
X49584923Y-32928910D01*
X49610097Y-32953505D01*
X49611223Y-32953603D01*
X49652075Y-32932452D01*
X49707020Y-32875769D01*
X49767829Y-32793713D01*
X49826271Y-32696442D01*
X49838433Y-32673144D01*
X49866761Y-32603219D01*
X49896012Y-32508958D01*
X49922310Y-32406303D01*
X49941782Y-32311194D01*
X49950553Y-32239573D01*
X49949475Y-32216266D01*
X49943411Y-32185706D01*
X49931169Y-32123586D01*
X49925054Y-32092488D01*
X49863009Y-31902040D01*
X49756237Y-31735640D01*
X49670020Y-31646547D01*
X49509424Y-31534121D01*
X49332258Y-31465709D01*
X49146737Y-31441174D01*
X48961079Y-31460381D01*
X48945717Y-31465814D01*
X48945717Y-31834885D01*
X48950830Y-31858891D01*
X48955206Y-31925237D01*
X48958528Y-32025413D01*
X48960478Y-32150909D01*
X48960861Y-32241691D01*
X48959969Y-32400800D01*
X48956969Y-32515040D01*
X48951375Y-32590372D01*
X48942703Y-32632751D01*
X48930466Y-32648135D01*
X48927710Y-32648498D01*
X48885773Y-32629128D01*
X48829684Y-32580061D01*
X48772019Y-32514860D01*
X48725352Y-32447092D01*
X48708166Y-32411658D01*
X48682391Y-32279497D01*
X48696299Y-32142264D01*
X48745708Y-32014759D01*
X48826438Y-31911783D01*
X48856152Y-31887877D01*
X48909284Y-31852767D01*
X48943195Y-31835312D01*
X48945717Y-31834885D01*
X48945717Y-31465814D01*
X48783500Y-31523195D01*
X48622217Y-31629480D01*
X48583695Y-31664479D01*
X48465247Y-31798388D01*
X48389181Y-31935112D01*
X48349276Y-32089337D01*
X48339157Y-32241691D01*
X48340947Y-32358353D01*
G36*
X47564857Y-31611878D02*
G01*
X47571180Y-31677793D01*
X47580136Y-31707226D01*
X47581532Y-31707719D01*
X47607984Y-31698344D01*
X47677150Y-31671398D01*
X47784708Y-31628624D01*
X47926332Y-31571767D01*
X48097698Y-31502572D01*
X48294481Y-31422783D01*
X48512358Y-31334145D01*
X48747004Y-31238401D01*
X48897297Y-31176937D01*
X50193994Y-30646194D01*
X50201465Y-30449861D01*
X50202309Y-30358126D01*
X50197783Y-30291988D01*
X50188807Y-30262692D01*
X50186139Y-30262374D01*
X50158970Y-30273409D01*
X50089083Y-30301945D01*
X49980812Y-30346207D01*
X49838494Y-30404422D01*
X49666467Y-30474814D01*
X49469066Y-30555609D01*
X49250628Y-30645034D01*
X49015490Y-30741313D01*
X48862902Y-30803800D01*
X47562463Y-31336379D01*
X47562463Y-31522068D01*
X47564857Y-31611878D01*
G37*
X47564857Y-31611878D02*
X47571180Y-31677793D01*
X47580136Y-31707226D01*
X47581532Y-31707719D01*
X47607984Y-31698344D01*
X47677150Y-31671398D01*
X47784708Y-31628624D01*
X47926332Y-31571767D01*
X48097698Y-31502572D01*
X48294481Y-31422783D01*
X48512358Y-31334145D01*
X48747004Y-31238401D01*
X48897297Y-31176937D01*
X50193994Y-30646194D01*
X50201465Y-30449861D01*
X50202309Y-30358126D01*
X50197783Y-30291988D01*
X50188807Y-30262692D01*
X50186139Y-30262374D01*
X50158970Y-30273409D01*
X50089083Y-30301945D01*
X49980812Y-30346207D01*
X49838494Y-30404422D01*
X49666467Y-30474814D01*
X49469066Y-30555609D01*
X49250628Y-30645034D01*
X49015490Y-30741313D01*
X48862902Y-30803800D01*
X47562463Y-31336379D01*
X47562463Y-31522068D01*
X47564857Y-31611878D01*
G36*
X50658008Y-34250091D02*
G01*
X50740379Y-34246986D01*
X50852538Y-34238918D01*
X50973839Y-34227444D01*
X51007608Y-34223721D01*
X51480433Y-34145190D01*
X51934368Y-34021283D01*
X52367016Y-33854392D01*
X52775983Y-33646910D01*
X53158871Y-33401227D01*
X53513286Y-33119736D01*
X53836831Y-32804828D01*
X54127110Y-32458896D01*
X54381728Y-32084330D01*
X54598288Y-31683524D01*
X54774395Y-31258868D01*
X54907653Y-30812755D01*
X54995665Y-30347577D01*
X55010412Y-30227729D01*
X55022363Y-30080094D01*
X55029964Y-29904942D01*
X55033010Y-29720037D01*
X55031299Y-29543144D01*
X55024627Y-29392026D01*
X55020564Y-29343193D01*
X54990725Y-29117119D01*
X54945752Y-28870232D01*
X54890789Y-28628356D01*
X54845331Y-28463218D01*
X54683517Y-28013507D01*
X54479526Y-27589875D01*
X54236035Y-27194440D01*
X53955719Y-26829321D01*
X53641253Y-26496635D01*
X53295314Y-26198502D01*
X52920577Y-25937039D01*
X52519717Y-25714365D01*
X52095411Y-25532598D01*
X51650334Y-25393857D01*
X51560325Y-25375669D01*
X51560325Y-28300215D01*
X53753063Y-28313463D01*
X53769359Y-28389740D01*
X53776947Y-28466176D01*
X53774632Y-28559976D01*
X53764220Y-28652433D01*
X53747519Y-28724843D01*
X53734345Y-28752052D01*
X53716437Y-28760257D01*
X53674418Y-28767036D01*
X53604583Y-28772497D01*
X53503224Y-28776749D01*
X53366637Y-28779898D01*
X53191116Y-28782054D01*
X52972954Y-28783325D01*
X52708446Y-28783819D01*
X52647548Y-28783833D01*
X52647548Y-29305055D01*
X52905870Y-29305140D01*
X53118074Y-29305541D01*
X53288892Y-29306472D01*
X53423055Y-29308149D01*
X53525296Y-29310789D01*
X53600348Y-29314606D01*
X53652942Y-29319817D01*
X53687810Y-29326637D01*
X53709685Y-29335283D01*
X53723299Y-29345968D01*
X53730178Y-29354409D01*
X53744471Y-29400007D01*
X53755360Y-29486692D01*
X53762765Y-29604809D01*
X53766604Y-29744701D01*
X53766794Y-29896713D01*
X53763254Y-30051191D01*
X53755903Y-30198477D01*
X53744658Y-30328918D01*
X53738824Y-30375853D01*
X53684647Y-30626043D01*
X53596727Y-30838273D01*
X53474601Y-31013033D01*
X53317805Y-31150811D01*
X53125875Y-31252097D01*
X52898349Y-31317379D01*
X52836285Y-31328066D01*
X52593413Y-31343995D01*
X52364805Y-31317968D01*
X52155617Y-31252380D01*
X51971003Y-31149624D01*
X51816117Y-31012097D01*
X51696115Y-30842191D01*
X51667652Y-30785187D01*
X51615768Y-30648888D01*
X51577124Y-30493035D01*
X51550629Y-30310049D01*
X51535196Y-30092349D01*
X51529735Y-29832358D01*
X51529716Y-29824779D01*
X51530420Y-29656618D01*
X51533684Y-29532453D01*
X51540018Y-29445470D01*
X51549931Y-29388856D01*
X51563933Y-29355796D01*
X51564917Y-29354409D01*
X51575637Y-29342230D01*
X51591436Y-29332236D01*
X51617047Y-29324213D01*
X51657201Y-29317943D01*
X51716631Y-29313213D01*
X51800069Y-29309805D01*
X51912247Y-29307504D01*
X52057897Y-29306095D01*
X52241752Y-29305362D01*
X52468544Y-29305088D01*
X52647548Y-29305055D01*
X52647548Y-28783833D01*
X52645329Y-28783834D01*
X52384784Y-28783753D01*
X52170442Y-28783373D01*
X51997656Y-28782482D01*
X51861778Y-28780872D01*
X51758162Y-28778332D01*
X51682158Y-28774653D01*
X51629120Y-28769626D01*
X51594401Y-28763041D01*
X51573352Y-28754687D01*
X51561327Y-28744356D01*
X51555149Y-28734654D01*
X51539718Y-28677756D01*
X51531170Y-28589968D01*
X51530036Y-28490852D01*
X51536846Y-28399972D01*
X51544924Y-28357690D01*
X51560325Y-28300215D01*
X51560325Y-25375669D01*
X51187161Y-25300260D01*
X50797848Y-25258818D01*
X50537237Y-25242057D01*
X50537237Y-34250300D01*
X50658008Y-34250091D01*
G37*
X50658008Y-34250091D02*
X50740379Y-34246986D01*
X50852538Y-34238918D01*
X50973839Y-34227444D01*
X51007608Y-34223721D01*
X51480433Y-34145190D01*
X51934368Y-34021283D01*
X52367016Y-33854392D01*
X52775983Y-33646910D01*
X53158871Y-33401227D01*
X53513286Y-33119736D01*
X53836831Y-32804828D01*
X54127110Y-32458896D01*
X54381728Y-32084330D01*
X54598288Y-31683524D01*
X54774395Y-31258868D01*
X54907653Y-30812755D01*
X54995665Y-30347577D01*
X55010412Y-30227729D01*
X55022363Y-30080094D01*
X55029964Y-29904942D01*
X55033010Y-29720037D01*
X55031299Y-29543144D01*
X55024627Y-29392026D01*
X55020564Y-29343193D01*
X54990725Y-29117119D01*
X54945752Y-28870232D01*
X54890789Y-28628356D01*
X54845331Y-28463218D01*
X54683517Y-28013507D01*
X54479526Y-27589875D01*
X54236035Y-27194440D01*
X53955719Y-26829321D01*
X53641253Y-26496635D01*
X53295314Y-26198502D01*
X52920577Y-25937039D01*
X52519717Y-25714365D01*
X52095411Y-25532598D01*
X51650334Y-25393857D01*
X51560325Y-25375669D01*
X51560325Y-28300215D01*
X53753063Y-28313463D01*
X53769359Y-28389740D01*
X53776947Y-28466176D01*
X53774632Y-28559976D01*
X53764220Y-28652433D01*
X53747519Y-28724843D01*
X53734345Y-28752052D01*
X53716437Y-28760257D01*
X53674418Y-28767036D01*
X53604583Y-28772497D01*
X53503224Y-28776749D01*
X53366637Y-28779898D01*
X53191116Y-28782054D01*
X52972954Y-28783325D01*
X52708446Y-28783819D01*
X52647548Y-28783833D01*
X52647548Y-29305055D01*
X52905870Y-29305140D01*
X53118074Y-29305541D01*
X53288892Y-29306472D01*
X53423055Y-29308149D01*
X53525296Y-29310789D01*
X53600348Y-29314606D01*
X53652942Y-29319817D01*
X53687810Y-29326637D01*
X53709685Y-29335283D01*
X53723299Y-29345968D01*
X53730178Y-29354409D01*
X53744471Y-29400007D01*
X53755360Y-29486692D01*
X53762765Y-29604809D01*
X53766604Y-29744701D01*
X53766794Y-29896713D01*
X53763254Y-30051191D01*
X53755903Y-30198477D01*
X53744658Y-30328918D01*
X53738824Y-30375853D01*
X53684647Y-30626043D01*
X53596727Y-30838273D01*
X53474601Y-31013033D01*
X53317805Y-31150811D01*
X53125875Y-31252097D01*
X52898349Y-31317379D01*
X52836285Y-31328066D01*
X52593413Y-31343995D01*
X52364805Y-31317968D01*
X52155617Y-31252380D01*
X51971003Y-31149624D01*
X51816117Y-31012097D01*
X51696115Y-30842191D01*
X51667652Y-30785187D01*
X51615768Y-30648888D01*
X51577124Y-30493035D01*
X51550629Y-30310049D01*
X51535196Y-30092349D01*
X51529735Y-29832358D01*
X51529716Y-29824779D01*
X51530420Y-29656618D01*
X51533684Y-29532453D01*
X51540018Y-29445470D01*
X51549931Y-29388856D01*
X51563933Y-29355796D01*
X51564917Y-29354409D01*
X51575637Y-29342230D01*
X51591436Y-29332236D01*
X51617047Y-29324213D01*
X51657201Y-29317943D01*
X51716631Y-29313213D01*
X51800069Y-29309805D01*
X51912247Y-29307504D01*
X52057897Y-29306095D01*
X52241752Y-29305362D01*
X52468544Y-29305088D01*
X52647548Y-29305055D01*
X52647548Y-28783833D01*
X52645329Y-28783834D01*
X52384784Y-28783753D01*
X52170442Y-28783373D01*
X51997656Y-28782482D01*
X51861778Y-28780872D01*
X51758162Y-28778332D01*
X51682158Y-28774653D01*
X51629120Y-28769626D01*
X51594401Y-28763041D01*
X51573352Y-28754687D01*
X51561327Y-28744356D01*
X51555149Y-28734654D01*
X51539718Y-28677756D01*
X51531170Y-28589968D01*
X51530036Y-28490852D01*
X51536846Y-28399972D01*
X51544924Y-28357690D01*
X51560325Y-28300215D01*
X51560325Y-25375669D01*
X51187161Y-25300260D01*
X50797848Y-25258818D01*
X50537237Y-25242057D01*
X50537237Y-34250300D01*
X50658008Y-34250091D01*
M02*
