G04 #@! TF.GenerationSoftware,KiCad,Pcbnew,(5.1.5)-3*
G04 #@! TF.CreationDate,2022-07-19T15:35:49+02:00*
G04 #@! TF.ProjectId,Wireless LEDs,57697265-6c65-4737-9320-4c4544732e6b,rev?*
G04 #@! TF.SameCoordinates,Original*
G04 #@! TF.FileFunction,Copper,L2,Bot*
G04 #@! TF.FilePolarity,Positive*
%FSLAX46Y46*%
G04 Gerber Fmt 4.6, Leading zero omitted, Abs format (unit mm)*
G04 Created by KiCad (PCBNEW (5.1.5)-3) date 2022-07-19 15:35:49*
%MOMM*%
%LPD*%
G04 APERTURE LIST*
%ADD10C,2.010000*%
%ADD11O,1.600000X1.600000*%
%ADD12C,1.600000*%
%ADD13O,2.200000X2.200000*%
%ADD14R,2.200000X2.200000*%
%ADD15C,5.700000*%
%ADD16R,1.600000X1.600000*%
%ADD17O,1.905000X2.000000*%
%ADD18R,1.905000X2.000000*%
%ADD19O,1.600000X2.400000*%
%ADD20R,1.600000X2.400000*%
%ADD21C,2.000000*%
%ADD22R,2.000000X2.000000*%
%ADD23C,0.500000*%
%ADD24C,1.500000*%
%ADD25C,1.000000*%
%ADD26C,0.254000*%
G04 APERTURE END LIST*
D10*
X32700000Y-28400000D03*
X31500000Y-33500000D03*
D11*
X39440000Y-67400000D03*
D12*
X49600000Y-67400000D03*
D11*
X44960000Y-63600000D03*
D12*
X34800000Y-63600000D03*
D11*
X44860000Y-48900000D03*
D12*
X34700000Y-48900000D03*
D13*
X35540000Y-34000000D03*
D14*
X45700000Y-34000000D03*
D15*
X52000000Y-77200000D03*
X31250000Y-77200000D03*
X31250000Y-20750000D03*
X52000000Y-20750000D03*
D11*
X53000000Y-63680000D03*
D16*
X53000000Y-71300000D03*
D12*
X31800000Y-40600000D03*
X31800000Y-45600000D03*
D17*
X40920000Y-71000000D03*
X43460000Y-71000000D03*
D18*
X46000000Y-71000000D03*
D19*
X43600000Y-59970000D03*
X35980000Y-52350000D03*
X41060000Y-59970000D03*
X38520000Y-52350000D03*
X38520000Y-59970000D03*
X41060000Y-52350000D03*
X35980000Y-59970000D03*
D20*
X43600000Y-52350000D03*
D19*
X43600000Y-45470000D03*
X35980000Y-37850000D03*
X41060000Y-45470000D03*
X38520000Y-37850000D03*
X38520000Y-45470000D03*
X41060000Y-37850000D03*
X35980000Y-45470000D03*
D20*
X43600000Y-37850000D03*
D12*
X31800000Y-53600000D03*
X31800000Y-48600000D03*
X31800000Y-62800000D03*
X31800000Y-57800000D03*
D11*
X49250000Y-59760000D03*
D12*
X49250000Y-49600000D03*
D11*
X53000000Y-49590000D03*
D12*
X53000000Y-59750000D03*
D11*
X49250000Y-46660000D03*
D12*
X49250000Y-36500000D03*
D11*
X53000000Y-36440000D03*
D12*
X53000000Y-46600000D03*
D21*
X44850000Y-77050000D03*
X38350000Y-77050000D03*
X44900000Y-19100000D03*
X37400000Y-19100000D03*
D12*
X36300000Y-70800000D03*
X31300000Y-70800000D03*
X36300000Y-67300000D03*
X31300000Y-67300000D03*
D21*
X39000000Y-26400000D03*
D22*
X44000000Y-26400000D03*
D23*
X38520000Y-42090000D02*
X38520000Y-45470000D01*
X41060000Y-39550000D02*
X38520000Y-42090000D01*
X49250000Y-59760000D02*
X49250000Y-64100000D01*
X53000000Y-67850000D02*
X53000000Y-71300000D01*
X49250000Y-64100000D02*
X53000000Y-67850000D01*
X41060000Y-39550000D02*
X41060000Y-37850000D01*
X42660000Y-41150000D02*
X41060000Y-39550000D01*
X49250000Y-58628630D02*
X46750000Y-56128630D01*
X49250000Y-59760000D02*
X49250000Y-58628630D01*
X46750000Y-42750000D02*
X45150000Y-41150000D01*
X45150000Y-41150000D02*
X42660000Y-41150000D01*
X46750000Y-56128630D02*
X46750000Y-42750000D01*
X48100000Y-67400000D02*
X48468630Y-67400000D01*
X46000000Y-69500000D02*
X48100000Y-67400000D01*
X48468630Y-67400000D02*
X49600000Y-67400000D01*
X46000000Y-71000000D02*
X46000000Y-69500000D01*
X44960000Y-63600000D02*
X44960000Y-66960000D01*
X46000000Y-68000000D02*
X46000000Y-69500000D01*
X44960000Y-66960000D02*
X46000000Y-68000000D01*
X52940000Y-36500000D02*
X53000000Y-36440000D01*
X49250000Y-36500000D02*
X52940000Y-36500000D01*
X52990000Y-49600000D02*
X53000000Y-49590000D01*
X49250000Y-49600000D02*
X52990000Y-49600000D01*
D24*
X43460000Y-75660000D02*
X44850000Y-77050000D01*
X43460000Y-71000000D02*
X43460000Y-75660000D01*
D25*
X43460000Y-73000000D02*
X42460000Y-74000000D01*
X43460000Y-71000000D02*
X43460000Y-73000000D01*
X42460000Y-74000000D02*
X37500000Y-74000000D01*
X36300000Y-72800000D02*
X36300000Y-70800000D01*
X37500000Y-74000000D02*
X36300000Y-72800000D01*
X36300000Y-70800000D02*
X36300000Y-67300000D01*
D23*
X42810000Y-48900000D02*
X43728630Y-48900000D01*
X41060000Y-50650000D02*
X42810000Y-48900000D01*
X43728630Y-48900000D02*
X44860000Y-48900000D01*
X41060000Y-52350000D02*
X41060000Y-50650000D01*
X38520000Y-40380000D02*
X38520000Y-37850000D01*
X37400000Y-41500000D02*
X38520000Y-40380000D01*
X37400000Y-42500000D02*
X37400000Y-41500000D01*
X33900001Y-48100001D02*
X33900000Y-44200000D01*
X34700000Y-48900000D02*
X33900001Y-48100001D01*
X33900000Y-44200000D02*
X35000000Y-43100000D01*
X36800000Y-43100000D02*
X37400000Y-42500000D01*
X35000000Y-43100000D02*
X36800000Y-43100000D01*
X41060000Y-61670000D02*
X41060000Y-59970000D01*
X39130000Y-63600000D02*
X41060000Y-61670000D01*
X34800000Y-63600000D02*
X39130000Y-63600000D01*
D26*
G36*
X36357748Y-17830013D02*
G01*
X36130013Y-18057748D01*
X35951082Y-18325537D01*
X35827832Y-18623088D01*
X35765000Y-18938967D01*
X35765000Y-19261033D01*
X35827832Y-19576912D01*
X35951082Y-19874463D01*
X36130013Y-20142252D01*
X36357748Y-20369987D01*
X36625537Y-20548918D01*
X36923088Y-20672168D01*
X37238967Y-20735000D01*
X37561033Y-20735000D01*
X37876912Y-20672168D01*
X38174463Y-20548918D01*
X38442252Y-20369987D01*
X38669987Y-20142252D01*
X38848918Y-19874463D01*
X38972168Y-19576912D01*
X39035000Y-19261033D01*
X39035000Y-18938967D01*
X38972168Y-18623088D01*
X38848918Y-18325537D01*
X38669987Y-18057748D01*
X38442252Y-17830013D01*
X38187810Y-17660000D01*
X44112190Y-17660000D01*
X43857748Y-17830013D01*
X43630013Y-18057748D01*
X43451082Y-18325537D01*
X43327832Y-18623088D01*
X43265000Y-18938967D01*
X43265000Y-19261033D01*
X43327832Y-19576912D01*
X43451082Y-19874463D01*
X43630013Y-20142252D01*
X43857748Y-20369987D01*
X44125537Y-20548918D01*
X44423088Y-20672168D01*
X44738967Y-20735000D01*
X45061033Y-20735000D01*
X45376912Y-20672168D01*
X45674463Y-20548918D01*
X45942252Y-20369987D01*
X46169987Y-20142252D01*
X46348918Y-19874463D01*
X46472168Y-19576912D01*
X46535000Y-19261033D01*
X46535000Y-18938967D01*
X46472168Y-18623088D01*
X46348918Y-18325537D01*
X46169987Y-18057748D01*
X45942252Y-17830013D01*
X45687810Y-17660000D01*
X50353176Y-17660000D01*
X50349234Y-17661633D01*
X49778442Y-18043024D01*
X49293024Y-18528442D01*
X48911633Y-19099234D01*
X48648927Y-19733463D01*
X48515000Y-20406758D01*
X48515000Y-21093242D01*
X48648927Y-21766537D01*
X48911633Y-22400766D01*
X49293024Y-22971558D01*
X49778442Y-23456976D01*
X50349234Y-23838367D01*
X50983463Y-24101073D01*
X51656758Y-24235000D01*
X52343242Y-24235000D01*
X53016537Y-24101073D01*
X53650766Y-23838367D01*
X54221558Y-23456976D01*
X54706976Y-22971558D01*
X55088367Y-22400766D01*
X55090000Y-22396824D01*
X55090001Y-75553179D01*
X55088367Y-75549234D01*
X54706976Y-74978442D01*
X54221558Y-74493024D01*
X53650766Y-74111633D01*
X53016537Y-73848927D01*
X52343242Y-73715000D01*
X51656758Y-73715000D01*
X50983463Y-73848927D01*
X50349234Y-74111633D01*
X49778442Y-74493024D01*
X49293024Y-74978442D01*
X48911633Y-75549234D01*
X48648927Y-76183463D01*
X48515000Y-76856758D01*
X48515000Y-77543242D01*
X48648927Y-78216537D01*
X48911633Y-78850766D01*
X49293024Y-79421558D01*
X49778442Y-79906976D01*
X50349234Y-80288367D01*
X50473887Y-80340000D01*
X32776113Y-80340000D01*
X32900766Y-80288367D01*
X33471558Y-79906976D01*
X33956976Y-79421558D01*
X34338367Y-78850766D01*
X34601073Y-78216537D01*
X34607263Y-78185413D01*
X37394192Y-78185413D01*
X37489956Y-78449814D01*
X37779571Y-78590704D01*
X38091108Y-78672384D01*
X38412595Y-78691718D01*
X38731675Y-78647961D01*
X39036088Y-78542795D01*
X39210044Y-78449814D01*
X39305808Y-78185413D01*
X38350000Y-77229605D01*
X37394192Y-78185413D01*
X34607263Y-78185413D01*
X34735000Y-77543242D01*
X34735000Y-77112595D01*
X36708282Y-77112595D01*
X36752039Y-77431675D01*
X36857205Y-77736088D01*
X36950186Y-77910044D01*
X37214587Y-78005808D01*
X38170395Y-77050000D01*
X38529605Y-77050000D01*
X39485413Y-78005808D01*
X39749814Y-77910044D01*
X39890704Y-77620429D01*
X39972384Y-77308892D01*
X39991718Y-76987405D01*
X39947961Y-76668325D01*
X39842795Y-76363912D01*
X39749814Y-76189956D01*
X39485413Y-76094192D01*
X38529605Y-77050000D01*
X38170395Y-77050000D01*
X37214587Y-76094192D01*
X36950186Y-76189956D01*
X36809296Y-76479571D01*
X36727616Y-76791108D01*
X36708282Y-77112595D01*
X34735000Y-77112595D01*
X34735000Y-76856758D01*
X34601073Y-76183463D01*
X34489702Y-75914587D01*
X37394192Y-75914587D01*
X38350000Y-76870395D01*
X39305808Y-75914587D01*
X39210044Y-75650186D01*
X38920429Y-75509296D01*
X38608892Y-75427616D01*
X38287405Y-75408282D01*
X37968325Y-75452039D01*
X37663912Y-75557205D01*
X37489956Y-75650186D01*
X37394192Y-75914587D01*
X34489702Y-75914587D01*
X34338367Y-75549234D01*
X33956976Y-74978442D01*
X33471558Y-74493024D01*
X32900766Y-74111633D01*
X32266537Y-73848927D01*
X31593242Y-73715000D01*
X30906758Y-73715000D01*
X30233463Y-73848927D01*
X29599234Y-74111633D01*
X29028442Y-74493024D01*
X28543024Y-74978442D01*
X28161633Y-75549234D01*
X28160000Y-75553176D01*
X28160000Y-71792702D01*
X30486903Y-71792702D01*
X30558486Y-72036671D01*
X30813996Y-72157571D01*
X31088184Y-72226300D01*
X31370512Y-72240217D01*
X31650130Y-72198787D01*
X31916292Y-72103603D01*
X32041514Y-72036671D01*
X32113097Y-71792702D01*
X31300000Y-70979605D01*
X30486903Y-71792702D01*
X28160000Y-71792702D01*
X28160000Y-70870512D01*
X29859783Y-70870512D01*
X29901213Y-71150130D01*
X29996397Y-71416292D01*
X30063329Y-71541514D01*
X30307298Y-71613097D01*
X31120395Y-70800000D01*
X31479605Y-70800000D01*
X32292702Y-71613097D01*
X32536671Y-71541514D01*
X32657571Y-71286004D01*
X32726300Y-71011816D01*
X32740217Y-70729488D01*
X32698787Y-70449870D01*
X32603603Y-70183708D01*
X32536671Y-70058486D01*
X32292702Y-69986903D01*
X31479605Y-70800000D01*
X31120395Y-70800000D01*
X30307298Y-69986903D01*
X30063329Y-70058486D01*
X29942429Y-70313996D01*
X29873700Y-70588184D01*
X29859783Y-70870512D01*
X28160000Y-70870512D01*
X28160000Y-69807298D01*
X30486903Y-69807298D01*
X31300000Y-70620395D01*
X32113097Y-69807298D01*
X32041514Y-69563329D01*
X31786004Y-69442429D01*
X31511816Y-69373700D01*
X31229488Y-69359783D01*
X30949870Y-69401213D01*
X30683708Y-69496397D01*
X30558486Y-69563329D01*
X30486903Y-69807298D01*
X28160000Y-69807298D01*
X28160000Y-68292702D01*
X30486903Y-68292702D01*
X30558486Y-68536671D01*
X30813996Y-68657571D01*
X31088184Y-68726300D01*
X31370512Y-68740217D01*
X31650130Y-68698787D01*
X31916292Y-68603603D01*
X32041514Y-68536671D01*
X32113097Y-68292702D01*
X31300000Y-67479605D01*
X30486903Y-68292702D01*
X28160000Y-68292702D01*
X28160000Y-67370512D01*
X29859783Y-67370512D01*
X29901213Y-67650130D01*
X29996397Y-67916292D01*
X30063329Y-68041514D01*
X30307298Y-68113097D01*
X31120395Y-67300000D01*
X31479605Y-67300000D01*
X32292702Y-68113097D01*
X32536671Y-68041514D01*
X32657571Y-67786004D01*
X32726300Y-67511816D01*
X32740217Y-67229488D01*
X32698787Y-66949870D01*
X32603603Y-66683708D01*
X32536671Y-66558486D01*
X32292702Y-66486903D01*
X31479605Y-67300000D01*
X31120395Y-67300000D01*
X30307298Y-66486903D01*
X30063329Y-66558486D01*
X29942429Y-66813996D01*
X29873700Y-67088184D01*
X29859783Y-67370512D01*
X28160000Y-67370512D01*
X28160000Y-66307298D01*
X30486903Y-66307298D01*
X31300000Y-67120395D01*
X32113097Y-66307298D01*
X32041514Y-66063329D01*
X31786004Y-65942429D01*
X31511816Y-65873700D01*
X31229488Y-65859783D01*
X30949870Y-65901213D01*
X30683708Y-65996397D01*
X30558486Y-66063329D01*
X30486903Y-66307298D01*
X28160000Y-66307298D01*
X28160000Y-62658665D01*
X30365000Y-62658665D01*
X30365000Y-62941335D01*
X30420147Y-63218574D01*
X30528320Y-63479727D01*
X30685363Y-63714759D01*
X30885241Y-63914637D01*
X31120273Y-64071680D01*
X31381426Y-64179853D01*
X31658665Y-64235000D01*
X31941335Y-64235000D01*
X32218574Y-64179853D01*
X32479727Y-64071680D01*
X32714759Y-63914637D01*
X32914637Y-63714759D01*
X33071680Y-63479727D01*
X33080404Y-63458665D01*
X33365000Y-63458665D01*
X33365000Y-63741335D01*
X33420147Y-64018574D01*
X33528320Y-64279727D01*
X33685363Y-64514759D01*
X33885241Y-64714637D01*
X34120273Y-64871680D01*
X34381426Y-64979853D01*
X34658665Y-65035000D01*
X34941335Y-65035000D01*
X35218574Y-64979853D01*
X35479727Y-64871680D01*
X35714759Y-64714637D01*
X35914637Y-64514759D01*
X35934521Y-64485000D01*
X39086531Y-64485000D01*
X39130000Y-64489281D01*
X39173469Y-64485000D01*
X39173477Y-64485000D01*
X39303490Y-64472195D01*
X39470313Y-64421589D01*
X39624059Y-64339411D01*
X39758817Y-64228817D01*
X39786534Y-64195044D01*
X41655050Y-62326529D01*
X41688817Y-62298817D01*
X41753381Y-62220147D01*
X41799410Y-62164060D01*
X41799411Y-62164059D01*
X41881589Y-62010313D01*
X41932195Y-61843490D01*
X41945000Y-61713477D01*
X41945000Y-61713467D01*
X41949281Y-61670001D01*
X41945000Y-61626535D01*
X41945000Y-61500077D01*
X42079607Y-61389608D01*
X42258932Y-61171101D01*
X42330000Y-61038142D01*
X42401068Y-61171100D01*
X42580392Y-61389607D01*
X42798899Y-61568932D01*
X43048192Y-61702182D01*
X43318691Y-61784236D01*
X43600000Y-61811943D01*
X43881308Y-61784236D01*
X44151807Y-61702182D01*
X44401100Y-61568932D01*
X44619607Y-61389608D01*
X44798932Y-61171101D01*
X44932182Y-60921808D01*
X45014236Y-60651309D01*
X45035000Y-60440492D01*
X45035000Y-59499509D01*
X45014236Y-59288691D01*
X44932182Y-59018192D01*
X44798932Y-58768899D01*
X44619608Y-58550392D01*
X44401101Y-58371068D01*
X44151808Y-58237818D01*
X43881309Y-58155764D01*
X43600000Y-58128057D01*
X43318692Y-58155764D01*
X43048193Y-58237818D01*
X42798900Y-58371068D01*
X42580393Y-58550392D01*
X42401068Y-58768899D01*
X42330000Y-58901858D01*
X42258932Y-58768899D01*
X42079608Y-58550392D01*
X41861101Y-58371068D01*
X41611808Y-58237818D01*
X41341309Y-58155764D01*
X41060000Y-58128057D01*
X40778692Y-58155764D01*
X40508193Y-58237818D01*
X40258900Y-58371068D01*
X40040393Y-58550392D01*
X39861068Y-58768899D01*
X39792735Y-58896741D01*
X39642601Y-58667161D01*
X39444895Y-58465500D01*
X39211646Y-58306285D01*
X38951818Y-58195633D01*
X38869039Y-58178096D01*
X38647000Y-58300085D01*
X38647000Y-59843000D01*
X38667000Y-59843000D01*
X38667000Y-60097000D01*
X38647000Y-60097000D01*
X38647000Y-61639915D01*
X38869039Y-61761904D01*
X38951818Y-61744367D01*
X39211646Y-61633715D01*
X39444895Y-61474500D01*
X39642601Y-61272839D01*
X39792735Y-61043258D01*
X39861068Y-61171100D01*
X40040392Y-61389607D01*
X40066988Y-61411434D01*
X38763422Y-62715000D01*
X35934521Y-62715000D01*
X35914637Y-62685241D01*
X35714759Y-62485363D01*
X35479727Y-62328320D01*
X35218574Y-62220147D01*
X34941335Y-62165000D01*
X34658665Y-62165000D01*
X34381426Y-62220147D01*
X34120273Y-62328320D01*
X33885241Y-62485363D01*
X33685363Y-62685241D01*
X33528320Y-62920273D01*
X33420147Y-63181426D01*
X33365000Y-63458665D01*
X33080404Y-63458665D01*
X33179853Y-63218574D01*
X33235000Y-62941335D01*
X33235000Y-62658665D01*
X33179853Y-62381426D01*
X33071680Y-62120273D01*
X32914637Y-61885241D01*
X32714759Y-61685363D01*
X32479727Y-61528320D01*
X32218574Y-61420147D01*
X31941335Y-61365000D01*
X31658665Y-61365000D01*
X31381426Y-61420147D01*
X31120273Y-61528320D01*
X30885241Y-61685363D01*
X30685363Y-61885241D01*
X30528320Y-62120273D01*
X30420147Y-62381426D01*
X30365000Y-62658665D01*
X28160000Y-62658665D01*
X28160000Y-59499508D01*
X34545000Y-59499508D01*
X34545000Y-60440491D01*
X34565764Y-60651308D01*
X34647818Y-60921807D01*
X34781068Y-61171100D01*
X34960392Y-61389607D01*
X35178899Y-61568932D01*
X35428192Y-61702182D01*
X35698691Y-61784236D01*
X35980000Y-61811943D01*
X36261308Y-61784236D01*
X36531807Y-61702182D01*
X36781100Y-61568932D01*
X36999607Y-61389608D01*
X37178932Y-61171101D01*
X37247265Y-61043259D01*
X37397399Y-61272839D01*
X37595105Y-61474500D01*
X37828354Y-61633715D01*
X38088182Y-61744367D01*
X38170961Y-61761904D01*
X38393000Y-61639915D01*
X38393000Y-60097000D01*
X38373000Y-60097000D01*
X38373000Y-59843000D01*
X38393000Y-59843000D01*
X38393000Y-58300085D01*
X38170961Y-58178096D01*
X38088182Y-58195633D01*
X37828354Y-58306285D01*
X37595105Y-58465500D01*
X37397399Y-58667161D01*
X37247265Y-58896741D01*
X37178932Y-58768899D01*
X36999608Y-58550392D01*
X36781101Y-58371068D01*
X36531808Y-58237818D01*
X36261309Y-58155764D01*
X35980000Y-58128057D01*
X35698692Y-58155764D01*
X35428193Y-58237818D01*
X35178900Y-58371068D01*
X34960393Y-58550392D01*
X34781068Y-58768899D01*
X34647818Y-59018192D01*
X34565764Y-59288691D01*
X34545000Y-59499508D01*
X28160000Y-59499508D01*
X28160000Y-58792702D01*
X30986903Y-58792702D01*
X31058486Y-59036671D01*
X31313996Y-59157571D01*
X31588184Y-59226300D01*
X31870512Y-59240217D01*
X32150130Y-59198787D01*
X32416292Y-59103603D01*
X32541514Y-59036671D01*
X32613097Y-58792702D01*
X31800000Y-57979605D01*
X30986903Y-58792702D01*
X28160000Y-58792702D01*
X28160000Y-57870512D01*
X30359783Y-57870512D01*
X30401213Y-58150130D01*
X30496397Y-58416292D01*
X30563329Y-58541514D01*
X30807298Y-58613097D01*
X31620395Y-57800000D01*
X31979605Y-57800000D01*
X32792702Y-58613097D01*
X33036671Y-58541514D01*
X33157571Y-58286004D01*
X33226300Y-58011816D01*
X33240217Y-57729488D01*
X33198787Y-57449870D01*
X33103603Y-57183708D01*
X33036671Y-57058486D01*
X32792702Y-56986903D01*
X31979605Y-57800000D01*
X31620395Y-57800000D01*
X30807298Y-56986903D01*
X30563329Y-57058486D01*
X30442429Y-57313996D01*
X30373700Y-57588184D01*
X30359783Y-57870512D01*
X28160000Y-57870512D01*
X28160000Y-56807298D01*
X30986903Y-56807298D01*
X31800000Y-57620395D01*
X32613097Y-56807298D01*
X32541514Y-56563329D01*
X32286004Y-56442429D01*
X32011816Y-56373700D01*
X31729488Y-56359783D01*
X31449870Y-56401213D01*
X31183708Y-56496397D01*
X31058486Y-56563329D01*
X30986903Y-56807298D01*
X28160000Y-56807298D01*
X28160000Y-53458665D01*
X30365000Y-53458665D01*
X30365000Y-53741335D01*
X30420147Y-54018574D01*
X30528320Y-54279727D01*
X30685363Y-54514759D01*
X30885241Y-54714637D01*
X31120273Y-54871680D01*
X31381426Y-54979853D01*
X31658665Y-55035000D01*
X31941335Y-55035000D01*
X32218574Y-54979853D01*
X32479727Y-54871680D01*
X32714759Y-54714637D01*
X32914637Y-54514759D01*
X33071680Y-54279727D01*
X33179853Y-54018574D01*
X33235000Y-53741335D01*
X33235000Y-53458665D01*
X33179853Y-53181426D01*
X33071680Y-52920273D01*
X32914637Y-52685241D01*
X32714759Y-52485363D01*
X32479727Y-52328320D01*
X32218574Y-52220147D01*
X31941335Y-52165000D01*
X31658665Y-52165000D01*
X31381426Y-52220147D01*
X31120273Y-52328320D01*
X30885241Y-52485363D01*
X30685363Y-52685241D01*
X30528320Y-52920273D01*
X30420147Y-53181426D01*
X30365000Y-53458665D01*
X28160000Y-53458665D01*
X28160000Y-49592702D01*
X30986903Y-49592702D01*
X31058486Y-49836671D01*
X31313996Y-49957571D01*
X31588184Y-50026300D01*
X31870512Y-50040217D01*
X32150130Y-49998787D01*
X32416292Y-49903603D01*
X32541514Y-49836671D01*
X32613097Y-49592702D01*
X31800000Y-48779605D01*
X30986903Y-49592702D01*
X28160000Y-49592702D01*
X28160000Y-48670512D01*
X30359783Y-48670512D01*
X30401213Y-48950130D01*
X30496397Y-49216292D01*
X30563329Y-49341514D01*
X30807298Y-49413097D01*
X31620395Y-48600000D01*
X30807298Y-47786903D01*
X30563329Y-47858486D01*
X30442429Y-48113996D01*
X30373700Y-48388184D01*
X30359783Y-48670512D01*
X28160000Y-48670512D01*
X28160000Y-47607298D01*
X30986903Y-47607298D01*
X31800000Y-48420395D01*
X32613097Y-47607298D01*
X32541514Y-47363329D01*
X32286004Y-47242429D01*
X32011816Y-47173700D01*
X31729488Y-47159783D01*
X31449870Y-47201213D01*
X31183708Y-47296397D01*
X31058486Y-47363329D01*
X30986903Y-47607298D01*
X28160000Y-47607298D01*
X28160000Y-45458665D01*
X30365000Y-45458665D01*
X30365000Y-45741335D01*
X30420147Y-46018574D01*
X30528320Y-46279727D01*
X30685363Y-46514759D01*
X30885241Y-46714637D01*
X31120273Y-46871680D01*
X31381426Y-46979853D01*
X31658665Y-47035000D01*
X31941335Y-47035000D01*
X32218574Y-46979853D01*
X32479727Y-46871680D01*
X32714759Y-46714637D01*
X32914637Y-46514759D01*
X33015001Y-46364553D01*
X33015002Y-47852128D01*
X32792702Y-47786903D01*
X31979605Y-48600000D01*
X32792702Y-49413097D01*
X33036671Y-49341514D01*
X33157571Y-49086004D01*
X33226300Y-48811816D01*
X33232703Y-48681928D01*
X33243469Y-48695047D01*
X33243472Y-48695050D01*
X33270985Y-48728575D01*
X33265000Y-48758665D01*
X33265000Y-49041335D01*
X33320147Y-49318574D01*
X33428320Y-49579727D01*
X33585363Y-49814759D01*
X33785241Y-50014637D01*
X34020273Y-50171680D01*
X34281426Y-50279853D01*
X34558665Y-50335000D01*
X34841335Y-50335000D01*
X35118574Y-50279853D01*
X35379727Y-50171680D01*
X35614759Y-50014637D01*
X35814637Y-49814759D01*
X35971680Y-49579727D01*
X36079853Y-49318574D01*
X36135000Y-49041335D01*
X36135000Y-48758665D01*
X36079853Y-48481426D01*
X35971680Y-48220273D01*
X35814637Y-47985241D01*
X35614759Y-47785363D01*
X35379727Y-47628320D01*
X35118574Y-47520147D01*
X34841335Y-47465000D01*
X34785001Y-47465000D01*
X34785000Y-46675891D01*
X34960392Y-46889607D01*
X35178899Y-47068932D01*
X35428192Y-47202182D01*
X35698691Y-47284236D01*
X35980000Y-47311943D01*
X36261308Y-47284236D01*
X36531807Y-47202182D01*
X36781100Y-47068932D01*
X36999607Y-46889608D01*
X37178932Y-46671101D01*
X37250000Y-46538142D01*
X37321068Y-46671100D01*
X37500392Y-46889607D01*
X37718899Y-47068932D01*
X37968192Y-47202182D01*
X38238691Y-47284236D01*
X38520000Y-47311943D01*
X38801308Y-47284236D01*
X39071807Y-47202182D01*
X39321100Y-47068932D01*
X39539607Y-46889608D01*
X39718932Y-46671101D01*
X39790000Y-46538142D01*
X39861068Y-46671100D01*
X40040392Y-46889607D01*
X40258899Y-47068932D01*
X40508192Y-47202182D01*
X40778691Y-47284236D01*
X41060000Y-47311943D01*
X41341308Y-47284236D01*
X41611807Y-47202182D01*
X41861100Y-47068932D01*
X42079607Y-46889608D01*
X42258932Y-46671101D01*
X42327265Y-46543259D01*
X42477399Y-46772839D01*
X42675105Y-46974500D01*
X42908354Y-47133715D01*
X43168182Y-47244367D01*
X43250961Y-47261904D01*
X43473000Y-47139915D01*
X43473000Y-45597000D01*
X43727000Y-45597000D01*
X43727000Y-47139915D01*
X43949039Y-47261904D01*
X44031818Y-47244367D01*
X44291646Y-47133715D01*
X44524895Y-46974500D01*
X44722601Y-46772839D01*
X44877166Y-46536483D01*
X44982650Y-46274514D01*
X45035000Y-45997000D01*
X45035000Y-45597000D01*
X43727000Y-45597000D01*
X43473000Y-45597000D01*
X43453000Y-45597000D01*
X43453000Y-45343000D01*
X43473000Y-45343000D01*
X43473000Y-43800085D01*
X43727000Y-43800085D01*
X43727000Y-45343000D01*
X45035000Y-45343000D01*
X45035000Y-44943000D01*
X44982650Y-44665486D01*
X44877166Y-44403517D01*
X44722601Y-44167161D01*
X44524895Y-43965500D01*
X44291646Y-43806285D01*
X44031818Y-43695633D01*
X43949039Y-43678096D01*
X43727000Y-43800085D01*
X43473000Y-43800085D01*
X43250961Y-43678096D01*
X43168182Y-43695633D01*
X42908354Y-43806285D01*
X42675105Y-43965500D01*
X42477399Y-44167161D01*
X42327265Y-44396741D01*
X42258932Y-44268899D01*
X42079608Y-44050392D01*
X41861101Y-43871068D01*
X41611808Y-43737818D01*
X41341309Y-43655764D01*
X41060000Y-43628057D01*
X40778692Y-43655764D01*
X40508193Y-43737818D01*
X40258900Y-43871068D01*
X40040393Y-44050392D01*
X39861068Y-44268899D01*
X39790000Y-44401858D01*
X39718932Y-44268899D01*
X39539608Y-44050392D01*
X39405000Y-43939922D01*
X39405000Y-42456578D01*
X41060000Y-40801579D01*
X42003470Y-41745049D01*
X42031183Y-41778817D01*
X42064951Y-41806530D01*
X42064953Y-41806532D01*
X42130979Y-41860718D01*
X42165941Y-41889411D01*
X42319687Y-41971589D01*
X42486510Y-42022195D01*
X42616523Y-42035000D01*
X42616531Y-42035000D01*
X42660000Y-42039281D01*
X42703469Y-42035000D01*
X44783422Y-42035000D01*
X45865001Y-43116580D01*
X45865001Y-47875605D01*
X45774759Y-47785363D01*
X45539727Y-47628320D01*
X45278574Y-47520147D01*
X45001335Y-47465000D01*
X44718665Y-47465000D01*
X44441426Y-47520147D01*
X44180273Y-47628320D01*
X43945241Y-47785363D01*
X43745363Y-47985241D01*
X43725479Y-48015000D01*
X42853469Y-48015000D01*
X42810000Y-48010719D01*
X42766531Y-48015000D01*
X42766523Y-48015000D01*
X42636510Y-48027805D01*
X42469687Y-48078411D01*
X42347956Y-48143477D01*
X42315941Y-48160589D01*
X42214953Y-48243468D01*
X42214951Y-48243470D01*
X42181183Y-48271183D01*
X42153470Y-48304951D01*
X40464951Y-49993471D01*
X40431184Y-50021183D01*
X40403471Y-50054951D01*
X40403468Y-50054954D01*
X40320590Y-50155941D01*
X40238412Y-50309687D01*
X40187805Y-50476510D01*
X40170719Y-50650000D01*
X40175001Y-50693479D01*
X40175001Y-50819922D01*
X40040393Y-50930392D01*
X39861068Y-51148899D01*
X39790000Y-51281858D01*
X39718932Y-51148899D01*
X39539608Y-50930392D01*
X39321101Y-50751068D01*
X39071808Y-50617818D01*
X38801309Y-50535764D01*
X38520000Y-50508057D01*
X38238692Y-50535764D01*
X37968193Y-50617818D01*
X37718900Y-50751068D01*
X37500393Y-50930392D01*
X37321068Y-51148899D01*
X37250000Y-51281858D01*
X37178932Y-51148899D01*
X36999608Y-50930392D01*
X36781101Y-50751068D01*
X36531808Y-50617818D01*
X36261309Y-50535764D01*
X35980000Y-50508057D01*
X35698692Y-50535764D01*
X35428193Y-50617818D01*
X35178900Y-50751068D01*
X34960393Y-50930392D01*
X34781068Y-51148899D01*
X34647818Y-51398192D01*
X34565764Y-51668691D01*
X34545000Y-51879508D01*
X34545000Y-52820491D01*
X34565764Y-53031308D01*
X34647818Y-53301807D01*
X34781068Y-53551100D01*
X34960392Y-53769607D01*
X35178899Y-53948932D01*
X35428192Y-54082182D01*
X35698691Y-54164236D01*
X35980000Y-54191943D01*
X36261308Y-54164236D01*
X36531807Y-54082182D01*
X36781100Y-53948932D01*
X36999607Y-53769608D01*
X37178932Y-53551101D01*
X37250000Y-53418142D01*
X37321068Y-53551100D01*
X37500392Y-53769607D01*
X37718899Y-53948932D01*
X37968192Y-54082182D01*
X38238691Y-54164236D01*
X38520000Y-54191943D01*
X38801308Y-54164236D01*
X39071807Y-54082182D01*
X39321100Y-53948932D01*
X39539607Y-53769608D01*
X39718932Y-53551101D01*
X39790000Y-53418142D01*
X39861068Y-53551100D01*
X40040392Y-53769607D01*
X40258899Y-53948932D01*
X40508192Y-54082182D01*
X40778691Y-54164236D01*
X41060000Y-54191943D01*
X41341308Y-54164236D01*
X41611807Y-54082182D01*
X41861100Y-53948932D01*
X42079607Y-53769608D01*
X42172419Y-53656517D01*
X42174188Y-53674482D01*
X42210498Y-53794180D01*
X42269463Y-53904494D01*
X42348815Y-54001185D01*
X42445506Y-54080537D01*
X42555820Y-54139502D01*
X42675518Y-54175812D01*
X42800000Y-54188072D01*
X44400000Y-54188072D01*
X44524482Y-54175812D01*
X44644180Y-54139502D01*
X44754494Y-54080537D01*
X44851185Y-54001185D01*
X44930537Y-53904494D01*
X44989502Y-53794180D01*
X45025812Y-53674482D01*
X45038072Y-53550000D01*
X45038072Y-51150000D01*
X45025812Y-51025518D01*
X44989502Y-50905820D01*
X44930537Y-50795506D01*
X44851185Y-50698815D01*
X44754494Y-50619463D01*
X44644180Y-50560498D01*
X44524482Y-50524188D01*
X44400000Y-50511928D01*
X42800000Y-50511928D01*
X42675518Y-50524188D01*
X42555820Y-50560498D01*
X42445506Y-50619463D01*
X42348815Y-50698815D01*
X42269463Y-50795506D01*
X42210498Y-50905820D01*
X42174188Y-51025518D01*
X42172419Y-51043482D01*
X42079608Y-50930392D01*
X42053013Y-50908566D01*
X43176579Y-49785000D01*
X43725479Y-49785000D01*
X43745363Y-49814759D01*
X43945241Y-50014637D01*
X44180273Y-50171680D01*
X44441426Y-50279853D01*
X44718665Y-50335000D01*
X45001335Y-50335000D01*
X45278574Y-50279853D01*
X45539727Y-50171680D01*
X45774759Y-50014637D01*
X45865000Y-49924396D01*
X45865000Y-56085161D01*
X45860719Y-56128630D01*
X45865000Y-56172099D01*
X45865000Y-56172106D01*
X45877805Y-56302119D01*
X45928411Y-56468942D01*
X46010589Y-56622688D01*
X46121183Y-56757447D01*
X46154956Y-56785164D01*
X48175198Y-58805406D01*
X48135363Y-58845241D01*
X47978320Y-59080273D01*
X47870147Y-59341426D01*
X47815000Y-59618665D01*
X47815000Y-59901335D01*
X47870147Y-60178574D01*
X47978320Y-60439727D01*
X48135363Y-60674759D01*
X48335241Y-60874637D01*
X48365000Y-60894521D01*
X48365001Y-64056521D01*
X48360719Y-64100000D01*
X48377805Y-64273490D01*
X48428412Y-64440313D01*
X48510590Y-64594059D01*
X48593468Y-64695046D01*
X48593471Y-64695049D01*
X48621184Y-64728817D01*
X48654951Y-64756530D01*
X49893737Y-65995315D01*
X49741335Y-65965000D01*
X49458665Y-65965000D01*
X49181426Y-66020147D01*
X48920273Y-66128320D01*
X48685241Y-66285363D01*
X48485363Y-66485241D01*
X48465479Y-66515000D01*
X48143465Y-66515000D01*
X48099999Y-66510719D01*
X48056533Y-66515000D01*
X48056523Y-66515000D01*
X47926510Y-66527805D01*
X47759687Y-66578411D01*
X47605941Y-66660589D01*
X47577771Y-66683708D01*
X47504953Y-66743468D01*
X47504951Y-66743470D01*
X47471183Y-66771183D01*
X47443470Y-66804951D01*
X46740480Y-67507941D01*
X46739411Y-67505941D01*
X46628817Y-67371183D01*
X46595050Y-67343471D01*
X45845000Y-66593422D01*
X45845000Y-64734521D01*
X45874759Y-64714637D01*
X46074637Y-64514759D01*
X46231680Y-64279727D01*
X46339853Y-64018574D01*
X46395000Y-63741335D01*
X46395000Y-63458665D01*
X46339853Y-63181426D01*
X46231680Y-62920273D01*
X46074637Y-62685241D01*
X45874759Y-62485363D01*
X45639727Y-62328320D01*
X45378574Y-62220147D01*
X45101335Y-62165000D01*
X44818665Y-62165000D01*
X44541426Y-62220147D01*
X44280273Y-62328320D01*
X44045241Y-62485363D01*
X43845363Y-62685241D01*
X43688320Y-62920273D01*
X43580147Y-63181426D01*
X43525000Y-63458665D01*
X43525000Y-63741335D01*
X43580147Y-64018574D01*
X43688320Y-64279727D01*
X43845363Y-64514759D01*
X44045241Y-64714637D01*
X44075000Y-64734522D01*
X44075001Y-66916521D01*
X44070719Y-66960000D01*
X44087805Y-67133490D01*
X44138412Y-67300313D01*
X44220590Y-67454059D01*
X44303468Y-67555046D01*
X44303471Y-67555049D01*
X44331184Y-67588817D01*
X44364951Y-67616529D01*
X45115000Y-68366579D01*
X45115001Y-69361928D01*
X45047500Y-69361928D01*
X44923018Y-69374188D01*
X44803320Y-69410498D01*
X44693006Y-69469463D01*
X44596315Y-69548815D01*
X44516963Y-69645506D01*
X44472095Y-69729446D01*
X44346235Y-69626155D01*
X44070449Y-69478745D01*
X43771204Y-69387970D01*
X43460000Y-69357319D01*
X43148797Y-69387970D01*
X42849552Y-69478745D01*
X42573766Y-69626155D01*
X42332037Y-69824537D01*
X42190000Y-69997609D01*
X42047963Y-69824537D01*
X41806235Y-69626155D01*
X41530449Y-69478745D01*
X41231204Y-69387970D01*
X40920000Y-69357319D01*
X40608797Y-69387970D01*
X40309552Y-69478745D01*
X40033766Y-69626155D01*
X39792037Y-69824537D01*
X39593655Y-70066265D01*
X39446245Y-70342051D01*
X39355470Y-70641296D01*
X39332500Y-70874514D01*
X39332500Y-71125485D01*
X39355470Y-71358703D01*
X39446245Y-71657948D01*
X39593655Y-71933734D01*
X39792037Y-72175463D01*
X40033765Y-72373845D01*
X40309551Y-72521255D01*
X40608796Y-72612030D01*
X40920000Y-72642681D01*
X41231203Y-72612030D01*
X41530448Y-72521255D01*
X41806234Y-72373845D01*
X42047963Y-72175463D01*
X42075000Y-72142518D01*
X42075000Y-72779868D01*
X41989868Y-72865000D01*
X37970132Y-72865000D01*
X37435000Y-72329869D01*
X37435000Y-71684284D01*
X37571680Y-71479727D01*
X37679853Y-71218574D01*
X37735000Y-70941335D01*
X37735000Y-70658665D01*
X37679853Y-70381426D01*
X37571680Y-70120273D01*
X37435000Y-69915716D01*
X37435000Y-68184284D01*
X37571680Y-67979727D01*
X37679853Y-67718574D01*
X37735000Y-67441335D01*
X37735000Y-67258665D01*
X38005000Y-67258665D01*
X38005000Y-67541335D01*
X38060147Y-67818574D01*
X38168320Y-68079727D01*
X38325363Y-68314759D01*
X38525241Y-68514637D01*
X38760273Y-68671680D01*
X39021426Y-68779853D01*
X39298665Y-68835000D01*
X39581335Y-68835000D01*
X39858574Y-68779853D01*
X40119727Y-68671680D01*
X40354759Y-68514637D01*
X40554637Y-68314759D01*
X40711680Y-68079727D01*
X40819853Y-67818574D01*
X40875000Y-67541335D01*
X40875000Y-67258665D01*
X40819853Y-66981426D01*
X40711680Y-66720273D01*
X40554637Y-66485241D01*
X40354759Y-66285363D01*
X40119727Y-66128320D01*
X39858574Y-66020147D01*
X39581335Y-65965000D01*
X39298665Y-65965000D01*
X39021426Y-66020147D01*
X38760273Y-66128320D01*
X38525241Y-66285363D01*
X38325363Y-66485241D01*
X38168320Y-66720273D01*
X38060147Y-66981426D01*
X38005000Y-67258665D01*
X37735000Y-67258665D01*
X37735000Y-67158665D01*
X37679853Y-66881426D01*
X37571680Y-66620273D01*
X37414637Y-66385241D01*
X37214759Y-66185363D01*
X36979727Y-66028320D01*
X36718574Y-65920147D01*
X36441335Y-65865000D01*
X36158665Y-65865000D01*
X35881426Y-65920147D01*
X35620273Y-66028320D01*
X35385241Y-66185363D01*
X35185363Y-66385241D01*
X35028320Y-66620273D01*
X34920147Y-66881426D01*
X34865000Y-67158665D01*
X34865000Y-67441335D01*
X34920147Y-67718574D01*
X35028320Y-67979727D01*
X35165001Y-68184285D01*
X35165000Y-69915716D01*
X35028320Y-70120273D01*
X34920147Y-70381426D01*
X34865000Y-70658665D01*
X34865000Y-70941335D01*
X34920147Y-71218574D01*
X35028320Y-71479727D01*
X35165001Y-71684284D01*
X35165000Y-72744248D01*
X35159509Y-72800000D01*
X35165000Y-72855751D01*
X35181423Y-73022498D01*
X35246324Y-73236446D01*
X35351716Y-73433623D01*
X35493551Y-73606449D01*
X35536865Y-73641996D01*
X36658008Y-74763140D01*
X36693551Y-74806449D01*
X36866377Y-74948284D01*
X37063553Y-75053676D01*
X37277501Y-75118577D01*
X37444248Y-75135000D01*
X37444257Y-75135000D01*
X37499999Y-75140490D01*
X37555741Y-75135000D01*
X42075001Y-75135000D01*
X42075001Y-75591961D01*
X42068300Y-75660000D01*
X42095040Y-75931507D01*
X42174236Y-76192580D01*
X42302844Y-76433188D01*
X42432548Y-76591233D01*
X42432551Y-76591236D01*
X42475920Y-76644081D01*
X42528764Y-76687449D01*
X43255387Y-77414072D01*
X43277832Y-77526912D01*
X43401082Y-77824463D01*
X43580013Y-78092252D01*
X43807748Y-78319987D01*
X44075537Y-78498918D01*
X44373088Y-78622168D01*
X44688967Y-78685000D01*
X45011033Y-78685000D01*
X45326912Y-78622168D01*
X45624463Y-78498918D01*
X45892252Y-78319987D01*
X46119987Y-78092252D01*
X46298918Y-77824463D01*
X46422168Y-77526912D01*
X46485000Y-77211033D01*
X46485000Y-76888967D01*
X46422168Y-76573088D01*
X46298918Y-76275537D01*
X46119987Y-76007748D01*
X45892252Y-75780013D01*
X45624463Y-75601082D01*
X45326912Y-75477832D01*
X45214072Y-75455387D01*
X44845000Y-75086315D01*
X44845000Y-72602145D01*
X44923018Y-72625812D01*
X45047500Y-72638072D01*
X46952500Y-72638072D01*
X47076982Y-72625812D01*
X47196680Y-72589502D01*
X47306994Y-72530537D01*
X47403685Y-72451185D01*
X47483037Y-72354494D01*
X47542002Y-72244180D01*
X47578312Y-72124482D01*
X47590572Y-72000000D01*
X47590572Y-70000000D01*
X47578312Y-69875518D01*
X47542002Y-69755820D01*
X47483037Y-69645506D01*
X47403685Y-69548815D01*
X47306994Y-69469463D01*
X47290781Y-69460797D01*
X48465919Y-68285659D01*
X48485363Y-68314759D01*
X48685241Y-68514637D01*
X48920273Y-68671680D01*
X49181426Y-68779853D01*
X49458665Y-68835000D01*
X49741335Y-68835000D01*
X50018574Y-68779853D01*
X50279727Y-68671680D01*
X50514759Y-68514637D01*
X50714637Y-68314759D01*
X50871680Y-68079727D01*
X50979853Y-67818574D01*
X51035000Y-67541335D01*
X51035000Y-67258665D01*
X51004685Y-67106264D01*
X52115000Y-68216579D01*
X52115001Y-69870299D01*
X52075518Y-69874188D01*
X51955820Y-69910498D01*
X51845506Y-69969463D01*
X51748815Y-70048815D01*
X51669463Y-70145506D01*
X51610498Y-70255820D01*
X51574188Y-70375518D01*
X51561928Y-70500000D01*
X51561928Y-72100000D01*
X51574188Y-72224482D01*
X51610498Y-72344180D01*
X51669463Y-72454494D01*
X51748815Y-72551185D01*
X51845506Y-72630537D01*
X51955820Y-72689502D01*
X52075518Y-72725812D01*
X52200000Y-72738072D01*
X53800000Y-72738072D01*
X53924482Y-72725812D01*
X54044180Y-72689502D01*
X54154494Y-72630537D01*
X54251185Y-72551185D01*
X54330537Y-72454494D01*
X54389502Y-72344180D01*
X54425812Y-72224482D01*
X54438072Y-72100000D01*
X54438072Y-70500000D01*
X54425812Y-70375518D01*
X54389502Y-70255820D01*
X54330537Y-70145506D01*
X54251185Y-70048815D01*
X54154494Y-69969463D01*
X54044180Y-69910498D01*
X53924482Y-69874188D01*
X53885000Y-69870299D01*
X53885000Y-67893469D01*
X53889281Y-67850000D01*
X53885000Y-67806531D01*
X53885000Y-67806523D01*
X53872195Y-67676510D01*
X53821589Y-67509687D01*
X53739411Y-67355941D01*
X53628817Y-67221183D01*
X53595050Y-67193471D01*
X50135000Y-63733422D01*
X50135000Y-63538665D01*
X51565000Y-63538665D01*
X51565000Y-63821335D01*
X51620147Y-64098574D01*
X51728320Y-64359727D01*
X51885363Y-64594759D01*
X52085241Y-64794637D01*
X52320273Y-64951680D01*
X52581426Y-65059853D01*
X52858665Y-65115000D01*
X53141335Y-65115000D01*
X53418574Y-65059853D01*
X53679727Y-64951680D01*
X53914759Y-64794637D01*
X54114637Y-64594759D01*
X54271680Y-64359727D01*
X54379853Y-64098574D01*
X54435000Y-63821335D01*
X54435000Y-63538665D01*
X54379853Y-63261426D01*
X54271680Y-63000273D01*
X54114637Y-62765241D01*
X53914759Y-62565363D01*
X53679727Y-62408320D01*
X53418574Y-62300147D01*
X53141335Y-62245000D01*
X52858665Y-62245000D01*
X52581426Y-62300147D01*
X52320273Y-62408320D01*
X52085241Y-62565363D01*
X51885363Y-62765241D01*
X51728320Y-63000273D01*
X51620147Y-63261426D01*
X51565000Y-63538665D01*
X50135000Y-63538665D01*
X50135000Y-60894521D01*
X50164759Y-60874637D01*
X50364637Y-60674759D01*
X50521680Y-60439727D01*
X50629853Y-60178574D01*
X50685000Y-59901335D01*
X50685000Y-59618665D01*
X50683011Y-59608665D01*
X51565000Y-59608665D01*
X51565000Y-59891335D01*
X51620147Y-60168574D01*
X51728320Y-60429727D01*
X51885363Y-60664759D01*
X52085241Y-60864637D01*
X52320273Y-61021680D01*
X52581426Y-61129853D01*
X52858665Y-61185000D01*
X53141335Y-61185000D01*
X53418574Y-61129853D01*
X53679727Y-61021680D01*
X53914759Y-60864637D01*
X54114637Y-60664759D01*
X54271680Y-60429727D01*
X54379853Y-60168574D01*
X54435000Y-59891335D01*
X54435000Y-59608665D01*
X54379853Y-59331426D01*
X54271680Y-59070273D01*
X54114637Y-58835241D01*
X53914759Y-58635363D01*
X53679727Y-58478320D01*
X53418574Y-58370147D01*
X53141335Y-58315000D01*
X52858665Y-58315000D01*
X52581426Y-58370147D01*
X52320273Y-58478320D01*
X52085241Y-58635363D01*
X51885363Y-58835241D01*
X51728320Y-59070273D01*
X51620147Y-59331426D01*
X51565000Y-59608665D01*
X50683011Y-59608665D01*
X50629853Y-59341426D01*
X50521680Y-59080273D01*
X50364637Y-58845241D01*
X50164759Y-58645363D01*
X50139250Y-58628319D01*
X50135000Y-58585161D01*
X50135000Y-58585153D01*
X50122195Y-58455140D01*
X50071589Y-58288317D01*
X49989411Y-58134571D01*
X49878817Y-57999813D01*
X49845049Y-57972100D01*
X47635000Y-55762052D01*
X47635000Y-49458665D01*
X47815000Y-49458665D01*
X47815000Y-49741335D01*
X47870147Y-50018574D01*
X47978320Y-50279727D01*
X48135363Y-50514759D01*
X48335241Y-50714637D01*
X48570273Y-50871680D01*
X48831426Y-50979853D01*
X49108665Y-51035000D01*
X49391335Y-51035000D01*
X49668574Y-50979853D01*
X49929727Y-50871680D01*
X50164759Y-50714637D01*
X50364637Y-50514759D01*
X50384521Y-50485000D01*
X51872160Y-50485000D01*
X51885363Y-50504759D01*
X52085241Y-50704637D01*
X52320273Y-50861680D01*
X52581426Y-50969853D01*
X52858665Y-51025000D01*
X53141335Y-51025000D01*
X53418574Y-50969853D01*
X53679727Y-50861680D01*
X53914759Y-50704637D01*
X54114637Y-50504759D01*
X54271680Y-50269727D01*
X54379853Y-50008574D01*
X54435000Y-49731335D01*
X54435000Y-49448665D01*
X54379853Y-49171426D01*
X54271680Y-48910273D01*
X54114637Y-48675241D01*
X53914759Y-48475363D01*
X53679727Y-48318320D01*
X53418574Y-48210147D01*
X53141335Y-48155000D01*
X52858665Y-48155000D01*
X52581426Y-48210147D01*
X52320273Y-48318320D01*
X52085241Y-48475363D01*
X51885363Y-48675241D01*
X51858797Y-48715000D01*
X50384521Y-48715000D01*
X50364637Y-48685241D01*
X50164759Y-48485363D01*
X49929727Y-48328320D01*
X49668574Y-48220147D01*
X49391335Y-48165000D01*
X49108665Y-48165000D01*
X48831426Y-48220147D01*
X48570273Y-48328320D01*
X48335241Y-48485363D01*
X48135363Y-48685241D01*
X47978320Y-48920273D01*
X47870147Y-49181426D01*
X47815000Y-49458665D01*
X47635000Y-49458665D01*
X47635000Y-46518665D01*
X47815000Y-46518665D01*
X47815000Y-46801335D01*
X47870147Y-47078574D01*
X47978320Y-47339727D01*
X48135363Y-47574759D01*
X48335241Y-47774637D01*
X48570273Y-47931680D01*
X48831426Y-48039853D01*
X49108665Y-48095000D01*
X49391335Y-48095000D01*
X49668574Y-48039853D01*
X49929727Y-47931680D01*
X50164759Y-47774637D01*
X50346694Y-47592702D01*
X52186903Y-47592702D01*
X52258486Y-47836671D01*
X52513996Y-47957571D01*
X52788184Y-48026300D01*
X53070512Y-48040217D01*
X53350130Y-47998787D01*
X53616292Y-47903603D01*
X53741514Y-47836671D01*
X53813097Y-47592702D01*
X53000000Y-46779605D01*
X52186903Y-47592702D01*
X50346694Y-47592702D01*
X50364637Y-47574759D01*
X50521680Y-47339727D01*
X50629853Y-47078574D01*
X50685000Y-46801335D01*
X50685000Y-46670512D01*
X51559783Y-46670512D01*
X51601213Y-46950130D01*
X51696397Y-47216292D01*
X51763329Y-47341514D01*
X52007298Y-47413097D01*
X52820395Y-46600000D01*
X53179605Y-46600000D01*
X53992702Y-47413097D01*
X54236671Y-47341514D01*
X54357571Y-47086004D01*
X54426300Y-46811816D01*
X54440217Y-46529488D01*
X54398787Y-46249870D01*
X54303603Y-45983708D01*
X54236671Y-45858486D01*
X53992702Y-45786903D01*
X53179605Y-46600000D01*
X52820395Y-46600000D01*
X52007298Y-45786903D01*
X51763329Y-45858486D01*
X51642429Y-46113996D01*
X51573700Y-46388184D01*
X51559783Y-46670512D01*
X50685000Y-46670512D01*
X50685000Y-46518665D01*
X50629853Y-46241426D01*
X50521680Y-45980273D01*
X50364637Y-45745241D01*
X50226694Y-45607298D01*
X52186903Y-45607298D01*
X53000000Y-46420395D01*
X53813097Y-45607298D01*
X53741514Y-45363329D01*
X53486004Y-45242429D01*
X53211816Y-45173700D01*
X52929488Y-45159783D01*
X52649870Y-45201213D01*
X52383708Y-45296397D01*
X52258486Y-45363329D01*
X52186903Y-45607298D01*
X50226694Y-45607298D01*
X50164759Y-45545363D01*
X49929727Y-45388320D01*
X49668574Y-45280147D01*
X49391335Y-45225000D01*
X49108665Y-45225000D01*
X48831426Y-45280147D01*
X48570273Y-45388320D01*
X48335241Y-45545363D01*
X48135363Y-45745241D01*
X47978320Y-45980273D01*
X47870147Y-46241426D01*
X47815000Y-46518665D01*
X47635000Y-46518665D01*
X47635000Y-42793469D01*
X47639281Y-42750000D01*
X47635000Y-42706531D01*
X47635000Y-42706523D01*
X47622195Y-42576510D01*
X47571589Y-42409687D01*
X47489411Y-42255941D01*
X47410417Y-42159687D01*
X47406532Y-42154953D01*
X47406530Y-42154951D01*
X47378817Y-42121183D01*
X47345049Y-42093470D01*
X45806534Y-40554956D01*
X45778817Y-40521183D01*
X45644059Y-40410589D01*
X45490313Y-40328411D01*
X45323490Y-40277805D01*
X45193477Y-40265000D01*
X45193469Y-40265000D01*
X45150000Y-40260719D01*
X45106531Y-40265000D01*
X43026579Y-40265000D01*
X42053012Y-39291434D01*
X42079607Y-39269608D01*
X42172419Y-39156517D01*
X42174188Y-39174482D01*
X42210498Y-39294180D01*
X42269463Y-39404494D01*
X42348815Y-39501185D01*
X42445506Y-39580537D01*
X42555820Y-39639502D01*
X42675518Y-39675812D01*
X42800000Y-39688072D01*
X44400000Y-39688072D01*
X44524482Y-39675812D01*
X44644180Y-39639502D01*
X44754494Y-39580537D01*
X44851185Y-39501185D01*
X44930537Y-39404494D01*
X44989502Y-39294180D01*
X45025812Y-39174482D01*
X45038072Y-39050000D01*
X45038072Y-36650000D01*
X45025812Y-36525518D01*
X44989502Y-36405820D01*
X44964297Y-36358665D01*
X47815000Y-36358665D01*
X47815000Y-36641335D01*
X47870147Y-36918574D01*
X47978320Y-37179727D01*
X48135363Y-37414759D01*
X48335241Y-37614637D01*
X48570273Y-37771680D01*
X48831426Y-37879853D01*
X49108665Y-37935000D01*
X49391335Y-37935000D01*
X49668574Y-37879853D01*
X49929727Y-37771680D01*
X50164759Y-37614637D01*
X50364637Y-37414759D01*
X50384521Y-37385000D01*
X51915604Y-37385000D01*
X52085241Y-37554637D01*
X52320273Y-37711680D01*
X52581426Y-37819853D01*
X52858665Y-37875000D01*
X53141335Y-37875000D01*
X53418574Y-37819853D01*
X53679727Y-37711680D01*
X53914759Y-37554637D01*
X54114637Y-37354759D01*
X54271680Y-37119727D01*
X54379853Y-36858574D01*
X54435000Y-36581335D01*
X54435000Y-36298665D01*
X54379853Y-36021426D01*
X54271680Y-35760273D01*
X54114637Y-35525241D01*
X53914759Y-35325363D01*
X53679727Y-35168320D01*
X53418574Y-35060147D01*
X53141335Y-35005000D01*
X52858665Y-35005000D01*
X52581426Y-35060147D01*
X52320273Y-35168320D01*
X52085241Y-35325363D01*
X51885363Y-35525241D01*
X51825388Y-35615000D01*
X50384521Y-35615000D01*
X50364637Y-35585241D01*
X50164759Y-35385363D01*
X49929727Y-35228320D01*
X49668574Y-35120147D01*
X49391335Y-35065000D01*
X49108665Y-35065000D01*
X48831426Y-35120147D01*
X48570273Y-35228320D01*
X48335241Y-35385363D01*
X48135363Y-35585241D01*
X47978320Y-35820273D01*
X47870147Y-36081426D01*
X47815000Y-36358665D01*
X44964297Y-36358665D01*
X44930537Y-36295506D01*
X44851185Y-36198815D01*
X44754494Y-36119463D01*
X44644180Y-36060498D01*
X44524482Y-36024188D01*
X44400000Y-36011928D01*
X42800000Y-36011928D01*
X42675518Y-36024188D01*
X42555820Y-36060498D01*
X42445506Y-36119463D01*
X42348815Y-36198815D01*
X42269463Y-36295506D01*
X42210498Y-36405820D01*
X42174188Y-36525518D01*
X42172419Y-36543482D01*
X42079608Y-36430392D01*
X41861101Y-36251068D01*
X41611808Y-36117818D01*
X41341309Y-36035764D01*
X41060000Y-36008057D01*
X40778692Y-36035764D01*
X40508193Y-36117818D01*
X40258900Y-36251068D01*
X40040393Y-36430392D01*
X39861068Y-36648899D01*
X39790000Y-36781858D01*
X39718932Y-36648899D01*
X39539608Y-36430392D01*
X39321101Y-36251068D01*
X39071808Y-36117818D01*
X38801309Y-36035764D01*
X38520000Y-36008057D01*
X38238692Y-36035764D01*
X37968193Y-36117818D01*
X37718900Y-36251068D01*
X37500393Y-36430392D01*
X37321068Y-36648899D01*
X37252735Y-36776741D01*
X37102601Y-36547161D01*
X36904895Y-36345500D01*
X36671646Y-36186285D01*
X36411818Y-36075633D01*
X36329039Y-36058096D01*
X36107000Y-36180085D01*
X36107000Y-37723000D01*
X36127000Y-37723000D01*
X36127000Y-37977000D01*
X36107000Y-37977000D01*
X36107000Y-39519915D01*
X36329039Y-39641904D01*
X36411818Y-39624367D01*
X36671646Y-39513715D01*
X36904895Y-39354500D01*
X37102601Y-39152839D01*
X37252735Y-38923258D01*
X37321068Y-39051100D01*
X37500392Y-39269607D01*
X37635000Y-39380078D01*
X37635000Y-40013421D01*
X36804951Y-40843471D01*
X36771184Y-40871183D01*
X36743471Y-40904951D01*
X36743468Y-40904954D01*
X36660590Y-41005941D01*
X36578412Y-41159687D01*
X36527805Y-41326510D01*
X36510719Y-41500000D01*
X36515001Y-41543478D01*
X36515000Y-42133421D01*
X36433422Y-42215000D01*
X35043469Y-42215000D01*
X35000000Y-42210719D01*
X34956531Y-42215000D01*
X34956523Y-42215000D01*
X34841306Y-42226348D01*
X34826509Y-42227805D01*
X34788254Y-42239410D01*
X34659687Y-42278411D01*
X34505941Y-42360589D01*
X34404953Y-42443468D01*
X34404951Y-42443470D01*
X34371183Y-42471183D01*
X34343470Y-42504951D01*
X33304950Y-43543472D01*
X33271183Y-43571184D01*
X33160589Y-43705942D01*
X33078411Y-43859688D01*
X33027805Y-44026511D01*
X33015000Y-44156524D01*
X33015000Y-44156531D01*
X33010719Y-44200000D01*
X33015000Y-44243469D01*
X33015000Y-44835446D01*
X32914637Y-44685241D01*
X32714759Y-44485363D01*
X32479727Y-44328320D01*
X32218574Y-44220147D01*
X31941335Y-44165000D01*
X31658665Y-44165000D01*
X31381426Y-44220147D01*
X31120273Y-44328320D01*
X30885241Y-44485363D01*
X30685363Y-44685241D01*
X30528320Y-44920273D01*
X30420147Y-45181426D01*
X30365000Y-45458665D01*
X28160000Y-45458665D01*
X28160000Y-40458665D01*
X30365000Y-40458665D01*
X30365000Y-40741335D01*
X30420147Y-41018574D01*
X30528320Y-41279727D01*
X30685363Y-41514759D01*
X30885241Y-41714637D01*
X31120273Y-41871680D01*
X31381426Y-41979853D01*
X31658665Y-42035000D01*
X31941335Y-42035000D01*
X32218574Y-41979853D01*
X32479727Y-41871680D01*
X32714759Y-41714637D01*
X32914637Y-41514759D01*
X33071680Y-41279727D01*
X33179853Y-41018574D01*
X33235000Y-40741335D01*
X33235000Y-40458665D01*
X33179853Y-40181426D01*
X33071680Y-39920273D01*
X32914637Y-39685241D01*
X32714759Y-39485363D01*
X32479727Y-39328320D01*
X32218574Y-39220147D01*
X31941335Y-39165000D01*
X31658665Y-39165000D01*
X31381426Y-39220147D01*
X31120273Y-39328320D01*
X30885241Y-39485363D01*
X30685363Y-39685241D01*
X30528320Y-39920273D01*
X30420147Y-40181426D01*
X30365000Y-40458665D01*
X28160000Y-40458665D01*
X28160000Y-37977000D01*
X34545000Y-37977000D01*
X34545000Y-38377000D01*
X34597350Y-38654514D01*
X34702834Y-38916483D01*
X34857399Y-39152839D01*
X35055105Y-39354500D01*
X35288354Y-39513715D01*
X35548182Y-39624367D01*
X35630961Y-39641904D01*
X35853000Y-39519915D01*
X35853000Y-37977000D01*
X34545000Y-37977000D01*
X28160000Y-37977000D01*
X28160000Y-37323000D01*
X34545000Y-37323000D01*
X34545000Y-37723000D01*
X35853000Y-37723000D01*
X35853000Y-36180085D01*
X35630961Y-36058096D01*
X35548182Y-36075633D01*
X35288354Y-36186285D01*
X35055105Y-36345500D01*
X34857399Y-36547161D01*
X34702834Y-36783517D01*
X34597350Y-37045486D01*
X34545000Y-37323000D01*
X28160000Y-37323000D01*
X28160000Y-34638979D01*
X30540626Y-34638979D01*
X30636995Y-34903891D01*
X30927463Y-35045280D01*
X31239933Y-35127285D01*
X31562397Y-35146753D01*
X31882463Y-35102938D01*
X32187832Y-34997523D01*
X32363005Y-34903891D01*
X32459374Y-34638979D01*
X31500000Y-33679605D01*
X30540626Y-34638979D01*
X28160000Y-34638979D01*
X28160000Y-33562397D01*
X29853247Y-33562397D01*
X29897062Y-33882463D01*
X30002477Y-34187832D01*
X30096109Y-34363005D01*
X30361021Y-34459374D01*
X31320395Y-33500000D01*
X31679605Y-33500000D01*
X32638979Y-34459374D01*
X32903891Y-34363005D01*
X33045280Y-34072537D01*
X33109163Y-33829117D01*
X33805000Y-33829117D01*
X33805000Y-34170883D01*
X33871675Y-34506081D01*
X34002463Y-34821831D01*
X34192337Y-35105998D01*
X34434002Y-35347663D01*
X34718169Y-35537537D01*
X35033919Y-35668325D01*
X35369117Y-35735000D01*
X35710883Y-35735000D01*
X36046081Y-35668325D01*
X36361831Y-35537537D01*
X36645998Y-35347663D01*
X36887663Y-35105998D01*
X36891670Y-35100000D01*
X43961928Y-35100000D01*
X43974188Y-35224482D01*
X44010498Y-35344180D01*
X44069463Y-35454494D01*
X44148815Y-35551185D01*
X44245506Y-35630537D01*
X44355820Y-35689502D01*
X44475518Y-35725812D01*
X44600000Y-35738072D01*
X45414250Y-35735000D01*
X45573000Y-35576250D01*
X45573000Y-34127000D01*
X45827000Y-34127000D01*
X45827000Y-35576250D01*
X45985750Y-35735000D01*
X46800000Y-35738072D01*
X46924482Y-35725812D01*
X47044180Y-35689502D01*
X47154494Y-35630537D01*
X47251185Y-35551185D01*
X47330537Y-35454494D01*
X47389502Y-35344180D01*
X47425812Y-35224482D01*
X47438072Y-35100000D01*
X47435000Y-34285750D01*
X47276250Y-34127000D01*
X45827000Y-34127000D01*
X45573000Y-34127000D01*
X44123750Y-34127000D01*
X43965000Y-34285750D01*
X43961928Y-35100000D01*
X36891670Y-35100000D01*
X37077537Y-34821831D01*
X37208325Y-34506081D01*
X37275000Y-34170883D01*
X37275000Y-33829117D01*
X37208325Y-33493919D01*
X37077537Y-33178169D01*
X36891671Y-32900000D01*
X43961928Y-32900000D01*
X43965000Y-33714250D01*
X44123750Y-33873000D01*
X45573000Y-33873000D01*
X45573000Y-32423750D01*
X45827000Y-32423750D01*
X45827000Y-33873000D01*
X47276250Y-33873000D01*
X47435000Y-33714250D01*
X47438072Y-32900000D01*
X47425812Y-32775518D01*
X47389502Y-32655820D01*
X47330537Y-32545506D01*
X47251185Y-32448815D01*
X47154494Y-32369463D01*
X47044180Y-32310498D01*
X46924482Y-32274188D01*
X46800000Y-32261928D01*
X45985750Y-32265000D01*
X45827000Y-32423750D01*
X45573000Y-32423750D01*
X45414250Y-32265000D01*
X44600000Y-32261928D01*
X44475518Y-32274188D01*
X44355820Y-32310498D01*
X44245506Y-32369463D01*
X44148815Y-32448815D01*
X44069463Y-32545506D01*
X44010498Y-32655820D01*
X43974188Y-32775518D01*
X43961928Y-32900000D01*
X36891671Y-32900000D01*
X36887663Y-32894002D01*
X36645998Y-32652337D01*
X36361831Y-32462463D01*
X36046081Y-32331675D01*
X35710883Y-32265000D01*
X35369117Y-32265000D01*
X35033919Y-32331675D01*
X34718169Y-32462463D01*
X34434002Y-32652337D01*
X34192337Y-32894002D01*
X34002463Y-33178169D01*
X33871675Y-33493919D01*
X33805000Y-33829117D01*
X33109163Y-33829117D01*
X33127285Y-33760067D01*
X33146753Y-33437603D01*
X33102938Y-33117537D01*
X32997523Y-32812168D01*
X32903891Y-32636995D01*
X32638979Y-32540626D01*
X31679605Y-33500000D01*
X31320395Y-33500000D01*
X30361021Y-32540626D01*
X30096109Y-32636995D01*
X29954720Y-32927463D01*
X29872715Y-33239933D01*
X29853247Y-33562397D01*
X28160000Y-33562397D01*
X28160000Y-32361021D01*
X30540626Y-32361021D01*
X31500000Y-33320395D01*
X32459374Y-32361021D01*
X32363005Y-32096109D01*
X32072537Y-31954720D01*
X31760067Y-31872715D01*
X31437603Y-31853247D01*
X31117537Y-31897062D01*
X30812168Y-32002477D01*
X30636995Y-32096109D01*
X30540626Y-32361021D01*
X28160000Y-32361021D01*
X28160000Y-28238474D01*
X31060000Y-28238474D01*
X31060000Y-28561526D01*
X31123025Y-28878370D01*
X31246651Y-29176831D01*
X31426129Y-29445439D01*
X31654561Y-29673871D01*
X31923169Y-29853349D01*
X32221630Y-29976975D01*
X32538474Y-30040000D01*
X32861526Y-30040000D01*
X33178370Y-29976975D01*
X33476831Y-29853349D01*
X33745439Y-29673871D01*
X33973871Y-29445439D01*
X34153349Y-29176831D01*
X34276975Y-28878370D01*
X34340000Y-28561526D01*
X34340000Y-28238474D01*
X34276975Y-27921630D01*
X34153349Y-27623169D01*
X33973871Y-27354561D01*
X33745439Y-27126129D01*
X33476831Y-26946651D01*
X33178370Y-26823025D01*
X32861526Y-26760000D01*
X32538474Y-26760000D01*
X32221630Y-26823025D01*
X31923169Y-26946651D01*
X31654561Y-27126129D01*
X31426129Y-27354561D01*
X31246651Y-27623169D01*
X31123025Y-27921630D01*
X31060000Y-28238474D01*
X28160000Y-28238474D01*
X28160000Y-26238967D01*
X37365000Y-26238967D01*
X37365000Y-26561033D01*
X37427832Y-26876912D01*
X37551082Y-27174463D01*
X37730013Y-27442252D01*
X37957748Y-27669987D01*
X38225537Y-27848918D01*
X38523088Y-27972168D01*
X38838967Y-28035000D01*
X39161033Y-28035000D01*
X39476912Y-27972168D01*
X39774463Y-27848918D01*
X40042252Y-27669987D01*
X40269987Y-27442252D01*
X40298218Y-27400000D01*
X42361928Y-27400000D01*
X42374188Y-27524482D01*
X42410498Y-27644180D01*
X42469463Y-27754494D01*
X42548815Y-27851185D01*
X42645506Y-27930537D01*
X42755820Y-27989502D01*
X42875518Y-28025812D01*
X43000000Y-28038072D01*
X43714250Y-28035000D01*
X43873000Y-27876250D01*
X43873000Y-26527000D01*
X44127000Y-26527000D01*
X44127000Y-27876250D01*
X44285750Y-28035000D01*
X45000000Y-28038072D01*
X45124482Y-28025812D01*
X45244180Y-27989502D01*
X45354494Y-27930537D01*
X45451185Y-27851185D01*
X45530537Y-27754494D01*
X45589502Y-27644180D01*
X45625812Y-27524482D01*
X45638072Y-27400000D01*
X45635000Y-26685750D01*
X45476250Y-26527000D01*
X44127000Y-26527000D01*
X43873000Y-26527000D01*
X42523750Y-26527000D01*
X42365000Y-26685750D01*
X42361928Y-27400000D01*
X40298218Y-27400000D01*
X40448918Y-27174463D01*
X40572168Y-26876912D01*
X40635000Y-26561033D01*
X40635000Y-26238967D01*
X40572168Y-25923088D01*
X40448918Y-25625537D01*
X40298219Y-25400000D01*
X42361928Y-25400000D01*
X42365000Y-26114250D01*
X42523750Y-26273000D01*
X43873000Y-26273000D01*
X43873000Y-24923750D01*
X44127000Y-24923750D01*
X44127000Y-26273000D01*
X45476250Y-26273000D01*
X45635000Y-26114250D01*
X45638072Y-25400000D01*
X45625812Y-25275518D01*
X45589502Y-25155820D01*
X45530537Y-25045506D01*
X45451185Y-24948815D01*
X45354494Y-24869463D01*
X45244180Y-24810498D01*
X45124482Y-24774188D01*
X45000000Y-24761928D01*
X44285750Y-24765000D01*
X44127000Y-24923750D01*
X43873000Y-24923750D01*
X43714250Y-24765000D01*
X43000000Y-24761928D01*
X42875518Y-24774188D01*
X42755820Y-24810498D01*
X42645506Y-24869463D01*
X42548815Y-24948815D01*
X42469463Y-25045506D01*
X42410498Y-25155820D01*
X42374188Y-25275518D01*
X42361928Y-25400000D01*
X40298219Y-25400000D01*
X40269987Y-25357748D01*
X40042252Y-25130013D01*
X39774463Y-24951082D01*
X39476912Y-24827832D01*
X39161033Y-24765000D01*
X38838967Y-24765000D01*
X38523088Y-24827832D01*
X38225537Y-24951082D01*
X37957748Y-25130013D01*
X37730013Y-25357748D01*
X37551082Y-25625537D01*
X37427832Y-25923088D01*
X37365000Y-26238967D01*
X28160000Y-26238967D01*
X28160000Y-22396824D01*
X28161633Y-22400766D01*
X28543024Y-22971558D01*
X29028442Y-23456976D01*
X29599234Y-23838367D01*
X30233463Y-24101073D01*
X30906758Y-24235000D01*
X31593242Y-24235000D01*
X32266537Y-24101073D01*
X32900766Y-23838367D01*
X33471558Y-23456976D01*
X33956976Y-22971558D01*
X34338367Y-22400766D01*
X34601073Y-21766537D01*
X34735000Y-21093242D01*
X34735000Y-20406758D01*
X34601073Y-19733463D01*
X34338367Y-19099234D01*
X33956976Y-18528442D01*
X33471558Y-18043024D01*
X32900766Y-17661633D01*
X32896824Y-17660000D01*
X36612190Y-17660000D01*
X36357748Y-17830013D01*
G37*
X36357748Y-17830013D02*
X36130013Y-18057748D01*
X35951082Y-18325537D01*
X35827832Y-18623088D01*
X35765000Y-18938967D01*
X35765000Y-19261033D01*
X35827832Y-19576912D01*
X35951082Y-19874463D01*
X36130013Y-20142252D01*
X36357748Y-20369987D01*
X36625537Y-20548918D01*
X36923088Y-20672168D01*
X37238967Y-20735000D01*
X37561033Y-20735000D01*
X37876912Y-20672168D01*
X38174463Y-20548918D01*
X38442252Y-20369987D01*
X38669987Y-20142252D01*
X38848918Y-19874463D01*
X38972168Y-19576912D01*
X39035000Y-19261033D01*
X39035000Y-18938967D01*
X38972168Y-18623088D01*
X38848918Y-18325537D01*
X38669987Y-18057748D01*
X38442252Y-17830013D01*
X38187810Y-17660000D01*
X44112190Y-17660000D01*
X43857748Y-17830013D01*
X43630013Y-18057748D01*
X43451082Y-18325537D01*
X43327832Y-18623088D01*
X43265000Y-18938967D01*
X43265000Y-19261033D01*
X43327832Y-19576912D01*
X43451082Y-19874463D01*
X43630013Y-20142252D01*
X43857748Y-20369987D01*
X44125537Y-20548918D01*
X44423088Y-20672168D01*
X44738967Y-20735000D01*
X45061033Y-20735000D01*
X45376912Y-20672168D01*
X45674463Y-20548918D01*
X45942252Y-20369987D01*
X46169987Y-20142252D01*
X46348918Y-19874463D01*
X46472168Y-19576912D01*
X46535000Y-19261033D01*
X46535000Y-18938967D01*
X46472168Y-18623088D01*
X46348918Y-18325537D01*
X46169987Y-18057748D01*
X45942252Y-17830013D01*
X45687810Y-17660000D01*
X50353176Y-17660000D01*
X50349234Y-17661633D01*
X49778442Y-18043024D01*
X49293024Y-18528442D01*
X48911633Y-19099234D01*
X48648927Y-19733463D01*
X48515000Y-20406758D01*
X48515000Y-21093242D01*
X48648927Y-21766537D01*
X48911633Y-22400766D01*
X49293024Y-22971558D01*
X49778442Y-23456976D01*
X50349234Y-23838367D01*
X50983463Y-24101073D01*
X51656758Y-24235000D01*
X52343242Y-24235000D01*
X53016537Y-24101073D01*
X53650766Y-23838367D01*
X54221558Y-23456976D01*
X54706976Y-22971558D01*
X55088367Y-22400766D01*
X55090000Y-22396824D01*
X55090001Y-75553179D01*
X55088367Y-75549234D01*
X54706976Y-74978442D01*
X54221558Y-74493024D01*
X53650766Y-74111633D01*
X53016537Y-73848927D01*
X52343242Y-73715000D01*
X51656758Y-73715000D01*
X50983463Y-73848927D01*
X50349234Y-74111633D01*
X49778442Y-74493024D01*
X49293024Y-74978442D01*
X48911633Y-75549234D01*
X48648927Y-76183463D01*
X48515000Y-76856758D01*
X48515000Y-77543242D01*
X48648927Y-78216537D01*
X48911633Y-78850766D01*
X49293024Y-79421558D01*
X49778442Y-79906976D01*
X50349234Y-80288367D01*
X50473887Y-80340000D01*
X32776113Y-80340000D01*
X32900766Y-80288367D01*
X33471558Y-79906976D01*
X33956976Y-79421558D01*
X34338367Y-78850766D01*
X34601073Y-78216537D01*
X34607263Y-78185413D01*
X37394192Y-78185413D01*
X37489956Y-78449814D01*
X37779571Y-78590704D01*
X38091108Y-78672384D01*
X38412595Y-78691718D01*
X38731675Y-78647961D01*
X39036088Y-78542795D01*
X39210044Y-78449814D01*
X39305808Y-78185413D01*
X38350000Y-77229605D01*
X37394192Y-78185413D01*
X34607263Y-78185413D01*
X34735000Y-77543242D01*
X34735000Y-77112595D01*
X36708282Y-77112595D01*
X36752039Y-77431675D01*
X36857205Y-77736088D01*
X36950186Y-77910044D01*
X37214587Y-78005808D01*
X38170395Y-77050000D01*
X38529605Y-77050000D01*
X39485413Y-78005808D01*
X39749814Y-77910044D01*
X39890704Y-77620429D01*
X39972384Y-77308892D01*
X39991718Y-76987405D01*
X39947961Y-76668325D01*
X39842795Y-76363912D01*
X39749814Y-76189956D01*
X39485413Y-76094192D01*
X38529605Y-77050000D01*
X38170395Y-77050000D01*
X37214587Y-76094192D01*
X36950186Y-76189956D01*
X36809296Y-76479571D01*
X36727616Y-76791108D01*
X36708282Y-77112595D01*
X34735000Y-77112595D01*
X34735000Y-76856758D01*
X34601073Y-76183463D01*
X34489702Y-75914587D01*
X37394192Y-75914587D01*
X38350000Y-76870395D01*
X39305808Y-75914587D01*
X39210044Y-75650186D01*
X38920429Y-75509296D01*
X38608892Y-75427616D01*
X38287405Y-75408282D01*
X37968325Y-75452039D01*
X37663912Y-75557205D01*
X37489956Y-75650186D01*
X37394192Y-75914587D01*
X34489702Y-75914587D01*
X34338367Y-75549234D01*
X33956976Y-74978442D01*
X33471558Y-74493024D01*
X32900766Y-74111633D01*
X32266537Y-73848927D01*
X31593242Y-73715000D01*
X30906758Y-73715000D01*
X30233463Y-73848927D01*
X29599234Y-74111633D01*
X29028442Y-74493024D01*
X28543024Y-74978442D01*
X28161633Y-75549234D01*
X28160000Y-75553176D01*
X28160000Y-71792702D01*
X30486903Y-71792702D01*
X30558486Y-72036671D01*
X30813996Y-72157571D01*
X31088184Y-72226300D01*
X31370512Y-72240217D01*
X31650130Y-72198787D01*
X31916292Y-72103603D01*
X32041514Y-72036671D01*
X32113097Y-71792702D01*
X31300000Y-70979605D01*
X30486903Y-71792702D01*
X28160000Y-71792702D01*
X28160000Y-70870512D01*
X29859783Y-70870512D01*
X29901213Y-71150130D01*
X29996397Y-71416292D01*
X30063329Y-71541514D01*
X30307298Y-71613097D01*
X31120395Y-70800000D01*
X31479605Y-70800000D01*
X32292702Y-71613097D01*
X32536671Y-71541514D01*
X32657571Y-71286004D01*
X32726300Y-71011816D01*
X32740217Y-70729488D01*
X32698787Y-70449870D01*
X32603603Y-70183708D01*
X32536671Y-70058486D01*
X32292702Y-69986903D01*
X31479605Y-70800000D01*
X31120395Y-70800000D01*
X30307298Y-69986903D01*
X30063329Y-70058486D01*
X29942429Y-70313996D01*
X29873700Y-70588184D01*
X29859783Y-70870512D01*
X28160000Y-70870512D01*
X28160000Y-69807298D01*
X30486903Y-69807298D01*
X31300000Y-70620395D01*
X32113097Y-69807298D01*
X32041514Y-69563329D01*
X31786004Y-69442429D01*
X31511816Y-69373700D01*
X31229488Y-69359783D01*
X30949870Y-69401213D01*
X30683708Y-69496397D01*
X30558486Y-69563329D01*
X30486903Y-69807298D01*
X28160000Y-69807298D01*
X28160000Y-68292702D01*
X30486903Y-68292702D01*
X30558486Y-68536671D01*
X30813996Y-68657571D01*
X31088184Y-68726300D01*
X31370512Y-68740217D01*
X31650130Y-68698787D01*
X31916292Y-68603603D01*
X32041514Y-68536671D01*
X32113097Y-68292702D01*
X31300000Y-67479605D01*
X30486903Y-68292702D01*
X28160000Y-68292702D01*
X28160000Y-67370512D01*
X29859783Y-67370512D01*
X29901213Y-67650130D01*
X29996397Y-67916292D01*
X30063329Y-68041514D01*
X30307298Y-68113097D01*
X31120395Y-67300000D01*
X31479605Y-67300000D01*
X32292702Y-68113097D01*
X32536671Y-68041514D01*
X32657571Y-67786004D01*
X32726300Y-67511816D01*
X32740217Y-67229488D01*
X32698787Y-66949870D01*
X32603603Y-66683708D01*
X32536671Y-66558486D01*
X32292702Y-66486903D01*
X31479605Y-67300000D01*
X31120395Y-67300000D01*
X30307298Y-66486903D01*
X30063329Y-66558486D01*
X29942429Y-66813996D01*
X29873700Y-67088184D01*
X29859783Y-67370512D01*
X28160000Y-67370512D01*
X28160000Y-66307298D01*
X30486903Y-66307298D01*
X31300000Y-67120395D01*
X32113097Y-66307298D01*
X32041514Y-66063329D01*
X31786004Y-65942429D01*
X31511816Y-65873700D01*
X31229488Y-65859783D01*
X30949870Y-65901213D01*
X30683708Y-65996397D01*
X30558486Y-66063329D01*
X30486903Y-66307298D01*
X28160000Y-66307298D01*
X28160000Y-62658665D01*
X30365000Y-62658665D01*
X30365000Y-62941335D01*
X30420147Y-63218574D01*
X30528320Y-63479727D01*
X30685363Y-63714759D01*
X30885241Y-63914637D01*
X31120273Y-64071680D01*
X31381426Y-64179853D01*
X31658665Y-64235000D01*
X31941335Y-64235000D01*
X32218574Y-64179853D01*
X32479727Y-64071680D01*
X32714759Y-63914637D01*
X32914637Y-63714759D01*
X33071680Y-63479727D01*
X33080404Y-63458665D01*
X33365000Y-63458665D01*
X33365000Y-63741335D01*
X33420147Y-64018574D01*
X33528320Y-64279727D01*
X33685363Y-64514759D01*
X33885241Y-64714637D01*
X34120273Y-64871680D01*
X34381426Y-64979853D01*
X34658665Y-65035000D01*
X34941335Y-65035000D01*
X35218574Y-64979853D01*
X35479727Y-64871680D01*
X35714759Y-64714637D01*
X35914637Y-64514759D01*
X35934521Y-64485000D01*
X39086531Y-64485000D01*
X39130000Y-64489281D01*
X39173469Y-64485000D01*
X39173477Y-64485000D01*
X39303490Y-64472195D01*
X39470313Y-64421589D01*
X39624059Y-64339411D01*
X39758817Y-64228817D01*
X39786534Y-64195044D01*
X41655050Y-62326529D01*
X41688817Y-62298817D01*
X41753381Y-62220147D01*
X41799410Y-62164060D01*
X41799411Y-62164059D01*
X41881589Y-62010313D01*
X41932195Y-61843490D01*
X41945000Y-61713477D01*
X41945000Y-61713467D01*
X41949281Y-61670001D01*
X41945000Y-61626535D01*
X41945000Y-61500077D01*
X42079607Y-61389608D01*
X42258932Y-61171101D01*
X42330000Y-61038142D01*
X42401068Y-61171100D01*
X42580392Y-61389607D01*
X42798899Y-61568932D01*
X43048192Y-61702182D01*
X43318691Y-61784236D01*
X43600000Y-61811943D01*
X43881308Y-61784236D01*
X44151807Y-61702182D01*
X44401100Y-61568932D01*
X44619607Y-61389608D01*
X44798932Y-61171101D01*
X44932182Y-60921808D01*
X45014236Y-60651309D01*
X45035000Y-60440492D01*
X45035000Y-59499509D01*
X45014236Y-59288691D01*
X44932182Y-59018192D01*
X44798932Y-58768899D01*
X44619608Y-58550392D01*
X44401101Y-58371068D01*
X44151808Y-58237818D01*
X43881309Y-58155764D01*
X43600000Y-58128057D01*
X43318692Y-58155764D01*
X43048193Y-58237818D01*
X42798900Y-58371068D01*
X42580393Y-58550392D01*
X42401068Y-58768899D01*
X42330000Y-58901858D01*
X42258932Y-58768899D01*
X42079608Y-58550392D01*
X41861101Y-58371068D01*
X41611808Y-58237818D01*
X41341309Y-58155764D01*
X41060000Y-58128057D01*
X40778692Y-58155764D01*
X40508193Y-58237818D01*
X40258900Y-58371068D01*
X40040393Y-58550392D01*
X39861068Y-58768899D01*
X39792735Y-58896741D01*
X39642601Y-58667161D01*
X39444895Y-58465500D01*
X39211646Y-58306285D01*
X38951818Y-58195633D01*
X38869039Y-58178096D01*
X38647000Y-58300085D01*
X38647000Y-59843000D01*
X38667000Y-59843000D01*
X38667000Y-60097000D01*
X38647000Y-60097000D01*
X38647000Y-61639915D01*
X38869039Y-61761904D01*
X38951818Y-61744367D01*
X39211646Y-61633715D01*
X39444895Y-61474500D01*
X39642601Y-61272839D01*
X39792735Y-61043258D01*
X39861068Y-61171100D01*
X40040392Y-61389607D01*
X40066988Y-61411434D01*
X38763422Y-62715000D01*
X35934521Y-62715000D01*
X35914637Y-62685241D01*
X35714759Y-62485363D01*
X35479727Y-62328320D01*
X35218574Y-62220147D01*
X34941335Y-62165000D01*
X34658665Y-62165000D01*
X34381426Y-62220147D01*
X34120273Y-62328320D01*
X33885241Y-62485363D01*
X33685363Y-62685241D01*
X33528320Y-62920273D01*
X33420147Y-63181426D01*
X33365000Y-63458665D01*
X33080404Y-63458665D01*
X33179853Y-63218574D01*
X33235000Y-62941335D01*
X33235000Y-62658665D01*
X33179853Y-62381426D01*
X33071680Y-62120273D01*
X32914637Y-61885241D01*
X32714759Y-61685363D01*
X32479727Y-61528320D01*
X32218574Y-61420147D01*
X31941335Y-61365000D01*
X31658665Y-61365000D01*
X31381426Y-61420147D01*
X31120273Y-61528320D01*
X30885241Y-61685363D01*
X30685363Y-61885241D01*
X30528320Y-62120273D01*
X30420147Y-62381426D01*
X30365000Y-62658665D01*
X28160000Y-62658665D01*
X28160000Y-59499508D01*
X34545000Y-59499508D01*
X34545000Y-60440491D01*
X34565764Y-60651308D01*
X34647818Y-60921807D01*
X34781068Y-61171100D01*
X34960392Y-61389607D01*
X35178899Y-61568932D01*
X35428192Y-61702182D01*
X35698691Y-61784236D01*
X35980000Y-61811943D01*
X36261308Y-61784236D01*
X36531807Y-61702182D01*
X36781100Y-61568932D01*
X36999607Y-61389608D01*
X37178932Y-61171101D01*
X37247265Y-61043259D01*
X37397399Y-61272839D01*
X37595105Y-61474500D01*
X37828354Y-61633715D01*
X38088182Y-61744367D01*
X38170961Y-61761904D01*
X38393000Y-61639915D01*
X38393000Y-60097000D01*
X38373000Y-60097000D01*
X38373000Y-59843000D01*
X38393000Y-59843000D01*
X38393000Y-58300085D01*
X38170961Y-58178096D01*
X38088182Y-58195633D01*
X37828354Y-58306285D01*
X37595105Y-58465500D01*
X37397399Y-58667161D01*
X37247265Y-58896741D01*
X37178932Y-58768899D01*
X36999608Y-58550392D01*
X36781101Y-58371068D01*
X36531808Y-58237818D01*
X36261309Y-58155764D01*
X35980000Y-58128057D01*
X35698692Y-58155764D01*
X35428193Y-58237818D01*
X35178900Y-58371068D01*
X34960393Y-58550392D01*
X34781068Y-58768899D01*
X34647818Y-59018192D01*
X34565764Y-59288691D01*
X34545000Y-59499508D01*
X28160000Y-59499508D01*
X28160000Y-58792702D01*
X30986903Y-58792702D01*
X31058486Y-59036671D01*
X31313996Y-59157571D01*
X31588184Y-59226300D01*
X31870512Y-59240217D01*
X32150130Y-59198787D01*
X32416292Y-59103603D01*
X32541514Y-59036671D01*
X32613097Y-58792702D01*
X31800000Y-57979605D01*
X30986903Y-58792702D01*
X28160000Y-58792702D01*
X28160000Y-57870512D01*
X30359783Y-57870512D01*
X30401213Y-58150130D01*
X30496397Y-58416292D01*
X30563329Y-58541514D01*
X30807298Y-58613097D01*
X31620395Y-57800000D01*
X31979605Y-57800000D01*
X32792702Y-58613097D01*
X33036671Y-58541514D01*
X33157571Y-58286004D01*
X33226300Y-58011816D01*
X33240217Y-57729488D01*
X33198787Y-57449870D01*
X33103603Y-57183708D01*
X33036671Y-57058486D01*
X32792702Y-56986903D01*
X31979605Y-57800000D01*
X31620395Y-57800000D01*
X30807298Y-56986903D01*
X30563329Y-57058486D01*
X30442429Y-57313996D01*
X30373700Y-57588184D01*
X30359783Y-57870512D01*
X28160000Y-57870512D01*
X28160000Y-56807298D01*
X30986903Y-56807298D01*
X31800000Y-57620395D01*
X32613097Y-56807298D01*
X32541514Y-56563329D01*
X32286004Y-56442429D01*
X32011816Y-56373700D01*
X31729488Y-56359783D01*
X31449870Y-56401213D01*
X31183708Y-56496397D01*
X31058486Y-56563329D01*
X30986903Y-56807298D01*
X28160000Y-56807298D01*
X28160000Y-53458665D01*
X30365000Y-53458665D01*
X30365000Y-53741335D01*
X30420147Y-54018574D01*
X30528320Y-54279727D01*
X30685363Y-54514759D01*
X30885241Y-54714637D01*
X31120273Y-54871680D01*
X31381426Y-54979853D01*
X31658665Y-55035000D01*
X31941335Y-55035000D01*
X32218574Y-54979853D01*
X32479727Y-54871680D01*
X32714759Y-54714637D01*
X32914637Y-54514759D01*
X33071680Y-54279727D01*
X33179853Y-54018574D01*
X33235000Y-53741335D01*
X33235000Y-53458665D01*
X33179853Y-53181426D01*
X33071680Y-52920273D01*
X32914637Y-52685241D01*
X32714759Y-52485363D01*
X32479727Y-52328320D01*
X32218574Y-52220147D01*
X31941335Y-52165000D01*
X31658665Y-52165000D01*
X31381426Y-52220147D01*
X31120273Y-52328320D01*
X30885241Y-52485363D01*
X30685363Y-52685241D01*
X30528320Y-52920273D01*
X30420147Y-53181426D01*
X30365000Y-53458665D01*
X28160000Y-53458665D01*
X28160000Y-49592702D01*
X30986903Y-49592702D01*
X31058486Y-49836671D01*
X31313996Y-49957571D01*
X31588184Y-50026300D01*
X31870512Y-50040217D01*
X32150130Y-49998787D01*
X32416292Y-49903603D01*
X32541514Y-49836671D01*
X32613097Y-49592702D01*
X31800000Y-48779605D01*
X30986903Y-49592702D01*
X28160000Y-49592702D01*
X28160000Y-48670512D01*
X30359783Y-48670512D01*
X30401213Y-48950130D01*
X30496397Y-49216292D01*
X30563329Y-49341514D01*
X30807298Y-49413097D01*
X31620395Y-48600000D01*
X30807298Y-47786903D01*
X30563329Y-47858486D01*
X30442429Y-48113996D01*
X30373700Y-48388184D01*
X30359783Y-48670512D01*
X28160000Y-48670512D01*
X28160000Y-47607298D01*
X30986903Y-47607298D01*
X31800000Y-48420395D01*
X32613097Y-47607298D01*
X32541514Y-47363329D01*
X32286004Y-47242429D01*
X32011816Y-47173700D01*
X31729488Y-47159783D01*
X31449870Y-47201213D01*
X31183708Y-47296397D01*
X31058486Y-47363329D01*
X30986903Y-47607298D01*
X28160000Y-47607298D01*
X28160000Y-45458665D01*
X30365000Y-45458665D01*
X30365000Y-45741335D01*
X30420147Y-46018574D01*
X30528320Y-46279727D01*
X30685363Y-46514759D01*
X30885241Y-46714637D01*
X31120273Y-46871680D01*
X31381426Y-46979853D01*
X31658665Y-47035000D01*
X31941335Y-47035000D01*
X32218574Y-46979853D01*
X32479727Y-46871680D01*
X32714759Y-46714637D01*
X32914637Y-46514759D01*
X33015001Y-46364553D01*
X33015002Y-47852128D01*
X32792702Y-47786903D01*
X31979605Y-48600000D01*
X32792702Y-49413097D01*
X33036671Y-49341514D01*
X33157571Y-49086004D01*
X33226300Y-48811816D01*
X33232703Y-48681928D01*
X33243469Y-48695047D01*
X33243472Y-48695050D01*
X33270985Y-48728575D01*
X33265000Y-48758665D01*
X33265000Y-49041335D01*
X33320147Y-49318574D01*
X33428320Y-49579727D01*
X33585363Y-49814759D01*
X33785241Y-50014637D01*
X34020273Y-50171680D01*
X34281426Y-50279853D01*
X34558665Y-50335000D01*
X34841335Y-50335000D01*
X35118574Y-50279853D01*
X35379727Y-50171680D01*
X35614759Y-50014637D01*
X35814637Y-49814759D01*
X35971680Y-49579727D01*
X36079853Y-49318574D01*
X36135000Y-49041335D01*
X36135000Y-48758665D01*
X36079853Y-48481426D01*
X35971680Y-48220273D01*
X35814637Y-47985241D01*
X35614759Y-47785363D01*
X35379727Y-47628320D01*
X35118574Y-47520147D01*
X34841335Y-47465000D01*
X34785001Y-47465000D01*
X34785000Y-46675891D01*
X34960392Y-46889607D01*
X35178899Y-47068932D01*
X35428192Y-47202182D01*
X35698691Y-47284236D01*
X35980000Y-47311943D01*
X36261308Y-47284236D01*
X36531807Y-47202182D01*
X36781100Y-47068932D01*
X36999607Y-46889608D01*
X37178932Y-46671101D01*
X37250000Y-46538142D01*
X37321068Y-46671100D01*
X37500392Y-46889607D01*
X37718899Y-47068932D01*
X37968192Y-47202182D01*
X38238691Y-47284236D01*
X38520000Y-47311943D01*
X38801308Y-47284236D01*
X39071807Y-47202182D01*
X39321100Y-47068932D01*
X39539607Y-46889608D01*
X39718932Y-46671101D01*
X39790000Y-46538142D01*
X39861068Y-46671100D01*
X40040392Y-46889607D01*
X40258899Y-47068932D01*
X40508192Y-47202182D01*
X40778691Y-47284236D01*
X41060000Y-47311943D01*
X41341308Y-47284236D01*
X41611807Y-47202182D01*
X41861100Y-47068932D01*
X42079607Y-46889608D01*
X42258932Y-46671101D01*
X42327265Y-46543259D01*
X42477399Y-46772839D01*
X42675105Y-46974500D01*
X42908354Y-47133715D01*
X43168182Y-47244367D01*
X43250961Y-47261904D01*
X43473000Y-47139915D01*
X43473000Y-45597000D01*
X43727000Y-45597000D01*
X43727000Y-47139915D01*
X43949039Y-47261904D01*
X44031818Y-47244367D01*
X44291646Y-47133715D01*
X44524895Y-46974500D01*
X44722601Y-46772839D01*
X44877166Y-46536483D01*
X44982650Y-46274514D01*
X45035000Y-45997000D01*
X45035000Y-45597000D01*
X43727000Y-45597000D01*
X43473000Y-45597000D01*
X43453000Y-45597000D01*
X43453000Y-45343000D01*
X43473000Y-45343000D01*
X43473000Y-43800085D01*
X43727000Y-43800085D01*
X43727000Y-45343000D01*
X45035000Y-45343000D01*
X45035000Y-44943000D01*
X44982650Y-44665486D01*
X44877166Y-44403517D01*
X44722601Y-44167161D01*
X44524895Y-43965500D01*
X44291646Y-43806285D01*
X44031818Y-43695633D01*
X43949039Y-43678096D01*
X43727000Y-43800085D01*
X43473000Y-43800085D01*
X43250961Y-43678096D01*
X43168182Y-43695633D01*
X42908354Y-43806285D01*
X42675105Y-43965500D01*
X42477399Y-44167161D01*
X42327265Y-44396741D01*
X42258932Y-44268899D01*
X42079608Y-44050392D01*
X41861101Y-43871068D01*
X41611808Y-43737818D01*
X41341309Y-43655764D01*
X41060000Y-43628057D01*
X40778692Y-43655764D01*
X40508193Y-43737818D01*
X40258900Y-43871068D01*
X40040393Y-44050392D01*
X39861068Y-44268899D01*
X39790000Y-44401858D01*
X39718932Y-44268899D01*
X39539608Y-44050392D01*
X39405000Y-43939922D01*
X39405000Y-42456578D01*
X41060000Y-40801579D01*
X42003470Y-41745049D01*
X42031183Y-41778817D01*
X42064951Y-41806530D01*
X42064953Y-41806532D01*
X42130979Y-41860718D01*
X42165941Y-41889411D01*
X42319687Y-41971589D01*
X42486510Y-42022195D01*
X42616523Y-42035000D01*
X42616531Y-42035000D01*
X42660000Y-42039281D01*
X42703469Y-42035000D01*
X44783422Y-42035000D01*
X45865001Y-43116580D01*
X45865001Y-47875605D01*
X45774759Y-47785363D01*
X45539727Y-47628320D01*
X45278574Y-47520147D01*
X45001335Y-47465000D01*
X44718665Y-47465000D01*
X44441426Y-47520147D01*
X44180273Y-47628320D01*
X43945241Y-47785363D01*
X43745363Y-47985241D01*
X43725479Y-48015000D01*
X42853469Y-48015000D01*
X42810000Y-48010719D01*
X42766531Y-48015000D01*
X42766523Y-48015000D01*
X42636510Y-48027805D01*
X42469687Y-48078411D01*
X42347956Y-48143477D01*
X42315941Y-48160589D01*
X42214953Y-48243468D01*
X42214951Y-48243470D01*
X42181183Y-48271183D01*
X42153470Y-48304951D01*
X40464951Y-49993471D01*
X40431184Y-50021183D01*
X40403471Y-50054951D01*
X40403468Y-50054954D01*
X40320590Y-50155941D01*
X40238412Y-50309687D01*
X40187805Y-50476510D01*
X40170719Y-50650000D01*
X40175001Y-50693479D01*
X40175001Y-50819922D01*
X40040393Y-50930392D01*
X39861068Y-51148899D01*
X39790000Y-51281858D01*
X39718932Y-51148899D01*
X39539608Y-50930392D01*
X39321101Y-50751068D01*
X39071808Y-50617818D01*
X38801309Y-50535764D01*
X38520000Y-50508057D01*
X38238692Y-50535764D01*
X37968193Y-50617818D01*
X37718900Y-50751068D01*
X37500393Y-50930392D01*
X37321068Y-51148899D01*
X37250000Y-51281858D01*
X37178932Y-51148899D01*
X36999608Y-50930392D01*
X36781101Y-50751068D01*
X36531808Y-50617818D01*
X36261309Y-50535764D01*
X35980000Y-50508057D01*
X35698692Y-50535764D01*
X35428193Y-50617818D01*
X35178900Y-50751068D01*
X34960393Y-50930392D01*
X34781068Y-51148899D01*
X34647818Y-51398192D01*
X34565764Y-51668691D01*
X34545000Y-51879508D01*
X34545000Y-52820491D01*
X34565764Y-53031308D01*
X34647818Y-53301807D01*
X34781068Y-53551100D01*
X34960392Y-53769607D01*
X35178899Y-53948932D01*
X35428192Y-54082182D01*
X35698691Y-54164236D01*
X35980000Y-54191943D01*
X36261308Y-54164236D01*
X36531807Y-54082182D01*
X36781100Y-53948932D01*
X36999607Y-53769608D01*
X37178932Y-53551101D01*
X37250000Y-53418142D01*
X37321068Y-53551100D01*
X37500392Y-53769607D01*
X37718899Y-53948932D01*
X37968192Y-54082182D01*
X38238691Y-54164236D01*
X38520000Y-54191943D01*
X38801308Y-54164236D01*
X39071807Y-54082182D01*
X39321100Y-53948932D01*
X39539607Y-53769608D01*
X39718932Y-53551101D01*
X39790000Y-53418142D01*
X39861068Y-53551100D01*
X40040392Y-53769607D01*
X40258899Y-53948932D01*
X40508192Y-54082182D01*
X40778691Y-54164236D01*
X41060000Y-54191943D01*
X41341308Y-54164236D01*
X41611807Y-54082182D01*
X41861100Y-53948932D01*
X42079607Y-53769608D01*
X42172419Y-53656517D01*
X42174188Y-53674482D01*
X42210498Y-53794180D01*
X42269463Y-53904494D01*
X42348815Y-54001185D01*
X42445506Y-54080537D01*
X42555820Y-54139502D01*
X42675518Y-54175812D01*
X42800000Y-54188072D01*
X44400000Y-54188072D01*
X44524482Y-54175812D01*
X44644180Y-54139502D01*
X44754494Y-54080537D01*
X44851185Y-54001185D01*
X44930537Y-53904494D01*
X44989502Y-53794180D01*
X45025812Y-53674482D01*
X45038072Y-53550000D01*
X45038072Y-51150000D01*
X45025812Y-51025518D01*
X44989502Y-50905820D01*
X44930537Y-50795506D01*
X44851185Y-50698815D01*
X44754494Y-50619463D01*
X44644180Y-50560498D01*
X44524482Y-50524188D01*
X44400000Y-50511928D01*
X42800000Y-50511928D01*
X42675518Y-50524188D01*
X42555820Y-50560498D01*
X42445506Y-50619463D01*
X42348815Y-50698815D01*
X42269463Y-50795506D01*
X42210498Y-50905820D01*
X42174188Y-51025518D01*
X42172419Y-51043482D01*
X42079608Y-50930392D01*
X42053013Y-50908566D01*
X43176579Y-49785000D01*
X43725479Y-49785000D01*
X43745363Y-49814759D01*
X43945241Y-50014637D01*
X44180273Y-50171680D01*
X44441426Y-50279853D01*
X44718665Y-50335000D01*
X45001335Y-50335000D01*
X45278574Y-50279853D01*
X45539727Y-50171680D01*
X45774759Y-50014637D01*
X45865000Y-49924396D01*
X45865000Y-56085161D01*
X45860719Y-56128630D01*
X45865000Y-56172099D01*
X45865000Y-56172106D01*
X45877805Y-56302119D01*
X45928411Y-56468942D01*
X46010589Y-56622688D01*
X46121183Y-56757447D01*
X46154956Y-56785164D01*
X48175198Y-58805406D01*
X48135363Y-58845241D01*
X47978320Y-59080273D01*
X47870147Y-59341426D01*
X47815000Y-59618665D01*
X47815000Y-59901335D01*
X47870147Y-60178574D01*
X47978320Y-60439727D01*
X48135363Y-60674759D01*
X48335241Y-60874637D01*
X48365000Y-60894521D01*
X48365001Y-64056521D01*
X48360719Y-64100000D01*
X48377805Y-64273490D01*
X48428412Y-64440313D01*
X48510590Y-64594059D01*
X48593468Y-64695046D01*
X48593471Y-64695049D01*
X48621184Y-64728817D01*
X48654951Y-64756530D01*
X49893737Y-65995315D01*
X49741335Y-65965000D01*
X49458665Y-65965000D01*
X49181426Y-66020147D01*
X48920273Y-66128320D01*
X48685241Y-66285363D01*
X48485363Y-66485241D01*
X48465479Y-66515000D01*
X48143465Y-66515000D01*
X48099999Y-66510719D01*
X48056533Y-66515000D01*
X48056523Y-66515000D01*
X47926510Y-66527805D01*
X47759687Y-66578411D01*
X47605941Y-66660589D01*
X47577771Y-66683708D01*
X47504953Y-66743468D01*
X47504951Y-66743470D01*
X47471183Y-66771183D01*
X47443470Y-66804951D01*
X46740480Y-67507941D01*
X46739411Y-67505941D01*
X46628817Y-67371183D01*
X46595050Y-67343471D01*
X45845000Y-66593422D01*
X45845000Y-64734521D01*
X45874759Y-64714637D01*
X46074637Y-64514759D01*
X46231680Y-64279727D01*
X46339853Y-64018574D01*
X46395000Y-63741335D01*
X46395000Y-63458665D01*
X46339853Y-63181426D01*
X46231680Y-62920273D01*
X46074637Y-62685241D01*
X45874759Y-62485363D01*
X45639727Y-62328320D01*
X45378574Y-62220147D01*
X45101335Y-62165000D01*
X44818665Y-62165000D01*
X44541426Y-62220147D01*
X44280273Y-62328320D01*
X44045241Y-62485363D01*
X43845363Y-62685241D01*
X43688320Y-62920273D01*
X43580147Y-63181426D01*
X43525000Y-63458665D01*
X43525000Y-63741335D01*
X43580147Y-64018574D01*
X43688320Y-64279727D01*
X43845363Y-64514759D01*
X44045241Y-64714637D01*
X44075000Y-64734522D01*
X44075001Y-66916521D01*
X44070719Y-66960000D01*
X44087805Y-67133490D01*
X44138412Y-67300313D01*
X44220590Y-67454059D01*
X44303468Y-67555046D01*
X44303471Y-67555049D01*
X44331184Y-67588817D01*
X44364951Y-67616529D01*
X45115000Y-68366579D01*
X45115001Y-69361928D01*
X45047500Y-69361928D01*
X44923018Y-69374188D01*
X44803320Y-69410498D01*
X44693006Y-69469463D01*
X44596315Y-69548815D01*
X44516963Y-69645506D01*
X44472095Y-69729446D01*
X44346235Y-69626155D01*
X44070449Y-69478745D01*
X43771204Y-69387970D01*
X43460000Y-69357319D01*
X43148797Y-69387970D01*
X42849552Y-69478745D01*
X42573766Y-69626155D01*
X42332037Y-69824537D01*
X42190000Y-69997609D01*
X42047963Y-69824537D01*
X41806235Y-69626155D01*
X41530449Y-69478745D01*
X41231204Y-69387970D01*
X40920000Y-69357319D01*
X40608797Y-69387970D01*
X40309552Y-69478745D01*
X40033766Y-69626155D01*
X39792037Y-69824537D01*
X39593655Y-70066265D01*
X39446245Y-70342051D01*
X39355470Y-70641296D01*
X39332500Y-70874514D01*
X39332500Y-71125485D01*
X39355470Y-71358703D01*
X39446245Y-71657948D01*
X39593655Y-71933734D01*
X39792037Y-72175463D01*
X40033765Y-72373845D01*
X40309551Y-72521255D01*
X40608796Y-72612030D01*
X40920000Y-72642681D01*
X41231203Y-72612030D01*
X41530448Y-72521255D01*
X41806234Y-72373845D01*
X42047963Y-72175463D01*
X42075000Y-72142518D01*
X42075000Y-72779868D01*
X41989868Y-72865000D01*
X37970132Y-72865000D01*
X37435000Y-72329869D01*
X37435000Y-71684284D01*
X37571680Y-71479727D01*
X37679853Y-71218574D01*
X37735000Y-70941335D01*
X37735000Y-70658665D01*
X37679853Y-70381426D01*
X37571680Y-70120273D01*
X37435000Y-69915716D01*
X37435000Y-68184284D01*
X37571680Y-67979727D01*
X37679853Y-67718574D01*
X37735000Y-67441335D01*
X37735000Y-67258665D01*
X38005000Y-67258665D01*
X38005000Y-67541335D01*
X38060147Y-67818574D01*
X38168320Y-68079727D01*
X38325363Y-68314759D01*
X38525241Y-68514637D01*
X38760273Y-68671680D01*
X39021426Y-68779853D01*
X39298665Y-68835000D01*
X39581335Y-68835000D01*
X39858574Y-68779853D01*
X40119727Y-68671680D01*
X40354759Y-68514637D01*
X40554637Y-68314759D01*
X40711680Y-68079727D01*
X40819853Y-67818574D01*
X40875000Y-67541335D01*
X40875000Y-67258665D01*
X40819853Y-66981426D01*
X40711680Y-66720273D01*
X40554637Y-66485241D01*
X40354759Y-66285363D01*
X40119727Y-66128320D01*
X39858574Y-66020147D01*
X39581335Y-65965000D01*
X39298665Y-65965000D01*
X39021426Y-66020147D01*
X38760273Y-66128320D01*
X38525241Y-66285363D01*
X38325363Y-66485241D01*
X38168320Y-66720273D01*
X38060147Y-66981426D01*
X38005000Y-67258665D01*
X37735000Y-67258665D01*
X37735000Y-67158665D01*
X37679853Y-66881426D01*
X37571680Y-66620273D01*
X37414637Y-66385241D01*
X37214759Y-66185363D01*
X36979727Y-66028320D01*
X36718574Y-65920147D01*
X36441335Y-65865000D01*
X36158665Y-65865000D01*
X35881426Y-65920147D01*
X35620273Y-66028320D01*
X35385241Y-66185363D01*
X35185363Y-66385241D01*
X35028320Y-66620273D01*
X34920147Y-66881426D01*
X34865000Y-67158665D01*
X34865000Y-67441335D01*
X34920147Y-67718574D01*
X35028320Y-67979727D01*
X35165001Y-68184285D01*
X35165000Y-69915716D01*
X35028320Y-70120273D01*
X34920147Y-70381426D01*
X34865000Y-70658665D01*
X34865000Y-70941335D01*
X34920147Y-71218574D01*
X35028320Y-71479727D01*
X35165001Y-71684284D01*
X35165000Y-72744248D01*
X35159509Y-72800000D01*
X35165000Y-72855751D01*
X35181423Y-73022498D01*
X35246324Y-73236446D01*
X35351716Y-73433623D01*
X35493551Y-73606449D01*
X35536865Y-73641996D01*
X36658008Y-74763140D01*
X36693551Y-74806449D01*
X36866377Y-74948284D01*
X37063553Y-75053676D01*
X37277501Y-75118577D01*
X37444248Y-75135000D01*
X37444257Y-75135000D01*
X37499999Y-75140490D01*
X37555741Y-75135000D01*
X42075001Y-75135000D01*
X42075001Y-75591961D01*
X42068300Y-75660000D01*
X42095040Y-75931507D01*
X42174236Y-76192580D01*
X42302844Y-76433188D01*
X42432548Y-76591233D01*
X42432551Y-76591236D01*
X42475920Y-76644081D01*
X42528764Y-76687449D01*
X43255387Y-77414072D01*
X43277832Y-77526912D01*
X43401082Y-77824463D01*
X43580013Y-78092252D01*
X43807748Y-78319987D01*
X44075537Y-78498918D01*
X44373088Y-78622168D01*
X44688967Y-78685000D01*
X45011033Y-78685000D01*
X45326912Y-78622168D01*
X45624463Y-78498918D01*
X45892252Y-78319987D01*
X46119987Y-78092252D01*
X46298918Y-77824463D01*
X46422168Y-77526912D01*
X46485000Y-77211033D01*
X46485000Y-76888967D01*
X46422168Y-76573088D01*
X46298918Y-76275537D01*
X46119987Y-76007748D01*
X45892252Y-75780013D01*
X45624463Y-75601082D01*
X45326912Y-75477832D01*
X45214072Y-75455387D01*
X44845000Y-75086315D01*
X44845000Y-72602145D01*
X44923018Y-72625812D01*
X45047500Y-72638072D01*
X46952500Y-72638072D01*
X47076982Y-72625812D01*
X47196680Y-72589502D01*
X47306994Y-72530537D01*
X47403685Y-72451185D01*
X47483037Y-72354494D01*
X47542002Y-72244180D01*
X47578312Y-72124482D01*
X47590572Y-72000000D01*
X47590572Y-70000000D01*
X47578312Y-69875518D01*
X47542002Y-69755820D01*
X47483037Y-69645506D01*
X47403685Y-69548815D01*
X47306994Y-69469463D01*
X47290781Y-69460797D01*
X48465919Y-68285659D01*
X48485363Y-68314759D01*
X48685241Y-68514637D01*
X48920273Y-68671680D01*
X49181426Y-68779853D01*
X49458665Y-68835000D01*
X49741335Y-68835000D01*
X50018574Y-68779853D01*
X50279727Y-68671680D01*
X50514759Y-68514637D01*
X50714637Y-68314759D01*
X50871680Y-68079727D01*
X50979853Y-67818574D01*
X51035000Y-67541335D01*
X51035000Y-67258665D01*
X51004685Y-67106264D01*
X52115000Y-68216579D01*
X52115001Y-69870299D01*
X52075518Y-69874188D01*
X51955820Y-69910498D01*
X51845506Y-69969463D01*
X51748815Y-70048815D01*
X51669463Y-70145506D01*
X51610498Y-70255820D01*
X51574188Y-70375518D01*
X51561928Y-70500000D01*
X51561928Y-72100000D01*
X51574188Y-72224482D01*
X51610498Y-72344180D01*
X51669463Y-72454494D01*
X51748815Y-72551185D01*
X51845506Y-72630537D01*
X51955820Y-72689502D01*
X52075518Y-72725812D01*
X52200000Y-72738072D01*
X53800000Y-72738072D01*
X53924482Y-72725812D01*
X54044180Y-72689502D01*
X54154494Y-72630537D01*
X54251185Y-72551185D01*
X54330537Y-72454494D01*
X54389502Y-72344180D01*
X54425812Y-72224482D01*
X54438072Y-72100000D01*
X54438072Y-70500000D01*
X54425812Y-70375518D01*
X54389502Y-70255820D01*
X54330537Y-70145506D01*
X54251185Y-70048815D01*
X54154494Y-69969463D01*
X54044180Y-69910498D01*
X53924482Y-69874188D01*
X53885000Y-69870299D01*
X53885000Y-67893469D01*
X53889281Y-67850000D01*
X53885000Y-67806531D01*
X53885000Y-67806523D01*
X53872195Y-67676510D01*
X53821589Y-67509687D01*
X53739411Y-67355941D01*
X53628817Y-67221183D01*
X53595050Y-67193471D01*
X50135000Y-63733422D01*
X50135000Y-63538665D01*
X51565000Y-63538665D01*
X51565000Y-63821335D01*
X51620147Y-64098574D01*
X51728320Y-64359727D01*
X51885363Y-64594759D01*
X52085241Y-64794637D01*
X52320273Y-64951680D01*
X52581426Y-65059853D01*
X52858665Y-65115000D01*
X53141335Y-65115000D01*
X53418574Y-65059853D01*
X53679727Y-64951680D01*
X53914759Y-64794637D01*
X54114637Y-64594759D01*
X54271680Y-64359727D01*
X54379853Y-64098574D01*
X54435000Y-63821335D01*
X54435000Y-63538665D01*
X54379853Y-63261426D01*
X54271680Y-63000273D01*
X54114637Y-62765241D01*
X53914759Y-62565363D01*
X53679727Y-62408320D01*
X53418574Y-62300147D01*
X53141335Y-62245000D01*
X52858665Y-62245000D01*
X52581426Y-62300147D01*
X52320273Y-62408320D01*
X52085241Y-62565363D01*
X51885363Y-62765241D01*
X51728320Y-63000273D01*
X51620147Y-63261426D01*
X51565000Y-63538665D01*
X50135000Y-63538665D01*
X50135000Y-60894521D01*
X50164759Y-60874637D01*
X50364637Y-60674759D01*
X50521680Y-60439727D01*
X50629853Y-60178574D01*
X50685000Y-59901335D01*
X50685000Y-59618665D01*
X50683011Y-59608665D01*
X51565000Y-59608665D01*
X51565000Y-59891335D01*
X51620147Y-60168574D01*
X51728320Y-60429727D01*
X51885363Y-60664759D01*
X52085241Y-60864637D01*
X52320273Y-61021680D01*
X52581426Y-61129853D01*
X52858665Y-61185000D01*
X53141335Y-61185000D01*
X53418574Y-61129853D01*
X53679727Y-61021680D01*
X53914759Y-60864637D01*
X54114637Y-60664759D01*
X54271680Y-60429727D01*
X54379853Y-60168574D01*
X54435000Y-59891335D01*
X54435000Y-59608665D01*
X54379853Y-59331426D01*
X54271680Y-59070273D01*
X54114637Y-58835241D01*
X53914759Y-58635363D01*
X53679727Y-58478320D01*
X53418574Y-58370147D01*
X53141335Y-58315000D01*
X52858665Y-58315000D01*
X52581426Y-58370147D01*
X52320273Y-58478320D01*
X52085241Y-58635363D01*
X51885363Y-58835241D01*
X51728320Y-59070273D01*
X51620147Y-59331426D01*
X51565000Y-59608665D01*
X50683011Y-59608665D01*
X50629853Y-59341426D01*
X50521680Y-59080273D01*
X50364637Y-58845241D01*
X50164759Y-58645363D01*
X50139250Y-58628319D01*
X50135000Y-58585161D01*
X50135000Y-58585153D01*
X50122195Y-58455140D01*
X50071589Y-58288317D01*
X49989411Y-58134571D01*
X49878817Y-57999813D01*
X49845049Y-57972100D01*
X47635000Y-55762052D01*
X47635000Y-49458665D01*
X47815000Y-49458665D01*
X47815000Y-49741335D01*
X47870147Y-50018574D01*
X47978320Y-50279727D01*
X48135363Y-50514759D01*
X48335241Y-50714637D01*
X48570273Y-50871680D01*
X48831426Y-50979853D01*
X49108665Y-51035000D01*
X49391335Y-51035000D01*
X49668574Y-50979853D01*
X49929727Y-50871680D01*
X50164759Y-50714637D01*
X50364637Y-50514759D01*
X50384521Y-50485000D01*
X51872160Y-50485000D01*
X51885363Y-50504759D01*
X52085241Y-50704637D01*
X52320273Y-50861680D01*
X52581426Y-50969853D01*
X52858665Y-51025000D01*
X53141335Y-51025000D01*
X53418574Y-50969853D01*
X53679727Y-50861680D01*
X53914759Y-50704637D01*
X54114637Y-50504759D01*
X54271680Y-50269727D01*
X54379853Y-50008574D01*
X54435000Y-49731335D01*
X54435000Y-49448665D01*
X54379853Y-49171426D01*
X54271680Y-48910273D01*
X54114637Y-48675241D01*
X53914759Y-48475363D01*
X53679727Y-48318320D01*
X53418574Y-48210147D01*
X53141335Y-48155000D01*
X52858665Y-48155000D01*
X52581426Y-48210147D01*
X52320273Y-48318320D01*
X52085241Y-48475363D01*
X51885363Y-48675241D01*
X51858797Y-48715000D01*
X50384521Y-48715000D01*
X50364637Y-48685241D01*
X50164759Y-48485363D01*
X49929727Y-48328320D01*
X49668574Y-48220147D01*
X49391335Y-48165000D01*
X49108665Y-48165000D01*
X48831426Y-48220147D01*
X48570273Y-48328320D01*
X48335241Y-48485363D01*
X48135363Y-48685241D01*
X47978320Y-48920273D01*
X47870147Y-49181426D01*
X47815000Y-49458665D01*
X47635000Y-49458665D01*
X47635000Y-46518665D01*
X47815000Y-46518665D01*
X47815000Y-46801335D01*
X47870147Y-47078574D01*
X47978320Y-47339727D01*
X48135363Y-47574759D01*
X48335241Y-47774637D01*
X48570273Y-47931680D01*
X48831426Y-48039853D01*
X49108665Y-48095000D01*
X49391335Y-48095000D01*
X49668574Y-48039853D01*
X49929727Y-47931680D01*
X50164759Y-47774637D01*
X50346694Y-47592702D01*
X52186903Y-47592702D01*
X52258486Y-47836671D01*
X52513996Y-47957571D01*
X52788184Y-48026300D01*
X53070512Y-48040217D01*
X53350130Y-47998787D01*
X53616292Y-47903603D01*
X53741514Y-47836671D01*
X53813097Y-47592702D01*
X53000000Y-46779605D01*
X52186903Y-47592702D01*
X50346694Y-47592702D01*
X50364637Y-47574759D01*
X50521680Y-47339727D01*
X50629853Y-47078574D01*
X50685000Y-46801335D01*
X50685000Y-46670512D01*
X51559783Y-46670512D01*
X51601213Y-46950130D01*
X51696397Y-47216292D01*
X51763329Y-47341514D01*
X52007298Y-47413097D01*
X52820395Y-46600000D01*
X53179605Y-46600000D01*
X53992702Y-47413097D01*
X54236671Y-47341514D01*
X54357571Y-47086004D01*
X54426300Y-46811816D01*
X54440217Y-46529488D01*
X54398787Y-46249870D01*
X54303603Y-45983708D01*
X54236671Y-45858486D01*
X53992702Y-45786903D01*
X53179605Y-46600000D01*
X52820395Y-46600000D01*
X52007298Y-45786903D01*
X51763329Y-45858486D01*
X51642429Y-46113996D01*
X51573700Y-46388184D01*
X51559783Y-46670512D01*
X50685000Y-46670512D01*
X50685000Y-46518665D01*
X50629853Y-46241426D01*
X50521680Y-45980273D01*
X50364637Y-45745241D01*
X50226694Y-45607298D01*
X52186903Y-45607298D01*
X53000000Y-46420395D01*
X53813097Y-45607298D01*
X53741514Y-45363329D01*
X53486004Y-45242429D01*
X53211816Y-45173700D01*
X52929488Y-45159783D01*
X52649870Y-45201213D01*
X52383708Y-45296397D01*
X52258486Y-45363329D01*
X52186903Y-45607298D01*
X50226694Y-45607298D01*
X50164759Y-45545363D01*
X49929727Y-45388320D01*
X49668574Y-45280147D01*
X49391335Y-45225000D01*
X49108665Y-45225000D01*
X48831426Y-45280147D01*
X48570273Y-45388320D01*
X48335241Y-45545363D01*
X48135363Y-45745241D01*
X47978320Y-45980273D01*
X47870147Y-46241426D01*
X47815000Y-46518665D01*
X47635000Y-46518665D01*
X47635000Y-42793469D01*
X47639281Y-42750000D01*
X47635000Y-42706531D01*
X47635000Y-42706523D01*
X47622195Y-42576510D01*
X47571589Y-42409687D01*
X47489411Y-42255941D01*
X47410417Y-42159687D01*
X47406532Y-42154953D01*
X47406530Y-42154951D01*
X47378817Y-42121183D01*
X47345049Y-42093470D01*
X45806534Y-40554956D01*
X45778817Y-40521183D01*
X45644059Y-40410589D01*
X45490313Y-40328411D01*
X45323490Y-40277805D01*
X45193477Y-40265000D01*
X45193469Y-40265000D01*
X45150000Y-40260719D01*
X45106531Y-40265000D01*
X43026579Y-40265000D01*
X42053012Y-39291434D01*
X42079607Y-39269608D01*
X42172419Y-39156517D01*
X42174188Y-39174482D01*
X42210498Y-39294180D01*
X42269463Y-39404494D01*
X42348815Y-39501185D01*
X42445506Y-39580537D01*
X42555820Y-39639502D01*
X42675518Y-39675812D01*
X42800000Y-39688072D01*
X44400000Y-39688072D01*
X44524482Y-39675812D01*
X44644180Y-39639502D01*
X44754494Y-39580537D01*
X44851185Y-39501185D01*
X44930537Y-39404494D01*
X44989502Y-39294180D01*
X45025812Y-39174482D01*
X45038072Y-39050000D01*
X45038072Y-36650000D01*
X45025812Y-36525518D01*
X44989502Y-36405820D01*
X44964297Y-36358665D01*
X47815000Y-36358665D01*
X47815000Y-36641335D01*
X47870147Y-36918574D01*
X47978320Y-37179727D01*
X48135363Y-37414759D01*
X48335241Y-37614637D01*
X48570273Y-37771680D01*
X48831426Y-37879853D01*
X49108665Y-37935000D01*
X49391335Y-37935000D01*
X49668574Y-37879853D01*
X49929727Y-37771680D01*
X50164759Y-37614637D01*
X50364637Y-37414759D01*
X50384521Y-37385000D01*
X51915604Y-37385000D01*
X52085241Y-37554637D01*
X52320273Y-37711680D01*
X52581426Y-37819853D01*
X52858665Y-37875000D01*
X53141335Y-37875000D01*
X53418574Y-37819853D01*
X53679727Y-37711680D01*
X53914759Y-37554637D01*
X54114637Y-37354759D01*
X54271680Y-37119727D01*
X54379853Y-36858574D01*
X54435000Y-36581335D01*
X54435000Y-36298665D01*
X54379853Y-36021426D01*
X54271680Y-35760273D01*
X54114637Y-35525241D01*
X53914759Y-35325363D01*
X53679727Y-35168320D01*
X53418574Y-35060147D01*
X53141335Y-35005000D01*
X52858665Y-35005000D01*
X52581426Y-35060147D01*
X52320273Y-35168320D01*
X52085241Y-35325363D01*
X51885363Y-35525241D01*
X51825388Y-35615000D01*
X50384521Y-35615000D01*
X50364637Y-35585241D01*
X50164759Y-35385363D01*
X49929727Y-35228320D01*
X49668574Y-35120147D01*
X49391335Y-35065000D01*
X49108665Y-35065000D01*
X48831426Y-35120147D01*
X48570273Y-35228320D01*
X48335241Y-35385363D01*
X48135363Y-35585241D01*
X47978320Y-35820273D01*
X47870147Y-36081426D01*
X47815000Y-36358665D01*
X44964297Y-36358665D01*
X44930537Y-36295506D01*
X44851185Y-36198815D01*
X44754494Y-36119463D01*
X44644180Y-36060498D01*
X44524482Y-36024188D01*
X44400000Y-36011928D01*
X42800000Y-36011928D01*
X42675518Y-36024188D01*
X42555820Y-36060498D01*
X42445506Y-36119463D01*
X42348815Y-36198815D01*
X42269463Y-36295506D01*
X42210498Y-36405820D01*
X42174188Y-36525518D01*
X42172419Y-36543482D01*
X42079608Y-36430392D01*
X41861101Y-36251068D01*
X41611808Y-36117818D01*
X41341309Y-36035764D01*
X41060000Y-36008057D01*
X40778692Y-36035764D01*
X40508193Y-36117818D01*
X40258900Y-36251068D01*
X40040393Y-36430392D01*
X39861068Y-36648899D01*
X39790000Y-36781858D01*
X39718932Y-36648899D01*
X39539608Y-36430392D01*
X39321101Y-36251068D01*
X39071808Y-36117818D01*
X38801309Y-36035764D01*
X38520000Y-36008057D01*
X38238692Y-36035764D01*
X37968193Y-36117818D01*
X37718900Y-36251068D01*
X37500393Y-36430392D01*
X37321068Y-36648899D01*
X37252735Y-36776741D01*
X37102601Y-36547161D01*
X36904895Y-36345500D01*
X36671646Y-36186285D01*
X36411818Y-36075633D01*
X36329039Y-36058096D01*
X36107000Y-36180085D01*
X36107000Y-37723000D01*
X36127000Y-37723000D01*
X36127000Y-37977000D01*
X36107000Y-37977000D01*
X36107000Y-39519915D01*
X36329039Y-39641904D01*
X36411818Y-39624367D01*
X36671646Y-39513715D01*
X36904895Y-39354500D01*
X37102601Y-39152839D01*
X37252735Y-38923258D01*
X37321068Y-39051100D01*
X37500392Y-39269607D01*
X37635000Y-39380078D01*
X37635000Y-40013421D01*
X36804951Y-40843471D01*
X36771184Y-40871183D01*
X36743471Y-40904951D01*
X36743468Y-40904954D01*
X36660590Y-41005941D01*
X36578412Y-41159687D01*
X36527805Y-41326510D01*
X36510719Y-41500000D01*
X36515001Y-41543478D01*
X36515000Y-42133421D01*
X36433422Y-42215000D01*
X35043469Y-42215000D01*
X35000000Y-42210719D01*
X34956531Y-42215000D01*
X34956523Y-42215000D01*
X34841306Y-42226348D01*
X34826509Y-42227805D01*
X34788254Y-42239410D01*
X34659687Y-42278411D01*
X34505941Y-42360589D01*
X34404953Y-42443468D01*
X34404951Y-42443470D01*
X34371183Y-42471183D01*
X34343470Y-42504951D01*
X33304950Y-43543472D01*
X33271183Y-43571184D01*
X33160589Y-43705942D01*
X33078411Y-43859688D01*
X33027805Y-44026511D01*
X33015000Y-44156524D01*
X33015000Y-44156531D01*
X33010719Y-44200000D01*
X33015000Y-44243469D01*
X33015000Y-44835446D01*
X32914637Y-44685241D01*
X32714759Y-44485363D01*
X32479727Y-44328320D01*
X32218574Y-44220147D01*
X31941335Y-44165000D01*
X31658665Y-44165000D01*
X31381426Y-44220147D01*
X31120273Y-44328320D01*
X30885241Y-44485363D01*
X30685363Y-44685241D01*
X30528320Y-44920273D01*
X30420147Y-45181426D01*
X30365000Y-45458665D01*
X28160000Y-45458665D01*
X28160000Y-40458665D01*
X30365000Y-40458665D01*
X30365000Y-40741335D01*
X30420147Y-41018574D01*
X30528320Y-41279727D01*
X30685363Y-41514759D01*
X30885241Y-41714637D01*
X31120273Y-41871680D01*
X31381426Y-41979853D01*
X31658665Y-42035000D01*
X31941335Y-42035000D01*
X32218574Y-41979853D01*
X32479727Y-41871680D01*
X32714759Y-41714637D01*
X32914637Y-41514759D01*
X33071680Y-41279727D01*
X33179853Y-41018574D01*
X33235000Y-40741335D01*
X33235000Y-40458665D01*
X33179853Y-40181426D01*
X33071680Y-39920273D01*
X32914637Y-39685241D01*
X32714759Y-39485363D01*
X32479727Y-39328320D01*
X32218574Y-39220147D01*
X31941335Y-39165000D01*
X31658665Y-39165000D01*
X31381426Y-39220147D01*
X31120273Y-39328320D01*
X30885241Y-39485363D01*
X30685363Y-39685241D01*
X30528320Y-39920273D01*
X30420147Y-40181426D01*
X30365000Y-40458665D01*
X28160000Y-40458665D01*
X28160000Y-37977000D01*
X34545000Y-37977000D01*
X34545000Y-38377000D01*
X34597350Y-38654514D01*
X34702834Y-38916483D01*
X34857399Y-39152839D01*
X35055105Y-39354500D01*
X35288354Y-39513715D01*
X35548182Y-39624367D01*
X35630961Y-39641904D01*
X35853000Y-39519915D01*
X35853000Y-37977000D01*
X34545000Y-37977000D01*
X28160000Y-37977000D01*
X28160000Y-37323000D01*
X34545000Y-37323000D01*
X34545000Y-37723000D01*
X35853000Y-37723000D01*
X35853000Y-36180085D01*
X35630961Y-36058096D01*
X35548182Y-36075633D01*
X35288354Y-36186285D01*
X35055105Y-36345500D01*
X34857399Y-36547161D01*
X34702834Y-36783517D01*
X34597350Y-37045486D01*
X34545000Y-37323000D01*
X28160000Y-37323000D01*
X28160000Y-34638979D01*
X30540626Y-34638979D01*
X30636995Y-34903891D01*
X30927463Y-35045280D01*
X31239933Y-35127285D01*
X31562397Y-35146753D01*
X31882463Y-35102938D01*
X32187832Y-34997523D01*
X32363005Y-34903891D01*
X32459374Y-34638979D01*
X31500000Y-33679605D01*
X30540626Y-34638979D01*
X28160000Y-34638979D01*
X28160000Y-33562397D01*
X29853247Y-33562397D01*
X29897062Y-33882463D01*
X30002477Y-34187832D01*
X30096109Y-34363005D01*
X30361021Y-34459374D01*
X31320395Y-33500000D01*
X31679605Y-33500000D01*
X32638979Y-34459374D01*
X32903891Y-34363005D01*
X33045280Y-34072537D01*
X33109163Y-33829117D01*
X33805000Y-33829117D01*
X33805000Y-34170883D01*
X33871675Y-34506081D01*
X34002463Y-34821831D01*
X34192337Y-35105998D01*
X34434002Y-35347663D01*
X34718169Y-35537537D01*
X35033919Y-35668325D01*
X35369117Y-35735000D01*
X35710883Y-35735000D01*
X36046081Y-35668325D01*
X36361831Y-35537537D01*
X36645998Y-35347663D01*
X36887663Y-35105998D01*
X36891670Y-35100000D01*
X43961928Y-35100000D01*
X43974188Y-35224482D01*
X44010498Y-35344180D01*
X44069463Y-35454494D01*
X44148815Y-35551185D01*
X44245506Y-35630537D01*
X44355820Y-35689502D01*
X44475518Y-35725812D01*
X44600000Y-35738072D01*
X45414250Y-35735000D01*
X45573000Y-35576250D01*
X45573000Y-34127000D01*
X45827000Y-34127000D01*
X45827000Y-35576250D01*
X45985750Y-35735000D01*
X46800000Y-35738072D01*
X46924482Y-35725812D01*
X47044180Y-35689502D01*
X47154494Y-35630537D01*
X47251185Y-35551185D01*
X47330537Y-35454494D01*
X47389502Y-35344180D01*
X47425812Y-35224482D01*
X47438072Y-35100000D01*
X47435000Y-34285750D01*
X47276250Y-34127000D01*
X45827000Y-34127000D01*
X45573000Y-34127000D01*
X44123750Y-34127000D01*
X43965000Y-34285750D01*
X43961928Y-35100000D01*
X36891670Y-35100000D01*
X37077537Y-34821831D01*
X37208325Y-34506081D01*
X37275000Y-34170883D01*
X37275000Y-33829117D01*
X37208325Y-33493919D01*
X37077537Y-33178169D01*
X36891671Y-32900000D01*
X43961928Y-32900000D01*
X43965000Y-33714250D01*
X44123750Y-33873000D01*
X45573000Y-33873000D01*
X45573000Y-32423750D01*
X45827000Y-32423750D01*
X45827000Y-33873000D01*
X47276250Y-33873000D01*
X47435000Y-33714250D01*
X47438072Y-32900000D01*
X47425812Y-32775518D01*
X47389502Y-32655820D01*
X47330537Y-32545506D01*
X47251185Y-32448815D01*
X47154494Y-32369463D01*
X47044180Y-32310498D01*
X46924482Y-32274188D01*
X46800000Y-32261928D01*
X45985750Y-32265000D01*
X45827000Y-32423750D01*
X45573000Y-32423750D01*
X45414250Y-32265000D01*
X44600000Y-32261928D01*
X44475518Y-32274188D01*
X44355820Y-32310498D01*
X44245506Y-32369463D01*
X44148815Y-32448815D01*
X44069463Y-32545506D01*
X44010498Y-32655820D01*
X43974188Y-32775518D01*
X43961928Y-32900000D01*
X36891671Y-32900000D01*
X36887663Y-32894002D01*
X36645998Y-32652337D01*
X36361831Y-32462463D01*
X36046081Y-32331675D01*
X35710883Y-32265000D01*
X35369117Y-32265000D01*
X35033919Y-32331675D01*
X34718169Y-32462463D01*
X34434002Y-32652337D01*
X34192337Y-32894002D01*
X34002463Y-33178169D01*
X33871675Y-33493919D01*
X33805000Y-33829117D01*
X33109163Y-33829117D01*
X33127285Y-33760067D01*
X33146753Y-33437603D01*
X33102938Y-33117537D01*
X32997523Y-32812168D01*
X32903891Y-32636995D01*
X32638979Y-32540626D01*
X31679605Y-33500000D01*
X31320395Y-33500000D01*
X30361021Y-32540626D01*
X30096109Y-32636995D01*
X29954720Y-32927463D01*
X29872715Y-33239933D01*
X29853247Y-33562397D01*
X28160000Y-33562397D01*
X28160000Y-32361021D01*
X30540626Y-32361021D01*
X31500000Y-33320395D01*
X32459374Y-32361021D01*
X32363005Y-32096109D01*
X32072537Y-31954720D01*
X31760067Y-31872715D01*
X31437603Y-31853247D01*
X31117537Y-31897062D01*
X30812168Y-32002477D01*
X30636995Y-32096109D01*
X30540626Y-32361021D01*
X28160000Y-32361021D01*
X28160000Y-28238474D01*
X31060000Y-28238474D01*
X31060000Y-28561526D01*
X31123025Y-28878370D01*
X31246651Y-29176831D01*
X31426129Y-29445439D01*
X31654561Y-29673871D01*
X31923169Y-29853349D01*
X32221630Y-29976975D01*
X32538474Y-30040000D01*
X32861526Y-30040000D01*
X33178370Y-29976975D01*
X33476831Y-29853349D01*
X33745439Y-29673871D01*
X33973871Y-29445439D01*
X34153349Y-29176831D01*
X34276975Y-28878370D01*
X34340000Y-28561526D01*
X34340000Y-28238474D01*
X34276975Y-27921630D01*
X34153349Y-27623169D01*
X33973871Y-27354561D01*
X33745439Y-27126129D01*
X33476831Y-26946651D01*
X33178370Y-26823025D01*
X32861526Y-26760000D01*
X32538474Y-26760000D01*
X32221630Y-26823025D01*
X31923169Y-26946651D01*
X31654561Y-27126129D01*
X31426129Y-27354561D01*
X31246651Y-27623169D01*
X31123025Y-27921630D01*
X31060000Y-28238474D01*
X28160000Y-28238474D01*
X28160000Y-26238967D01*
X37365000Y-26238967D01*
X37365000Y-26561033D01*
X37427832Y-26876912D01*
X37551082Y-27174463D01*
X37730013Y-27442252D01*
X37957748Y-27669987D01*
X38225537Y-27848918D01*
X38523088Y-27972168D01*
X38838967Y-28035000D01*
X39161033Y-28035000D01*
X39476912Y-27972168D01*
X39774463Y-27848918D01*
X40042252Y-27669987D01*
X40269987Y-27442252D01*
X40298218Y-27400000D01*
X42361928Y-27400000D01*
X42374188Y-27524482D01*
X42410498Y-27644180D01*
X42469463Y-27754494D01*
X42548815Y-27851185D01*
X42645506Y-27930537D01*
X42755820Y-27989502D01*
X42875518Y-28025812D01*
X43000000Y-28038072D01*
X43714250Y-28035000D01*
X43873000Y-27876250D01*
X43873000Y-26527000D01*
X44127000Y-26527000D01*
X44127000Y-27876250D01*
X44285750Y-28035000D01*
X45000000Y-28038072D01*
X45124482Y-28025812D01*
X45244180Y-27989502D01*
X45354494Y-27930537D01*
X45451185Y-27851185D01*
X45530537Y-27754494D01*
X45589502Y-27644180D01*
X45625812Y-27524482D01*
X45638072Y-27400000D01*
X45635000Y-26685750D01*
X45476250Y-26527000D01*
X44127000Y-26527000D01*
X43873000Y-26527000D01*
X42523750Y-26527000D01*
X42365000Y-26685750D01*
X42361928Y-27400000D01*
X40298218Y-27400000D01*
X40448918Y-27174463D01*
X40572168Y-26876912D01*
X40635000Y-26561033D01*
X40635000Y-26238967D01*
X40572168Y-25923088D01*
X40448918Y-25625537D01*
X40298219Y-25400000D01*
X42361928Y-25400000D01*
X42365000Y-26114250D01*
X42523750Y-26273000D01*
X43873000Y-26273000D01*
X43873000Y-24923750D01*
X44127000Y-24923750D01*
X44127000Y-26273000D01*
X45476250Y-26273000D01*
X45635000Y-26114250D01*
X45638072Y-25400000D01*
X45625812Y-25275518D01*
X45589502Y-25155820D01*
X45530537Y-25045506D01*
X45451185Y-24948815D01*
X45354494Y-24869463D01*
X45244180Y-24810498D01*
X45124482Y-24774188D01*
X45000000Y-24761928D01*
X44285750Y-24765000D01*
X44127000Y-24923750D01*
X43873000Y-24923750D01*
X43714250Y-24765000D01*
X43000000Y-24761928D01*
X42875518Y-24774188D01*
X42755820Y-24810498D01*
X42645506Y-24869463D01*
X42548815Y-24948815D01*
X42469463Y-25045506D01*
X42410498Y-25155820D01*
X42374188Y-25275518D01*
X42361928Y-25400000D01*
X40298219Y-25400000D01*
X40269987Y-25357748D01*
X40042252Y-25130013D01*
X39774463Y-24951082D01*
X39476912Y-24827832D01*
X39161033Y-24765000D01*
X38838967Y-24765000D01*
X38523088Y-24827832D01*
X38225537Y-24951082D01*
X37957748Y-25130013D01*
X37730013Y-25357748D01*
X37551082Y-25625537D01*
X37427832Y-25923088D01*
X37365000Y-26238967D01*
X28160000Y-26238967D01*
X28160000Y-22396824D01*
X28161633Y-22400766D01*
X28543024Y-22971558D01*
X29028442Y-23456976D01*
X29599234Y-23838367D01*
X30233463Y-24101073D01*
X30906758Y-24235000D01*
X31593242Y-24235000D01*
X32266537Y-24101073D01*
X32900766Y-23838367D01*
X33471558Y-23456976D01*
X33956976Y-22971558D01*
X34338367Y-22400766D01*
X34601073Y-21766537D01*
X34735000Y-21093242D01*
X34735000Y-20406758D01*
X34601073Y-19733463D01*
X34338367Y-19099234D01*
X33956976Y-18528442D01*
X33471558Y-18043024D01*
X32900766Y-17661633D01*
X32896824Y-17660000D01*
X36612190Y-17660000D01*
X36357748Y-17830013D01*
M02*
