M48
; DRILL file {KiCad (5.1.5)-3} date 07/19/22 15:35:47
; FORMAT={-:-/ absolute / metric / decimal}
; #@! TF.CreationDate,2022-07-19T15:35:47+02:00
; #@! TF.GenerationSoftware,Kicad,Pcbnew,(5.1.5)-3
; #@! TF.FileFunction,Plated,1,2,PTH
FMAT,2
METRIC
T1C0.800
T2C1.000
T3C1.010
T4C1.100
T5C3.200
%
G90
G05
T1
X34.7Y-48.9
X44.86Y-48.9
X49.25Y-49.6
X49.25Y-59.76
X31.8Y-40.6
X31.8Y-45.6
X39.44Y-67.4
X49.6Y-67.4
X31.8Y-57.8
X31.8Y-62.8
X35.98Y-52.35
X35.98Y-59.97
X38.52Y-52.35
X38.52Y-59.97
X41.06Y-52.35
X41.06Y-59.97
X43.6Y-52.35
X43.6Y-59.97
X31.3Y-67.3
X36.3Y-67.3
X49.25Y-36.5
X49.25Y-46.66
X53.0Y-49.59
X53.0Y-59.75
X31.3Y-70.8
X36.3Y-70.8
X53.0Y-63.68
X53.0Y-71.3
X31.8Y-48.6
X31.8Y-53.6
X53.0Y-36.44
X53.0Y-46.6
X34.8Y-63.6
X44.96Y-63.6
X35.98Y-37.85
X35.98Y-45.47
X38.52Y-37.85
X38.52Y-45.47
X41.06Y-37.85
X41.06Y-45.47
X43.6Y-37.85
X43.6Y-45.47
T2
X38.35Y-77.05
X44.9Y-19.1
X44.85Y-77.05
X39.0Y-26.4
X44.0Y-26.4
X37.4Y-19.1
T3
X31.5Y-33.5
X32.7Y-28.4
T4
X35.54Y-34.0
X45.7Y-34.0
X40.92Y-71.0
X43.46Y-71.0
X46.0Y-71.0
T5
X31.25Y-20.75
X52.0Y-20.75
X52.0Y-77.2
X31.25Y-77.2
T0
M30
