G04 #@! TF.GenerationSoftware,KiCad,Pcbnew,(5.1.5)-3*
G04 #@! TF.CreationDate,2022-07-19T15:35:49+02:00*
G04 #@! TF.ProjectId,Wireless LEDs,57697265-6c65-4737-9320-4c4544732e6b,rev?*
G04 #@! TF.SameCoordinates,Original*
G04 #@! TF.FileFunction,Legend,Top*
G04 #@! TF.FilePolarity,Positive*
%FSLAX46Y46*%
G04 Gerber Fmt 4.6, Leading zero omitted, Abs format (unit mm)*
G04 Created by KiCad (PCBNEW (5.1.5)-3) date 2022-07-19 15:35:49*
%MOMM*%
%LPD*%
G04 APERTURE LIST*
%ADD10C,0.150000*%
%ADD11C,0.120000*%
G04 APERTURE END LIST*
D10*
X48871309Y-25577380D02*
X48871309Y-26291666D01*
X48823690Y-26434523D01*
X48728452Y-26529761D01*
X48585595Y-26577380D01*
X48490357Y-26577380D01*
X49776071Y-25910714D02*
X49776071Y-26577380D01*
X49347500Y-25910714D02*
X49347500Y-26434523D01*
X49395119Y-26529761D01*
X49490357Y-26577380D01*
X49633214Y-26577380D01*
X49728452Y-26529761D01*
X49776071Y-26482142D01*
X50395119Y-26577380D02*
X50299880Y-26529761D01*
X50252261Y-26434523D01*
X50252261Y-25577380D01*
X50680833Y-25910714D02*
X50918928Y-26577380D01*
X51157023Y-25910714D02*
X50918928Y-26577380D01*
X50823690Y-26815476D01*
X50776071Y-26863095D01*
X50680833Y-26910714D01*
X52347500Y-25577380D02*
X52252261Y-25767857D01*
X52728452Y-25672619D02*
X52776071Y-25625000D01*
X52871309Y-25577380D01*
X53109404Y-25577380D01*
X53204642Y-25625000D01*
X53252261Y-25672619D01*
X53299880Y-25767857D01*
X53299880Y-25863095D01*
X53252261Y-26005952D01*
X52680833Y-26577380D01*
X53299880Y-26577380D01*
X53680833Y-25672619D02*
X53728452Y-25625000D01*
X53823690Y-25577380D01*
X54061785Y-25577380D01*
X54157023Y-25625000D01*
X54204642Y-25672619D01*
X54252261Y-25767857D01*
X54252261Y-25863095D01*
X54204642Y-26005952D01*
X53633214Y-26577380D01*
X54252261Y-26577380D01*
X48585595Y-28227380D02*
X48585595Y-27560714D01*
X48585595Y-27751190D02*
X48633214Y-27655952D01*
X48680833Y-27608333D01*
X48776071Y-27560714D01*
X48871309Y-27560714D01*
X49585595Y-28179761D02*
X49490357Y-28227380D01*
X49299880Y-28227380D01*
X49204642Y-28179761D01*
X49157023Y-28084523D01*
X49157023Y-27703571D01*
X49204642Y-27608333D01*
X49299880Y-27560714D01*
X49490357Y-27560714D01*
X49585595Y-27608333D01*
X49633214Y-27703571D01*
X49633214Y-27798809D01*
X49157023Y-27894047D01*
X49966547Y-27560714D02*
X50204642Y-28227380D01*
X50442738Y-27560714D01*
X52109404Y-28227380D02*
X51537976Y-28227380D01*
X51823690Y-28227380D02*
X51823690Y-27227380D01*
X51728452Y-27370238D01*
X51633214Y-27465476D01*
X51537976Y-27513095D01*
D11*
X30500000Y-25650000D02*
X33700000Y-25650000D01*
X30500000Y-36251000D02*
X33700000Y-36251000D01*
X33700000Y-27521000D02*
X33700000Y-25650000D01*
X33700000Y-36251000D02*
X33700000Y-29278000D01*
X30500000Y-32621000D02*
X30500000Y-25650000D01*
X30500000Y-36251000D02*
X30500000Y-34379000D01*
X40480000Y-67400000D02*
X41250000Y-67400000D01*
X48560000Y-67400000D02*
X47790000Y-67400000D01*
X41250000Y-68770000D02*
X47790000Y-68770000D01*
X41250000Y-66030000D02*
X41250000Y-68770000D01*
X47790000Y-66030000D02*
X41250000Y-66030000D01*
X47790000Y-68770000D02*
X47790000Y-66030000D01*
X43920000Y-63600000D02*
X43150000Y-63600000D01*
X35840000Y-63600000D02*
X36610000Y-63600000D01*
X43150000Y-62230000D02*
X36610000Y-62230000D01*
X43150000Y-64970000D02*
X43150000Y-62230000D01*
X36610000Y-64970000D02*
X43150000Y-64970000D01*
X36610000Y-62230000D02*
X36610000Y-64970000D01*
X43820000Y-48900000D02*
X43050000Y-48900000D01*
X35740000Y-48900000D02*
X36510000Y-48900000D01*
X43050000Y-47530000D02*
X36510000Y-47530000D01*
X43050000Y-50270000D02*
X43050000Y-47530000D01*
X36510000Y-50270000D02*
X43050000Y-50270000D01*
X36510000Y-47530000D02*
X36510000Y-50270000D01*
X42560000Y-35470000D02*
X42560000Y-32530000D01*
X42320000Y-35470000D02*
X42320000Y-32530000D01*
X42440000Y-35470000D02*
X42440000Y-32530000D01*
X36880000Y-34000000D02*
X37900000Y-34000000D01*
X44360000Y-34000000D02*
X43340000Y-34000000D01*
X37900000Y-35470000D02*
X43340000Y-35470000D01*
X37900000Y-32530000D02*
X37900000Y-35470000D01*
X43340000Y-32530000D02*
X37900000Y-32530000D01*
X43340000Y-35470000D02*
X43340000Y-32530000D01*
X51880000Y-69010000D02*
X54120000Y-69010000D01*
X51880000Y-68770000D02*
X54120000Y-68770000D01*
X51880000Y-68890000D02*
X54120000Y-68890000D01*
X53000000Y-64720000D02*
X53000000Y-65370000D01*
X53000000Y-70260000D02*
X53000000Y-69610000D01*
X51880000Y-65370000D02*
X51880000Y-69610000D01*
X54120000Y-65370000D02*
X51880000Y-65370000D01*
X54120000Y-69610000D02*
X54120000Y-65370000D01*
X51880000Y-69610000D02*
X54120000Y-69610000D01*
X32855000Y-40830000D02*
X32870000Y-40830000D01*
X30730000Y-40830000D02*
X30745000Y-40830000D01*
X32855000Y-45370000D02*
X32870000Y-45370000D01*
X30730000Y-45370000D02*
X30745000Y-45370000D01*
X32870000Y-45370000D02*
X32870000Y-40830000D01*
X30730000Y-45370000D02*
X30730000Y-40830000D01*
X41609000Y-74270000D02*
X41609000Y-72760000D01*
X45310000Y-74270000D02*
X45310000Y-72760000D01*
X48580000Y-72760000D02*
X38340000Y-72760000D01*
X38340000Y-74270000D02*
X38340000Y-69629000D01*
X48580000Y-74270000D02*
X48580000Y-69629000D01*
X48580000Y-69629000D02*
X38340000Y-69629000D01*
X48580000Y-74270000D02*
X38340000Y-74270000D01*
X44990000Y-61410000D02*
X44990000Y-50910000D01*
X34590000Y-61410000D02*
X44990000Y-61410000D01*
X34590000Y-50910000D02*
X34590000Y-61410000D01*
X44990000Y-50910000D02*
X34590000Y-50910000D01*
X44930000Y-58410000D02*
X44930000Y-57160000D01*
X34650000Y-58410000D02*
X44930000Y-58410000D01*
X34650000Y-53910000D02*
X34650000Y-58410000D01*
X44930000Y-53910000D02*
X34650000Y-53910000D01*
X44930000Y-55160000D02*
X44930000Y-53910000D01*
X44930000Y-57160000D02*
G75*
G02X44930000Y-55160000I0J1000000D01*
G01*
X44990000Y-46910000D02*
X44990000Y-36410000D01*
X34590000Y-46910000D02*
X44990000Y-46910000D01*
X34590000Y-36410000D02*
X34590000Y-46910000D01*
X44990000Y-36410000D02*
X34590000Y-36410000D01*
X44930000Y-43910000D02*
X44930000Y-42660000D01*
X34650000Y-43910000D02*
X44930000Y-43910000D01*
X34650000Y-39410000D02*
X34650000Y-43910000D01*
X44930000Y-39410000D02*
X34650000Y-39410000D01*
X44930000Y-40660000D02*
X44930000Y-39410000D01*
X44930000Y-42660000D02*
G75*
G02X44930000Y-40660000I0J1000000D01*
G01*
X32920000Y-54720000D02*
X30680000Y-54720000D01*
X32920000Y-47480000D02*
X30680000Y-47480000D01*
X30680000Y-47480000D02*
X30680000Y-54720000D01*
X32920000Y-47480000D02*
X32920000Y-54720000D01*
X32920000Y-63920000D02*
X30680000Y-63920000D01*
X32920000Y-56680000D02*
X30680000Y-56680000D01*
X30680000Y-56680000D02*
X30680000Y-63920000D01*
X32920000Y-56680000D02*
X32920000Y-63920000D01*
X49250000Y-58720000D02*
X49250000Y-57950000D01*
X49250000Y-50640000D02*
X49250000Y-51410000D01*
X50620000Y-57950000D02*
X50620000Y-51410000D01*
X47880000Y-57950000D02*
X50620000Y-57950000D01*
X47880000Y-51410000D02*
X47880000Y-57950000D01*
X50620000Y-51410000D02*
X47880000Y-51410000D01*
X53000000Y-50630000D02*
X53000000Y-51400000D01*
X53000000Y-58710000D02*
X53000000Y-57940000D01*
X51630000Y-51400000D02*
X51630000Y-57940000D01*
X54370000Y-51400000D02*
X51630000Y-51400000D01*
X54370000Y-57940000D02*
X54370000Y-51400000D01*
X51630000Y-57940000D02*
X54370000Y-57940000D01*
X49250000Y-45620000D02*
X49250000Y-44850000D01*
X49250000Y-37540000D02*
X49250000Y-38310000D01*
X50620000Y-44850000D02*
X50620000Y-38310000D01*
X47880000Y-44850000D02*
X50620000Y-44850000D01*
X47880000Y-38310000D02*
X47880000Y-44850000D01*
X50620000Y-38310000D02*
X47880000Y-38310000D01*
X53000000Y-37480000D02*
X53000000Y-38250000D01*
X53000000Y-45560000D02*
X53000000Y-44790000D01*
X51630000Y-38250000D02*
X51630000Y-44790000D01*
X54370000Y-38250000D02*
X51630000Y-38250000D01*
X54370000Y-44790000D02*
X54370000Y-38250000D01*
X51630000Y-44790000D02*
X54370000Y-44790000D01*
X46101000Y-77050000D02*
G75*
G03X46101000Y-77050000I-1251000J0D01*
G01*
X39601000Y-77050000D02*
G75*
G03X39601000Y-77050000I-1251000J0D01*
G01*
X46151000Y-19100000D02*
G75*
G03X46151000Y-19100000I-1251000J0D01*
G01*
X38651000Y-19100000D02*
G75*
G03X38651000Y-19100000I-1251000J0D01*
G01*
X37420000Y-69680000D02*
X37420000Y-71920000D01*
X30180000Y-69680000D02*
X30180000Y-71920000D01*
X30180000Y-71920000D02*
X37420000Y-71920000D01*
X30180000Y-69680000D02*
X37420000Y-69680000D01*
X37420000Y-66180000D02*
X37420000Y-68420000D01*
X30180000Y-66180000D02*
X30180000Y-68420000D01*
X30180000Y-68420000D02*
X37420000Y-68420000D01*
X30180000Y-66180000D02*
X37420000Y-66180000D01*
X46479646Y-29775000D02*
X46479646Y-28775000D01*
X46979646Y-29275000D02*
X45979646Y-29275000D01*
X36419000Y-26999000D02*
X36419000Y-25801000D01*
X36459000Y-27262000D02*
X36459000Y-25538000D01*
X36499000Y-27462000D02*
X36499000Y-25338000D01*
X36539000Y-27630000D02*
X36539000Y-25170000D01*
X36579000Y-27778000D02*
X36579000Y-25022000D01*
X36619000Y-27910000D02*
X36619000Y-24890000D01*
X36659000Y-28030000D02*
X36659000Y-24770000D01*
X36699000Y-28142000D02*
X36699000Y-24658000D01*
X36739000Y-28246000D02*
X36739000Y-24554000D01*
X36779000Y-28344000D02*
X36779000Y-24456000D01*
X36819000Y-28437000D02*
X36819000Y-24363000D01*
X36859000Y-28525000D02*
X36859000Y-24275000D01*
X36899000Y-28609000D02*
X36899000Y-24191000D01*
X36939000Y-28689000D02*
X36939000Y-24111000D01*
X36979000Y-28765000D02*
X36979000Y-24035000D01*
X37019000Y-28839000D02*
X37019000Y-23961000D01*
X37059000Y-28910000D02*
X37059000Y-23890000D01*
X37099000Y-28979000D02*
X37099000Y-23821000D01*
X37139000Y-29045000D02*
X37139000Y-23755000D01*
X37179000Y-29109000D02*
X37179000Y-23691000D01*
X37219000Y-29170000D02*
X37219000Y-23630000D01*
X37259000Y-29230000D02*
X37259000Y-23570000D01*
X37299000Y-29289000D02*
X37299000Y-23511000D01*
X37339000Y-29345000D02*
X37339000Y-23455000D01*
X37379000Y-29400000D02*
X37379000Y-23400000D01*
X37419000Y-29454000D02*
X37419000Y-23346000D01*
X37459000Y-29506000D02*
X37459000Y-23294000D01*
X37499000Y-29556000D02*
X37499000Y-23244000D01*
X37539000Y-29606000D02*
X37539000Y-23194000D01*
X37579000Y-29654000D02*
X37579000Y-23146000D01*
X37619000Y-29701000D02*
X37619000Y-23099000D01*
X37659000Y-29747000D02*
X37659000Y-23053000D01*
X37699000Y-29792000D02*
X37699000Y-23008000D01*
X37739000Y-29836000D02*
X37739000Y-22964000D01*
X37779000Y-25159000D02*
X37779000Y-22922000D01*
X37779000Y-29878000D02*
X37779000Y-27641000D01*
X37819000Y-25159000D02*
X37819000Y-22880000D01*
X37819000Y-29920000D02*
X37819000Y-27641000D01*
X37859000Y-25159000D02*
X37859000Y-22839000D01*
X37859000Y-29961000D02*
X37859000Y-27641000D01*
X37899000Y-25159000D02*
X37899000Y-22799000D01*
X37899000Y-30001000D02*
X37899000Y-27641000D01*
X37939000Y-25159000D02*
X37939000Y-22760000D01*
X37939000Y-30040000D02*
X37939000Y-27641000D01*
X37979000Y-25159000D02*
X37979000Y-22721000D01*
X37979000Y-30079000D02*
X37979000Y-27641000D01*
X38019000Y-25159000D02*
X38019000Y-22684000D01*
X38019000Y-30116000D02*
X38019000Y-27641000D01*
X38059000Y-25159000D02*
X38059000Y-22647000D01*
X38059000Y-30153000D02*
X38059000Y-27641000D01*
X38099000Y-25159000D02*
X38099000Y-22611000D01*
X38099000Y-30189000D02*
X38099000Y-27641000D01*
X38139000Y-25159000D02*
X38139000Y-22576000D01*
X38139000Y-30224000D02*
X38139000Y-27641000D01*
X38179000Y-25159000D02*
X38179000Y-22542000D01*
X38179000Y-30258000D02*
X38179000Y-27641000D01*
X38219000Y-25159000D02*
X38219000Y-22508000D01*
X38219000Y-30292000D02*
X38219000Y-27641000D01*
X38259000Y-25159000D02*
X38259000Y-22475000D01*
X38259000Y-30325000D02*
X38259000Y-27641000D01*
X38299000Y-25159000D02*
X38299000Y-22443000D01*
X38299000Y-30357000D02*
X38299000Y-27641000D01*
X38339000Y-25159000D02*
X38339000Y-22411000D01*
X38339000Y-30389000D02*
X38339000Y-27641000D01*
X38379000Y-25159000D02*
X38379000Y-22380000D01*
X38379000Y-30420000D02*
X38379000Y-27641000D01*
X38419000Y-25159000D02*
X38419000Y-22350000D01*
X38419000Y-30450000D02*
X38419000Y-27641000D01*
X38459000Y-25159000D02*
X38459000Y-22320000D01*
X38459000Y-30480000D02*
X38459000Y-27641000D01*
X38499000Y-25159000D02*
X38499000Y-22290000D01*
X38499000Y-30510000D02*
X38499000Y-27641000D01*
X38539000Y-25159000D02*
X38539000Y-22262000D01*
X38539000Y-30538000D02*
X38539000Y-27641000D01*
X38579000Y-25159000D02*
X38579000Y-22234000D01*
X38579000Y-30566000D02*
X38579000Y-27641000D01*
X38619000Y-25159000D02*
X38619000Y-22206000D01*
X38619000Y-30594000D02*
X38619000Y-27641000D01*
X38659000Y-25159000D02*
X38659000Y-22179000D01*
X38659000Y-30621000D02*
X38659000Y-27641000D01*
X38699000Y-25159000D02*
X38699000Y-22153000D01*
X38699000Y-30647000D02*
X38699000Y-27641000D01*
X38739000Y-25159000D02*
X38739000Y-22127000D01*
X38739000Y-30673000D02*
X38739000Y-27641000D01*
X38779000Y-25159000D02*
X38779000Y-22102000D01*
X38779000Y-30698000D02*
X38779000Y-27641000D01*
X38819000Y-25159000D02*
X38819000Y-22077000D01*
X38819000Y-30723000D02*
X38819000Y-27641000D01*
X38859000Y-25159000D02*
X38859000Y-22053000D01*
X38859000Y-30747000D02*
X38859000Y-27641000D01*
X38899000Y-25159000D02*
X38899000Y-22029000D01*
X38899000Y-30771000D02*
X38899000Y-27641000D01*
X38939000Y-25159000D02*
X38939000Y-22005000D01*
X38939000Y-30795000D02*
X38939000Y-27641000D01*
X38979000Y-25159000D02*
X38979000Y-21983000D01*
X38979000Y-30817000D02*
X38979000Y-27641000D01*
X39019000Y-25159000D02*
X39019000Y-21960000D01*
X39019000Y-30840000D02*
X39019000Y-27641000D01*
X39059000Y-25159000D02*
X39059000Y-21938000D01*
X39059000Y-30862000D02*
X39059000Y-27641000D01*
X39099000Y-25159000D02*
X39099000Y-21917000D01*
X39099000Y-30883000D02*
X39099000Y-27641000D01*
X39139000Y-25159000D02*
X39139000Y-21896000D01*
X39139000Y-30904000D02*
X39139000Y-27641000D01*
X39179000Y-25159000D02*
X39179000Y-21875000D01*
X39179000Y-30925000D02*
X39179000Y-27641000D01*
X39219000Y-25159000D02*
X39219000Y-21855000D01*
X39219000Y-30945000D02*
X39219000Y-27641000D01*
X39259000Y-25159000D02*
X39259000Y-21836000D01*
X39259000Y-30964000D02*
X39259000Y-27641000D01*
X39299000Y-25159000D02*
X39299000Y-21816000D01*
X39299000Y-30984000D02*
X39299000Y-27641000D01*
X39339000Y-25159000D02*
X39339000Y-21797000D01*
X39339000Y-31003000D02*
X39339000Y-27641000D01*
X39379000Y-25159000D02*
X39379000Y-21779000D01*
X39379000Y-31021000D02*
X39379000Y-27641000D01*
X39419000Y-25159000D02*
X39419000Y-21761000D01*
X39419000Y-31039000D02*
X39419000Y-27641000D01*
X39459000Y-25159000D02*
X39459000Y-21743000D01*
X39459000Y-31057000D02*
X39459000Y-27641000D01*
X39499000Y-25159000D02*
X39499000Y-21726000D01*
X39499000Y-31074000D02*
X39499000Y-27641000D01*
X39539000Y-25159000D02*
X39539000Y-21710000D01*
X39539000Y-31090000D02*
X39539000Y-27641000D01*
X39579000Y-25159000D02*
X39579000Y-21693000D01*
X39579000Y-31107000D02*
X39579000Y-27641000D01*
X39619000Y-25159000D02*
X39619000Y-21677000D01*
X39619000Y-31123000D02*
X39619000Y-27641000D01*
X39659000Y-25159000D02*
X39659000Y-21662000D01*
X39659000Y-31138000D02*
X39659000Y-27641000D01*
X39699000Y-25159000D02*
X39699000Y-21646000D01*
X39699000Y-31154000D02*
X39699000Y-27641000D01*
X39739000Y-25159000D02*
X39739000Y-21632000D01*
X39739000Y-31168000D02*
X39739000Y-27641000D01*
X39779000Y-25159000D02*
X39779000Y-21617000D01*
X39779000Y-31183000D02*
X39779000Y-27641000D01*
X39819000Y-25159000D02*
X39819000Y-21603000D01*
X39819000Y-31197000D02*
X39819000Y-27641000D01*
X39859000Y-25159000D02*
X39859000Y-21589000D01*
X39859000Y-31211000D02*
X39859000Y-27641000D01*
X39899000Y-25159000D02*
X39899000Y-21576000D01*
X39899000Y-31224000D02*
X39899000Y-27641000D01*
X39939000Y-25159000D02*
X39939000Y-21563000D01*
X39939000Y-31237000D02*
X39939000Y-27641000D01*
X39979000Y-25159000D02*
X39979000Y-21550000D01*
X39979000Y-31250000D02*
X39979000Y-27641000D01*
X40019000Y-25159000D02*
X40019000Y-21538000D01*
X40019000Y-31262000D02*
X40019000Y-27641000D01*
X40059000Y-25159000D02*
X40059000Y-21526000D01*
X40059000Y-31274000D02*
X40059000Y-27641000D01*
X40099000Y-25159000D02*
X40099000Y-21515000D01*
X40099000Y-31285000D02*
X40099000Y-27641000D01*
X40139000Y-25159000D02*
X40139000Y-21503000D01*
X40139000Y-31297000D02*
X40139000Y-27641000D01*
X40179000Y-25159000D02*
X40179000Y-21493000D01*
X40179000Y-31307000D02*
X40179000Y-27641000D01*
X40219000Y-25159000D02*
X40219000Y-21482000D01*
X40219000Y-31318000D02*
X40219000Y-27641000D01*
X40259000Y-31328000D02*
X40259000Y-21472000D01*
X40299000Y-31338000D02*
X40299000Y-21462000D01*
X40339000Y-31347000D02*
X40339000Y-21453000D01*
X40379000Y-31356000D02*
X40379000Y-21444000D01*
X40419000Y-31365000D02*
X40419000Y-21435000D01*
X40459000Y-31374000D02*
X40459000Y-21426000D01*
X40499000Y-31382000D02*
X40499000Y-21418000D01*
X40539000Y-31390000D02*
X40539000Y-21410000D01*
X40579000Y-31397000D02*
X40579000Y-21403000D01*
X40619000Y-31404000D02*
X40619000Y-21396000D01*
X40659000Y-31411000D02*
X40659000Y-21389000D01*
X40699000Y-31418000D02*
X40699000Y-21382000D01*
X40739000Y-31424000D02*
X40739000Y-21376000D01*
X40779000Y-31430000D02*
X40779000Y-21370000D01*
X40820000Y-31435000D02*
X40820000Y-21365000D01*
X40860000Y-31440000D02*
X40860000Y-21360000D01*
X40900000Y-31445000D02*
X40900000Y-21355000D01*
X40940000Y-31450000D02*
X40940000Y-21350000D01*
X40980000Y-31454000D02*
X40980000Y-21346000D01*
X41020000Y-31458000D02*
X41020000Y-21342000D01*
X41060000Y-31462000D02*
X41060000Y-21338000D01*
X41100000Y-31465000D02*
X41100000Y-21335000D01*
X41140000Y-31468000D02*
X41140000Y-21332000D01*
X41180000Y-31470000D02*
X41180000Y-21330000D01*
X41220000Y-31473000D02*
X41220000Y-21327000D01*
X41260000Y-31475000D02*
X41260000Y-21325000D01*
X41300000Y-31477000D02*
X41300000Y-21323000D01*
X41340000Y-31478000D02*
X41340000Y-21322000D01*
X41380000Y-31479000D02*
X41380000Y-21321000D01*
X41420000Y-31480000D02*
X41420000Y-21320000D01*
X41460000Y-31480000D02*
X41460000Y-21320000D01*
X41500000Y-31480000D02*
X41500000Y-21320000D01*
X46620000Y-26400000D02*
G75*
G03X46620000Y-26400000I-5120000J0D01*
G01*
D10*
X29166666Y-30428571D02*
X28833333Y-30428571D01*
X28833333Y-30952380D02*
X28833333Y-29952380D01*
X29309523Y-29952380D01*
X30214285Y-30952380D02*
X29642857Y-30952380D01*
X29928571Y-30952380D02*
X29928571Y-29952380D01*
X29833333Y-30095238D01*
X29738095Y-30190476D01*
X29642857Y-30238095D01*
X49433333Y-66152380D02*
X49100000Y-65676190D01*
X48861904Y-66152380D02*
X48861904Y-65152380D01*
X49242857Y-65152380D01*
X49338095Y-65200000D01*
X49385714Y-65247619D01*
X49433333Y-65342857D01*
X49433333Y-65485714D01*
X49385714Y-65580952D01*
X49338095Y-65628571D01*
X49242857Y-65676190D01*
X48861904Y-65676190D01*
X49766666Y-65152380D02*
X50385714Y-65152380D01*
X50052380Y-65533333D01*
X50195238Y-65533333D01*
X50290476Y-65580952D01*
X50338095Y-65628571D01*
X50385714Y-65723809D01*
X50385714Y-65961904D01*
X50338095Y-66057142D01*
X50290476Y-66104761D01*
X50195238Y-66152380D01*
X49909523Y-66152380D01*
X49814285Y-66104761D01*
X49766666Y-66057142D01*
X47033333Y-64052380D02*
X46700000Y-63576190D01*
X46461904Y-64052380D02*
X46461904Y-63052380D01*
X46842857Y-63052380D01*
X46938095Y-63100000D01*
X46985714Y-63147619D01*
X47033333Y-63242857D01*
X47033333Y-63385714D01*
X46985714Y-63480952D01*
X46938095Y-63528571D01*
X46842857Y-63576190D01*
X46461904Y-63576190D01*
X47414285Y-63147619D02*
X47461904Y-63100000D01*
X47557142Y-63052380D01*
X47795238Y-63052380D01*
X47890476Y-63100000D01*
X47938095Y-63147619D01*
X47985714Y-63242857D01*
X47985714Y-63338095D01*
X47938095Y-63480952D01*
X47366666Y-64052380D01*
X47985714Y-64052380D01*
X46833333Y-49252380D02*
X46500000Y-48776190D01*
X46261904Y-49252380D02*
X46261904Y-48252380D01*
X46642857Y-48252380D01*
X46738095Y-48300000D01*
X46785714Y-48347619D01*
X46833333Y-48442857D01*
X46833333Y-48585714D01*
X46785714Y-48680952D01*
X46738095Y-48728571D01*
X46642857Y-48776190D01*
X46261904Y-48776190D01*
X47785714Y-49252380D02*
X47214285Y-49252380D01*
X47500000Y-49252380D02*
X47500000Y-48252380D01*
X47404761Y-48395238D01*
X47309523Y-48490476D01*
X47214285Y-48538095D01*
X34661904Y-32252380D02*
X34661904Y-31252380D01*
X34900000Y-31252380D01*
X35042857Y-31300000D01*
X35138095Y-31395238D01*
X35185714Y-31490476D01*
X35233333Y-31680952D01*
X35233333Y-31823809D01*
X35185714Y-32014285D01*
X35138095Y-32109523D01*
X35042857Y-32204761D01*
X34900000Y-32252380D01*
X34661904Y-32252380D01*
X35614285Y-31347619D02*
X35661904Y-31300000D01*
X35757142Y-31252380D01*
X35995238Y-31252380D01*
X36090476Y-31300000D01*
X36138095Y-31347619D01*
X36185714Y-31442857D01*
X36185714Y-31538095D01*
X36138095Y-31680952D01*
X35566666Y-32252380D01*
X36185714Y-32252380D01*
X52261904Y-73752380D02*
X52261904Y-72752380D01*
X52500000Y-72752380D01*
X52642857Y-72800000D01*
X52738095Y-72895238D01*
X52785714Y-72990476D01*
X52833333Y-73180952D01*
X52833333Y-73323809D01*
X52785714Y-73514285D01*
X52738095Y-73609523D01*
X52642857Y-73704761D01*
X52500000Y-73752380D01*
X52261904Y-73752380D01*
X53785714Y-73752380D02*
X53214285Y-73752380D01*
X53500000Y-73752380D02*
X53500000Y-72752380D01*
X53404761Y-72895238D01*
X53309523Y-72990476D01*
X53214285Y-73038095D01*
X29383333Y-43307142D02*
X29335714Y-43354761D01*
X29192857Y-43402380D01*
X29097619Y-43402380D01*
X28954761Y-43354761D01*
X28859523Y-43259523D01*
X28811904Y-43164285D01*
X28764285Y-42973809D01*
X28764285Y-42830952D01*
X28811904Y-42640476D01*
X28859523Y-42545238D01*
X28954761Y-42450000D01*
X29097619Y-42402380D01*
X29192857Y-42402380D01*
X29335714Y-42450000D01*
X29383333Y-42497619D01*
X30335714Y-43402380D02*
X29764285Y-43402380D01*
X30050000Y-43402380D02*
X30050000Y-42402380D01*
X29954761Y-42545238D01*
X29859523Y-42640476D01*
X29764285Y-42688095D01*
X47804761Y-75747619D02*
X47709523Y-75700000D01*
X47614285Y-75604761D01*
X47471428Y-75461904D01*
X47376190Y-75414285D01*
X47280952Y-75414285D01*
X47328571Y-75652380D02*
X47233333Y-75604761D01*
X47138095Y-75509523D01*
X47090476Y-75319047D01*
X47090476Y-74985714D01*
X47138095Y-74795238D01*
X47233333Y-74700000D01*
X47328571Y-74652380D01*
X47519047Y-74652380D01*
X47614285Y-74700000D01*
X47709523Y-74795238D01*
X47757142Y-74985714D01*
X47757142Y-75319047D01*
X47709523Y-75509523D01*
X47614285Y-75604761D01*
X47519047Y-75652380D01*
X47328571Y-75652380D01*
X48709523Y-75652380D02*
X48138095Y-75652380D01*
X48423809Y-75652380D02*
X48423809Y-74652380D01*
X48328571Y-74795238D01*
X48233333Y-74890476D01*
X48138095Y-74938095D01*
X45168095Y-55612380D02*
X45168095Y-56421904D01*
X45215714Y-56517142D01*
X45263333Y-56564761D01*
X45358571Y-56612380D01*
X45549047Y-56612380D01*
X45644285Y-56564761D01*
X45691904Y-56517142D01*
X45739523Y-56421904D01*
X45739523Y-55612380D01*
X46168095Y-55707619D02*
X46215714Y-55660000D01*
X46310952Y-55612380D01*
X46549047Y-55612380D01*
X46644285Y-55660000D01*
X46691904Y-55707619D01*
X46739523Y-55802857D01*
X46739523Y-55898095D01*
X46691904Y-56040952D01*
X46120476Y-56612380D01*
X46739523Y-56612380D01*
X45168095Y-41112380D02*
X45168095Y-41921904D01*
X45215714Y-42017142D01*
X45263333Y-42064761D01*
X45358571Y-42112380D01*
X45549047Y-42112380D01*
X45644285Y-42064761D01*
X45691904Y-42017142D01*
X45739523Y-41921904D01*
X45739523Y-41112380D01*
X46739523Y-42112380D02*
X46168095Y-42112380D01*
X46453809Y-42112380D02*
X46453809Y-41112380D01*
X46358571Y-41255238D01*
X46263333Y-41350476D01*
X46168095Y-41398095D01*
X29283333Y-51407142D02*
X29235714Y-51454761D01*
X29092857Y-51502380D01*
X28997619Y-51502380D01*
X28854761Y-51454761D01*
X28759523Y-51359523D01*
X28711904Y-51264285D01*
X28664285Y-51073809D01*
X28664285Y-50930952D01*
X28711904Y-50740476D01*
X28759523Y-50645238D01*
X28854761Y-50550000D01*
X28997619Y-50502380D01*
X29092857Y-50502380D01*
X29235714Y-50550000D01*
X29283333Y-50597619D01*
X30140476Y-50502380D02*
X29950000Y-50502380D01*
X29854761Y-50550000D01*
X29807142Y-50597619D01*
X29711904Y-50740476D01*
X29664285Y-50930952D01*
X29664285Y-51311904D01*
X29711904Y-51407142D01*
X29759523Y-51454761D01*
X29854761Y-51502380D01*
X30045238Y-51502380D01*
X30140476Y-51454761D01*
X30188095Y-51407142D01*
X30235714Y-51311904D01*
X30235714Y-51073809D01*
X30188095Y-50978571D01*
X30140476Y-50930952D01*
X30045238Y-50883333D01*
X29854761Y-50883333D01*
X29759523Y-50930952D01*
X29711904Y-50978571D01*
X29664285Y-51073809D01*
X29283333Y-60857142D02*
X29235714Y-60904761D01*
X29092857Y-60952380D01*
X28997619Y-60952380D01*
X28854761Y-60904761D01*
X28759523Y-60809523D01*
X28711904Y-60714285D01*
X28664285Y-60523809D01*
X28664285Y-60380952D01*
X28711904Y-60190476D01*
X28759523Y-60095238D01*
X28854761Y-60000000D01*
X28997619Y-59952380D01*
X29092857Y-59952380D01*
X29235714Y-60000000D01*
X29283333Y-60047619D01*
X30188095Y-59952380D02*
X29711904Y-59952380D01*
X29664285Y-60428571D01*
X29711904Y-60380952D01*
X29807142Y-60333333D01*
X30045238Y-60333333D01*
X30140476Y-60380952D01*
X30188095Y-60428571D01*
X30235714Y-60523809D01*
X30235714Y-60761904D01*
X30188095Y-60857142D01*
X30140476Y-60904761D01*
X30045238Y-60952380D01*
X29807142Y-60952380D01*
X29711904Y-60904761D01*
X29664285Y-60857142D01*
X52283333Y-62152380D02*
X51950000Y-61676190D01*
X51711904Y-62152380D02*
X51711904Y-61152380D01*
X52092857Y-61152380D01*
X52188095Y-61200000D01*
X52235714Y-61247619D01*
X52283333Y-61342857D01*
X52283333Y-61485714D01*
X52235714Y-61580952D01*
X52188095Y-61628571D01*
X52092857Y-61676190D01*
X51711904Y-61676190D01*
X53045238Y-61628571D02*
X53188095Y-61676190D01*
X53235714Y-61723809D01*
X53283333Y-61819047D01*
X53283333Y-61961904D01*
X53235714Y-62057142D01*
X53188095Y-62104761D01*
X53092857Y-62152380D01*
X52711904Y-62152380D01*
X52711904Y-61152380D01*
X53045238Y-61152380D01*
X53140476Y-61200000D01*
X53188095Y-61247619D01*
X53235714Y-61342857D01*
X53235714Y-61438095D01*
X53188095Y-61533333D01*
X53140476Y-61580952D01*
X53045238Y-61628571D01*
X52711904Y-61628571D01*
X53664285Y-61247619D02*
X53711904Y-61200000D01*
X53807142Y-61152380D01*
X54045238Y-61152380D01*
X54140476Y-61200000D01*
X54188095Y-61247619D01*
X54235714Y-61342857D01*
X54235714Y-61438095D01*
X54188095Y-61580952D01*
X53616666Y-62152380D01*
X54235714Y-62152380D01*
X48683333Y-62152380D02*
X48350000Y-61676190D01*
X48111904Y-62152380D02*
X48111904Y-61152380D01*
X48492857Y-61152380D01*
X48588095Y-61200000D01*
X48635714Y-61247619D01*
X48683333Y-61342857D01*
X48683333Y-61485714D01*
X48635714Y-61580952D01*
X48588095Y-61628571D01*
X48492857Y-61676190D01*
X48111904Y-61676190D01*
X49445238Y-61628571D02*
X49588095Y-61676190D01*
X49635714Y-61723809D01*
X49683333Y-61819047D01*
X49683333Y-61961904D01*
X49635714Y-62057142D01*
X49588095Y-62104761D01*
X49492857Y-62152380D01*
X49111904Y-62152380D01*
X49111904Y-61152380D01*
X49445238Y-61152380D01*
X49540476Y-61200000D01*
X49588095Y-61247619D01*
X49635714Y-61342857D01*
X49635714Y-61438095D01*
X49588095Y-61533333D01*
X49540476Y-61580952D01*
X49445238Y-61628571D01*
X49111904Y-61628571D01*
X50635714Y-62152380D02*
X50064285Y-62152380D01*
X50350000Y-62152380D02*
X50350000Y-61152380D01*
X50254761Y-61295238D01*
X50159523Y-61390476D01*
X50064285Y-61438095D01*
X48554761Y-35152380D02*
X48221428Y-34676190D01*
X47983333Y-35152380D02*
X47983333Y-34152380D01*
X48364285Y-34152380D01*
X48459523Y-34200000D01*
X48507142Y-34247619D01*
X48554761Y-34342857D01*
X48554761Y-34485714D01*
X48507142Y-34580952D01*
X48459523Y-34628571D01*
X48364285Y-34676190D01*
X47983333Y-34676190D01*
X48935714Y-34866666D02*
X49411904Y-34866666D01*
X48840476Y-35152380D02*
X49173809Y-34152380D01*
X49507142Y-35152380D01*
X49792857Y-34247619D02*
X49840476Y-34200000D01*
X49935714Y-34152380D01*
X50173809Y-34152380D01*
X50269047Y-34200000D01*
X50316666Y-34247619D01*
X50364285Y-34342857D01*
X50364285Y-34438095D01*
X50316666Y-34580952D01*
X49745238Y-35152380D01*
X50364285Y-35152380D01*
X52354761Y-35152380D02*
X52021428Y-34676190D01*
X51783333Y-35152380D02*
X51783333Y-34152380D01*
X52164285Y-34152380D01*
X52259523Y-34200000D01*
X52307142Y-34247619D01*
X52354761Y-34342857D01*
X52354761Y-34485714D01*
X52307142Y-34580952D01*
X52259523Y-34628571D01*
X52164285Y-34676190D01*
X51783333Y-34676190D01*
X52735714Y-34866666D02*
X53211904Y-34866666D01*
X52640476Y-35152380D02*
X52973809Y-34152380D01*
X53307142Y-35152380D01*
X54164285Y-35152380D02*
X53592857Y-35152380D01*
X53878571Y-35152380D02*
X53878571Y-34152380D01*
X53783333Y-34295238D01*
X53688095Y-34390476D01*
X53592857Y-34438095D01*
X43992857Y-79657142D02*
X43945238Y-79704761D01*
X43802380Y-79752380D01*
X43707142Y-79752380D01*
X43564285Y-79704761D01*
X43469047Y-79609523D01*
X43421428Y-79514285D01*
X43373809Y-79323809D01*
X43373809Y-79180952D01*
X43421428Y-78990476D01*
X43469047Y-78895238D01*
X43564285Y-78800000D01*
X43707142Y-78752380D01*
X43802380Y-78752380D01*
X43945238Y-78800000D01*
X43992857Y-78847619D01*
X44611904Y-78752380D02*
X44802380Y-78752380D01*
X44897619Y-78800000D01*
X44992857Y-78895238D01*
X45040476Y-79085714D01*
X45040476Y-79419047D01*
X44992857Y-79609523D01*
X44897619Y-79704761D01*
X44802380Y-79752380D01*
X44611904Y-79752380D01*
X44516666Y-79704761D01*
X44421428Y-79609523D01*
X44373809Y-79419047D01*
X44373809Y-79085714D01*
X44421428Y-78895238D01*
X44516666Y-78800000D01*
X44611904Y-78752380D01*
X45469047Y-79752380D02*
X45469047Y-78752380D01*
X46421428Y-79752380D02*
X45945238Y-79752380D01*
X45945238Y-78752380D01*
X37492857Y-79657142D02*
X37445238Y-79704761D01*
X37302380Y-79752380D01*
X37207142Y-79752380D01*
X37064285Y-79704761D01*
X36969047Y-79609523D01*
X36921428Y-79514285D01*
X36873809Y-79323809D01*
X36873809Y-79180952D01*
X36921428Y-78990476D01*
X36969047Y-78895238D01*
X37064285Y-78800000D01*
X37207142Y-78752380D01*
X37302380Y-78752380D01*
X37445238Y-78800000D01*
X37492857Y-78847619D01*
X38111904Y-78752380D02*
X38302380Y-78752380D01*
X38397619Y-78800000D01*
X38492857Y-78895238D01*
X38540476Y-79085714D01*
X38540476Y-79419047D01*
X38492857Y-79609523D01*
X38397619Y-79704761D01*
X38302380Y-79752380D01*
X38111904Y-79752380D01*
X38016666Y-79704761D01*
X37921428Y-79609523D01*
X37873809Y-79419047D01*
X37873809Y-79085714D01*
X37921428Y-78895238D01*
X38016666Y-78800000D01*
X38111904Y-78752380D01*
X38969047Y-79752380D02*
X38969047Y-78752380D01*
X39921428Y-79752380D02*
X39445238Y-79752380D01*
X39445238Y-78752380D01*
X47019047Y-19171428D02*
X47780952Y-19171428D01*
X34769047Y-19171428D02*
X35530952Y-19171428D01*
X35150000Y-19552380D02*
X35150000Y-18790476D01*
X28683333Y-71057142D02*
X28635714Y-71104761D01*
X28492857Y-71152380D01*
X28397619Y-71152380D01*
X28254761Y-71104761D01*
X28159523Y-71009523D01*
X28111904Y-70914285D01*
X28064285Y-70723809D01*
X28064285Y-70580952D01*
X28111904Y-70390476D01*
X28159523Y-70295238D01*
X28254761Y-70200000D01*
X28397619Y-70152380D01*
X28492857Y-70152380D01*
X28635714Y-70200000D01*
X28683333Y-70247619D01*
X29064285Y-70247619D02*
X29111904Y-70200000D01*
X29207142Y-70152380D01*
X29445238Y-70152380D01*
X29540476Y-70200000D01*
X29588095Y-70247619D01*
X29635714Y-70342857D01*
X29635714Y-70438095D01*
X29588095Y-70580952D01*
X29016666Y-71152380D01*
X29635714Y-71152380D01*
X28683333Y-67657142D02*
X28635714Y-67704761D01*
X28492857Y-67752380D01*
X28397619Y-67752380D01*
X28254761Y-67704761D01*
X28159523Y-67609523D01*
X28111904Y-67514285D01*
X28064285Y-67323809D01*
X28064285Y-67180952D01*
X28111904Y-66990476D01*
X28159523Y-66895238D01*
X28254761Y-66800000D01*
X28397619Y-66752380D01*
X28492857Y-66752380D01*
X28635714Y-66800000D01*
X28683333Y-66847619D01*
X29016666Y-66752380D02*
X29635714Y-66752380D01*
X29302380Y-67133333D01*
X29445238Y-67133333D01*
X29540476Y-67180952D01*
X29588095Y-67228571D01*
X29635714Y-67323809D01*
X29635714Y-67561904D01*
X29588095Y-67657142D01*
X29540476Y-67704761D01*
X29445238Y-67752380D01*
X29159523Y-67752380D01*
X29064285Y-67704761D01*
X29016666Y-67657142D01*
X46833333Y-22857142D02*
X46785714Y-22904761D01*
X46642857Y-22952380D01*
X46547619Y-22952380D01*
X46404761Y-22904761D01*
X46309523Y-22809523D01*
X46261904Y-22714285D01*
X46214285Y-22523809D01*
X46214285Y-22380952D01*
X46261904Y-22190476D01*
X46309523Y-22095238D01*
X46404761Y-22000000D01*
X46547619Y-21952380D01*
X46642857Y-21952380D01*
X46785714Y-22000000D01*
X46833333Y-22047619D01*
X47690476Y-22285714D02*
X47690476Y-22952380D01*
X47452380Y-21904761D02*
X47214285Y-22619047D01*
X47833333Y-22619047D01*
M02*
