G04 #@! TF.GenerationSoftware,KiCad,Pcbnew,(5.1.5)-3*
G04 #@! TF.CreationDate,2022-07-06T22:09:16+02:00*
G04 #@! TF.ProjectId,Stacked desk light,53746163-6b65-4642-9064-65736b206c69,rev?*
G04 #@! TF.SameCoordinates,Original*
G04 #@! TF.FileFunction,Legend,Top*
G04 #@! TF.FilePolarity,Positive*
%FSLAX46Y46*%
G04 Gerber Fmt 4.6, Leading zero omitted, Abs format (unit mm)*
G04 Created by KiCad (PCBNEW (5.1.5)-3) date 2022-07-06 22:09:16*
%MOMM*%
%LPD*%
G04 APERTURE LIST*
%ADD10C,0.120000*%
%ADD11C,0.150000*%
G04 APERTURE END LIST*
D10*
X92097064Y-99090000D02*
X90892936Y-99090000D01*
X92097064Y-100910000D02*
X90892936Y-100910000D01*
X102460000Y-98865000D02*
X98400000Y-98865000D01*
X102460000Y-101135000D02*
X102460000Y-98865000D01*
X98400000Y-101135000D02*
X102460000Y-101135000D01*
D11*
X91328333Y-102272380D02*
X90995000Y-101796190D01*
X90756904Y-102272380D02*
X90756904Y-101272380D01*
X91137857Y-101272380D01*
X91233095Y-101320000D01*
X91280714Y-101367619D01*
X91328333Y-101462857D01*
X91328333Y-101605714D01*
X91280714Y-101700952D01*
X91233095Y-101748571D01*
X91137857Y-101796190D01*
X90756904Y-101796190D01*
X92280714Y-102272380D02*
X91709285Y-102272380D01*
X91995000Y-102272380D02*
X91995000Y-101272380D01*
X91899761Y-101415238D01*
X91804523Y-101510476D01*
X91709285Y-101558095D01*
X99261904Y-102272380D02*
X99261904Y-101272380D01*
X99500000Y-101272380D01*
X99642857Y-101320000D01*
X99738095Y-101415238D01*
X99785714Y-101510476D01*
X99833333Y-101700952D01*
X99833333Y-101843809D01*
X99785714Y-102034285D01*
X99738095Y-102129523D01*
X99642857Y-102224761D01*
X99500000Y-102272380D01*
X99261904Y-102272380D01*
X100785714Y-102272380D02*
X100214285Y-102272380D01*
X100500000Y-102272380D02*
X100500000Y-101272380D01*
X100404761Y-101415238D01*
X100309523Y-101510476D01*
X100214285Y-101558095D01*
M02*
