G04 #@! TF.GenerationSoftware,KiCad,Pcbnew,(5.1.5)-3*
G04 #@! TF.CreationDate,2022-07-06T22:09:16+02:00*
G04 #@! TF.ProjectId,Stacked desk light,53746163-6b65-4642-9064-65736b206c69,rev?*
G04 #@! TF.SameCoordinates,Original*
G04 #@! TF.FileFunction,Copper,L1,Top*
G04 #@! TF.FilePolarity,Positive*
%FSLAX46Y46*%
G04 Gerber Fmt 4.6, Leading zero omitted, Abs format (unit mm)*
G04 Created by KiCad (PCBNEW (5.1.5)-3) date 2022-07-06 22:09:16*
%MOMM*%
%LPD*%
G04 APERTURE LIST*
%ADD10C,1.800000*%
%ADD11C,0.100000*%
%ADD12C,0.500000*%
%ADD13C,0.254000*%
G04 APERTURE END LIST*
D10*
X115955598Y-101314092D03*
X118337168Y-102689092D03*
X120718738Y-101314092D03*
G04 #@! TA.AperFunction,ComponentPad*
D11*
G36*
X118831276Y-99041259D02*
G01*
X118874959Y-99047739D01*
X118917796Y-99058469D01*
X118959376Y-99073346D01*
X118999297Y-99092227D01*
X119037175Y-99114931D01*
X119072645Y-99141237D01*
X119105366Y-99170894D01*
X119135023Y-99203615D01*
X119161329Y-99239085D01*
X119184033Y-99276963D01*
X119202914Y-99316884D01*
X119217791Y-99358464D01*
X119228521Y-99401301D01*
X119235001Y-99444984D01*
X119237168Y-99489092D01*
X119237168Y-100389092D01*
X119235001Y-100433200D01*
X119228521Y-100476883D01*
X119217791Y-100519720D01*
X119202914Y-100561300D01*
X119184033Y-100601221D01*
X119161329Y-100639099D01*
X119135023Y-100674569D01*
X119105366Y-100707290D01*
X119072645Y-100736947D01*
X119037175Y-100763253D01*
X118999297Y-100785957D01*
X118959376Y-100804838D01*
X118917796Y-100819715D01*
X118874959Y-100830445D01*
X118831276Y-100836925D01*
X118787168Y-100839092D01*
X117887168Y-100839092D01*
X117843060Y-100836925D01*
X117799377Y-100830445D01*
X117756540Y-100819715D01*
X117714960Y-100804838D01*
X117675039Y-100785957D01*
X117637161Y-100763253D01*
X117601691Y-100736947D01*
X117568970Y-100707290D01*
X117539313Y-100674569D01*
X117513007Y-100639099D01*
X117490303Y-100601221D01*
X117471422Y-100561300D01*
X117456545Y-100519720D01*
X117445815Y-100476883D01*
X117439335Y-100433200D01*
X117437168Y-100389092D01*
X117437168Y-99489092D01*
X117439335Y-99444984D01*
X117445815Y-99401301D01*
X117456545Y-99358464D01*
X117471422Y-99316884D01*
X117490303Y-99276963D01*
X117513007Y-99239085D01*
X117539313Y-99203615D01*
X117568970Y-99170894D01*
X117601691Y-99141237D01*
X117637161Y-99114931D01*
X117675039Y-99092227D01*
X117714960Y-99073346D01*
X117756540Y-99058469D01*
X117799377Y-99047739D01*
X117843060Y-99041259D01*
X117887168Y-99039092D01*
X118787168Y-99039092D01*
X118831276Y-99041259D01*
G37*
G04 #@! TD.AperFunction*
D10*
X115955598Y-98564092D03*
X118337168Y-97189092D03*
X120718738Y-98564092D03*
X79281234Y-101314092D03*
X81662804Y-102689092D03*
X84044374Y-101314092D03*
G04 #@! TA.AperFunction,ComponentPad*
D11*
G36*
X82156912Y-99041259D02*
G01*
X82200595Y-99047739D01*
X82243432Y-99058469D01*
X82285012Y-99073346D01*
X82324933Y-99092227D01*
X82362811Y-99114931D01*
X82398281Y-99141237D01*
X82431002Y-99170894D01*
X82460659Y-99203615D01*
X82486965Y-99239085D01*
X82509669Y-99276963D01*
X82528550Y-99316884D01*
X82543427Y-99358464D01*
X82554157Y-99401301D01*
X82560637Y-99444984D01*
X82562804Y-99489092D01*
X82562804Y-100389092D01*
X82560637Y-100433200D01*
X82554157Y-100476883D01*
X82543427Y-100519720D01*
X82528550Y-100561300D01*
X82509669Y-100601221D01*
X82486965Y-100639099D01*
X82460659Y-100674569D01*
X82431002Y-100707290D01*
X82398281Y-100736947D01*
X82362811Y-100763253D01*
X82324933Y-100785957D01*
X82285012Y-100804838D01*
X82243432Y-100819715D01*
X82200595Y-100830445D01*
X82156912Y-100836925D01*
X82112804Y-100839092D01*
X81212804Y-100839092D01*
X81168696Y-100836925D01*
X81125013Y-100830445D01*
X81082176Y-100819715D01*
X81040596Y-100804838D01*
X81000675Y-100785957D01*
X80962797Y-100763253D01*
X80927327Y-100736947D01*
X80894606Y-100707290D01*
X80864949Y-100674569D01*
X80838643Y-100639099D01*
X80815939Y-100601221D01*
X80797058Y-100561300D01*
X80782181Y-100519720D01*
X80771451Y-100476883D01*
X80764971Y-100433200D01*
X80762804Y-100389092D01*
X80762804Y-99489092D01*
X80764971Y-99444984D01*
X80771451Y-99401301D01*
X80782181Y-99358464D01*
X80797058Y-99316884D01*
X80815939Y-99276963D01*
X80838643Y-99239085D01*
X80864949Y-99203615D01*
X80894606Y-99170894D01*
X80927327Y-99141237D01*
X80962797Y-99114931D01*
X81000675Y-99092227D01*
X81040596Y-99073346D01*
X81082176Y-99058469D01*
X81125013Y-99047739D01*
X81168696Y-99041259D01*
X81212804Y-99039092D01*
X82112804Y-99039092D01*
X82156912Y-99041259D01*
G37*
G04 #@! TD.AperFunction*
D10*
X79281234Y-98564092D03*
X81662804Y-97189092D03*
X84044374Y-98564092D03*
G04 #@! TA.AperFunction,SMDPad,CuDef*
D11*
G36*
X90494504Y-99126204D02*
G01*
X90518773Y-99129804D01*
X90542571Y-99135765D01*
X90565671Y-99144030D01*
X90587849Y-99154520D01*
X90608893Y-99167133D01*
X90628598Y-99181747D01*
X90646777Y-99198223D01*
X90663253Y-99216402D01*
X90677867Y-99236107D01*
X90690480Y-99257151D01*
X90700970Y-99279329D01*
X90709235Y-99302429D01*
X90715196Y-99326227D01*
X90718796Y-99350496D01*
X90720000Y-99375000D01*
X90720000Y-100625000D01*
X90718796Y-100649504D01*
X90715196Y-100673773D01*
X90709235Y-100697571D01*
X90700970Y-100720671D01*
X90690480Y-100742849D01*
X90677867Y-100763893D01*
X90663253Y-100783598D01*
X90646777Y-100801777D01*
X90628598Y-100818253D01*
X90608893Y-100832867D01*
X90587849Y-100845480D01*
X90565671Y-100855970D01*
X90542571Y-100864235D01*
X90518773Y-100870196D01*
X90494504Y-100873796D01*
X90470000Y-100875000D01*
X89545000Y-100875000D01*
X89520496Y-100873796D01*
X89496227Y-100870196D01*
X89472429Y-100864235D01*
X89449329Y-100855970D01*
X89427151Y-100845480D01*
X89406107Y-100832867D01*
X89386402Y-100818253D01*
X89368223Y-100801777D01*
X89351747Y-100783598D01*
X89337133Y-100763893D01*
X89324520Y-100742849D01*
X89314030Y-100720671D01*
X89305765Y-100697571D01*
X89299804Y-100673773D01*
X89296204Y-100649504D01*
X89295000Y-100625000D01*
X89295000Y-99375000D01*
X89296204Y-99350496D01*
X89299804Y-99326227D01*
X89305765Y-99302429D01*
X89314030Y-99279329D01*
X89324520Y-99257151D01*
X89337133Y-99236107D01*
X89351747Y-99216402D01*
X89368223Y-99198223D01*
X89386402Y-99181747D01*
X89406107Y-99167133D01*
X89427151Y-99154520D01*
X89449329Y-99144030D01*
X89472429Y-99135765D01*
X89496227Y-99129804D01*
X89520496Y-99126204D01*
X89545000Y-99125000D01*
X90470000Y-99125000D01*
X90494504Y-99126204D01*
G37*
G04 #@! TD.AperFunction*
G04 #@! TA.AperFunction,SMDPad,CuDef*
G36*
X93469504Y-99126204D02*
G01*
X93493773Y-99129804D01*
X93517571Y-99135765D01*
X93540671Y-99144030D01*
X93562849Y-99154520D01*
X93583893Y-99167133D01*
X93603598Y-99181747D01*
X93621777Y-99198223D01*
X93638253Y-99216402D01*
X93652867Y-99236107D01*
X93665480Y-99257151D01*
X93675970Y-99279329D01*
X93684235Y-99302429D01*
X93690196Y-99326227D01*
X93693796Y-99350496D01*
X93695000Y-99375000D01*
X93695000Y-100625000D01*
X93693796Y-100649504D01*
X93690196Y-100673773D01*
X93684235Y-100697571D01*
X93675970Y-100720671D01*
X93665480Y-100742849D01*
X93652867Y-100763893D01*
X93638253Y-100783598D01*
X93621777Y-100801777D01*
X93603598Y-100818253D01*
X93583893Y-100832867D01*
X93562849Y-100845480D01*
X93540671Y-100855970D01*
X93517571Y-100864235D01*
X93493773Y-100870196D01*
X93469504Y-100873796D01*
X93445000Y-100875000D01*
X92520000Y-100875000D01*
X92495496Y-100873796D01*
X92471227Y-100870196D01*
X92447429Y-100864235D01*
X92424329Y-100855970D01*
X92402151Y-100845480D01*
X92381107Y-100832867D01*
X92361402Y-100818253D01*
X92343223Y-100801777D01*
X92326747Y-100783598D01*
X92312133Y-100763893D01*
X92299520Y-100742849D01*
X92289030Y-100720671D01*
X92280765Y-100697571D01*
X92274804Y-100673773D01*
X92271204Y-100649504D01*
X92270000Y-100625000D01*
X92270000Y-99375000D01*
X92271204Y-99350496D01*
X92274804Y-99326227D01*
X92280765Y-99302429D01*
X92289030Y-99279329D01*
X92299520Y-99257151D01*
X92312133Y-99236107D01*
X92326747Y-99216402D01*
X92343223Y-99198223D01*
X92361402Y-99181747D01*
X92381107Y-99167133D01*
X92402151Y-99154520D01*
X92424329Y-99144030D01*
X92447429Y-99135765D01*
X92471227Y-99129804D01*
X92495496Y-99126204D01*
X92520000Y-99125000D01*
X93445000Y-99125000D01*
X93469504Y-99126204D01*
G37*
G04 #@! TD.AperFunction*
G04 #@! TA.AperFunction,SMDPad,CuDef*
G36*
X98999504Y-99126204D02*
G01*
X99023773Y-99129804D01*
X99047571Y-99135765D01*
X99070671Y-99144030D01*
X99092849Y-99154520D01*
X99113893Y-99167133D01*
X99133598Y-99181747D01*
X99151777Y-99198223D01*
X99168253Y-99216402D01*
X99182867Y-99236107D01*
X99195480Y-99257151D01*
X99205970Y-99279329D01*
X99214235Y-99302429D01*
X99220196Y-99326227D01*
X99223796Y-99350496D01*
X99225000Y-99375000D01*
X99225000Y-100625000D01*
X99223796Y-100649504D01*
X99220196Y-100673773D01*
X99214235Y-100697571D01*
X99205970Y-100720671D01*
X99195480Y-100742849D01*
X99182867Y-100763893D01*
X99168253Y-100783598D01*
X99151777Y-100801777D01*
X99133598Y-100818253D01*
X99113893Y-100832867D01*
X99092849Y-100845480D01*
X99070671Y-100855970D01*
X99047571Y-100864235D01*
X99023773Y-100870196D01*
X98999504Y-100873796D01*
X98975000Y-100875000D01*
X98050000Y-100875000D01*
X98025496Y-100873796D01*
X98001227Y-100870196D01*
X97977429Y-100864235D01*
X97954329Y-100855970D01*
X97932151Y-100845480D01*
X97911107Y-100832867D01*
X97891402Y-100818253D01*
X97873223Y-100801777D01*
X97856747Y-100783598D01*
X97842133Y-100763893D01*
X97829520Y-100742849D01*
X97819030Y-100720671D01*
X97810765Y-100697571D01*
X97804804Y-100673773D01*
X97801204Y-100649504D01*
X97800000Y-100625000D01*
X97800000Y-99375000D01*
X97801204Y-99350496D01*
X97804804Y-99326227D01*
X97810765Y-99302429D01*
X97819030Y-99279329D01*
X97829520Y-99257151D01*
X97842133Y-99236107D01*
X97856747Y-99216402D01*
X97873223Y-99198223D01*
X97891402Y-99181747D01*
X97911107Y-99167133D01*
X97932151Y-99154520D01*
X97954329Y-99144030D01*
X97977429Y-99135765D01*
X98001227Y-99129804D01*
X98025496Y-99126204D01*
X98050000Y-99125000D01*
X98975000Y-99125000D01*
X98999504Y-99126204D01*
G37*
G04 #@! TD.AperFunction*
G04 #@! TA.AperFunction,SMDPad,CuDef*
G36*
X101974504Y-99126204D02*
G01*
X101998773Y-99129804D01*
X102022571Y-99135765D01*
X102045671Y-99144030D01*
X102067849Y-99154520D01*
X102088893Y-99167133D01*
X102108598Y-99181747D01*
X102126777Y-99198223D01*
X102143253Y-99216402D01*
X102157867Y-99236107D01*
X102170480Y-99257151D01*
X102180970Y-99279329D01*
X102189235Y-99302429D01*
X102195196Y-99326227D01*
X102198796Y-99350496D01*
X102200000Y-99375000D01*
X102200000Y-100625000D01*
X102198796Y-100649504D01*
X102195196Y-100673773D01*
X102189235Y-100697571D01*
X102180970Y-100720671D01*
X102170480Y-100742849D01*
X102157867Y-100763893D01*
X102143253Y-100783598D01*
X102126777Y-100801777D01*
X102108598Y-100818253D01*
X102088893Y-100832867D01*
X102067849Y-100845480D01*
X102045671Y-100855970D01*
X102022571Y-100864235D01*
X101998773Y-100870196D01*
X101974504Y-100873796D01*
X101950000Y-100875000D01*
X101025000Y-100875000D01*
X101000496Y-100873796D01*
X100976227Y-100870196D01*
X100952429Y-100864235D01*
X100929329Y-100855970D01*
X100907151Y-100845480D01*
X100886107Y-100832867D01*
X100866402Y-100818253D01*
X100848223Y-100801777D01*
X100831747Y-100783598D01*
X100817133Y-100763893D01*
X100804520Y-100742849D01*
X100794030Y-100720671D01*
X100785765Y-100697571D01*
X100779804Y-100673773D01*
X100776204Y-100649504D01*
X100775000Y-100625000D01*
X100775000Y-99375000D01*
X100776204Y-99350496D01*
X100779804Y-99326227D01*
X100785765Y-99302429D01*
X100794030Y-99279329D01*
X100804520Y-99257151D01*
X100817133Y-99236107D01*
X100831747Y-99216402D01*
X100848223Y-99198223D01*
X100866402Y-99181747D01*
X100886107Y-99167133D01*
X100907151Y-99154520D01*
X100929329Y-99144030D01*
X100952429Y-99135765D01*
X100976227Y-99129804D01*
X101000496Y-99126204D01*
X101025000Y-99125000D01*
X101950000Y-99125000D01*
X101974504Y-99126204D01*
G37*
G04 #@! TD.AperFunction*
D12*
X89946592Y-99939092D02*
X90007500Y-100000000D01*
X81662804Y-99939092D02*
X89946592Y-99939092D01*
X92530000Y-99930000D02*
X92520000Y-99940000D01*
X93695000Y-100000000D02*
X98512500Y-100000000D01*
X92982500Y-100000000D02*
X93695000Y-100000000D01*
D13*
G36*
X119402010Y-92362354D02*
G01*
X120446123Y-92584286D01*
X121449193Y-92949374D01*
X122391691Y-93450509D01*
X123255261Y-94077931D01*
X124023116Y-94819440D01*
X124680300Y-95660596D01*
X125214023Y-96585031D01*
X125613890Y-97574739D01*
X125872129Y-98610477D01*
X125983707Y-99672065D01*
X125946454Y-100738861D01*
X125761094Y-101790086D01*
X125431237Y-102805280D01*
X124963303Y-103764688D01*
X124366397Y-104649638D01*
X123652136Y-105442906D01*
X122834434Y-106129040D01*
X121929188Y-106694699D01*
X120954033Y-107128867D01*
X119927940Y-107423094D01*
X118859439Y-107573262D01*
X118325646Y-107591903D01*
X81685848Y-107591903D01*
X80597961Y-107515830D01*
X79553849Y-107293898D01*
X78550779Y-106928810D01*
X77608290Y-106427680D01*
X76744710Y-105800253D01*
X75976856Y-105058744D01*
X75319672Y-104217588D01*
X75051542Y-103753172D01*
X80778329Y-103753172D01*
X80862012Y-104007353D01*
X81134579Y-104138250D01*
X81427446Y-104213457D01*
X81729357Y-104230083D01*
X82028711Y-104187489D01*
X82314003Y-104087314D01*
X82463596Y-104007353D01*
X82547279Y-103753172D01*
X117452693Y-103753172D01*
X117536376Y-104007353D01*
X117808943Y-104138250D01*
X118101810Y-104213457D01*
X118403721Y-104230083D01*
X118703075Y-104187489D01*
X118988367Y-104087314D01*
X119137960Y-104007353D01*
X119221643Y-103753172D01*
X118337168Y-102868697D01*
X117452693Y-103753172D01*
X82547279Y-103753172D01*
X81662804Y-102868697D01*
X80778329Y-103753172D01*
X75051542Y-103753172D01*
X74785951Y-103293155D01*
X74386082Y-102303445D01*
X74156002Y-101380645D01*
X77740243Y-101380645D01*
X77782837Y-101679999D01*
X77883012Y-101965291D01*
X77962973Y-102114884D01*
X78217154Y-102198567D01*
X79101629Y-101314092D01*
X78217154Y-100429617D01*
X77962973Y-100513300D01*
X77832076Y-100785867D01*
X77756869Y-101078734D01*
X77740243Y-101380645D01*
X74156002Y-101380645D01*
X74127843Y-101267706D01*
X74016266Y-100206118D01*
X74053518Y-99139323D01*
X74143211Y-98630645D01*
X77740243Y-98630645D01*
X77782837Y-98929999D01*
X77883012Y-99215291D01*
X77962973Y-99364884D01*
X78217154Y-99448567D01*
X79101629Y-98564092D01*
X78217154Y-97679617D01*
X77962973Y-97763300D01*
X77832076Y-98035867D01*
X77756869Y-98328734D01*
X77740243Y-98630645D01*
X74143211Y-98630645D01*
X74238878Y-98088098D01*
X74429958Y-97500012D01*
X78396759Y-97500012D01*
X79281234Y-98384487D01*
X79295377Y-98370345D01*
X79474982Y-98549950D01*
X79460839Y-98564092D01*
X79474982Y-98578235D01*
X79295377Y-98757840D01*
X79281234Y-98743697D01*
X78396759Y-99628172D01*
X78480442Y-99882353D01*
X78592269Y-99936057D01*
X78480442Y-99995831D01*
X78396759Y-100250012D01*
X79281234Y-101134487D01*
X79295377Y-101120345D01*
X79474982Y-101299950D01*
X79460839Y-101314092D01*
X79474982Y-101328235D01*
X79295377Y-101507840D01*
X79281234Y-101493697D01*
X78396759Y-102378172D01*
X78480442Y-102632353D01*
X78753009Y-102763250D01*
X79045876Y-102838457D01*
X79347787Y-102855083D01*
X79647141Y-102812489D01*
X79932433Y-102712314D01*
X80082026Y-102632353D01*
X80137958Y-102462463D01*
X80121813Y-102755645D01*
X80164407Y-103054999D01*
X80264582Y-103340291D01*
X80344543Y-103489884D01*
X80598724Y-103573567D01*
X81483199Y-102689092D01*
X81469057Y-102674950D01*
X81648662Y-102495345D01*
X81662804Y-102509487D01*
X81676947Y-102495345D01*
X81856552Y-102674950D01*
X81842409Y-102689092D01*
X82726884Y-103573567D01*
X82981065Y-103489884D01*
X83111962Y-103217317D01*
X83187169Y-102924450D01*
X83203795Y-102622539D01*
X83175971Y-102426989D01*
X83243582Y-102632353D01*
X83516149Y-102763250D01*
X83809016Y-102838457D01*
X84110927Y-102855083D01*
X84410281Y-102812489D01*
X84695573Y-102712314D01*
X84845166Y-102632353D01*
X84928849Y-102378172D01*
X84044374Y-101493697D01*
X84030232Y-101507840D01*
X83850627Y-101328235D01*
X83864769Y-101314092D01*
X83850627Y-101299950D01*
X84030232Y-101120345D01*
X84044374Y-101134487D01*
X84058517Y-101120345D01*
X84238122Y-101299950D01*
X84223979Y-101314092D01*
X85108454Y-102198567D01*
X85362635Y-102114884D01*
X85493532Y-101842317D01*
X85568739Y-101549450D01*
X85585365Y-101247539D01*
X85542771Y-100948185D01*
X85499198Y-100824092D01*
X88681830Y-100824092D01*
X88724528Y-100964850D01*
X88806595Y-101118386D01*
X88917038Y-101252962D01*
X89051614Y-101363405D01*
X89205150Y-101445472D01*
X89371746Y-101496008D01*
X89545000Y-101513072D01*
X90470000Y-101513072D01*
X90643254Y-101496008D01*
X90809850Y-101445472D01*
X90963386Y-101363405D01*
X91097962Y-101252962D01*
X91208405Y-101118386D01*
X91290472Y-100964850D01*
X91341008Y-100798254D01*
X91358072Y-100625000D01*
X91358072Y-99940000D01*
X91630719Y-99940000D01*
X91631928Y-99952276D01*
X91631928Y-100625000D01*
X91648992Y-100798254D01*
X91699528Y-100964850D01*
X91781595Y-101118386D01*
X91892038Y-101252962D01*
X92026614Y-101363405D01*
X92180150Y-101445472D01*
X92346746Y-101496008D01*
X92520000Y-101513072D01*
X93445000Y-101513072D01*
X93618254Y-101496008D01*
X93784850Y-101445472D01*
X93938386Y-101363405D01*
X94072962Y-101252962D01*
X94183405Y-101118386D01*
X94265472Y-100964850D01*
X94289694Y-100885000D01*
X97205306Y-100885000D01*
X97229528Y-100964850D01*
X97311595Y-101118386D01*
X97422038Y-101252962D01*
X97556614Y-101363405D01*
X97710150Y-101445472D01*
X97876746Y-101496008D01*
X98050000Y-101513072D01*
X98975000Y-101513072D01*
X99148254Y-101496008D01*
X99314850Y-101445472D01*
X99468386Y-101363405D01*
X99602962Y-101252962D01*
X99713405Y-101118386D01*
X99795472Y-100964850D01*
X99822727Y-100875000D01*
X100136928Y-100875000D01*
X100149188Y-100999482D01*
X100185498Y-101119180D01*
X100244463Y-101229494D01*
X100323815Y-101326185D01*
X100420506Y-101405537D01*
X100530820Y-101464502D01*
X100650518Y-101500812D01*
X100775000Y-101513072D01*
X101201750Y-101510000D01*
X101360500Y-101351250D01*
X101360500Y-100127000D01*
X101614500Y-100127000D01*
X101614500Y-101351250D01*
X101773250Y-101510000D01*
X102200000Y-101513072D01*
X102324482Y-101500812D01*
X102444180Y-101464502D01*
X102554494Y-101405537D01*
X102584825Y-101380645D01*
X114414607Y-101380645D01*
X114457201Y-101679999D01*
X114557376Y-101965291D01*
X114637337Y-102114884D01*
X114891518Y-102198567D01*
X115775993Y-101314092D01*
X114891518Y-100429617D01*
X114637337Y-100513300D01*
X114506440Y-100785867D01*
X114431233Y-101078734D01*
X114414607Y-101380645D01*
X102584825Y-101380645D01*
X102651185Y-101326185D01*
X102730537Y-101229494D01*
X102789502Y-101119180D01*
X102825812Y-100999482D01*
X102838072Y-100875000D01*
X102835000Y-100285750D01*
X102676250Y-100127000D01*
X101614500Y-100127000D01*
X101360500Y-100127000D01*
X100298750Y-100127000D01*
X100140000Y-100285750D01*
X100136928Y-100875000D01*
X99822727Y-100875000D01*
X99846008Y-100798254D01*
X99863072Y-100625000D01*
X99863072Y-99375000D01*
X99846008Y-99201746D01*
X99822728Y-99125000D01*
X100136928Y-99125000D01*
X100140000Y-99714250D01*
X100298750Y-99873000D01*
X101360500Y-99873000D01*
X101360500Y-98648750D01*
X101614500Y-98648750D01*
X101614500Y-99873000D01*
X102676250Y-99873000D01*
X102835000Y-99714250D01*
X102838072Y-99125000D01*
X102825812Y-99000518D01*
X102789502Y-98880820D01*
X102730537Y-98770506D01*
X102651185Y-98673815D01*
X102598583Y-98630645D01*
X114414607Y-98630645D01*
X114457201Y-98929999D01*
X114557376Y-99215291D01*
X114637337Y-99364884D01*
X114891518Y-99448567D01*
X115775993Y-98564092D01*
X114891518Y-97679617D01*
X114637337Y-97763300D01*
X114506440Y-98035867D01*
X114431233Y-98328734D01*
X114414607Y-98630645D01*
X102598583Y-98630645D01*
X102554494Y-98594463D01*
X102444180Y-98535498D01*
X102324482Y-98499188D01*
X102200000Y-98486928D01*
X101773250Y-98490000D01*
X101614500Y-98648750D01*
X101360500Y-98648750D01*
X101201750Y-98490000D01*
X100775000Y-98486928D01*
X100650518Y-98499188D01*
X100530820Y-98535498D01*
X100420506Y-98594463D01*
X100323815Y-98673815D01*
X100244463Y-98770506D01*
X100185498Y-98880820D01*
X100149188Y-99000518D01*
X100136928Y-99125000D01*
X99822728Y-99125000D01*
X99795472Y-99035150D01*
X99713405Y-98881614D01*
X99602962Y-98747038D01*
X99468386Y-98636595D01*
X99314850Y-98554528D01*
X99148254Y-98503992D01*
X98975000Y-98486928D01*
X98050000Y-98486928D01*
X97876746Y-98503992D01*
X97710150Y-98554528D01*
X97556614Y-98636595D01*
X97422038Y-98747038D01*
X97311595Y-98881614D01*
X97229528Y-99035150D01*
X97205306Y-99115000D01*
X94289694Y-99115000D01*
X94265472Y-99035150D01*
X94183405Y-98881614D01*
X94072962Y-98747038D01*
X93938386Y-98636595D01*
X93784850Y-98554528D01*
X93618254Y-98503992D01*
X93445000Y-98486928D01*
X92520000Y-98486928D01*
X92346746Y-98503992D01*
X92180150Y-98554528D01*
X92026614Y-98636595D01*
X91892038Y-98747038D01*
X91781595Y-98881614D01*
X91699528Y-99035150D01*
X91648992Y-99201746D01*
X91631928Y-99375000D01*
X91631928Y-99927724D01*
X91630719Y-99940000D01*
X91358072Y-99940000D01*
X91358072Y-99375000D01*
X91341008Y-99201746D01*
X91290472Y-99035150D01*
X91208405Y-98881614D01*
X91097962Y-98747038D01*
X90963386Y-98636595D01*
X90809850Y-98554528D01*
X90643254Y-98503992D01*
X90470000Y-98486928D01*
X89545000Y-98486928D01*
X89371746Y-98503992D01*
X89205150Y-98554528D01*
X89051614Y-98636595D01*
X88917038Y-98747038D01*
X88806595Y-98881614D01*
X88724528Y-99035150D01*
X88718782Y-99054092D01*
X85503348Y-99054092D01*
X85568739Y-98799450D01*
X85585365Y-98497539D01*
X85542771Y-98198185D01*
X85442596Y-97912893D01*
X85362635Y-97763300D01*
X85108454Y-97679617D01*
X84223979Y-98564092D01*
X84238122Y-98578235D01*
X84058517Y-98757840D01*
X84044374Y-98743697D01*
X84030232Y-98757840D01*
X83850627Y-98578235D01*
X83864769Y-98564092D01*
X83850627Y-98549950D01*
X84030232Y-98370345D01*
X84044374Y-98384487D01*
X84928849Y-97500012D01*
X115071123Y-97500012D01*
X115955598Y-98384487D01*
X115969741Y-98370345D01*
X116149346Y-98549950D01*
X116135203Y-98564092D01*
X116149346Y-98578235D01*
X115969741Y-98757840D01*
X115955598Y-98743697D01*
X115071123Y-99628172D01*
X115154806Y-99882353D01*
X115266633Y-99936057D01*
X115154806Y-99995831D01*
X115071123Y-100250012D01*
X115955598Y-101134487D01*
X115969741Y-101120345D01*
X116149346Y-101299950D01*
X116135203Y-101314092D01*
X116149346Y-101328235D01*
X115969741Y-101507840D01*
X115955598Y-101493697D01*
X115071123Y-102378172D01*
X115154806Y-102632353D01*
X115427373Y-102763250D01*
X115720240Y-102838457D01*
X116022151Y-102855083D01*
X116321505Y-102812489D01*
X116606797Y-102712314D01*
X116756390Y-102632353D01*
X116812322Y-102462463D01*
X116796177Y-102755645D01*
X116838771Y-103054999D01*
X116938946Y-103340291D01*
X117018907Y-103489884D01*
X117273088Y-103573567D01*
X118157563Y-102689092D01*
X118143421Y-102674950D01*
X118323026Y-102495345D01*
X118337168Y-102509487D01*
X118351311Y-102495345D01*
X118530916Y-102674950D01*
X118516773Y-102689092D01*
X119401248Y-103573567D01*
X119655429Y-103489884D01*
X119786326Y-103217317D01*
X119861533Y-102924450D01*
X119878159Y-102622539D01*
X119850335Y-102426989D01*
X119917946Y-102632353D01*
X120190513Y-102763250D01*
X120483380Y-102838457D01*
X120785291Y-102855083D01*
X121084645Y-102812489D01*
X121369937Y-102712314D01*
X121519530Y-102632353D01*
X121603213Y-102378172D01*
X120718738Y-101493697D01*
X120704596Y-101507840D01*
X120524991Y-101328235D01*
X120539133Y-101314092D01*
X120898343Y-101314092D01*
X121782818Y-102198567D01*
X122036999Y-102114884D01*
X122167896Y-101842317D01*
X122243103Y-101549450D01*
X122259729Y-101247539D01*
X122217135Y-100948185D01*
X122116960Y-100662893D01*
X122036999Y-100513300D01*
X121782818Y-100429617D01*
X120898343Y-101314092D01*
X120539133Y-101314092D01*
X120524991Y-101299950D01*
X120704596Y-101120345D01*
X120718738Y-101134487D01*
X121603213Y-100250012D01*
X121519530Y-99995831D01*
X121407703Y-99942127D01*
X121519530Y-99882353D01*
X121603213Y-99628172D01*
X120718738Y-98743697D01*
X120704596Y-98757840D01*
X120524991Y-98578235D01*
X120539133Y-98564092D01*
X120898343Y-98564092D01*
X121782818Y-99448567D01*
X122036999Y-99364884D01*
X122167896Y-99092317D01*
X122243103Y-98799450D01*
X122259729Y-98497539D01*
X122217135Y-98198185D01*
X122116960Y-97912893D01*
X122036999Y-97763300D01*
X121782818Y-97679617D01*
X120898343Y-98564092D01*
X120539133Y-98564092D01*
X120524991Y-98549950D01*
X120704596Y-98370345D01*
X120718738Y-98384487D01*
X121603213Y-97500012D01*
X121519530Y-97245831D01*
X121246963Y-97114934D01*
X120954096Y-97039727D01*
X120652185Y-97023101D01*
X120352831Y-97065695D01*
X120067539Y-97165870D01*
X119917946Y-97245831D01*
X119862014Y-97415721D01*
X119878159Y-97122539D01*
X119835565Y-96823185D01*
X119735390Y-96537893D01*
X119655429Y-96388300D01*
X119401248Y-96304617D01*
X118516773Y-97189092D01*
X118530916Y-97203235D01*
X118351311Y-97382840D01*
X118337168Y-97368697D01*
X118323026Y-97382840D01*
X118143421Y-97203235D01*
X118157563Y-97189092D01*
X117273088Y-96304617D01*
X117018907Y-96388300D01*
X116888010Y-96660867D01*
X116812803Y-96953734D01*
X116796177Y-97255645D01*
X116824001Y-97451195D01*
X116756390Y-97245831D01*
X116483823Y-97114934D01*
X116190956Y-97039727D01*
X115889045Y-97023101D01*
X115589691Y-97065695D01*
X115304399Y-97165870D01*
X115154806Y-97245831D01*
X115071123Y-97500012D01*
X84928849Y-97500012D01*
X84845166Y-97245831D01*
X84572599Y-97114934D01*
X84279732Y-97039727D01*
X83977821Y-97023101D01*
X83678467Y-97065695D01*
X83393175Y-97165870D01*
X83243582Y-97245831D01*
X83187650Y-97415721D01*
X83203795Y-97122539D01*
X83161201Y-96823185D01*
X83061026Y-96537893D01*
X82981065Y-96388300D01*
X82726884Y-96304617D01*
X81842409Y-97189092D01*
X81856552Y-97203235D01*
X81676947Y-97382840D01*
X81662804Y-97368697D01*
X81648662Y-97382840D01*
X81469057Y-97203235D01*
X81483199Y-97189092D01*
X80598724Y-96304617D01*
X80344543Y-96388300D01*
X80213646Y-96660867D01*
X80138439Y-96953734D01*
X80121813Y-97255645D01*
X80149637Y-97451195D01*
X80082026Y-97245831D01*
X79809459Y-97114934D01*
X79516592Y-97039727D01*
X79214681Y-97023101D01*
X78915327Y-97065695D01*
X78630035Y-97165870D01*
X78480442Y-97245831D01*
X78396759Y-97500012D01*
X74429958Y-97500012D01*
X74568735Y-97072904D01*
X75031050Y-96125012D01*
X80778329Y-96125012D01*
X81662804Y-97009487D01*
X82547279Y-96125012D01*
X117452693Y-96125012D01*
X118337168Y-97009487D01*
X119221643Y-96125012D01*
X119137960Y-95870831D01*
X118865393Y-95739934D01*
X118572526Y-95664727D01*
X118270615Y-95648101D01*
X117971261Y-95690695D01*
X117685969Y-95790870D01*
X117536376Y-95870831D01*
X117452693Y-96125012D01*
X82547279Y-96125012D01*
X82463596Y-95870831D01*
X82191029Y-95739934D01*
X81898162Y-95664727D01*
X81596251Y-95648101D01*
X81296897Y-95690695D01*
X81011605Y-95790870D01*
X80862012Y-95870831D01*
X80778329Y-96125012D01*
X75031050Y-96125012D01*
X75036669Y-96113493D01*
X75633575Y-95228546D01*
X76347836Y-94435278D01*
X77165539Y-93749144D01*
X78070783Y-93183485D01*
X79045937Y-92749318D01*
X80072032Y-92455090D01*
X81140535Y-92304922D01*
X81674326Y-92286281D01*
X118314124Y-92286281D01*
X119402010Y-92362354D01*
G37*
X119402010Y-92362354D02*
X120446123Y-92584286D01*
X121449193Y-92949374D01*
X122391691Y-93450509D01*
X123255261Y-94077931D01*
X124023116Y-94819440D01*
X124680300Y-95660596D01*
X125214023Y-96585031D01*
X125613890Y-97574739D01*
X125872129Y-98610477D01*
X125983707Y-99672065D01*
X125946454Y-100738861D01*
X125761094Y-101790086D01*
X125431237Y-102805280D01*
X124963303Y-103764688D01*
X124366397Y-104649638D01*
X123652136Y-105442906D01*
X122834434Y-106129040D01*
X121929188Y-106694699D01*
X120954033Y-107128867D01*
X119927940Y-107423094D01*
X118859439Y-107573262D01*
X118325646Y-107591903D01*
X81685848Y-107591903D01*
X80597961Y-107515830D01*
X79553849Y-107293898D01*
X78550779Y-106928810D01*
X77608290Y-106427680D01*
X76744710Y-105800253D01*
X75976856Y-105058744D01*
X75319672Y-104217588D01*
X75051542Y-103753172D01*
X80778329Y-103753172D01*
X80862012Y-104007353D01*
X81134579Y-104138250D01*
X81427446Y-104213457D01*
X81729357Y-104230083D01*
X82028711Y-104187489D01*
X82314003Y-104087314D01*
X82463596Y-104007353D01*
X82547279Y-103753172D01*
X117452693Y-103753172D01*
X117536376Y-104007353D01*
X117808943Y-104138250D01*
X118101810Y-104213457D01*
X118403721Y-104230083D01*
X118703075Y-104187489D01*
X118988367Y-104087314D01*
X119137960Y-104007353D01*
X119221643Y-103753172D01*
X118337168Y-102868697D01*
X117452693Y-103753172D01*
X82547279Y-103753172D01*
X81662804Y-102868697D01*
X80778329Y-103753172D01*
X75051542Y-103753172D01*
X74785951Y-103293155D01*
X74386082Y-102303445D01*
X74156002Y-101380645D01*
X77740243Y-101380645D01*
X77782837Y-101679999D01*
X77883012Y-101965291D01*
X77962973Y-102114884D01*
X78217154Y-102198567D01*
X79101629Y-101314092D01*
X78217154Y-100429617D01*
X77962973Y-100513300D01*
X77832076Y-100785867D01*
X77756869Y-101078734D01*
X77740243Y-101380645D01*
X74156002Y-101380645D01*
X74127843Y-101267706D01*
X74016266Y-100206118D01*
X74053518Y-99139323D01*
X74143211Y-98630645D01*
X77740243Y-98630645D01*
X77782837Y-98929999D01*
X77883012Y-99215291D01*
X77962973Y-99364884D01*
X78217154Y-99448567D01*
X79101629Y-98564092D01*
X78217154Y-97679617D01*
X77962973Y-97763300D01*
X77832076Y-98035867D01*
X77756869Y-98328734D01*
X77740243Y-98630645D01*
X74143211Y-98630645D01*
X74238878Y-98088098D01*
X74429958Y-97500012D01*
X78396759Y-97500012D01*
X79281234Y-98384487D01*
X79295377Y-98370345D01*
X79474982Y-98549950D01*
X79460839Y-98564092D01*
X79474982Y-98578235D01*
X79295377Y-98757840D01*
X79281234Y-98743697D01*
X78396759Y-99628172D01*
X78480442Y-99882353D01*
X78592269Y-99936057D01*
X78480442Y-99995831D01*
X78396759Y-100250012D01*
X79281234Y-101134487D01*
X79295377Y-101120345D01*
X79474982Y-101299950D01*
X79460839Y-101314092D01*
X79474982Y-101328235D01*
X79295377Y-101507840D01*
X79281234Y-101493697D01*
X78396759Y-102378172D01*
X78480442Y-102632353D01*
X78753009Y-102763250D01*
X79045876Y-102838457D01*
X79347787Y-102855083D01*
X79647141Y-102812489D01*
X79932433Y-102712314D01*
X80082026Y-102632353D01*
X80137958Y-102462463D01*
X80121813Y-102755645D01*
X80164407Y-103054999D01*
X80264582Y-103340291D01*
X80344543Y-103489884D01*
X80598724Y-103573567D01*
X81483199Y-102689092D01*
X81469057Y-102674950D01*
X81648662Y-102495345D01*
X81662804Y-102509487D01*
X81676947Y-102495345D01*
X81856552Y-102674950D01*
X81842409Y-102689092D01*
X82726884Y-103573567D01*
X82981065Y-103489884D01*
X83111962Y-103217317D01*
X83187169Y-102924450D01*
X83203795Y-102622539D01*
X83175971Y-102426989D01*
X83243582Y-102632353D01*
X83516149Y-102763250D01*
X83809016Y-102838457D01*
X84110927Y-102855083D01*
X84410281Y-102812489D01*
X84695573Y-102712314D01*
X84845166Y-102632353D01*
X84928849Y-102378172D01*
X84044374Y-101493697D01*
X84030232Y-101507840D01*
X83850627Y-101328235D01*
X83864769Y-101314092D01*
X83850627Y-101299950D01*
X84030232Y-101120345D01*
X84044374Y-101134487D01*
X84058517Y-101120345D01*
X84238122Y-101299950D01*
X84223979Y-101314092D01*
X85108454Y-102198567D01*
X85362635Y-102114884D01*
X85493532Y-101842317D01*
X85568739Y-101549450D01*
X85585365Y-101247539D01*
X85542771Y-100948185D01*
X85499198Y-100824092D01*
X88681830Y-100824092D01*
X88724528Y-100964850D01*
X88806595Y-101118386D01*
X88917038Y-101252962D01*
X89051614Y-101363405D01*
X89205150Y-101445472D01*
X89371746Y-101496008D01*
X89545000Y-101513072D01*
X90470000Y-101513072D01*
X90643254Y-101496008D01*
X90809850Y-101445472D01*
X90963386Y-101363405D01*
X91097962Y-101252962D01*
X91208405Y-101118386D01*
X91290472Y-100964850D01*
X91341008Y-100798254D01*
X91358072Y-100625000D01*
X91358072Y-99940000D01*
X91630719Y-99940000D01*
X91631928Y-99952276D01*
X91631928Y-100625000D01*
X91648992Y-100798254D01*
X91699528Y-100964850D01*
X91781595Y-101118386D01*
X91892038Y-101252962D01*
X92026614Y-101363405D01*
X92180150Y-101445472D01*
X92346746Y-101496008D01*
X92520000Y-101513072D01*
X93445000Y-101513072D01*
X93618254Y-101496008D01*
X93784850Y-101445472D01*
X93938386Y-101363405D01*
X94072962Y-101252962D01*
X94183405Y-101118386D01*
X94265472Y-100964850D01*
X94289694Y-100885000D01*
X97205306Y-100885000D01*
X97229528Y-100964850D01*
X97311595Y-101118386D01*
X97422038Y-101252962D01*
X97556614Y-101363405D01*
X97710150Y-101445472D01*
X97876746Y-101496008D01*
X98050000Y-101513072D01*
X98975000Y-101513072D01*
X99148254Y-101496008D01*
X99314850Y-101445472D01*
X99468386Y-101363405D01*
X99602962Y-101252962D01*
X99713405Y-101118386D01*
X99795472Y-100964850D01*
X99822727Y-100875000D01*
X100136928Y-100875000D01*
X100149188Y-100999482D01*
X100185498Y-101119180D01*
X100244463Y-101229494D01*
X100323815Y-101326185D01*
X100420506Y-101405537D01*
X100530820Y-101464502D01*
X100650518Y-101500812D01*
X100775000Y-101513072D01*
X101201750Y-101510000D01*
X101360500Y-101351250D01*
X101360500Y-100127000D01*
X101614500Y-100127000D01*
X101614500Y-101351250D01*
X101773250Y-101510000D01*
X102200000Y-101513072D01*
X102324482Y-101500812D01*
X102444180Y-101464502D01*
X102554494Y-101405537D01*
X102584825Y-101380645D01*
X114414607Y-101380645D01*
X114457201Y-101679999D01*
X114557376Y-101965291D01*
X114637337Y-102114884D01*
X114891518Y-102198567D01*
X115775993Y-101314092D01*
X114891518Y-100429617D01*
X114637337Y-100513300D01*
X114506440Y-100785867D01*
X114431233Y-101078734D01*
X114414607Y-101380645D01*
X102584825Y-101380645D01*
X102651185Y-101326185D01*
X102730537Y-101229494D01*
X102789502Y-101119180D01*
X102825812Y-100999482D01*
X102838072Y-100875000D01*
X102835000Y-100285750D01*
X102676250Y-100127000D01*
X101614500Y-100127000D01*
X101360500Y-100127000D01*
X100298750Y-100127000D01*
X100140000Y-100285750D01*
X100136928Y-100875000D01*
X99822727Y-100875000D01*
X99846008Y-100798254D01*
X99863072Y-100625000D01*
X99863072Y-99375000D01*
X99846008Y-99201746D01*
X99822728Y-99125000D01*
X100136928Y-99125000D01*
X100140000Y-99714250D01*
X100298750Y-99873000D01*
X101360500Y-99873000D01*
X101360500Y-98648750D01*
X101614500Y-98648750D01*
X101614500Y-99873000D01*
X102676250Y-99873000D01*
X102835000Y-99714250D01*
X102838072Y-99125000D01*
X102825812Y-99000518D01*
X102789502Y-98880820D01*
X102730537Y-98770506D01*
X102651185Y-98673815D01*
X102598583Y-98630645D01*
X114414607Y-98630645D01*
X114457201Y-98929999D01*
X114557376Y-99215291D01*
X114637337Y-99364884D01*
X114891518Y-99448567D01*
X115775993Y-98564092D01*
X114891518Y-97679617D01*
X114637337Y-97763300D01*
X114506440Y-98035867D01*
X114431233Y-98328734D01*
X114414607Y-98630645D01*
X102598583Y-98630645D01*
X102554494Y-98594463D01*
X102444180Y-98535498D01*
X102324482Y-98499188D01*
X102200000Y-98486928D01*
X101773250Y-98490000D01*
X101614500Y-98648750D01*
X101360500Y-98648750D01*
X101201750Y-98490000D01*
X100775000Y-98486928D01*
X100650518Y-98499188D01*
X100530820Y-98535498D01*
X100420506Y-98594463D01*
X100323815Y-98673815D01*
X100244463Y-98770506D01*
X100185498Y-98880820D01*
X100149188Y-99000518D01*
X100136928Y-99125000D01*
X99822728Y-99125000D01*
X99795472Y-99035150D01*
X99713405Y-98881614D01*
X99602962Y-98747038D01*
X99468386Y-98636595D01*
X99314850Y-98554528D01*
X99148254Y-98503992D01*
X98975000Y-98486928D01*
X98050000Y-98486928D01*
X97876746Y-98503992D01*
X97710150Y-98554528D01*
X97556614Y-98636595D01*
X97422038Y-98747038D01*
X97311595Y-98881614D01*
X97229528Y-99035150D01*
X97205306Y-99115000D01*
X94289694Y-99115000D01*
X94265472Y-99035150D01*
X94183405Y-98881614D01*
X94072962Y-98747038D01*
X93938386Y-98636595D01*
X93784850Y-98554528D01*
X93618254Y-98503992D01*
X93445000Y-98486928D01*
X92520000Y-98486928D01*
X92346746Y-98503992D01*
X92180150Y-98554528D01*
X92026614Y-98636595D01*
X91892038Y-98747038D01*
X91781595Y-98881614D01*
X91699528Y-99035150D01*
X91648992Y-99201746D01*
X91631928Y-99375000D01*
X91631928Y-99927724D01*
X91630719Y-99940000D01*
X91358072Y-99940000D01*
X91358072Y-99375000D01*
X91341008Y-99201746D01*
X91290472Y-99035150D01*
X91208405Y-98881614D01*
X91097962Y-98747038D01*
X90963386Y-98636595D01*
X90809850Y-98554528D01*
X90643254Y-98503992D01*
X90470000Y-98486928D01*
X89545000Y-98486928D01*
X89371746Y-98503992D01*
X89205150Y-98554528D01*
X89051614Y-98636595D01*
X88917038Y-98747038D01*
X88806595Y-98881614D01*
X88724528Y-99035150D01*
X88718782Y-99054092D01*
X85503348Y-99054092D01*
X85568739Y-98799450D01*
X85585365Y-98497539D01*
X85542771Y-98198185D01*
X85442596Y-97912893D01*
X85362635Y-97763300D01*
X85108454Y-97679617D01*
X84223979Y-98564092D01*
X84238122Y-98578235D01*
X84058517Y-98757840D01*
X84044374Y-98743697D01*
X84030232Y-98757840D01*
X83850627Y-98578235D01*
X83864769Y-98564092D01*
X83850627Y-98549950D01*
X84030232Y-98370345D01*
X84044374Y-98384487D01*
X84928849Y-97500012D01*
X115071123Y-97500012D01*
X115955598Y-98384487D01*
X115969741Y-98370345D01*
X116149346Y-98549950D01*
X116135203Y-98564092D01*
X116149346Y-98578235D01*
X115969741Y-98757840D01*
X115955598Y-98743697D01*
X115071123Y-99628172D01*
X115154806Y-99882353D01*
X115266633Y-99936057D01*
X115154806Y-99995831D01*
X115071123Y-100250012D01*
X115955598Y-101134487D01*
X115969741Y-101120345D01*
X116149346Y-101299950D01*
X116135203Y-101314092D01*
X116149346Y-101328235D01*
X115969741Y-101507840D01*
X115955598Y-101493697D01*
X115071123Y-102378172D01*
X115154806Y-102632353D01*
X115427373Y-102763250D01*
X115720240Y-102838457D01*
X116022151Y-102855083D01*
X116321505Y-102812489D01*
X116606797Y-102712314D01*
X116756390Y-102632353D01*
X116812322Y-102462463D01*
X116796177Y-102755645D01*
X116838771Y-103054999D01*
X116938946Y-103340291D01*
X117018907Y-103489884D01*
X117273088Y-103573567D01*
X118157563Y-102689092D01*
X118143421Y-102674950D01*
X118323026Y-102495345D01*
X118337168Y-102509487D01*
X118351311Y-102495345D01*
X118530916Y-102674950D01*
X118516773Y-102689092D01*
X119401248Y-103573567D01*
X119655429Y-103489884D01*
X119786326Y-103217317D01*
X119861533Y-102924450D01*
X119878159Y-102622539D01*
X119850335Y-102426989D01*
X119917946Y-102632353D01*
X120190513Y-102763250D01*
X120483380Y-102838457D01*
X120785291Y-102855083D01*
X121084645Y-102812489D01*
X121369937Y-102712314D01*
X121519530Y-102632353D01*
X121603213Y-102378172D01*
X120718738Y-101493697D01*
X120704596Y-101507840D01*
X120524991Y-101328235D01*
X120539133Y-101314092D01*
X120898343Y-101314092D01*
X121782818Y-102198567D01*
X122036999Y-102114884D01*
X122167896Y-101842317D01*
X122243103Y-101549450D01*
X122259729Y-101247539D01*
X122217135Y-100948185D01*
X122116960Y-100662893D01*
X122036999Y-100513300D01*
X121782818Y-100429617D01*
X120898343Y-101314092D01*
X120539133Y-101314092D01*
X120524991Y-101299950D01*
X120704596Y-101120345D01*
X120718738Y-101134487D01*
X121603213Y-100250012D01*
X121519530Y-99995831D01*
X121407703Y-99942127D01*
X121519530Y-99882353D01*
X121603213Y-99628172D01*
X120718738Y-98743697D01*
X120704596Y-98757840D01*
X120524991Y-98578235D01*
X120539133Y-98564092D01*
X120898343Y-98564092D01*
X121782818Y-99448567D01*
X122036999Y-99364884D01*
X122167896Y-99092317D01*
X122243103Y-98799450D01*
X122259729Y-98497539D01*
X122217135Y-98198185D01*
X122116960Y-97912893D01*
X122036999Y-97763300D01*
X121782818Y-97679617D01*
X120898343Y-98564092D01*
X120539133Y-98564092D01*
X120524991Y-98549950D01*
X120704596Y-98370345D01*
X120718738Y-98384487D01*
X121603213Y-97500012D01*
X121519530Y-97245831D01*
X121246963Y-97114934D01*
X120954096Y-97039727D01*
X120652185Y-97023101D01*
X120352831Y-97065695D01*
X120067539Y-97165870D01*
X119917946Y-97245831D01*
X119862014Y-97415721D01*
X119878159Y-97122539D01*
X119835565Y-96823185D01*
X119735390Y-96537893D01*
X119655429Y-96388300D01*
X119401248Y-96304617D01*
X118516773Y-97189092D01*
X118530916Y-97203235D01*
X118351311Y-97382840D01*
X118337168Y-97368697D01*
X118323026Y-97382840D01*
X118143421Y-97203235D01*
X118157563Y-97189092D01*
X117273088Y-96304617D01*
X117018907Y-96388300D01*
X116888010Y-96660867D01*
X116812803Y-96953734D01*
X116796177Y-97255645D01*
X116824001Y-97451195D01*
X116756390Y-97245831D01*
X116483823Y-97114934D01*
X116190956Y-97039727D01*
X115889045Y-97023101D01*
X115589691Y-97065695D01*
X115304399Y-97165870D01*
X115154806Y-97245831D01*
X115071123Y-97500012D01*
X84928849Y-97500012D01*
X84845166Y-97245831D01*
X84572599Y-97114934D01*
X84279732Y-97039727D01*
X83977821Y-97023101D01*
X83678467Y-97065695D01*
X83393175Y-97165870D01*
X83243582Y-97245831D01*
X83187650Y-97415721D01*
X83203795Y-97122539D01*
X83161201Y-96823185D01*
X83061026Y-96537893D01*
X82981065Y-96388300D01*
X82726884Y-96304617D01*
X81842409Y-97189092D01*
X81856552Y-97203235D01*
X81676947Y-97382840D01*
X81662804Y-97368697D01*
X81648662Y-97382840D01*
X81469057Y-97203235D01*
X81483199Y-97189092D01*
X80598724Y-96304617D01*
X80344543Y-96388300D01*
X80213646Y-96660867D01*
X80138439Y-96953734D01*
X80121813Y-97255645D01*
X80149637Y-97451195D01*
X80082026Y-97245831D01*
X79809459Y-97114934D01*
X79516592Y-97039727D01*
X79214681Y-97023101D01*
X78915327Y-97065695D01*
X78630035Y-97165870D01*
X78480442Y-97245831D01*
X78396759Y-97500012D01*
X74429958Y-97500012D01*
X74568735Y-97072904D01*
X75031050Y-96125012D01*
X80778329Y-96125012D01*
X81662804Y-97009487D01*
X82547279Y-96125012D01*
X117452693Y-96125012D01*
X118337168Y-97009487D01*
X119221643Y-96125012D01*
X119137960Y-95870831D01*
X118865393Y-95739934D01*
X118572526Y-95664727D01*
X118270615Y-95648101D01*
X117971261Y-95690695D01*
X117685969Y-95790870D01*
X117536376Y-95870831D01*
X117452693Y-96125012D01*
X82547279Y-96125012D01*
X82463596Y-95870831D01*
X82191029Y-95739934D01*
X81898162Y-95664727D01*
X81596251Y-95648101D01*
X81296897Y-95690695D01*
X81011605Y-95790870D01*
X80862012Y-95870831D01*
X80778329Y-96125012D01*
X75031050Y-96125012D01*
X75036669Y-96113493D01*
X75633575Y-95228546D01*
X76347836Y-94435278D01*
X77165539Y-93749144D01*
X78070783Y-93183485D01*
X79045937Y-92749318D01*
X80072032Y-92455090D01*
X81140535Y-92304922D01*
X81674326Y-92286281D01*
X118314124Y-92286281D01*
X119402010Y-92362354D01*
M02*
